<?xml version="1.0" encoding="UTF-8" standalone="no"?>
<!DOCTYPE svg PUBLIC "-//W3C//DTD SVG 1.1//EN" "http://www.w3.org/Graphics/SVG/1.1/DTD/svg11.dtd">
<svg width="100%" height="100%" viewBox="0 0 215 548" version="1.1" xmlns="http://www.w3.org/2000/svg" xmlnsXlink="http://www.w3.org/1999/xlink" xmlSpace="preserve" xmlnsSerif="http://www.serif.com/" style="fill-rule:evenodd;clip-rule:evenodd;stroke-linejoin:round;stroke-miterlimit:2;">
    <g transform="matrix(2,0,0,2,-4468.58,-1004.17)">
        <g transform="matrix(1.67611,0,0,1,475.171,-2016.04)">
            <g transform="matrix(0.644497,0,0,0.644497,383.196,960.947)">
                <g transform="matrix(1.71539,0,0,2.87518,748.867,2604.2)">
                    <path d="M180.792,73.103C181.316,73.103 181.74,73.395 181.74,73.754C181.74,74.113 181.316,74.404 180.792,74.404C180.268,74.404 179.843,74.113 179.843,73.754C179.843,73.395 180.268,73.103 180.792,73.103Z" style="fill:rgb(155,143,122);fill-rule:nonzero;"/>
                </g>
                <g transform="matrix(1.71539,0,0,2.87518,748.867,2604.2)">
                    <path d="M187.461,68.53C187.461,68.171 187.886,67.879 188.41,67.879C188.934,67.879 189.359,68.171 189.359,68.53C189.359,68.889 188.934,69.18 188.41,69.18C187.886,69.18 187.461,68.889 187.461,68.53Z" style="fill:rgb(155,143,122);fill-rule:nonzero;"/>
                </g>
                <g transform="matrix(1.71539,0,0,2.87518,748.867,2604.2)">
                    <path d="M172.225,68.53C172.225,68.171 172.649,67.879 173.173,67.879C173.697,67.879 174.122,68.171 174.122,68.53C174.122,68.889 173.697,69.18 173.173,69.18C172.649,69.18 172.225,68.889 172.225,68.53Z" style="fill:rgb(155,143,122);fill-rule:nonzero;"/>
                </g>
                <g transform="matrix(1.71539,0,0,2.87518,748.867,2604.2)">
                    <path d="M174.122,68.53L172.225,68.53L174.248,47.546L176.717,47.546L174.122,68.53Z" style="fill:rgb(155,143,122);fill-rule:nonzero;"/>
                </g>
                <g transform="matrix(1.71539,0,0,2.87518,748.867,2604.2)">
                    <path d="M187.461,68.53L189.359,68.53L187.335,47.546L184.867,47.546L187.461,68.53Z" style="fill:rgb(155,143,122);fill-rule:nonzero;"/>
                </g>
                <g transform="matrix(1.71539,0,0,2.87518,748.867,2604.2)">
                    <path d="M181.718,73.754L179.866,73.754L179.557,51.186L182.026,51.186L181.718,73.754Z" style="fill:rgb(155,143,122);fill-rule:nonzero;"/>
                </g>
                <g transform="matrix(1.71539,0,0,2.87518,748.867,2604.2)">
                    <path d="M187.264,45.099C190.839,47.163 190.839,50.509 187.264,52.572C183.689,54.636 177.894,54.636 174.32,52.572C170.745,50.509 170.745,47.163 174.32,45.099C177.894,43.035 183.689,43.035 187.264,45.099Z" style="fill:rgb(117,106,89);fill-rule:nonzero;"/>
                </g>
                <g transform="matrix(1.71539,0,0,2.87518,748.867,2604.2)">
                    <path d="M187.264,43.557C190.839,45.621 190.839,48.967 187.264,51.031C183.689,53.095 177.894,53.095 174.32,51.031C170.745,48.967 170.745,45.621 174.32,43.557C177.894,41.493 183.689,41.493 187.264,43.557Z" style="fill:rgb(155,143,122);fill-rule:nonzero;"/>
                </g>
            </g>
        </g>
        <g transform="matrix(1.67611,0,0,1,475.171,-2016.04)">
            <g id="Carnyx-player" serifId="Carnyx player" transform="matrix(1,0,0,1,-5.99542,-23.5937)">
                <g transform="matrix(0.31783,0,0,0.532718,946.565,2415.17)">
                    <path d="M476.844,700.153C476.844,700.153 468.422,693.781 478.2,701.798C484.032,706.587 484.873,708.31 499.854,711.623C501.968,712.086 504.363,712.897 504.496,714.179C504.577,714.947 504.939,717.066 504.128,717.497C502.052,718.62 492.877,720.508 489.827,720.739C478.748,721.602 471.237,717.864 471.237,717.864C462.997,714.543 455.268,712.414 455.268,712.414C455.268,712.414 453.367,707.733 454.165,705.35C454.911,703.121 465.877,691.923 465.877,691.923L476.844,700.153Z" style="fill:rgb(31,37,39);fill-rule:nonzero;"/>
                </g>
                <g transform="matrix(0.31783,0,0,0.532718,946.565,2415.17)">
                    <path d="M504.537,714.381C504.414,717.137 499.372,719.658 491.385,719.428C476.097,719.004 460.005,713.825 458.622,713.251C455.671,712.031 454.541,710.286 454.541,710.286C454.541,710.286 455.424,714.769 455.47,714.662C455.47,714.662 455.973,716.216 458.447,716.794C462.529,717.748 466.422,718.568 471.428,719.328C471.428,719.328 487.019,722.231 495.844,721.306C498.884,720.992 502.715,719.765 504.252,717.904C504.82,717.222 504.551,714.097 504.537,714.381Z" style="fill:rgb(3,4,4);fill-rule:nonzero;"/>
                </g>
                <g transform="matrix(0.31783,0,0,0.532718,946.565,2415.17)">
                    <path d="M442.621,723.931C442.621,723.931 439.258,726.964 449.391,734.268C452.406,736.444 456.037,738.969 463.47,742.733C465.402,743.716 468.204,745.675 468.065,747.08C467.974,747.975 467.46,749.459 466.594,749.879C465.965,750.186 460.296,750.519 457.207,750.629C448.036,750.961 440.091,747.131 440.091,747.131C438.755,746.09 417.996,732.775 417.996,732.775C417.996,732.775 417.991,729.45 418.191,728.367C418.762,725.297 420.845,720.139 420.845,720.139L442.621,723.931Z" style="fill:rgb(31,37,39);fill-rule:nonzero;"/>
                </g>
                <g transform="matrix(0.31783,0,0,0.532718,946.565,2415.17)">
                    <path d="M468.037,747.005C467.207,748.978 460.688,748.93 457.598,749.131C442.237,750.113 423.005,735.316 421.848,734.362C418.99,731.994 417.996,729.926 417.996,729.926C417.996,729.926 417.711,733.029 417.854,733.003C417.854,733.003 417.58,736.066 419.233,737.292C420.56,738.277 434.142,745.928 438.638,747.807C438.638,747.807 448.198,752.579 458.385,751.571C461.465,751.258 466.203,751.168 467.282,750.256C468.007,749.64 468.154,746.72 468.037,747.005Z" style="fill:rgb(3,4,4);fill-rule:nonzero;"/>
                </g>
                <g transform="matrix(0.31783,0,0,0.532718,946.565,2415.17)">
                    <path d="M403.623,633.105C403.623,633.105 443.599,636.733 456.819,638.727C465.183,639.989 462.027,651.51 462.027,651.51L452.413,704.54C452.413,704.54 453.385,707.626 462.652,708.002C471.911,708.381 480.645,704.361 480.645,704.361L491.375,645.829C491.375,645.829 493.5,636.965 492.794,632.099C491.027,619.864 475.277,616.954 475.277,616.954L423.496,604.067L409.643,589.974L399.021,607.697L403.623,633.105Z" style="fill:rgb(52,0,0);fill-rule:nonzero;"/>
                </g>
                <g transform="matrix(0.31783,0,0,0.532718,946.565,2415.17)">
                    <path d="M365.703,597.309C365.703,597.309 349.599,616.282 367.729,635.266C371.941,639.671 403.173,656.114 415.006,663.024C420.431,666.194 421.317,667.287 420.845,677.228C419.541,704.685 418.32,727.877 418.32,727.877C418.32,727.877 421.007,736.014 431.734,735.29C439.332,734.777 442.18,734.476 444.04,731.501C444.841,730.222 448.293,671.863 448.293,671.863C448.293,671.863 450.396,655.994 441.004,648.704C427.307,638.075 395.999,614.747 395.999,614.747L393.729,588.964L365.703,597.309Z" style="fill:rgb(52,0,0);fill-rule:nonzero;"/>
                </g>
                <g transform="matrix(-0.0467782,-0.526917,0.314368,-0.0784055,926.565,2950.28)">
                    <path d="M470.31,560.151C467.471,557.075 441.044,560.466 441.044,560.466C441.044,560.466 432.297,525.426 430.637,518.798C426.705,503.076 420.197,504.59 417.173,504.173C415.277,503.913 409.666,505.636 409.666,505.636L413.449,540.279C413.449,540.279 418.768,562.825 424.472,576.246C428.088,584.741 436.795,582.787 438.361,582.716C439.137,582.68 454.774,579.51 463.924,575.931C477.075,570.77 469.852,559.411 470.31,560.151Z" style="fill:rgb(102,1,0);fill-rule:nonzero;"/>
                </g>
                <g transform="matrix(0.31783,0,0,0.532718,946.565,2415.17)">
                    <path d="M345.202,523.701C349.468,514.074 378.216,498.144 378.216,498.144C378.216,498.144 395.651,497.985 401.489,503.033C410.159,510.538 414.047,518.503 412.849,534.274C412.142,543.437 420.531,594.392 420.531,594.392C420.689,601.018 436.321,605.625 435.523,606.539C435.523,606.539 439.254,614.537 429.364,618.849C428.339,619.296 425.068,617.61 424.16,616.954C415.167,610.482 409.643,596.599 409.643,596.599L415.638,621.45C418.242,627.605 410.379,628.65 409.961,628.786C376.352,639.675 360.493,626.181 360.493,626.181C357.892,619.793 356.532,591.838 356.236,591.154C335.146,542.351 345.202,523.701 345.202,523.701Z" style="fill:rgb(134,54,27);fill-rule:nonzero;"/>
                </g>
                <g transform="matrix(0.250158,-0.328606,0.196053,0.419293,868.598,2604.9)">
                    <path d="M406.41,509.408C406.615,509.24 409.889,515.928 405.243,518.107C401.307,519.954 395.334,517.121 392.443,511.871C391.029,509.295 389.187,506.109 389.913,503.173C389.994,502.865 390.82,498.765 390.861,498.573L391.155,487.084L407.16,492.431L406.41,509.408Z" style="fill:rgb(222,165,124);fill-rule:nonzero;"/>
                </g>
                <g transform="matrix(0.31783,0,0,0.532718,941.033,2415.17)">
                    <path d="M387.07,514.756C387.07,514.756 388.509,509.587 390.321,511.55C392.221,513.594 402.611,519.694 404.896,518.993C409.463,517.579 411.871,511.903 411.871,511.903C411.871,511.903 414.726,531.344 414.719,532.483C414.717,533.622 411.225,553.997 411.225,553.997L398.711,530.202L387.07,514.756Z" style="fill:rgb(236,237,238);fill-rule:nonzero;"/>
                </g>
                <g transform="matrix(0.31783,0,0,0.498551,941.23,2433.76)">
                    <path d="M406.526,507.323L406.657,503.494C406.657,503.494 409.794,506.438 410.08,506.68C411.055,507.517 414.039,512.362 414.039,512.362L419.527,524.478C420.091,526.192 419.661,527.328 418.657,528.399L415.722,532.022L418.701,535.166C420.42,536.506 420.046,538.666 419.261,540.094L410.82,555.934C410.82,555.934 412.032,544.332 412.565,537.642C414.201,517.128 406.526,507.323 406.526,507.323Z" style="fill:rgb(76,0,0);fill-rule:nonzero;"/>
                </g>
                <g transform="matrix(0.31783,0,0,0.532718,941.033,2415.17)">
                    <path d="M404.606,517.498C403.643,518.352 404.72,520.048 405.256,520.81L409.186,526.851C410.242,528.277 410.753,526.685 410.791,525.202L410.308,515.917C409.724,509.169 406.577,506.144 406.577,506.144C406.577,506.144 406.365,508.494 406.361,508.702C406.31,509.931 406.899,515.473 404.606,517.498Z" style="fill:white;fill-rule:nonzero;"/>
                </g>
                <g transform="matrix(0.31783,0,0,0.532718,941.033,2415.17)">
                    <path d="M390.803,498.92C390.803,498.92 389.958,502.404 391.854,505.6C395.646,511.994 403.583,517.654 403.583,517.654C404.715,518.116 404.658,518.704 404.461,520.732L403.273,528.146C403.072,530.095 402.111,529.887 401.387,529.07C401.387,529.07 394.018,522.24 391.951,519.954C387.099,514.561 385.391,509.668 387.475,502.999C388.569,499.5 390.803,498.92 390.803,498.92Z" style="fill:white;fill-rule:nonzero;"/>
                </g>
                <g transform="matrix(0.31783,0,0,0.532718,941.033,2415.17)">
                    <path d="M390.832,498.829C390.832,498.829 387.713,500.454 387.298,501.132C383.697,507.008 385.564,513.974 385.564,513.974L389.433,528.116C390.067,530.472 390.925,531.26 392.704,531.412L398.981,532.22L396.606,536.983C395.532,539.05 395.89,539.575 396.804,540.759L410.988,554.515C410.988,554.515 407.603,544.873 400.409,530.01C393.388,515.49 390.647,508.682 390.237,506.752C388.994,500.928 390.832,498.829 390.832,498.829Z" style="fill:rgb(101,0,0);fill-rule:nonzero;"/>
                </g>
                <g transform="matrix(0.250158,-0.328606,0.196053,0.419293,868.598,2604.9)">
                    <path d="M414.872,473.708L400.334,472.225L397.856,495.189C397.868,497.009 396.493,503.047 396.623,504.604C396.771,506.304 398.056,508.819 400.489,510.924C400.489,510.924 406.841,516.797 409.489,517.907C411.217,518.633 415.758,517.787 415.758,517.787C418.146,516.647 418.762,515.606 420.994,510.041C420.994,510.041 425.753,498.397 428.314,490.17C430.46,483.262 429.588,477.938 429.588,477.938L414.872,473.708Z" style="fill:rgb(230,183,139);fill-rule:nonzero;"/>
                </g>
                <g transform="matrix(0.596618,0,0,1,-140.44,0)">
                    <path d="M2035.05,2681.22C2034.26,2681.26 2034.77,2682.61 2034.77,2682.61C2034.77,2682.61 2043.13,2682.23 2044.79,2676.86L2042.8,2676.23C2042.8,2676.23 2041.28,2680.86 2035.05,2681.22Z" style="fill:rgb(237,188,0);"/>
                </g>
                <g transform="matrix(0.250158,-0.328606,0.196053,0.419293,868.598,2604.9)">
                    <path d="M427.356,481.572C423.33,482.763 417.532,482.763 415.046,481.458C414.901,481.381 418.813,479.683 418.123,479.09C416.468,477.673 408.679,475.342 406.735,484.602C406.108,487.581 404.967,493.206 404.941,493.716C404.929,493.979 402.138,492.979 402.125,492.11C402.111,491.558 401.826,492.71 401.313,490.527C401.313,490.527 400.943,487.668 398.565,487.753C395.727,487.86 395.944,494.478 395.812,494.825C394.189,499.033 390.88,498.456 390.88,498.456C390.88,498.456 390.413,487.217 390.231,482.919C389.92,475.57 392.147,468.639 397.05,465.574C401.132,463.014 405.227,462.288 411.381,463.115C415.139,463.625 429.838,467.375 431.973,478.74C432.239,480.17 428.179,481.335 427.356,481.572Z" style="fill:rgb(19,19,21);fill-rule:nonzero;"/>
                </g>
                <g transform="matrix(0.250158,-0.328606,0.196053,0.419293,868.598,2604.9)">
                    <path d="M399.126,485.128C402.857,485.484 402.65,496.093 402.65,496.093L402.227,496.574C402.227,496.574 401.814,498.89 400.365,498.878C398.666,498.871 396.497,497.587 395.758,495.423C395.714,495.299 395.22,492.168 395.17,491.994C394.396,489.297 395.558,484.791 399.126,485.128Z" style="fill:rgb(230,183,139);fill-rule:nonzero;"/>
                </g>
                <g transform="matrix(-0.0467782,-0.526917,0.314368,-0.0784055,927.004,2950.28)">
                    <path d="M459.161,556.264C459.161,556.264 461.56,553.585 463.151,553.876C464.756,554.159 468.007,555.175 470.153,561.601C470.899,563.905 470.469,566.762 470.341,567.549C470.146,568.7 469.192,571.487 467.564,572.159C466.374,572.648 464.988,572.794 462.723,571.672C457.918,569.29 456.451,562.974 457.026,561.286C457.598,559.584 459.161,556.264 459.161,556.264Z" style="fill:rgb(201,221,223);fill-rule:nonzero;"/>
                </g>
                <g transform="matrix(-0.0467782,-0.526917,0.314368,-0.0784055,927.004,2950.28)">
                    <path d="M460.82,554.743C460.82,554.743 456.656,558.374 459.356,565.573C460.773,569.405 462.114,570.614 464.189,571.655C465.758,572.438 467.642,572.123 467.642,572.123L463.426,574.495C463.426,574.495 458.863,575.455 456.222,570.261C451.66,561.29 457.416,556.998 457.416,556.998L460.82,554.743Z" style="fill:rgb(245,246,247);fill-rule:nonzero;"/>
                </g>
                <g transform="matrix(-0.163872,-0.45645,0.272326,-0.274668,1008.62,3006.9)">
                    <path d="M418.977,508.047C418.977,508.047 421.962,511.163 428.417,518.11C429.364,518.928 430.369,519.61 431.114,520.339C432.382,521.582 433.686,523.98 434.99,525.283C454.435,546.184 560.266,664.34 561.56,665.663C564.247,668.393 556.443,669.946 556.443,669.946L431.33,528.087C430.338,527 428.424,525.603 427.321,524.388C426.198,523.155 425.53,521.576 424.245,520.037L415.796,510.609C415.796,510.609 414.86,509.085 416.252,507.926C417.534,506.862 418.977,508.047 418.977,508.047Z" style="fill:rgb(237,188,0);fill-rule:nonzero;"/>
                </g>
                <g transform="matrix(0.596618,0,0,1,-140.44,0)">
                    <path d="M2078.92,2568.89C2078.92,2568.89 2081.65,2560.86 2090.2,2562.39L2092.47,2557.61C2092.47,2557.61 2080.09,2554.08 2075.71,2567.35" style="fill:rgb(237,188,0);"/>
                </g>
                <g transform="matrix(0.596618,0,0,1,-140.44,0)">
                    <path d="M2090.2,2562.39C2090.2,2562.39 2087.96,2565.92 2092.47,2567.32L2098.72,2569.47C2098.72,2569.47 2105.68,2570.56 2109.24,2569.51L2111.64,2563.83C2111.64,2563.83 2110.45,2560.24 2104.25,2556.81C2104.22,2556.8 2096.78,2554.5 2096.78,2554.5C2094.81,2554.01 2093.27,2555.46 2092.47,2557.62C2092.47,2557.62 2089.47,2560.98 2090.2,2562.39Z" style="fill:rgb(237,188,0);"/>
                </g>
                <g transform="matrix(0.596618,0,0,1,-140.44,0)">
                    <path d="M2092.47,2557.62C2092.48,2557.63 2092.49,2557.61 2092.47,2557.62L2093.39,2541.71C2093.39,2541.71 2074.86,2541.63 2069.47,2558.54C2064.08,2575.45 2061.92,2580.77 2061.92,2580.77L2060.42,2606.07L2062.3,2606.87C2062.3,2606.87 2071.57,2577.15 2074.71,2567.09C2075.8,2563.59 2078.1,2560.6 2081.2,2558.65C2085.49,2555.93 2090.19,2555.34 2092.47,2557.62Z" style="fill:rgb(220,125,0);"/>
                </g>
                <g transform="matrix(0.191214,-0.425524,0.253875,0.320497,854.585,2685.14)">
                    <path d="M441.946,559.85C440.065,559.924 437.706,559.778 437.706,559.778L434.257,551.674C434.257,551.674 448.469,539.543 451.342,539.769C454.079,539.981 459.376,544.734 462.637,548.004C462.637,548.004 465.393,551.657 461.686,553.487C460.894,553.876 459.619,550.91 452.216,555.554C448.838,557.673 444.03,559.768 441.946,559.85Z" style="fill:rgb(222,165,124);fill-rule:nonzero;"/>
                </g>
                <g transform="matrix(-0.0467782,-0.526917,0.314368,-0.0784055,926.565,2950.28)">
                    <path d="M475.635,562.341C475.635,562.341 473.571,556.359 472.678,554.945C471.775,553.52 471.16,551.835 469.128,551.395C467.084,550.963 466.507,551.92 465.695,552.462C463.924,553.644 462.273,555.462 462.027,556.482C461.612,558.202 462.854,559.087 462.854,559.087C462.854,559.087 468.266,564.615 470.666,565.3C472.055,565.7 475.935,564.674 475.635,562.341Z" style="fill:rgb(222,165,124);fill-rule:nonzero;"/>
                </g>
                <g transform="matrix(0.191214,-0.425524,0.253875,0.320497,854.585,2685.14)">
                    <path d="M429.838,550.684L401.203,563.704C401.203,563.704 396.467,564.492 393.864,560.466C388.584,552.31 376.192,529.066 376.192,529.066C376.192,529.066 368.384,517.631 362.938,522.131C357.495,526.621 355.29,533.641 359.545,546.187C363.809,558.734 376.228,572.496 383.45,581.453C389.369,588.786 395.844,587.664 400.256,586.425C417.059,581.687 438.125,568.437 438.125,568.437C438.125,568.437 442.147,564.411 438.833,557.306C435.523,550.211 429.838,550.684 429.838,550.684Z" style="fill:rgb(94,0,0);fill-rule:nonzero;"/>
                </g>
            </g>
        </g>
    </g>
</svg>
