<?xml version="1.0" encoding="UTF-8" standalone="no"?>
<!DOCTYPE svg PUBLIC "-//W3C//DTD SVG 1.1//EN" "http://www.w3.org/Graphics/SVG/1.1/DTD/svg11.dtd">
<svg width="100%" height="100%" viewBox="0 0 58 139" version="1.1" xmlns="http://www.w3.org/2000/svg" xmlnsXlink="http://www.w3.org/1999/xlink" xml:space="preserve" xmlnsSerif="http://www.serif.com/" style="fill-rule:evenodd;clip-rule:evenodd;stroke-linejoin:round;stroke-miterlimit:2;">
    <g transform="matrix(1,0,0,1,-11663.1,-8325.95)">
        <g transform="matrix(1.54943,0,0,0.92442,9188.62,7940.6)">
            <g transform="matrix(0.0334029,0.0323242,0,0.210051,1476.9,104.012)">
                <path d="M4701.78,935.97L3596.24,935.97L3596.24,1478.49L4701.95,1478.49L4701.78,935.97Z" style="fill:rgb(25,27,27);"/>
            </g>
            <g transform="matrix(0.533085,0.515868,1.3668e-16,0.71078,659.667,-686.168)">
                <g transform="matrix(0.596618,0,0,1,557.157,-2253.09)">
                    <path d="M2035.05,2681.22C2034.26,2681.26 2034.77,2682.61 2034.77,2682.61C2034.77,2682.61 2043.13,2682.23 2044.79,2676.86L2042.8,2676.23C2042.8,2676.23 2041.28,2680.86 2035.05,2681.22Z" style="fill:rgb(237,188,0);"/>
                </g>
                <g transform="matrix(-0.163872,-0.45645,0.272326,-0.274668,1706.22,753.803)">
                    <path d="M418.977,508.047C418.977,508.047 421.962,511.163 428.417,518.11C429.364,518.928 430.369,519.61 431.114,520.339C432.382,521.582 433.686,523.98 434.99,525.283C454.435,546.184 560.266,664.34 561.56,665.663C564.247,668.393 556.443,669.946 556.443,669.946L431.33,528.087C430.338,527 428.424,525.603 427.321,524.388C426.198,523.155 425.53,521.576 424.245,520.037L415.796,510.609C415.796,510.609 414.86,509.085 416.252,507.926C417.534,506.862 418.977,508.047 418.977,508.047Z" style="fill:rgb(237,188,0);fill-rule:nonzero;"/>
                </g>
                <g transform="matrix(0.596618,0,0,1,557.157,-2253.09)">
                    <path d="M2078.92,2568.89C2078.92,2568.89 2081.65,2560.86 2090.2,2562.39L2092.47,2557.61C2092.47,2557.61 2080.09,2554.08 2075.71,2567.35" style="fill:rgb(237,188,0);"/>
                </g>
                <g transform="matrix(0.596618,0,0,1,557.157,-2253.09)">
                    <path d="M2090.2,2562.39C2090.2,2562.39 2087.96,2565.92 2092.47,2567.32L2098.72,2569.47C2098.72,2569.47 2105.68,2570.56 2109.24,2569.51L2111.64,2563.83C2111.64,2563.83 2110.45,2560.24 2104.25,2556.81C2104.22,2556.8 2096.78,2554.5 2096.78,2554.5C2094.81,2554.01 2093.27,2555.46 2092.47,2557.62C2092.47,2557.62 2089.47,2560.98 2090.2,2562.39Z" style="fill:rgb(237,188,0);"/>
                </g>
                <g transform="matrix(0.596618,0,0,1,557.157,-2253.09)">
                    <path d="M2092.47,2557.62C2092.48,2557.63 2092.49,2557.61 2092.47,2557.62L2093.39,2541.71C2093.39,2541.71 2074.86,2541.63 2069.47,2558.54C2064.08,2575.45 2061.92,2580.77 2061.92,2580.77L2060.42,2606.07L2062.3,2606.87C2062.3,2606.87 2072.35,2574.65 2075.07,2565.95C2075.94,2563.16 2078.54,2560.2 2081.8,2558.28C2085.92,2555.88 2090.29,2555.44 2092.47,2557.62Z" style="fill:rgb(220,125,0);"/>
                </g>
            </g>
        </g>
    </g>
</svg>
