<?xml version="1.0" encoding="UTF-8" standalone="no"?>
<!DOCTYPE svg PUBLIC "-//W3C//DTD SVG 1.1//EN" "http://www.w3.org/Graphics/SVG/1.1/DTD/svg11.dtd">
<svg width="100%" height="100%" viewBox="0 0 60 168" version="1.1" xmlns="http://www.w3.org/2000/svg" xmlnsXlink="http://www.w3.org/1999/xlink" xmlSpace="preserve" xmlnsSerif="http://www.serif.com/" style="fill-rule:evenodd;clip-rule:evenodd;stroke-linejoin:round;stroke-miterlimit:2;">
    <g transform="matrix(1,0,0,1,-396.715,-1600.23)">
        <g transform="matrix(-2.00606,0,0,1.19685,3838.92,-1656.63)">
            <g transform="matrix(0.440353,0,0,0.738081,1572.02,2695.16)">
                <path d="M312.207,125.128C311.694,125.128 311.172,125.043 310.661,124.863L298.681,119.823C297.145,119.281 296.005,117.973 295.677,116.378L287.791,77.993C287.274,75.481 288.893,73.026 291.405,72.51C293.918,71.996 296.373,73.612 296.888,76.124L304.247,111.938L313.752,116.104C316.171,116.957 317.439,119.61 316.586,122.029C315.913,123.936 314.12,125.128 312.207,125.128Z" style="fill:rgb(16,46,83);fill-rule:nonzero;"/>
            </g>
            <g transform="matrix(0.440353,0,0,0.738081,1572.02,2695.16)">
                <path d="M281.606,196.934L281.606,204.704C281.606,204.704 284.792,207.573 287.921,206.736C287.921,206.736 294.159,211.637 298.94,212.235C303.722,212.833 305.396,211.279 302.168,208.29C298.94,205.301 289.616,196.934 289.616,196.934L281.606,196.934Z" style="fill:rgb(47,11,8);fill-rule:nonzero;"/>
            </g>
            <g transform="matrix(0.440353,0,0,0.738081,1572.02,2695.16)">
                <path d="M296.669,129.512C296.669,129.512 295.354,155.811 293.322,165.614C293.322,165.614 292.963,192.63 292.485,199.444C292.485,199.444 287.105,202.672 280.232,198.846C280.232,198.846 279.455,172.864 282.443,165.114C282.443,165.114 278.737,142.781 279.216,135.011C279.216,135.011 287.703,128.795 296.669,129.512Z" style="fill:rgb(16,46,83);fill-rule:nonzero;"/>
            </g>
            <g transform="matrix(0.440353,0,0,0.738081,1572.02,2695.16)">
                <path d="M265.827,207.812C265.827,207.812 264.871,221.559 265.827,222.277C266.783,222.994 275.629,225.624 276.944,225.265C278.259,224.906 273.597,208.29 273.597,208.29L265.827,207.812Z" style="fill:rgb(47,11,8);fill-rule:nonzero;"/>
            </g>
            <g transform="matrix(0.440353,0,0,0.738081,1572.02,2695.16)">
                <path d="M265.468,135.968C265.468,135.968 266.305,156.289 266.903,169.559C266.903,169.559 261.403,187.131 264.632,210.083C264.632,210.083 270.011,212.833 275.749,209.366C275.749,209.366 280.768,164.44 281.126,159.539C281.485,154.637 284.715,133.42 283.161,133.181C281.606,132.942 265.345,132.994 265.468,135.968Z" style="fill:rgb(28,57,100);fill-rule:nonzero;"/>
            </g>
            <g transform="matrix(0.440353,0,0,0.738081,1572.02,2695.16)">
                <path d="M285.039,124.274L306.521,114.4L304.869,130.795L285.039,124.274Z" style="fill:rgb(77,84,87);fill-rule:nonzero;"/>
            </g>
            <g transform="matrix(0.440353,0,0,0.738081,1572.02,2695.16)">
                <path d="M304.094,109.695L326.744,96.725L326.744,117.051L304.869,130.795L304.094,109.695Z" style="fill:rgb(85,95,99);fill-rule:nonzero;"/>
            </g>
            <g transform="matrix(0.440353,0,0,0.738081,1572.02,2695.16)">
                <path d="M318.613,114.921C315.198,116.406 315.253,117.43 315.388,120.395C315.524,123.36 314.085,125.711 316.863,125.13C319.641,124.549 322.473,122.725 322.382,119.791C322.291,116.857 323.065,112.986 318.613,114.921Z" style="fill:rgb(248,159,129);fill-rule:nonzero;"/>
            </g>
            <g transform="matrix(0.440353,0,0,0.738081,1572.02,2695.16)">
                <path d="M266.53,73.183C261.69,75.005 259.669,76.964 259.769,83.456C259.87,89.948 263.994,137.275 263.994,137.275C263.994,137.275 286.075,141.054 298.741,128.096C298.741,128.096 298.096,85.106 297.706,80.104C297.306,74.965 293.914,66.173 286.881,67.616C279.848,69.058 269.259,72.155 266.53,73.183Z" style="fill:rgb(38,77,138);fill-rule:nonzero;"/>
            </g>
            <g transform="matrix(0.440353,0,0,0.738081,1572.02,2695.16)">
                <path d="M287.934,131.096C287.934,131.578 287.543,131.969 287.061,131.969C286.579,131.969 286.188,131.578 286.188,131.096C286.188,130.614 286.579,130.223 287.061,130.223C287.543,130.223 287.934,130.614 287.934,131.096Z" style="fill:rgb(16,46,83);fill-rule:nonzero;"/>
            </g>
            <g transform="matrix(0.440353,0,0,0.738081,1572.02,2695.16)">
                <path d="M261.376,86.356C261.376,86.356 264.299,118.11 264.389,120.445C264.479,122.78 266.102,123.592 271.963,125.575C277.824,127.559 292.764,131.87 292.764,131.87L267.365,118.271L261.376,86.356Z" style="fill:rgb(25,63,113);fill-rule:nonzero;"/>
            </g>
            <g transform="matrix(0.440353,0,0,0.738081,1572.02,2695.16)">
                <path d="M294.465,81.963C294.407,81.496 294.099,81.094 293.667,80.907L290.923,79.714L292.071,78.566C292.467,78.171 292.584,77.562 292.339,77.059C289.718,71.669 285.673,69.237 282.26,68.603L273.058,71.346C270.659,73.586 270.116,77.355 270.105,82.118C270.104,82.829 270.506,83.48 271.137,83.809L273.833,85.218L271.643,86.999C270.992,87.528 270.758,88.412 271.068,89.192C272.256,92.181 282.84,109.256 286.383,115.925C285.55,106.744 276.583,88.139 274.371,79.19C273.895,77.266 273.418,75.108 274.435,73.406C275.141,72.225 280.705,69.973 282.077,70.076C283.863,71.599 287.354,71.965 288.878,78.123C290.641,85.244 286.965,106.541 287.333,115.59C288.542,111.848 295.529,90.59 294.465,81.963Z" style="fill:rgb(16,46,83);fill-rule:nonzero;"/>
            </g>
            <g transform="matrix(0.440353,0,0,0.738081,1572.02,2695.16)">
                <path d="M287.934,120.456C287.934,120.938 287.543,121.329 287.061,121.329C286.579,121.329 286.188,120.938 286.188,120.456C286.188,119.973 286.579,119.583 287.061,119.583C287.543,119.583 287.934,119.973 287.934,120.456Z" style="fill:rgb(16,46,83);fill-rule:nonzero;"/>
            </g>
            <g transform="matrix(0.440353,0,0,0.738081,1572.02,2695.16)">
                <path d="M287.934,125.776C287.934,126.258 287.543,126.649 287.061,126.649C286.579,126.649 286.188,126.258 286.188,125.776C286.188,125.294 286.579,124.903 287.061,124.903C287.543,124.903 287.934,125.294 287.934,125.776Z" style="fill:rgb(16,46,83);fill-rule:nonzero;"/>
            </g>
            <g transform="matrix(0.440353,0,0,0.738081,1572.02,2695.16)">
                <path d="M274.435,73.406C275.141,72.225 280.705,69.973 282.077,70.076C283.863,71.599 287.354,71.965 288.878,78.123C291.529,88.832 287.686,116.53 286.953,116.789C286.216,117.05 280.088,98.408 274.371,79.19C273.806,77.291 273.418,75.108 274.435,73.406Z" style="fill:rgb(209,238,251);fill-rule:nonzero;"/>
            </g>
            <g transform="matrix(0.440353,0,0,0.738081,1572.02,2695.16)">
                <path d="M281.042,75.165C277.564,74.663 275.644,72.187 275.215,70.703C275.215,70.703 272.813,72.175 273.833,75.01C274.916,78.019 278.679,78.527 278.679,78.527L281.042,75.165Z" style="fill:white;fill-rule:nonzero;"/>
            </g>
            <g transform="matrix(0.440353,0,0,0.738081,1572.02,2695.16)">
                <path d="M283.484,69.635L283.048,72.223C282.682,74.346 281.042,75.165 281.042,75.165L284.13,77.521C287.122,74.829 286.713,71.187 283.484,69.635Z" style="fill:white;fill-rule:nonzero;"/>
            </g>
            <g transform="matrix(0.440353,0,0,0.738081,1572.02,2695.16)">
                <path d="M281.042,75.165L283.724,77.281L283.05,80.445L281.042,80.787L279.031,78.026L281.042,75.165Z" style="fill:rgb(69,111,182);fill-rule:nonzero;"/>
            </g>
            <g transform="matrix(0.440353,0,0,0.738081,1572.02,2695.16)">
                <path d="M283.05,80.445L281.042,80.787L282.498,105.197C284.853,112.281 286.583,116.92 286.953,116.789C287.295,116.668 288.314,110.571 289.035,103.015L283.05,80.445Z" style="fill:rgb(69,111,182);fill-rule:nonzero;"/>
            </g>
            <g transform="matrix(0.440353,0,0,0.738081,1572.02,2695.16)">
                <path d="M271.226,89.948L277.002,114.372L292.237,121.691L274.538,114.762L271.226,89.948Z" style="fill:rgb(25,63,113);fill-rule:nonzero;"/>
            </g>
            <g transform="matrix(0.440353,0,0,0.738081,1572.02,2695.16)">
                <path d="M283.495,63.979L283.495,72.904C283.491,73.518 283.083,74.131 282.272,74.599C280.649,75.536 278.029,75.536 276.419,74.6C275.612,74.132 275.211,73.518 275.215,72.904L275.215,63.968L283.495,63.979Z" style="fill:rgb(248,159,129);fill-rule:nonzero;"/>
            </g>
            <g transform="matrix(0.440353,0,0,0.738081,1572.02,2695.16)">
                <path d="M283.375,70.788C277.57,70.787 275.835,66.171 275.835,66.171L283.495,63.979L283.495,70.787C283.454,70.788 283.415,70.788 283.375,70.788Z" style="fill:rgb(245,135,102);fill-rule:nonzero;"/>
            </g>
            <g transform="matrix(0.440353,0,0,0.738081,1572.02,2695.16)">
                <path d="M269.538,55.164C269.538,62.223 277.072,69.137 284.131,69.137C289.181,69.137 292.547,62.223 292.547,55.164C292.547,48.105 289.379,42.383 282.32,42.383C275.261,42.383 269.538,48.105 269.538,55.164Z" style="fill:rgb(248,159,129);fill-rule:nonzero;"/>
            </g>
            <g transform="matrix(0.440353,0,0,0.738081,1572.02,2695.16)">
                <path d="M269.835,57.655C277.873,57.243 284.426,52.517 288.422,45.531C290.484,46.329 291.958,50.562 291.958,50.562C292.972,49.003 293.751,47.243 293.834,45.384C293.917,43.526 293.3,41.593 291.955,40.308C290.609,39.022 288.502,38.501 286.796,39.244C283.935,35.506 279.437,34.378 273.941,35.966C267.854,37.724 265.428,41.586 264.293,46.155C263.158,50.723 261.722,60.582 272.375,62.793L269.835,57.655Z" style="fill:rgb(22,17,31);fill-rule:nonzero;"/>
            </g>
            <g transform="matrix(0.440353,0,0,0.738081,1572.02,2695.16)">
                <path d="M268.591,57.56C268.591,59.389 270.074,60.872 271.903,60.872C273.732,60.872 275.215,59.389 275.215,57.56C275.215,55.731 273.732,54.248 271.903,54.248C270.074,54.248 268.591,55.731 268.591,57.56Z" style="fill:rgb(248,159,129);fill-rule:nonzero;"/>
            </g>
            <g transform="matrix(0.440353,0,0,0.738081,1572.02,2695.16)">
                <path d="M296.096,124.169C294.004,124.893 293.425,127.622 293.753,129.883C294.732,130.916 294.834,132.384 296.98,132.674C303.382,133.54 306.755,130.72 306.508,130.127C304.722,125.841 296.814,123.921 296.096,124.169Z" style="fill:rgb(248,159,129);fill-rule:nonzero;"/>
            </g>
            <g transform="matrix(0.440353,0,0,0.738081,1572.02,2695.16)">
                <path d="M293.165,131.373L295.538,132.411C295.538,132.411 299.046,128.967 298.563,124.127L296.172,123.852L293.165,131.373Z" style="fill:white;fill-rule:nonzero;"/>
            </g>
            <g transform="matrix(0.440353,0,0,0.738081,1572.02,2695.16)">
                <path d="M293.671,132.226L268.605,122.413C267.032,121.798 265.918,120.377 265.694,118.704L260.506,79.848C260.167,77.306 261.953,74.97 264.495,74.631C267.04,74.295 269.374,76.077 269.713,78.619L274.538,114.762L297.056,123.577C298.304,123.738 294.227,132.443 293.671,132.226Z" style="fill:rgb(38,77,138);fill-rule:nonzero;"/>
            </g>
        </g>
    </g>
</svg>
