<?xml version="1.0" encoding="UTF-8" standalone="no"?>
<!DOCTYPE svg PUBLIC "-//W3C//DTD SVG 1.1//EN" "http://www.w3.org/Graphics/SVG/1.1/DTD/svg11.dtd">
<svg width="100%" height="100%" viewBox="0 0 240 145" version="1.1" xmlns="http://www.w3.org/2000/svg" xmlnsXlink="http://www.w3.org/1999/xlink" xmlSpace="preserve" xmlnsSerif="http://www.serif.com/" style="fill-rule:evenodd;clip-rule:evenodd;stroke-linejoin:round;stroke-miterlimit:2;">
    <g transform="matrix(1.67611,0,0,1,-2672.45,-420.639)">
        <g id="Desk" class="interactive">
            <g transform="matrix(0.990902,0,0,1.66086,1421.59,408.964)">
                <path d="M295.034,23.697C295.034,23.697 294.84,31.574 294.84,33.345C294.84,35.117 295.086,38.821 291.968,40.137C288.85,41.454 284.435,43.176 284.435,43.176L288.616,45.868C288.616,45.868 292.833,44.034 295,42.698C298.049,40.818 297.731,35.683 297.731,32.419C297.731,29.155 297.174,24.901 297.174,24.901L295.034,23.697Z" style="fill:rgb(52,53,53);fill-rule:nonzero;"/>
            </g>
            <g transform="matrix(0.990902,0,0,1.66086,1421.59,408.964)">
                <path d="M284.435,60.308C283.517,60.308 282.766,59.557 282.766,58.639L282.766,43.236C282.766,42.318 283.517,41.567 284.435,41.567C285.353,41.567 286.104,42.318 286.104,43.236L286.104,58.639C286.104,59.557 285.353,60.308 284.435,60.308Z" style="fill:rgb(52,53,53);fill-rule:nonzero;"/>
            </g>
            <g transform="matrix(0.990902,0,0,1.66086,1421.59,408.964)">
                <path d="M294.994,43.975C294.994,47.077 290.267,49.591 284.435,49.591C278.603,49.591 273.875,47.077 273.875,43.975C273.875,40.872 278.603,38.357 284.435,38.357C290.267,38.357 294.994,40.872 294.994,43.975Z" style="fill:rgb(131,132,133);fill-rule:nonzero;"/>
            </g>
            <g transform="matrix(0.990902,0,0,1.66086,1421.59,408.964)">
                <rect x="273.875" y="42.915" width="21.119" height="1.222" style="fill:rgb(131,132,133);"/>
            </g>
            <g transform="matrix(0.990902,0,0,1.66086,1421.59,408.964)">
                <path d="M294.994,42.915C294.994,46.017 290.267,48.532 284.435,48.532C278.603,48.532 273.875,46.017 273.875,42.915C273.875,39.812 278.603,37.298 284.435,37.298C290.267,37.298 294.994,39.812 294.994,42.915Z" style="fill:rgb(201,201,201);fill-rule:nonzero;"/>
            </g>
            <g transform="matrix(0.990902,0,0,1.66086,1421.59,408.964)">
                <path d="M294.495,42.305C294.495,45.261 289.991,47.657 284.435,47.657C278.878,47.657 274.374,45.261 274.374,42.305C274.374,39.35 278.878,36.954 284.435,36.954C289.991,36.954 294.495,39.35 294.495,42.305Z" style="fill:rgb(23,155,204);fill-rule:nonzero;"/>
            </g>
            <g transform="matrix(0.990902,0,0,1.66086,1421.59,408.964)">
                <path d="M274.907,38.868L274.374,42.305L294.495,42.305L293.961,38.868L274.907,38.868Z" style="fill:rgb(23,155,204);fill-rule:nonzero;"/>
            </g>
            <g transform="matrix(0.990902,0,0,1.66086,1421.59,408.964)">
                <path d="M294.101,39.717C294.101,42.557 289.774,44.858 284.435,44.858C279.096,44.858 274.769,42.557 274.769,39.717C274.769,36.877 279.096,34.575 284.435,34.575C289.774,34.575 294.101,36.877 294.101,39.717Z" style="fill:rgb(76,176,227);fill-rule:nonzero;"/>
            </g>
            <g transform="matrix(0.990902,0,0,1.66086,1421.59,408.964)">
                <path d="M304.856,36.246L304.856,24.692C304.856,20.647 302.373,15.904 299.34,14.152L296.461,12.49C293.427,10.739 290.944,12.615 290.944,16.661L290.944,28.214L304.856,36.246Z" style="fill:rgb(23,155,204);fill-rule:nonzero;"/>
            </g>
            <g transform="matrix(0.990902,0,0,1.66086,1421.59,408.964)">
                <path d="M292.796,12.246L290.439,13.646L292.548,15.047L292.796,12.246Z" style="fill:rgb(23,155,204);fill-rule:nonzero;"/>
            </g>
            <g transform="matrix(0.990902,0,0,1.66086,1421.59,408.964)">
                <path d="M302.56,37.61L304.856,36.246L302.14,33.572L302.56,37.61Z" style="fill:rgb(23,155,204);fill-rule:nonzero;"/>
            </g>
            <g transform="matrix(0.990902,0,0,1.66086,1421.59,408.964)">
                <path d="M302.56,37.61L302.56,26.056C302.56,22.011 300.077,17.268 297.043,15.517L294.164,13.854C291.13,12.102 288.648,13.979 288.648,18.024L288.648,29.578L302.56,37.61Z" style="fill:rgb(76,176,227);fill-rule:nonzero;"/>
            </g>
            <g transform="matrix(0.990902,0,0,1.66086,1421.59,408.964)">
                <path d="M274.535,68.249C274.535,69.285 273.905,70.487 273.129,70.935C272.353,71.384 271.724,70.908 271.724,69.872C271.724,68.838 272.353,67.635 273.129,67.187C273.905,66.739 274.535,67.215 274.535,68.249Z" style="fill:rgb(52,53,53);fill-rule:nonzero;"/>
            </g>
            <g transform="matrix(0.990902,0,0,1.66086,1421.59,408.964)">
                <path d="M275.066,67.716L273.982,67.08L272.213,71.011L273.343,71.662L275.066,67.716Z" style="fill:rgb(52,53,53);fill-rule:nonzero;"/>
            </g>
            <g transform="matrix(0.990902,0,0,1.66086,1421.59,408.964)">
                <path d="M275.671,68.906C275.671,69.941 275.041,71.143 274.265,71.592C273.488,72.04 272.859,71.564 272.859,70.529C272.859,69.494 273.488,68.291 274.265,67.843C275.041,67.395 275.671,67.871 275.671,68.906Z" style="fill:rgb(4,5,7);fill-rule:nonzero;"/>
            </g>
            <g transform="matrix(0.990902,0,0,1.66086,1421.59,408.964)">
                <path d="M272.317,67.613C271.994,67.053 272.186,66.337 272.745,66.014L294.953,53.196C295.513,52.873 296.229,53.065 296.552,53.624C296.875,54.184 296.684,54.9 296.123,55.223L273.916,68.041C273.356,68.364 272.641,68.172 272.317,67.613Z" style="fill:rgb(52,53,53);fill-rule:nonzero;"/>
            </g>
            <g transform="matrix(0.990902,0,0,1.66086,1421.59,408.964)">
                <path d="M294.953,68.041L272.745,55.223C272.186,54.9 271.994,54.184 272.317,53.624C272.641,53.065 273.356,52.873 273.916,53.196L296.123,66.014C296.684,66.337 296.875,67.053 296.552,67.613C296.229,68.172 295.513,68.364 294.953,68.041Z" style="fill:rgb(52,53,53);fill-rule:nonzero;"/>
            </g>
            <g transform="matrix(0.990902,0,0,1.66086,1421.59,408.964)">
                <path d="M296.308,55.422C296.308,56.457 295.679,57.66 294.902,58.107C294.126,58.556 293.497,58.08 293.497,57.045C293.497,56.01 294.126,54.808 294.902,54.359C295.679,53.911 296.308,54.387 296.308,55.422Z" style="fill:rgb(52,53,53);fill-rule:nonzero;"/>
            </g>
            <g transform="matrix(0.990902,0,0,1.66086,1421.59,408.964)">
                <path d="M296.84,54.888L295.755,54.252L293.986,58.184L295.116,58.834L296.84,54.888Z" style="fill:rgb(52,53,53);fill-rule:nonzero;"/>
            </g>
            <g transform="matrix(0.990902,0,0,1.66086,1421.59,408.964)">
                <path d="M297.443,56.078C297.443,57.113 296.815,58.316 296.038,58.764C295.262,59.212 294.633,58.736 294.633,57.701C294.633,56.666 295.262,55.464 296.038,55.016C296.815,54.567 297.443,55.043 297.443,56.078Z" style="fill:rgb(4,5,7);fill-rule:nonzero;"/>
            </g>
            <g transform="matrix(0.990902,0,0,1.66086,1421.59,408.964)">
                <path d="M294.939,68.578C294.939,69.613 294.309,70.815 293.532,71.264C292.757,71.712 292.127,71.236 292.127,70.201C292.127,69.166 292.757,67.963 293.532,67.515C294.309,67.067 294.939,67.543 294.939,68.578Z" style="fill:rgb(52,53,53);fill-rule:nonzero;"/>
            </g>
            <g transform="matrix(0.990902,0,0,1.66086,1421.59,408.964)">
                <path d="M295.47,68.044L294.386,67.408L292.616,71.339L293.746,71.99L295.47,68.044Z" style="fill:rgb(52,53,53);fill-rule:nonzero;"/>
            </g>
            <g transform="matrix(0.990902,0,0,1.66086,1421.59,408.964)">
                <path d="M296.074,69.234C296.074,70.269 295.445,71.472 294.669,71.92C293.893,72.368 293.263,71.892 293.263,70.857C293.263,69.822 293.893,68.62 294.669,68.171C295.445,67.723 296.074,68.199 296.074,69.234Z" style="fill:rgb(4,5,7);fill-rule:nonzero;"/>
            </g>
            <g transform="matrix(0.990902,0,0,1.66086,1421.59,408.964)">
                <path d="M273.648,56.152C273.648,57.187 273.018,58.39 272.241,58.838C271.465,59.286 270.836,58.81 270.836,57.775C270.836,56.74 271.465,55.538 272.241,55.09C273.018,54.642 273.648,55.117 273.648,56.152Z" style="fill:rgb(52,53,53);fill-rule:nonzero;"/>
            </g>
            <g transform="matrix(0.990902,0,0,1.66086,1421.59,408.964)">
                <path d="M274.179,55.619L273.095,54.982L271.325,58.914L272.455,59.565L274.179,55.619Z" style="fill:rgb(52,53,53);fill-rule:nonzero;"/>
            </g>
            <g transform="matrix(0.990902,0,0,1.66086,1421.59,408.964)">
                <path d="M274.783,56.809C274.783,57.844 274.153,59.046 273.377,59.494C272.602,59.943 271.972,59.467 271.972,58.432C271.972,57.396 272.602,56.194 273.377,55.746C274.153,55.298 274.783,55.773 274.783,56.809Z" style="fill:rgb(4,5,7);fill-rule:nonzero;"/>
            </g>
            <g transform="matrix(0.990902,0,0,1.66086,1421.59,408.964)">
                <path d="M283.351,34.296C283.351,34.296 284.226,34.706 284.747,36.042C285.268,37.375 284.97,37.869 284.97,37.869L283.067,38.645C283.067,38.645 282.913,37.32 282.54,36.44C282.204,35.649 281.568,35.242 281.568,35.242L283.351,34.296Z" style="fill:white;fill-rule:nonzero;"/>
            </g>
            <g transform="matrix(0.990902,0,0,1.66086,1421.59,408.964)">
                <path d="M230.106,59.185L252.455,46.182L252.455,14.312L230.106,27.316L230.106,59.185Z" style="fill:rgb(4,5,7);fill-rule:nonzero;"/>
            </g>
            <g transform="matrix(0.990902,0,0,1.66086,1421.59,408.964)">
                <path d="M230.106,59.185L228.615,58.325L228.615,26.456L230.106,27.316L230.106,59.185Z" style="fill:rgb(52,53,53);fill-rule:nonzero;"/>
            </g>
            <g transform="matrix(0.990902,0,0,1.66086,1421.59,408.964)">
                <path d="M251.456,46.742L252.947,45.881L252.947,14.012L251.456,14.872L251.456,46.742Z" style="fill:rgb(4,5,7);fill-rule:nonzero;"/>
            </g>
            <g transform="matrix(0.990902,0,0,1.66086,1421.59,408.964)">
                <path d="M230.106,44.532L289.125,78.659L289.125,65.036L230.106,30.681L230.106,44.532Z" style="fill:rgb(52,53,53);fill-rule:nonzero;"/>
            </g>
            <g transform="matrix(0.990902,0,0,1.66086,1421.59,408.964)">
                <path d="M290.615,94.326L313.887,80.97L313.887,49.101L290.615,62.456L290.615,94.326Z" style="fill:rgb(4,5,7);fill-rule:nonzero;"/>
            </g>
            <g transform="matrix(0.990902,0,0,1.66086,1421.59,408.964)">
                <path d="M290.615,94.326L289.125,93.465L289.125,61.596L290.615,62.456L290.615,94.326Z" style="fill:rgb(52,53,53);fill-rule:nonzero;"/>
            </g>
            <g transform="matrix(0.990902,0,0,1.66086,1421.59,408.964)">
                <path d="M313.142,81.401L314.633,80.54L314.633,48.67L313.142,49.531L313.142,81.401Z" style="fill:rgb(4,5,7);fill-rule:nonzero;"/>
            </g>
            <g transform="matrix(0.990902,0,0,1.66086,1421.59,408.964)">
                <path d="M290.664,66.65L223.498,27.69L223.498,26.099L290.664,65.059L290.664,66.65Z" style="fill:rgb(127,127,128);fill-rule:nonzero;"/>
            </g>
            <g transform="matrix(0.990902,0,0,1.66086,1421.59,408.964)">
                <path d="M290.664,65.059L318.52,48.968L318.52,50.462L290.664,66.553L290.664,65.059Z" style="fill:rgb(86,87,87);fill-rule:nonzero;"/>
            </g>
            <g transform="matrix(0.990902,0,0,1.66086,1421.59,408.964)">
                <path d="M223.498,26.099L251.343,9.988L318.52,48.968L290.664,65.059L223.498,26.099Z" style="fill:rgb(174,174,174);fill-rule:nonzero;"/>
            </g>
            <g transform="matrix(0.990902,0,0,1.66086,1425.34,402.479)">
                <path d="M276.072,38.585L264.576,31.932L260.32,34.385L271.837,41.037L276.072,38.585Z" style="fill:white;fill-rule:nonzero;"/>
            </g>
            <g transform="matrix(0.990902,0,0,1.66086,1425.34,402.479)">
                <path d="M271.837,41.64L276.072,39.181L276.072,38.585L271.837,41.037L271.837,41.64Z" style="fill:rgb(199,198,197);fill-rule:nonzero;"/>
            </g>
            <g transform="matrix(0.990902,0,0,1.66086,1425.34,402.479)">
                <path d="M271.837,41.037L271.837,41.64L260.32,34.952L260.32,34.385L271.837,41.037Z" style="fill:rgb(224,225,224);fill-rule:nonzero;"/>
            </g>
            <g transform="matrix(0.990902,0,0,1.66086,1425.34,402.479)">
                <path d="M270.346,40.177L270.13,40.053L274.371,37.602L274.589,37.726L270.346,40.177Z" style="fill:rgb(175,175,176);fill-rule:nonzero;"/>
            </g>
            <g transform="matrix(0.990902,0,0,1.66086,1425.34,402.479)">
                <path d="M268.669,39.208L268.453,39.083L272.693,36.633L272.911,36.756L268.669,39.208Z" style="fill:rgb(175,175,176);fill-rule:nonzero;"/>
            </g>
            <g transform="matrix(0.990902,0,0,1.66086,1425.34,402.479)">
                <path d="M266.995,38.239L266.779,38.114L271.02,35.664L271.237,35.788L266.995,38.239Z" style="fill:rgb(175,175,176);fill-rule:nonzero;"/>
            </g>
            <g transform="matrix(0.990902,0,0,1.66086,1425.34,402.479)">
                <path d="M265.333,37.272L265.117,37.148L269.358,34.698L269.575,34.821L265.333,37.272Z" style="fill:rgb(175,175,176);fill-rule:nonzero;"/>
            </g>
            <g transform="matrix(0.990902,0,0,1.66086,1425.34,402.479)">
                <path d="M275.253,39.059L275.469,38.935L263.955,32.282L263.737,32.405L275.253,39.059Z" style="fill:rgb(175,175,176);fill-rule:nonzero;"/>
            </g>
            <g transform="matrix(0.990902,0,0,1.66086,1425.34,402.479)">
                <path d="M274.419,39.565L274.632,39.444L263.105,32.78L262.887,32.906L274.419,39.565Z" style="fill:rgb(175,175,176);fill-rule:nonzero;"/>
            </g>
            <g transform="matrix(0.990902,0,0,1.66086,1425.34,402.479)">
                <path d="M273.545,40.052L273.761,39.928L262.248,33.274L262.028,33.398L273.545,40.052Z" style="fill:rgb(175,175,176);fill-rule:nonzero;"/>
            </g>
            <g transform="matrix(0.990902,0,0,1.66086,1425.34,402.479)">
                <path d="M272.678,40.577L272.911,40.462L261.359,33.786L261.144,33.91L272.678,40.577Z" style="fill:rgb(175,175,176);fill-rule:nonzero;"/>
            </g>
            <g transform="matrix(0.990902,0,0,1.66086,1425.34,402.479)">
                <path d="M263.699,36.324L263.483,36.2L267.725,33.749L267.942,33.872L263.699,36.324Z" style="fill:rgb(175,175,176);fill-rule:nonzero;"/>
            </g>
            <g transform="matrix(0.990902,0,0,1.66086,1425.34,402.479)">
                <path d="M262.084,35.393L261.868,35.268L266.109,32.818L266.327,32.942L262.084,35.393Z" style="fill:rgb(175,175,176);fill-rule:nonzero;"/>
            </g>
            <g>
                <g transform="matrix(0.990902,0,0,1.66086,1439.22,428.183)">
                    <path d="M267.664,31.762L272.29,34.433L280.693,29.581L276.067,26.91L267.664,31.762Z" style="fill:white;fill-rule:nonzero;"/>
                </g>
                <g transform="matrix(0.990902,0,0,1.66086,1439.22,428.183)">
                    <path d="M267.664,31.762L272.29,34.443L273.188,33.925L268.553,31.249L267.664,31.762Z" style="fill:rgb(66,66,67);fill-rule:nonzero;"/>
                </g>
                <g transform="matrix(0.990902,0,0,1.66086,1439.22,428.183)">
                    <path d="M275.6,27.18L280.226,29.851L280.288,29.815L275.662,27.144L275.6,27.18Z" style="fill:rgb(169,168,168);fill-rule:nonzero;"/>
                </g>
                <g transform="matrix(0.990902,0,0,1.66086,1439.22,428.183)">
                    <path d="M274.968,27.545L279.594,30.215L279.656,30.18L275.03,27.509L274.968,27.545Z" style="fill:rgb(169,168,168);fill-rule:nonzero;"/>
                </g>
                <g transform="matrix(0.990902,0,0,1.66086,1439.22,428.183)">
                    <path d="M274.337,27.91L278.963,30.58L279.025,30.544L274.399,27.873L274.337,27.91Z" style="fill:rgb(169,168,168);fill-rule:nonzero;"/>
                </g>
                <g transform="matrix(0.990902,0,0,1.66086,1439.22,428.183)">
                    <path d="M273.705,28.274L278.331,30.945L278.393,30.909L273.767,28.238L273.705,28.274Z" style="fill:rgb(169,168,168);fill-rule:nonzero;"/>
                </g>
                <g transform="matrix(0.990902,0,0,1.66086,1439.22,428.183)">
                    <path d="M273.073,28.639L277.699,31.31L277.761,31.274L273.135,28.603L273.073,28.639Z" style="fill:rgb(169,168,168);fill-rule:nonzero;"/>
                </g>
                <g transform="matrix(0.990902,0,0,1.66086,1439.22,428.183)">
                    <path d="M272.441,29.004L277.067,31.674L277.129,31.639L272.503,28.968L272.441,29.004Z" style="fill:rgb(169,168,168);fill-rule:nonzero;"/>
                </g>
                <g transform="matrix(0.990902,0,0,1.66086,1439.22,428.183)">
                    <path d="M271.81,29.369L276.436,32.039L276.497,32.003L271.871,29.332L271.81,29.369Z" style="fill:rgb(169,168,168);fill-rule:nonzero;"/>
                </g>
                <g transform="matrix(0.990902,0,0,1.66086,1439.22,428.183)">
                    <path d="M271.178,29.733L275.804,32.404L275.865,32.368L271.239,29.697L271.178,29.733Z" style="fill:rgb(169,168,168);fill-rule:nonzero;"/>
                </g>
                <g transform="matrix(0.990902,0,0,1.66086,1439.22,428.183)">
                    <path d="M270.546,30.098L275.172,32.768L275.233,32.733L270.608,30.062L270.546,30.098Z" style="fill:rgb(169,168,168);fill-rule:nonzero;"/>
                </g>
                <g transform="matrix(0.990902,0,0,1.66086,1439.22,428.183)">
                    <path d="M269.914,30.463L274.54,33.134L274.602,33.098L269.977,30.427L269.914,30.463Z" style="fill:rgb(169,168,168);fill-rule:nonzero;"/>
                </g>
                <g transform="matrix(0.990902,0,0,1.66086,1439.22,428.183)">
                    <path d="M269.282,30.828L273.908,33.498L273.971,33.462L269.345,30.791L269.282,30.828Z" style="fill:rgb(169,168,168);fill-rule:nonzero;"/>
                </g>
                <g transform="matrix(0.990902,0,0,1.66086,1439.22,428.183)">
                    <path d="M272.29,35.281L280.693,30.43L280.693,29.581L272.29,34.433L272.29,35.281Z" style="fill:rgb(220,219,219);fill-rule:nonzero;"/>
                </g>
                <g transform="matrix(0.990902,0,0,1.66086,1439.22,428.183)">
                    <path d="M272.29,35.281L267.664,32.61L267.664,31.762L272.29,34.433L272.29,35.281Z" style="fill:rgb(50,50,49);fill-rule:nonzero;"/>
                </g>
                <g transform="matrix(0.990902,0,0,1.66086,1439.22,428.183)">
                    <path d="M282.253,32.207C282.253,32.404 282.373,32.634 282.521,32.719C282.669,32.805 282.789,32.714 282.789,32.517C282.789,32.319 282.669,32.09 282.521,32.004C282.373,31.919 282.253,32.01 282.253,32.207Z" style="fill:rgb(220,219,219);fill-rule:nonzero;"/>
                </g>
                <g transform="matrix(0.990902,0,0,1.66086,1439.22,428.183)">
                    <path d="M282.128,32.125L282.338,31.996L282.697,32.732L282.428,32.891L282.128,32.125Z" style="fill:rgb(220,219,219);fill-rule:nonzero;"/>
                </g>
                <g transform="matrix(0.990902,0,0,1.66086,1439.22,428.183)">
                    <path d="M281.971,32.335C281.971,32.562 282.109,32.827 282.279,32.926C282.45,33.024 282.589,32.92 282.589,32.692C282.589,32.464 282.45,32.2 282.279,32.101C282.109,32.002 281.971,32.107 281.971,32.335Z" style="fill:rgb(240,241,241);fill-rule:nonzero;"/>
                </g>
                <g transform="matrix(0.990902,0,0,1.66086,1439.22,428.183)">
                    <path d="M282.413,32.893L280.759,33.846L280.414,33.101L282.075,32.144L282.413,32.893Z" style="fill:rgb(220,219,219);fill-rule:nonzero;"/>
                </g>
                <g transform="matrix(0.990902,0,0,1.66086,1439.22,428.183)">
                    <path d="M280.235,33.328C280.235,33.556 280.375,33.822 280.546,33.921C280.718,34.02 280.858,33.915 280.858,33.686C280.858,33.457 280.718,33.191 280.546,33.092C280.375,32.993 280.235,33.099 280.235,33.328Z" style="fill:rgb(240,241,241);fill-rule:nonzero;"/>
                </g>
                <g transform="matrix(0.990902,0,0,1.66086,1439.22,428.183)">
                    <path d="M280.686,33.884L277.394,35.781L277.06,35.031L280.357,33.13L280.686,33.884Z" style="fill:rgb(34,34,34);fill-rule:nonzero;"/>
                </g>
                <g transform="matrix(0.990902,0,0,1.66086,1439.22,428.183)">
                    <path d="M280.254,33.352C280.254,33.549 280.374,33.779 280.523,33.864C280.67,33.95 280.79,33.859 280.79,33.662C280.79,33.464 280.67,33.235 280.523,33.149C280.374,33.064 280.254,33.155 280.254,33.352Z" style="fill:rgb(34,34,34);fill-rule:nonzero;"/>
                </g>
                <g transform="matrix(0.990902,0,0,1.66086,1439.22,428.183)">
                    <path d="M281.984,32.36C281.984,32.558 282.105,32.787 282.253,32.872C282.4,32.957 282.521,32.867 282.521,32.67C282.521,32.472 282.4,32.243 282.253,32.158C282.105,32.072 281.984,32.163 281.984,32.36Z" style="fill:rgb(220,219,219);fill-rule:nonzero;"/>
                </g>
                <g transform="matrix(0.990902,0,0,1.66086,1439.22,428.183)">
                    <path d="M276.963,35.23C276.963,35.444 277.093,35.692 277.253,35.785C277.413,35.877 277.544,35.779 277.544,35.565C277.544,35.351 277.413,35.103 277.253,35.011C277.093,34.918 276.963,35.017 276.963,35.23Z" style="fill:rgb(240,241,241);fill-rule:nonzero;"/>
                </g>
                <g transform="matrix(0.990902,0,0,1.66086,1439.22,428.183)">
                    <path d="M276.963,35.272C276.963,35.456 277.075,35.671 277.214,35.751C277.353,35.831 277.464,35.746 277.464,35.561C277.464,35.377 277.353,35.162 277.214,35.082C277.075,35.002 276.963,35.087 276.963,35.272Z" style="fill:rgb(220,219,219);fill-rule:nonzero;"/>
                </g>
                <g transform="matrix(0.990902,0,0,1.66086,1439.22,428.183)">
                    <path d="M277.047,35.072L276.229,35.843L276.334,36.063L277.363,35.77L277.047,35.072Z" style="fill:rgb(220,219,219);fill-rule:nonzero;"/>
                </g>
                <g transform="matrix(0.990902,0,0,1.66086,1439.22,428.183)">
                    <path d="M276.203,35.906L276.283,36.059L276.363,35.998L276.283,35.845L276.203,35.906Z" style="fill:rgb(240,241,241);fill-rule:nonzero;"/>
                </g>
                <g transform="matrix(0.990902,0,0,1.66086,1439.22,428.183)">
                    <path d="M276.209,35.916L276.274,36.039L276.338,35.991L276.274,35.868L276.209,35.916Z" style="fill:rgb(50,50,49);fill-rule:nonzero;"/>
                </g>
                <g transform="matrix(0.990902,0,0,1.66086,1439.22,428.183)">
                    <path d="M276.009,36.088L276.224,35.87L276.304,36.047L276.025,36.115L276.009,36.088Z" style="fill:rgb(50,50,49);fill-rule:nonzero;"/>
                </g>
                <g transform="matrix(0.990902,0,0,1.66086,1439.22,428.183)">
                    <path d="M282.912,32.93C282.912,32.93 282.237,33.43 281.977,33.581C281.663,33.761 280.617,34.255 280.617,34.255L280.617,33.789C280.617,33.789 281.633,33.313 281.937,33.138C282.207,32.982 282.912,32.464 282.912,32.464L282.981,32.496L282.912,32.93Z" style="fill:rgb(201,201,201);fill-rule:nonzero;"/>
                </g>
                <g transform="matrix(0.990902,0,0,1.66086,1439.22,428.183)">
                    <path d="M282.981,32.961C282.981,32.961 282.305,33.461 282.044,33.612C281.732,33.792 280.686,34.286 280.686,34.286L280.686,33.82C280.686,33.82 281.701,33.344 282.004,33.169C282.275,33.013 282.981,32.496 282.981,32.496L282.981,32.961Z" style="fill:white;fill-rule:nonzero;"/>
                </g>
                <g transform="matrix(0.990902,0,0,1.66086,1439.22,428.183)">
                    <path d="M280.686,33.82L280.617,33.789L280.617,34.255L280.686,34.286L280.686,33.82Z" style="fill:rgb(220,219,219);fill-rule:nonzero;"/>
                </g>
            </g>
            <g transform="matrix(1,0,0,1,1.85836,-1.52563)">
                <g transform="matrix(0.400679,0,0,0.671583,1601.25,346.395)">
                    <path d="M147.549,155.009C147.541,155.097 147.535,155.185 147.518,155.272C147.505,155.343 147.484,155.414 147.464,155.485C147.442,155.568 147.422,155.652 147.392,155.735C147.369,155.8 147.245,156.083 147.184,156.196C146.742,157.011 145.947,157.683 145.139,158.15C144.889,158.295 144.624,158.424 144.352,158.546C144.273,158.581 144.193,158.613 144.113,158.647C143.9,158.736 143.681,158.818 143.457,158.893C143.377,158.921 143.299,158.949 143.218,158.975C143.046,159.029 142.564,159.159 142.46,159.184C142.308,159.22 142.154,159.25 142.001,159.28C140.489,159.583 138.921,159.618 137.453,159.427C137.046,159.375 136.638,159.301 136.293,159.225C133.832,158.679 130.882,157.131 130.896,154.675L130.884,156.649C130.875,158.571 132.723,159.951 134.539,160.674L134.539,160.67L134.539,160.674C135.245,160.954 135.926,161.135 136.627,161.271C136.821,161.308 137.224,161.377 137.246,161.38C137.31,161.389 137.376,161.394 137.441,161.402C137.6,161.423 138.034,161.471 138.056,161.472C139.315,161.579 140.669,161.519 141.987,161.256C142.142,161.225 142.297,161.195 142.449,161.158C142.56,161.132 142.668,161.1 142.777,161.071C142.921,161.032 143.066,160.993 143.207,160.95C143.237,160.94 143.269,160.933 143.299,160.924C143.35,160.907 143.397,160.885 143.447,160.868C143.671,160.792 143.889,160.71 144.103,160.621C144.733,160.359 145.216,160.106 145.746,159.723C145.82,159.669 146.21,159.357 146.288,159.286C146.395,159.187 146.494,159.087 146.588,158.985C146.608,158.964 146.625,158.942 146.644,158.92C146.699,158.858 146.756,158.795 146.806,158.732C147.291,158.119 147.487,157.54 147.538,156.985C147.544,156.927 147.557,156.871 147.558,156.814C147.559,156.789 147.56,156.765 147.56,156.74L147.57,154.766C147.57,154.847 147.557,154.928 147.549,155.009Z" style="fill:rgb(220,80,38);fill-rule:nonzero;"/>
                </g>
                <g transform="matrix(0.400679,0,0,0.671583,1601.25,346.395)">
                    <path d="M145.118,151.321C148.38,153.215 148.389,156.273 145.139,158.151C141.889,160.028 136.61,160.014 133.348,158.119C130.087,156.225 130.078,153.167 133.328,151.29C136.578,149.412 141.857,149.426 145.118,151.321Z" style="fill:rgb(242,105,36);fill-rule:nonzero;"/>
                </g>
                <g transform="matrix(0.400679,0,0,0.671583,1601.25,346.395)">
                    <path d="M140.799,132.516L140.675,155.205C140.674,155.435 140.515,155.67 140.202,155.851C139.604,156.196 138.669,156.214 138.115,155.892C137.848,155.737 137.717,155.532 137.718,155.323L137.842,132.634C137.841,132.843 137.972,133.048 138.239,133.203C138.793,133.525 139.728,133.507 140.326,133.161C140.638,132.98 140.798,132.745 140.799,132.516Z" style="fill:rgb(44,45,44);fill-rule:nonzero;"/>
                    <g>
                        <clipPath id="_clip1">
                            <path d="M140.799,132.516L140.675,155.205C140.674,155.435 140.515,155.67 140.202,155.851C139.604,156.196 138.669,156.214 138.115,155.892C137.848,155.737 137.717,155.532 137.718,155.323L137.842,132.634C137.841,132.843 137.972,133.048 138.239,133.203C138.793,133.525 139.728,133.507 140.326,133.161C140.638,132.98 140.798,132.745 140.799,132.516Z"/>
                        </clipPath>
                        <g clip-path="url(#_clip1)">
                            <path d="M140.799,132.516L140.675,155.205L140.675,155.218L140.799,132.529L140.799,132.516Z" style="fill:rgb(44,45,44);fill-rule:nonzero;"/>
                            <path d="M140.799,132.529L140.675,155.218C140.674,155.247 140.671,155.276 140.665,155.305L140.789,132.615C140.795,132.587 140.798,132.557 140.799,132.529Z" style="fill:rgb(44,45,44);fill-rule:nonzero;"/>
                            <path d="M140.789,132.615L140.665,155.305C140.659,155.334 140.65,155.362 140.64,155.391L140.764,132.702C140.775,132.673 140.783,132.644 140.789,132.615Z" style="fill:rgb(44,45,44);fill-rule:nonzero;"/>
                            <path d="M140.764,132.702L140.64,155.391C140.629,155.421 140.614,155.451 140.598,155.481L140.721,132.791C140.738,132.761 140.752,132.732 140.764,132.702Z" style="fill:rgb(44,45,44);fill-rule:nonzero;"/>
                            <path d="M140.721,132.791L140.598,155.481C140.579,155.513 140.558,155.545 140.533,155.576L140.657,132.886C140.682,132.855 140.703,132.823 140.721,132.791Z" style="fill:rgb(44,45,44);fill-rule:nonzero;"/>
                            <path d="M140.657,132.886L140.533,155.576C140.504,155.612 140.471,155.649 140.433,155.683L140.556,132.994C140.594,132.959 140.628,132.923 140.657,132.886Z" style="fill:rgb(44,45,44);fill-rule:nonzero;"/>
                            <path d="M140.556,132.994L140.433,155.683C140.373,155.738 140.303,155.79 140.222,155.839L140.346,133.149C140.427,133.101 140.497,133.049 140.556,132.994Z" style="fill:rgb(44,45,44);fill-rule:nonzero;"/>
                            <path d="M140.346,133.149L140.222,155.839C140.215,155.842 140.209,155.846 140.202,155.851C140.091,155.915 139.969,155.967 139.84,156.008L139.963,133.32C140.093,133.278 140.215,133.225 140.326,133.161C140.333,133.157 140.339,133.153 140.346,133.149Z" style="fill:rgb(44,45,44);fill-rule:nonzero;"/>
                            <path d="M139.963,133.32L139.84,156.008C139.743,156.04 139.643,156.064 139.54,156.083L139.664,133.393C139.766,133.375 139.867,133.35 139.963,133.32Z" style="fill:rgb(44,45,44);fill-rule:nonzero;"/>
                            <path d="M139.664,133.393L139.54,156.083C139.474,156.094 139.407,156.104 139.34,156.11L139.464,133.421C139.531,133.414 139.598,133.405 139.664,133.393Z" style="fill:rgb(44,45,44);fill-rule:nonzero;"/>
                            <path d="M139.464,133.421L139.34,156.11C139.284,156.115 139.229,156.119 139.172,156.121L139.296,133.431C139.352,133.429 139.408,133.426 139.464,133.421Z" style="fill:rgb(44,45,44);fill-rule:nonzero;"/>
                            <path d="M139.296,133.431L139.172,156.121C139.122,156.122 139.071,156.122 139.021,156.121L139.145,133.432C139.195,133.433 139.246,133.433 139.296,133.431Z" style="fill:rgb(44,45,44);fill-rule:nonzero;"/>
                            <path d="M139.145,133.432L139.021,156.121C138.974,156.12 138.927,156.117 138.88,156.113L139.004,133.424C139.05,133.428 139.097,133.43 139.145,133.432Z" style="fill:rgb(44,45,44);fill-rule:nonzero;"/>
                            <path d="M139.004,133.424L138.88,156.113C138.834,156.109 138.788,156.104 138.743,156.097L138.867,133.408C138.912,133.415 138.958,133.42 139.004,133.424Z" style="fill:rgb(44,45,44);fill-rule:nonzero;"/>
                            <path d="M138.867,133.408L138.743,156.097C138.697,156.091 138.652,156.083 138.607,156.073L138.731,133.384C138.775,133.393 138.821,133.402 138.867,133.408Z" style="fill:rgb(44,45,44);fill-rule:nonzero;"/>
                            <path d="M138.731,133.384L138.607,156.073C138.559,156.063 138.511,156.051 138.465,156.038L138.589,133.349C138.635,133.362 138.683,133.374 138.731,133.384Z" style="fill:rgb(44,45,44);fill-rule:nonzero;"/>
                            <path d="M138.589,133.349L138.465,156.038C138.41,156.022 138.357,156.004 138.305,155.984L138.429,133.294C138.48,133.315 138.534,133.333 138.589,133.349Z" style="fill:rgb(44,45,44);fill-rule:nonzero;"/>
                            <path d="M138.429,133.294L138.305,155.984C138.238,155.957 138.175,155.927 138.115,155.892C137.848,155.737 137.717,155.532 137.718,155.323L137.842,132.634C137.841,132.843 137.972,133.048 138.239,133.203C138.298,133.237 138.362,133.268 138.429,133.294Z" style="fill:rgb(44,45,44);fill-rule:nonzero;"/>
                        </g>
                    </g>
                </g>
                <g transform="matrix(0.400679,0,0,0.671583,1601.25,346.395)">
                    <path d="M151.749,122.523L139.517,133.738C139.393,133.852 139.19,133.885 138.94,133.81C138.463,133.667 137.996,133.183 137.898,132.732C137.851,132.514 137.897,132.343 138.01,132.239L150.241,121.024C150.129,121.127 150.083,121.299 150.13,121.516C150.228,121.967 150.694,122.451 151.171,122.594C151.421,122.669 151.625,122.636 151.749,122.523Z" style="fill:rgb(44,45,44);fill-rule:nonzero;"/>
                    <g>
                        <clipPath id="_clip2">
                            <path d="M151.749,122.523L139.517,133.738C139.393,133.852 139.19,133.885 138.94,133.81C138.463,133.667 137.996,133.183 137.898,132.732C137.851,132.514 137.897,132.343 138.01,132.239L150.241,121.024C150.129,121.127 150.083,121.299 150.13,121.516C150.228,121.967 150.694,122.451 151.171,122.594C151.421,122.669 151.625,122.636 151.749,122.523Z"/>
                        </clipPath>
                        <g clip-path="url(#_clip2)">
                            <path d="M151.749,122.523L139.517,133.738C139.515,133.741 139.512,133.743 139.51,133.745L151.741,122.529C151.744,122.527 151.746,122.525 151.749,122.523Z" style="fill:rgb(44,45,44);fill-rule:nonzero;"/>
                            <path d="M151.741,122.529L139.51,133.745C139.494,133.759 139.477,133.771 139.459,133.782L151.691,122.567C151.709,122.555 151.726,122.543 151.741,122.529Z" style="fill:rgb(44,45,44);fill-rule:nonzero;"/>
                            <path d="M151.691,122.567L139.459,133.782C139.441,133.794 139.421,133.804 139.4,133.812L151.631,122.596C151.652,122.588 151.672,122.578 151.691,122.567Z" style="fill:rgb(44,45,44);fill-rule:nonzero;"/>
                            <path d="M151.631,122.596L139.4,133.812C139.379,133.821 139.356,133.829 139.332,133.835L151.563,122.619C151.587,122.613 151.61,122.606 151.631,122.596Z" style="fill:rgb(44,45,44);fill-rule:nonzero;"/>
                            <path d="M151.563,122.619L139.332,133.835C139.305,133.841 139.277,133.845 139.249,133.848L151.481,122.632C151.509,122.63 151.537,122.625 151.563,122.619Z" style="fill:rgb(44,45,44);fill-rule:nonzero;"/>
                            <path d="M151.481,122.632L139.249,133.848C139.215,133.851 139.179,133.851 139.142,133.848L151.374,122.633C151.411,122.635 151.446,122.635 151.481,122.632Z" style="fill:rgb(44,45,44);fill-rule:nonzero;"/>
                            <path d="M151.374,122.633L139.142,133.848C139.084,133.844 139.022,133.833 138.956,133.815L151.188,122.599C151.253,122.617 151.316,122.629 151.374,122.633Z" style="fill:rgb(44,45,44);fill-rule:nonzero;"/>
                            <path d="M151.188,122.599L138.956,133.815C138.951,133.813 138.945,133.812 138.94,133.81C138.851,133.783 138.763,133.745 138.678,133.697L150.91,122.482C150.995,122.529 151.083,122.568 151.171,122.594C151.177,122.596 151.182,122.597 151.188,122.599Z" style="fill:rgb(44,45,44);fill-rule:nonzero;"/>
                            <path d="M150.91,122.482L138.678,133.697C138.614,133.662 138.552,133.621 138.492,133.576L150.723,122.361C150.783,122.406 150.846,122.446 150.91,122.482Z" style="fill:rgb(44,45,44);fill-rule:nonzero;"/>
                            <path d="M150.723,122.361L138.492,133.576C138.453,133.548 138.416,133.517 138.38,133.485L150.611,122.269C150.648,122.301 150.685,122.332 150.723,122.361Z" style="fill:rgb(44,45,44);fill-rule:nonzero;"/>
                            <path d="M150.611,122.269L138.38,133.485C138.349,133.458 138.32,133.43 138.292,133.402L150.524,122.186C150.552,122.215 150.581,122.242 150.611,122.269Z" style="fill:rgb(44,45,44);fill-rule:nonzero;"/>
                            <path d="M150.524,122.186L138.292,133.402C138.267,133.376 138.242,133.349 138.218,133.322L150.449,122.107C150.473,122.134 150.498,122.16 150.524,122.186Z" style="fill:rgb(44,45,44);fill-rule:nonzero;"/>
                            <path d="M150.449,122.107L138.218,133.322C138.195,133.297 138.174,133.271 138.153,133.244L150.385,122.029C150.405,122.055 150.427,122.081 150.449,122.107Z" style="fill:rgb(44,45,44);fill-rule:nonzero;"/>
                            <path d="M150.385,122.029L138.153,133.244C138.133,133.218 138.113,133.191 138.095,133.164L150.326,121.948C150.345,121.976 150.364,122.002 150.385,122.029Z" style="fill:rgb(44,45,44);fill-rule:nonzero;"/>
                            <path d="M150.326,121.948L138.095,133.164C138.076,133.136 138.058,133.109 138.041,133.081L150.273,121.865C150.29,121.893 150.308,121.921 150.326,121.948Z" style="fill:rgb(44,45,44);fill-rule:nonzero;"/>
                            <path d="M150.273,121.865L138.041,133.081C138.023,133.05 138.006,133.019 137.991,132.988L150.222,121.773C150.238,121.803 150.255,121.835 150.273,121.865Z" style="fill:rgb(44,45,44);fill-rule:nonzero;"/>
                            <path d="M150.222,121.773L137.991,132.988C137.972,132.951 137.956,132.914 137.942,132.877L150.173,121.661C150.188,121.698 150.204,121.736 150.222,121.773Z" style="fill:rgb(44,45,44);fill-rule:nonzero;"/>
                            <path d="M150.173,121.661L137.942,132.877C137.923,132.828 137.909,132.78 137.898,132.732C137.851,132.514 137.897,132.343 138.01,132.239L150.241,121.024C150.129,121.127 150.083,121.299 150.13,121.516C150.14,121.564 150.155,121.612 150.173,121.661Z" style="fill:rgb(44,45,44);fill-rule:nonzero;"/>
                        </g>
                    </g>
                </g>
                <g transform="matrix(0.400679,0,0,0.671583,1601.25,346.395)">
                    <path d="M162.596,119.157C166.699,117.872 168.46,119.921 166.532,123.737C164.605,127.554 159.726,131.683 155.623,132.967C151.52,134.253 149.759,132.204 151.686,128.387C153.613,124.57 158.493,120.442 162.596,119.157Z" style="fill:rgb(254,193,21);fill-rule:nonzero;"/>
                </g>
                <g transform="matrix(0.400679,0,0,0.671583,1601.25,346.395)">
                    <path d="M159.322,121.305C160.311,122.474 160.168,124.221 159.003,125.208C157.837,126.194 156.09,126.046 155.101,124.877C154.112,123.707 154.255,121.96 155.421,120.974C156.587,119.988 158.333,120.136 159.322,121.305Z" style="fill:rgb(250,251,252);fill-rule:nonzero;"/>
                </g>
                <g transform="matrix(0.400679,0,0,0.671583,1601.25,346.395)">
                    <path d="M153.877,114.15L153.419,113.608C152.425,112.435 150.317,112.587 148.709,113.947C147.101,115.308 146.602,117.362 147.594,118.536L148.144,119.185C145.751,123.042 147.011,126.748 148.613,129.279L151.38,132.575C151.255,132.426 151.162,132.25 151.086,132.063C151.07,132.023 151.053,131.984 151.04,131.943C150.975,131.752 150.932,131.545 150.917,131.319C150.914,131.282 150.917,131.241 150.915,131.202C150.908,130.99 150.923,130.763 150.959,130.523C150.965,130.48 150.967,130.44 150.975,130.396C151.023,130.13 151.099,129.846 151.199,129.55C151.234,129.447 151.271,129.342 151.313,129.236C151.343,129.155 151.374,129.074 151.409,128.991C151.492,128.795 151.581,128.594 151.686,128.387C151.925,127.913 152.211,127.435 152.534,126.957C152.538,126.951 152.542,126.946 152.546,126.941C152.866,126.467 153.226,125.995 153.615,125.531C153.624,125.52 153.633,125.509 153.642,125.499C154.033,125.034 154.454,124.576 154.9,124.132C154.902,124.129 154.906,124.126 154.909,124.123C155.355,123.679 155.824,123.249 156.309,122.838C156.319,122.829 156.33,122.82 156.34,122.811C156.808,122.416 157.292,122.04 157.785,121.686C157.848,121.64 157.913,121.597 157.978,121.552C158.45,121.219 158.929,120.903 159.412,120.617C159.42,120.612 159.428,120.607 159.437,120.601C159.934,120.309 160.432,120.05 160.927,119.819C160.985,119.792 161.042,119.764 161.1,119.738C161.605,119.509 162.107,119.31 162.596,119.157C162.85,119.077 163.094,119.011 163.33,118.957C163.343,118.954 163.356,118.952 163.369,118.949C163.593,118.898 163.808,118.858 164.015,118.83C164.029,118.828 164.044,118.826 164.058,118.825C164.258,118.799 164.45,118.783 164.633,118.777C164.651,118.777 164.67,118.776 164.688,118.776C164.868,118.772 165.039,118.779 165.201,118.794C165.215,118.796 165.229,118.796 165.242,118.798C165.414,118.816 165.576,118.845 165.728,118.884C165.731,118.885 165.733,118.886 165.736,118.887C165.885,118.926 166.024,118.977 166.153,119.037C166.165,119.042 166.176,119.049 166.188,119.054C166.308,119.112 166.42,119.179 166.521,119.254C166.534,119.264 166.547,119.275 166.56,119.285C166.662,119.365 166.757,119.452 166.839,119.55L164.025,116.198C161.737,114.115 158.188,112.18 153.877,114.15Z" style="fill:rgb(242,105,36);fill-rule:nonzero;"/>
                </g>
            </g>
            <g transform="matrix(0.990902,0,0,1.66086,1424.45,407.502)">
                <path d="M262.552,37.623L257.519,34.718L255.64,37.623L258.587,40.183L262.552,37.623Z" style="fill:white;fill-rule:nonzero;"/>
            </g>
            <g transform="matrix(0.990902,0,0,1.66086,1424.45,407.502)">
                <path d="M268.763,20.278L268.763,35.009C268.763,36.11 267.571,36.798 266.618,36.247L249.283,26.24C248.841,25.984 248.567,25.512 248.567,25.001L248.567,10.27C248.567,9.169 249.76,8.481 250.713,9.032L268.048,19.039C268.49,19.295 268.763,19.767 268.763,20.278Z" style="fill:rgb(4,5,7);fill-rule:nonzero;"/>
            </g>
            <g transform="matrix(0.990902,0,0,1.66086,1424.45,407.502)">
                <path d="M268.057,36.247L267.097,36.801L265.976,35.629L268.196,34.27L268.057,36.247Z" style="fill:rgb(4,5,7);fill-rule:nonzero;"/>
            </g>
            <g transform="matrix(0.990902,0,0,1.66086,1424.45,407.502)">
                <path d="M249.192,9.089L248.365,9.568L250.021,9.597L249.192,9.089Z" style="fill:rgb(4,5,7);fill-rule:nonzero;"/>
            </g>
            <g transform="matrix(0.990902,0,0,1.66086,1424.45,407.502)">
                <path d="M267.837,20.82L267.837,35.55C267.837,36.651 266.645,37.339 265.691,36.789L248.357,26.781C247.914,26.526 247.642,26.054 247.642,25.542L247.642,10.812C247.642,9.711 248.833,9.023 249.787,9.573L267.121,19.581C267.564,19.836 267.837,20.309 267.837,20.82Z" style="fill:rgb(52,53,53);fill-rule:nonzero;"/>
            </g>
            <g transform="matrix(0.990902,0,0,1.66086,1424.45,407.502)">
                <path d="M254.237,25.377L254.237,38.4L258.202,40.698L258.202,27.681L254.237,25.377Z" style="fill:rgb(237,238,239);fill-rule:nonzero;"/>
            </g>
            <g transform="matrix(0.990902,0,0,1.66086,1424.45,407.502)">
                <path d="M254.237,25.377L254.758,25.087L258.722,27.39L258.202,27.681L254.237,25.377Z" style="fill:white;fill-rule:nonzero;"/>
            </g>
            <g transform="matrix(0.990902,0,0,1.66086,1424.45,407.502)">
                <path d="M258.722,27.39L258.202,27.681L258.202,40.698L258.722,40.407L258.722,27.39Z" style="fill:rgb(199,198,197);fill-rule:nonzero;"/>
            </g>
            <g transform="matrix(0.990902,0,0,1.66086,1424.45,407.502)">
                <path d="M258.587,40.483L262.552,38.182L262.552,37.623L258.587,39.918L258.587,40.483Z" style="fill:rgb(199,198,197);fill-rule:nonzero;"/>
            </g>
            <g transform="matrix(0.990902,0,0,1.66086,1424.45,407.502)">
                <path d="M259.406,23.045C259.406,23.995 258.471,24.224 257.316,23.559C256.164,22.893 255.23,21.583 255.23,20.634C255.23,19.685 256.164,19.455 257.316,20.121C258.471,20.787 259.406,22.096 259.406,23.045Z" style="fill:white;fill-rule:nonzero;"/>
            </g>
            <g transform="matrix(0.990902,0,0,1.66086,1421.59,408.964)">
                <path d="M301.563,55.874L290.291,62.376L278.281,55.397L289.524,48.919L301.563,55.874Z" style="fill:rgb(224,63,50);fill-rule:nonzero;"/>
            </g>
            <g transform="matrix(0.990902,0,0,1.66086,1421.59,408.964)">
                <path d="M300.489,55.602L290.257,61.505L279.355,55.169L289.56,49.289L300.489,55.602Z" style="fill:white;fill-rule:nonzero;"/>
            </g>
            <g transform="matrix(0.990902,0,0,1.66086,1421.59,408.964)">
                <path d="M301.563,55.268L290.291,59.592L278.281,52.613L289.524,48.313L301.563,55.268Z" style="fill:rgb(241,97,93);fill-rule:nonzero;"/>
            </g>
            <g transform="matrix(0.990902,0,0,1.66086,1421.59,408.964)">
                <path d="M290.291,59.592L290.291,62.376L278.281,55.397L278.281,52.613L290.291,59.592Z" style="fill:rgb(224,63,50);fill-rule:nonzero;"/>
            </g>
            <g transform="matrix(0.990902,0,0,1.66086,1421.59,408.964)">
                <path d="M280.428,54.664L289.237,59.801L289.237,60.959L280.428,55.822L280.428,54.664Z" style="fill:white;fill-rule:nonzero;"/>
            </g>
            <g transform="matrix(0.990902,0,0,1.66086,1421.59,408.964)">
                <path d="M278.89,52.967L279.583,53.37L279.583,56.153L278.89,55.75L278.89,52.967Z" style="fill:white;fill-rule:nonzero;"/>
            </g>
        </g>
        <g id="Informaticienne" transform="matrix(1,0,0,1,-200.136,22.6595)">
            <g>
                <g transform="matrix(0.676228,0.261656,-0.156109,1.13344,1562.2,339.466)">
                    <path d="M378.454,62.316C377.932,60.299 374.999,59.039 374.89,61.56C374.78,64.081 373.12,66.351 372.5,67.233C371.88,68.116 373.639,69.628 375.092,68.368C376.545,67.107 376.702,66.855 377.506,66.477C378.31,66.099 378.978,64.333 378.454,62.316Z" style="fill:rgb(251,196,179);fill-rule:nonzero;"/>
                </g>
                <g transform="matrix(0.676228,0.261656,-0.156109,1.13344,1562.2,339.466)">
                    <path d="M372.5,67.233C372.5,67.233 370.723,68.573 370.117,69.24C369.513,69.907 371.233,71.015 372.943,70.511C374.653,70.007 376.113,68.488 377.506,67.359C378.872,66.253 379.249,65.852 379.249,64.507C379.249,63.845 378.603,63.116 378.603,63.116C378.603,63.116 378.053,65.817 376.08,66.864C374.197,67.864 373.435,67.994 372.5,67.233Z" style="fill:rgb(33,124,192);fill-rule:nonzero;"/>
                </g>
                <g transform="matrix(0.705134,0.0873844,-0.0521351,1.18188,1549.2,398.941)">
                    <path d="M383.655,65.531C383.132,63.514 380.199,62.253 380.09,64.775C379.981,67.296 378.32,69.565 377.7,70.448C377.081,71.331 378.839,72.843 380.292,71.582C381.745,70.322 381.902,70.07 382.706,69.691C383.51,69.313 384.178,67.548 383.655,65.531Z" style="fill:rgb(251,196,179);fill-rule:nonzero;"/>
                </g>
                <g transform="matrix(0.705134,0.0873844,-0.0521351,1.18188,1549.2,398.941)">
                    <path d="M377.7,70.448C377.7,70.448 375.923,71.788 375.318,72.455C374.713,73.122 376.433,74.23 378.144,73.726C379.855,73.222 381.314,71.702 382.706,70.574C384.072,69.468 384.449,69.066 384.449,67.722C384.449,67.06 383.803,66.331 383.803,66.331C383.803,66.331 383.253,69.032 381.28,70.079C379.398,71.079 378.635,71.209 377.7,70.448Z" style="fill:rgb(33,124,192);fill-rule:nonzero;"/>
                </g>
                <g transform="matrix(-0.564355,0,0,0.945922,2015.14,406.413)">
                    <path d="M363.929,59.968C363.929,59.968 360.657,64.767 363.302,72.302C365.946,79.839 367.124,86.611 366.892,88.925C366.659,91.24 364.61,96.031 365.581,100.321C366.552,104.614 365.946,107.585 365.946,107.585C365.946,107.585 367.529,108.981 371.773,108.223C370.81,107.963 372.815,94.136 375.104,89.133C377.361,84.199 381.274,68.558 377.655,55.828C377.655,55.828 371.688,58.978 363.929,59.968Z" style="fill:rgb(31,28,34);fill-rule:nonzero;"/>
                </g>
                <g transform="matrix(-0.503162,0.152516,0.100431,0.930824,1986.31,351.893)">
                    <path d="M356.638,56.884C356.638,56.884 351.724,64.786 356.003,74.954C359.101,82.315 359.825,89.261 359.593,91.575C359.36,93.89 357.814,98.156 358.784,102.448C359.755,106.738 359.657,109.432 359.657,109.432C359.657,109.432 362.613,111.567 366.383,109.819C366.383,109.819 366.378,97.018 367.804,91.785C369.233,86.551 373.976,71.209 370.356,58.479C370.356,58.479 363.253,60.254 356.638,56.884Z" style="fill:rgb(44,41,49);fill-rule:nonzero;"/>
                </g>
                <g transform="matrix(0.990902,0,0,1.66086,1421.59,408.964)">
                    <path d="M384.317,17.546C384.317,17.546 383.837,17.306 383.148,16.679C382.319,15.925 382.319,15.135 382.319,15.135C382.319,15.135 385.856,10.786 387.233,9.82C388.612,8.854 390.85,10.936 390.85,10.936L384.317,17.546Z" style="fill:rgb(254,190,44);fill-rule:nonzero;"/>
                </g>
                <g transform="matrix(0.990902,0,0,1.66086,1421.59,408.964)">
                    <path d="M399.094,16.945C398.833,15.639 395.016,12.741 395.016,12.741C395.016,12.741 392.727,14.392 391.92,14.963C391.148,15.51 389.833,16.945 389.722,17.067L389.703,17.063C389.732,16.818 389.976,14.854 390.85,12.789C391.125,12.138 390.85,10.185 390.85,10.185C390.85,10.185 390.545,10.092 390.102,9.991C389.394,10.702 387.98,12.611 387.225,13.394C386.495,14.15 383.694,16.483 384.324,19.067C384.512,19.835 384.757,20.505 385.112,21.462C385.511,22.537 385.386,24.54 385.275,25.625C385.15,26.872 383.826,30.112 383.826,30.112C383.826,30.112 386.533,33.575 389.616,33.588C393.215,33.603 396.096,31.074 396.096,31.074C396.096,31.074 395.289,25.717 395.513,23.479C395.513,23.479 399.956,21.256 399.094,16.945Z" style="fill:rgb(251,224,35);fill-rule:nonzero;"/>
                </g>
                <g transform="matrix(0.990902,0,0,1.66086,1421.59,408.964)">
                    <path d="M387.804,14.998C387.804,14.998 387.335,17.764 387.4,19.26C387.464,20.756 387.544,21.756 387.544,21.756C387.544,21.756 387.656,25.154 387.394,26.456C387.131,27.756 385.666,31.923 385.666,31.923L386.339,32.419C386.339,32.419 388.281,27.941 388.414,26.099C388.547,24.256 388.414,21.581 388.414,21.581L393.818,16.663L387.804,14.998Z" style="fill:rgb(254,190,44);fill-rule:nonzero;"/>
                </g>
                <g transform="matrix(0.990902,0,0,1.66086,1421.59,408.964)">
                    <path d="M388.414,14.712C388.414,14.712 388.27,15.753 388.075,17.546C387.881,19.34 388.075,20.423 388.075,20.423C388.075,20.423 391.686,17.842 392.949,16.799C394.214,15.756 389.703,17.063 389.703,17.063L388.414,14.712Z" style="fill:rgb(237,238,239);fill-rule:nonzero;"/>
                </g>
                <g transform="matrix(0.990902,0,0,1.66086,1421.59,408.964)">
                    <path d="M389.629,12.171C389.629,12.171 387.379,14.737 387.553,15.759C388.12,16.302 389.438,17.374 389.438,17.374L390.955,12.359L389.629,12.171Z" style="fill:white;fill-rule:nonzero;"/>
                </g>
                <g transform="matrix(0.990902,0,0,1.66086,1421.59,408.964)">
                    <path d="M386.492,5.177C386.492,5.177 386.239,7.354 386.384,9.177C386.798,14.381 386.907,15.494 387.463,16.966C388.504,14.274 390.489,11.882 390.489,11.882L386.492,5.177Z" style="fill:rgb(4,5,7);fill-rule:nonzero;"/>
                </g>
                <g transform="matrix(0.990902,0,0,1.66086,1421.29,408.959)">
                    <path d="M379.986,29.547C379.547,28.756 378.988,31.18 379.381,31.136C379.773,31.092 379.815,31.785 380.15,32.109C380.484,32.432 380.87,32.34 380.87,32.34C380.87,32.34 380.425,30.338 379.986,29.547Z" style="fill:rgb(251,196,179);fill-rule:nonzero;"/>
                </g>
                <g transform="matrix(0.539269,0.427795,-0.205133,0.726462,-2671.42,-10698.7)">
                    <path d="M11546.5,8564.07C11546.5,8563.66 11546.3,8563.33 11545.9,8563.33L11540.8,8563.33C11540.5,8563.33 11540.2,8563.66 11540.2,8564.07L11540.2,8565.54C11540.2,8565.95 11540.5,8566.28 11540.8,8566.28L11545.9,8566.28C11546.3,8566.28 11546.5,8565.95 11546.5,8565.54L11546.5,8564.07Z" style="fill:white;"/>
                </g>
                <g transform="matrix(0.596436,-0.0247237,0.0118553,0.803473,-5180.73,-6142.52)">
                    <path d="M11546.5,8564.07C11546.5,8563.66 11546.3,8563.33 11545.9,8563.33L11540.8,8563.33C11540.5,8563.33 11540.2,8563.66 11540.2,8564.07L11540.2,8565.54C11540.2,8565.95 11540.5,8566.28 11540.8,8566.28L11545.9,8566.28C11546.3,8566.28 11546.5,8565.95 11546.5,8565.54L11546.5,8564.07Z" style="fill:white;"/>
                </g>
                <g transform="matrix(0.990902,0,0,1.66086,1421.59,408.964)">
                    <path d="M390.604,10.472C390.604,10.472 390.525,12.694 390.074,13.859C389.721,14.356 389.311,15.956 389.438,17.374C390.186,16.997 391.443,15.798 392.159,15.18C393.025,14.432 395.289,12.971 395.289,12.971L395.212,6.391L390.604,10.472Z" style="fill:rgb(247,159,142);fill-rule:nonzero;"/>
                </g>
                <g transform="matrix(0.990902,0,0,1.66086,1421.59,408.964)">
                    <path d="M393.253,2.659C391.799,1.551 388.354,1.196 387.096,4.756C385.776,8.489 389.155,13.152 390.955,12.359C391.964,11.916 394.084,10.34 394.681,8.374C395.353,6.163 394.383,3.52 393.253,2.659Z" style="fill:rgb(251,196,179);fill-rule:nonzero;"/>
                </g>
                <g transform="matrix(0.990902,0,0,1.66086,1421.59,408.964)">
                    <path d="M395.273,11.617C395.273,11.617 393.857,12.48 392.614,13.771C390.677,15.785 389.438,17.374 389.438,17.374C389.438,17.374 390.054,17.809 392.352,18.007C394.211,16.212 395.81,15.116 396.456,13.913C396.424,13.364 395.273,11.617 395.273,11.617Z" style="fill:white;fill-rule:nonzero;"/>
                </g>
                <g transform="matrix(0.990902,0,0,1.66086,1421.59,408.964)">
                    <path d="M396.257,3.666C395.654,2.555 394.239,1.035 393.198,0.606C391.111,-0.253 389.678,0.485 387.712,2.293C386.53,3.381 385.987,4.664 385.987,6.698C385.987,6.698 389.024,8.865 390.85,9.243C391.696,9.418 392.867,8.914 393.554,8.577C393.635,9.511 393.745,10.57 393.716,11.072C393.331,17.72 392.991,19.945 392.991,19.945C392.991,19.945 393.573,19.93 394.396,18.476C394.844,17.685 395.79,16.571 396.487,14.012C396.862,12.633 397.349,5.678 396.257,3.666Z" style="fill:rgb(4,5,7);fill-rule:nonzero;"/>
                </g>
                <g transform="matrix(0.723402,0.396697,-0.177497,0.909322,-5040.01,-11899.5)">
                    <ellipse cx="11552.9" cy="8555.69" rx="1.279" ry="2.592" style="fill:white;"/>
                </g>
                <g transform="matrix(0.753038,-0.185593,0.083041,0.946574,-7606.57,-5500.5)">
                    <ellipse cx="11552.9" cy="8555.69" rx="1.279" ry="2.592" style="fill:white;"/>
                </g>
                <g transform="matrix(-0.274938,-1.59565,0.951996,-0.460827,1902.89,1088.47)">
                    <path d="M393.173,10.569C392.919,10.641 392.863,10.743 392.946,11.071C392.59,11.262 392.451,11.492 392.589,11.756C392.532,11.882 392.352,11.882 392.352,12.391C392.352,13.577 393.147,14.581 393.265,15.29C393.383,15.998 391.327,21.969 391.25,23.644C391.172,25.319 392.346,26.345 393.494,26.099C394.785,25.823 396.637,24.282 396.637,24.282C396.637,24.282 396.487,23.249 394.926,22.436C395.052,20.197 395.319,16.075 395.568,14.048C395.817,12.011 396.102,10.253 396.102,10.253C396.102,10.253 395.563,10.253 395.289,10.861C395.015,11.469 394.87,11.882 394.87,11.882C394.87,11.882 393.832,10.384 393.173,10.569Z" style="fill:rgb(251,196,179);fill-rule:nonzero;"/>
                </g>
                <g transform="matrix(0.730073,-1.12297,0.669985,1.22369,1512.98,863.435)">
                    <path d="M396.924,25.172C397.461,24.058 399.02,21.677 399.205,21.067C399.699,19.45 400.729,17.431 398.72,15.854C396.956,14.469 394.782,18.492 394.378,19.91C393.941,21.447 394.083,21.252 393.818,22.121C396.256,22.939 396.553,24.026 396.924,25.172Z" style="fill:rgb(254,190,44);fill-rule:nonzero;"/>
                </g>
                <g transform="matrix(0.990902,0,0,1.66086,1421.59,408.964)">
                    <path d="M382.544,15.903C382.544,15.903 378.809,20.179 378.086,21.361C377.131,22.923 377.299,28.038 377.19,28.984C377.081,29.931 376.257,31.008 376.388,32.43C376.519,33.851 377.727,34.268 378.141,33.991C378.972,33.434 380.055,26.929 379.986,25.952C380.108,24.901 380.69,22.819 380.69,22.819L384.501,19.711C384.501,19.711 384.089,18.371 384.317,17.546C383.547,17.062 382.544,15.903 382.544,15.903Z" style="fill:rgb(251,196,179);fill-rule:nonzero;"/>
                </g>
                <g transform="matrix(1,0,0,1,180.898,-0.556895)">
                    <g transform="matrix(0.729773,0,0,1.22318,1497.12,111.891)">
                        <path d="M184.882,254.223C182.705,255.481 179.164,255.474 176.974,254.209C175.411,253.308 174.957,252.008 175.617,250.882C175.882,251.344 176.336,251.779 176.974,252.146C179.164,253.41 182.705,253.417 184.882,252.159L185.115,252.016C185.618,251.689 186.239,251.15 186.239,249.581C186.522,250.146 186.316,249.731 186.548,250.198L186.486,251.683C186.62,252.594 186.085,253.528 184.882,254.223Z" style="fill:rgb(222,242,251);fill-rule:nonzero;"/>
                    </g>
                    <g transform="matrix(0.729773,0,0,1.22318,1497.12,111.891)">
                        <path d="M184.923,254.635C182.746,255.893 179.206,255.887 177.015,254.622C175.452,253.721 174.998,252.42 175.658,251.294C175.924,251.757 176.378,252.191 177.015,252.559C179.206,253.823 182.746,253.83 184.923,252.573L185.156,252.429C185.66,252.102 186.026,251.729 186.255,251.334C186.399,251.09 186.49,250.837 186.528,250.583L186.528,252.095C186.662,253.006 186.126,253.941 184.923,254.635Z" style="fill:rgb(178,178,178);fill-rule:nonzero;"/>
                    </g>
                    <g transform="matrix(0.729773,0,0,1.22318,1497.12,111.891)">
                        <path d="M184.169,246.045C184.005,245.961 183.829,245.902 183.641,245.865C183.482,245.834 183.317,245.82 183.144,245.823C182.596,245.832 181.98,246.016 181.328,246.392C179.039,247.714 177.183,250.915 177.183,253.542C177.183,254.515 177.438,255.271 177.873,255.773C176.767,255.558 176.04,254.529 176.04,252.882C176.04,250.254 177.895,247.054 180.184,245.732C181.393,245.033 183.37,245.248 184.128,245.756L184.169,246.045Z" style="fill:rgb(200,215,255);fill-rule:nonzero;"/>
                    </g>
                    <g transform="matrix(0.729773,0,0,1.22318,1497.12,111.891)">
                        <path d="M184.128,245.756C183.964,245.672 183.788,245.613 183.6,245.576C183.441,245.545 183.276,245.531 183.103,245.533C182.555,245.543 181.939,245.727 181.287,246.103C178.998,247.425 177.142,250.626 177.142,253.254C177.142,254.226 177.396,254.982 177.832,255.484C176.726,255.27 175.998,254.24 175.998,252.594C175.998,249.966 177.854,246.765 180.143,245.443C181.351,244.744 182.439,244.71 183.197,245.218L184.128,245.756Z" style="fill:white;fill-rule:nonzero;"/>
                    </g>
                    <g transform="matrix(0.729773,0,0,1.22318,1497.12,111.891)">
                        <path d="M181.865,254.457L181.865,255.403C181.865,255.995 181.657,256.405 181.332,256.56C181.35,256.581 179.329,257.839 178.715,257.599C170.062,253.254 172.621,249.911 172.621,249.911L172.688,249.871L173.829,249.206L174.351,248.903C174.582,248.695 174.896,248.637 175.252,248.782C175.488,249.534 176.112,250.254 177.121,250.835C178.126,251.416 179.369,251.773 180.666,251.911C181.345,252.437 181.865,253.515 181.865,254.457Z" style="fill:rgb(241,241,243);"/>
                    </g>
                    <g transform="matrix(0.729773,0,0,1.22318,1497.12,111.891)">
                        <path d="M180.792,254.12L180.833,255.813C180.833,256.357 179.988,257.141 179.104,257.478C178.974,257.53 178.844,257.572 178.715,257.599C178.259,257.701 177.825,257.655 177.526,257.367L173.108,254.816C172.776,254.624 172.419,254.271 172.141,253.853C171.842,253.41 171.682,253.207 171.682,252.738C171.682,252.738 171.658,251.253 171.837,250.974C172.423,250.051 172.562,249.88 172.662,249.868C172.332,250.481 172.52,251.1 173.24,251.514L177.046,253.713C177.543,254 178.208,254.14 178.907,254.14C179.534,254.14 179.884,254.054 180.461,253.831C180.561,253.878 180.792,253.944 180.792,254.12Z" style="fill:white;fill-rule:nonzero;"/>
                    </g>
                </g>
            </g>
        </g>
    </g>
</svg>
