<?xml version="1.0" encoding="UTF-8" standalone="no"?>
<!DOCTYPE svg PUBLIC "-//W3C//DTD SVG 1.1//EN" "http://www.w3.org/Graphics/SVG/1.1/DTD/svg11.dtd">
<svg width="100%" height="100%" viewBox="0 0 67 27" version="1.1" xmlns="http://www.w3.org/2000/svg" xmlnsXlink="http://www.w3.org/1999/xlink" xmlSpace="preserve" xmlnsSerif="http://www.serif.com/" style="fill-rule:evenodd;clip-rule:evenodd;stroke-linejoin:round;stroke-miterlimit:2;">
    <g transform="matrix(1,0,0,1,-2805.28,-535.912)">
        <g>
            <path d="M2831.3,557.164C2831.3,557.164 2819.75,555.753 2813.08,551.522C2806.41,547.291 2805.07,545.805 2805.3,543.746C2805.53,541.688 2810.1,538.753 2819.25,541.688C2828.4,544.623 2835.76,550.264 2836.48,551.522L2831.3,557.164Z" style="fill:rgb(167,158,160);"/>
            <path d="M2834.19,558.155L2838.81,552.704C2838.81,552.704 2844.33,553.276 2847.84,555.334C2851.35,557.392 2850.28,559.603 2850.28,559.603C2850.28,559.603 2847.42,564.749 2834.19,558.155Z" style="fill:rgb(167,158,160);"/>
            <path d="M2855.39,553.962C2855.39,553.962 2839.61,549.807 2835.95,540.449C2835.95,540.449 2835.26,538.067 2839,536.542C2842.73,535.017 2847.65,536.237 2855.31,540.449C2862.97,544.661 2865.22,550.296 2864.99,550.985L2855.39,553.962Z" style="fill:rgb(167,158,160);"/>
            <path d="M2856.87,555.296C2856.87,555.296 2860.49,562.424 2867.66,561.967C2874.83,561.509 2871.28,556.744 2871.28,556.744C2871.28,556.744 2868.54,553.428 2866.55,552.704L2856.87,555.296Z" style="fill:rgb(167,158,160);"/>
        </g>
    </g>
</svg>
