<?xml version="1.0" encoding="UTF-8" standalone="no"?>
<!DOCTYPE svg PUBLIC "-//W3C//DTD SVG 1.1//EN" "http://www.w3.org/Graphics/SVG/1.1/DTD/svg11.dtd">
<svg width="100%" height="100%" viewBox="0 0 64 166" version="1.1" xmlns="http://www.w3.org/2000/svg" xmlnsXlink="http://www.w3.org/1999/xlink" xmlSpace="preserve" xmlnSerif="http://www.serif.com/" style="fill-rule:evenodd;clip-rule:evenodd;stroke-linejoin:round;stroke-miterlimit:2;">
    <g transform="matrix(1,0,0,1,-686.695,-1417.41)">
        <g transform="matrix(2.52977,0,0,1.50931,-3853.09,799.538)">
            <g>
                <g transform="matrix(0.676228,0.261656,-0.156109,1.13344,1562.2,339.466)">
                    <path d="M378.454,62.316C377.932,60.299 374.999,59.039 374.89,61.56C374.78,64.081 373.12,66.351 372.5,67.233C371.88,68.116 373.639,69.628 375.092,68.368C376.545,67.107 376.702,66.855 377.506,66.477C378.31,66.099 378.978,64.333 378.454,62.316Z" style="fill:rgb(251,196,179);fill-rule:nonzero;"/>
                </g>
                <g transform="matrix(0.676228,0.261656,-0.156109,1.13344,1562.2,339.466)">
                    <path d="M372.5,67.233C372.5,67.233 370.723,68.573 370.117,69.24C369.513,69.907 371.233,71.015 372.943,70.511C374.653,70.007 376.113,68.488 377.506,67.359C378.872,66.253 379.249,65.852 379.249,64.507C379.249,63.845 378.603,63.116 378.603,63.116C378.603,63.116 378.053,65.817 376.08,66.864C374.197,67.864 373.435,67.994 372.5,67.233Z" style="fill:rgb(33,124,192);fill-rule:nonzero;"/>
                </g>
                <g transform="matrix(0.705134,0.0873844,-0.0521351,1.18188,1549.2,398.941)">
                    <path d="M383.655,65.531C383.132,63.514 380.199,62.253 380.09,64.775C379.981,67.296 378.32,69.565 377.7,70.448C377.081,71.331 378.839,72.843 380.292,71.582C381.745,70.322 381.902,70.07 382.706,69.691C383.51,69.313 384.178,67.548 383.655,65.531Z" style="fill:rgb(251,196,179);fill-rule:nonzero;"/>
                </g>
                <g transform="matrix(0.705134,0.0873844,-0.0521351,1.18188,1549.2,398.941)">
                    <path d="M377.7,70.448C377.7,70.448 375.923,71.788 375.318,72.455C374.713,73.122 376.433,74.23 378.144,73.726C379.855,73.222 381.314,71.702 382.706,70.574C384.072,69.468 384.449,69.066 384.449,67.722C384.449,67.06 383.803,66.331 383.803,66.331C383.803,66.331 383.253,69.032 381.28,70.079C379.398,71.079 378.635,71.209 377.7,70.448Z" style="fill:rgb(33,124,192);fill-rule:nonzero;"/>
                </g>
                <g transform="matrix(-0.564355,0,0,0.945922,2015.14,406.413)">
                    <path d="M363.929,59.968C363.929,59.968 360.657,64.767 363.302,72.302C365.946,79.839 367.124,86.611 366.892,88.925C366.659,91.24 364.61,96.031 365.581,100.321C366.552,104.614 365.946,107.585 365.946,107.585C365.946,107.585 367.529,108.981 371.773,108.223C370.81,107.963 372.815,94.136 375.104,89.133C377.361,84.199 381.274,68.558 377.655,55.828C377.655,55.828 371.688,58.978 363.929,59.968Z" style="fill:rgb(31,28,34);fill-rule:nonzero;"/>
                </g>
                <g transform="matrix(-0.503162,0.152516,0.100431,0.930824,1986.31,351.893)">
                    <path d="M356.638,56.884C356.638,56.884 351.724,64.786 356.003,74.954C359.101,82.315 359.825,89.261 359.593,91.575C359.36,93.89 357.814,98.156 358.784,102.448C359.755,106.738 359.657,109.432 359.657,109.432C359.657,109.432 362.613,111.567 366.383,109.819C366.383,109.819 366.378,97.018 367.804,91.785C369.233,86.551 373.976,71.209 370.356,58.479C370.356,58.479 363.253,60.254 356.638,56.884Z" style="fill:rgb(44,41,49);fill-rule:nonzero;"/>
                </g>
                <g transform="matrix(0.990902,0,0,1.66086,1421.59,408.964)">
                    <path d="M384.317,17.546C384.317,17.546 383.837,17.306 383.148,16.679C382.319,15.925 382.319,15.135 382.319,15.135C382.319,15.135 385.856,10.786 387.233,9.82C388.612,8.854 390.85,10.936 390.85,10.936L384.317,17.546Z" style="fill:rgb(254,190,44);fill-rule:nonzero;"/>
                </g>
                <g transform="matrix(0.990902,0,0,1.66086,1421.59,408.964)">
                    <path d="M399.094,16.945C398.833,15.639 395.016,12.741 395.016,12.741C395.016,12.741 392.727,14.392 391.92,14.963C391.148,15.51 389.833,16.945 389.722,17.067L389.703,17.063C389.732,16.818 389.976,14.854 390.85,12.789C391.125,12.138 390.85,10.185 390.85,10.185C390.85,10.185 390.545,10.092 390.102,9.991C389.394,10.702 387.98,12.611 387.225,13.394C386.495,14.15 383.694,16.483 384.324,19.067C384.512,19.835 384.757,20.505 385.112,21.462C385.511,22.537 385.386,24.54 385.275,25.625C385.15,26.872 383.826,30.112 383.826,30.112C383.826,30.112 386.533,33.575 389.616,33.588C393.215,33.603 396.096,31.074 396.096,31.074C396.096,31.074 395.289,25.717 395.513,23.479C395.513,23.479 399.956,21.256 399.094,16.945Z" style="fill:rgb(251,224,35);fill-rule:nonzero;"/>
                </g>
                <g transform="matrix(0.990902,0,0,1.66086,1421.59,408.964)">
                    <path d="M387.804,14.998C387.804,14.998 387.335,17.764 387.4,19.26C387.464,20.756 387.544,21.756 387.544,21.756C387.544,21.756 387.656,25.154 387.394,26.456C387.131,27.756 385.666,31.923 385.666,31.923L386.339,32.419C386.339,32.419 388.281,27.941 388.414,26.099C388.547,24.256 388.414,21.581 388.414,21.581L393.818,16.663L387.804,14.998Z" style="fill:rgb(254,190,44);fill-rule:nonzero;"/>
                </g>
                <g transform="matrix(0.990902,0,0,1.66086,1421.59,408.964)">
                    <path d="M388.414,14.712C388.414,14.712 388.27,15.753 388.075,17.546C387.881,19.34 388.075,20.423 388.075,20.423C388.075,20.423 391.686,17.842 392.949,16.799C394.214,15.756 389.703,17.063 389.703,17.063L388.414,14.712Z" style="fill:rgb(237,238,239);fill-rule:nonzero;"/>
                </g>
                <g transform="matrix(0.990902,0,0,1.66086,1421.59,408.964)">
                    <path d="M389.629,12.171C389.629,12.171 387.379,14.737 387.553,15.759C388.12,16.302 389.438,17.374 389.438,17.374L390.955,12.359L389.629,12.171Z" style="fill:white;fill-rule:nonzero;"/>
                </g>
                <g transform="matrix(0.990902,0,0,1.66086,1421.59,408.964)">
                    <path d="M386.492,5.177C386.492,5.177 386.239,7.354 386.384,9.177C386.798,14.381 386.907,15.494 387.463,16.966C388.504,14.274 390.489,11.882 390.489,11.882L386.492,5.177Z" style="fill:rgb(4,5,7);fill-rule:nonzero;"/>
                </g>
                <g transform="matrix(0.990902,0,0,1.66086,1421.29,408.959)">
                    <path d="M379.986,29.547C379.547,28.756 378.988,31.18 379.381,31.136C379.773,31.092 379.815,31.785 380.15,32.109C380.484,32.432 380.87,32.34 380.87,32.34C380.87,32.34 380.425,30.338 379.986,29.547Z" style="fill:rgb(251,196,179);fill-rule:nonzero;"/>
                </g>
                <g transform="matrix(0.539269,0.427795,-0.205133,0.726462,-2671.42,-10698.7)">
                    <path d="M11546.5,8564.07C11546.5,8563.66 11546.3,8563.33 11545.9,8563.33L11540.8,8563.33C11540.5,8563.33 11540.2,8563.66 11540.2,8564.07L11540.2,8565.54C11540.2,8565.95 11540.5,8566.28 11540.8,8566.28L11545.9,8566.28C11546.3,8566.28 11546.5,8565.95 11546.5,8565.54L11546.5,8564.07Z" style="fill:white;"/>
                </g>
                <g transform="matrix(0.596436,-0.0247237,0.0118553,0.803473,-5180.73,-6142.52)">
                    <path d="M11546.5,8564.07C11546.5,8563.66 11546.3,8563.33 11545.9,8563.33L11540.8,8563.33C11540.5,8563.33 11540.2,8563.66 11540.2,8564.07L11540.2,8565.54C11540.2,8565.95 11540.5,8566.28 11540.8,8566.28L11545.9,8566.28C11546.3,8566.28 11546.5,8565.95 11546.5,8565.54L11546.5,8564.07Z" style="fill:white;"/>
                </g>
                <g transform="matrix(0.990902,0,0,1.66086,1421.59,408.964)">
                    <path d="M390.604,10.472C390.604,10.472 390.525,12.694 390.074,13.859C389.721,14.356 389.311,15.956 389.438,17.374C390.186,16.997 391.443,15.798 392.159,15.18C393.025,14.432 395.289,12.971 395.289,12.971L395.212,6.391L390.604,10.472Z" style="fill:rgb(247,159,142);fill-rule:nonzero;"/>
                </g>
                <g transform="matrix(0.990902,0,0,1.66086,1421.59,408.964)">
                    <path d="M393.253,2.659C391.799,1.551 388.354,1.196 387.096,4.756C385.776,8.489 389.155,13.152 390.955,12.359C391.964,11.916 394.084,10.34 394.681,8.374C395.353,6.163 394.383,3.52 393.253,2.659Z" style="fill:rgb(251,196,179);fill-rule:nonzero;"/>
                </g>
                <g transform="matrix(0.990902,0,0,1.66086,1421.59,408.964)">
                    <path d="M395.273,11.617C395.273,11.617 393.857,12.48 392.614,13.771C390.677,15.785 389.438,17.374 389.438,17.374C389.438,17.374 390.054,17.809 392.352,18.007C394.211,16.212 395.81,15.116 396.456,13.913C396.424,13.364 395.273,11.617 395.273,11.617Z" style="fill:white;fill-rule:nonzero;"/>
                </g>
                <g transform="matrix(0.990902,0,0,1.66086,1421.59,408.964)">
                    <path d="M396.257,3.666C395.654,2.555 394.239,1.035 393.198,0.606C391.111,-0.253 389.678,0.485 387.712,2.293C386.53,3.381 385.987,4.664 385.987,6.698C385.987,6.698 389.024,8.865 390.85,9.243C391.696,9.418 392.867,8.914 393.554,8.577C393.635,9.511 393.745,10.57 393.716,11.072C393.331,17.72 392.991,19.945 392.991,19.945C392.991,19.945 393.573,19.93 394.396,18.476C394.844,17.685 395.79,16.571 396.487,14.012C396.862,12.633 397.349,5.678 396.257,3.666Z" style="fill:rgb(4,5,7);fill-rule:nonzero;"/>
                </g>
                <g transform="matrix(-0.274938,-1.59565,0.951996,-0.460827,1902.89,1088.47)">
                    <path d="M393.173,10.569C392.919,10.641 392.863,10.743 392.946,11.071C392.59,11.262 392.451,11.492 392.589,11.756C392.532,11.882 392.352,11.882 392.352,12.391C392.352,13.577 393.147,14.581 393.265,15.29C393.383,15.998 391.327,21.969 391.25,23.644C391.172,25.319 392.346,26.345 393.494,26.099C394.785,25.823 396.637,24.282 396.637,24.282C396.637,24.282 396.487,23.249 394.926,22.436C395.052,20.197 395.319,16.075 395.568,14.048C395.817,12.011 396.102,10.253 396.102,10.253C396.102,10.253 395.563,10.253 395.289,10.861C395.015,11.469 394.87,11.882 394.87,11.882C394.87,11.882 393.832,10.384 393.173,10.569Z" style="fill:rgb(251,196,179);fill-rule:nonzero;"/>
                </g>
                <g transform="matrix(0.730073,-1.12297,0.669985,1.22369,1512.98,863.435)">
                    <path d="M396.924,25.172C397.461,24.058 399.02,21.677 399.205,21.067C399.699,19.45 400.729,17.431 398.72,15.854C396.956,14.469 394.782,18.492 394.378,19.91C393.941,21.447 394.083,21.252 393.818,22.121C396.256,22.939 396.553,24.026 396.924,25.172Z" style="fill:rgb(254,190,44);fill-rule:nonzero;"/>
                </g>
                <g transform="matrix(0.990902,0,0,1.66086,1421.59,408.964)">
                    <path d="M382.544,15.903C382.544,15.903 378.809,20.179 378.086,21.361C377.131,22.923 377.299,28.038 377.19,28.984C377.081,29.931 376.257,31.008 376.388,32.43C376.519,33.851 377.727,34.268 378.141,33.991C378.972,33.434 380.055,26.929 379.986,25.952C380.108,24.901 380.69,22.819 380.69,22.819L384.501,19.711C384.501,19.711 384.089,18.371 384.317,17.546C383.547,17.062 382.544,15.903 382.544,15.903Z" style="fill:rgb(251,196,179);fill-rule:nonzero;"/>
                </g>
                <g transform="matrix(1,0,0,1,180.898,-0.556895)">
                    <g transform="matrix(0.729773,0,0,1.22318,1497.12,111.891)">
                        <path d="M184.882,254.223C182.705,255.481 179.164,255.474 176.974,254.209C175.411,253.308 174.957,252.008 175.617,250.882C175.882,251.344 176.336,251.779 176.974,252.146C179.164,253.41 182.705,253.417 184.882,252.159L185.115,252.016C185.618,251.689 186.239,251.15 186.239,249.581C186.522,250.146 186.316,249.731 186.548,250.198L186.486,251.683C186.62,252.594 186.085,253.528 184.882,254.223Z" style="fill:rgb(222,242,251);fill-rule:nonzero;"/>
                    </g>
                    <g transform="matrix(0.729773,0,0,1.22318,1497.12,111.891)">
                        <path d="M184.923,254.635C182.746,255.893 179.206,255.887 177.015,254.622C175.452,253.721 174.998,252.42 175.658,251.294C175.924,251.757 176.378,252.191 177.015,252.559C179.206,253.823 182.746,253.83 184.923,252.573L185.156,252.429C185.66,252.102 186.026,251.729 186.255,251.334C186.399,251.09 186.49,250.837 186.528,250.583L186.528,252.095C186.662,253.006 186.126,253.941 184.923,254.635Z" style="fill:rgb(178,178,178);fill-rule:nonzero;"/>
                    </g>
                    <g transform="matrix(0.729773,0,0,1.22318,1497.12,111.891)">
                        <path d="M184.169,246.045C184.005,245.961 183.829,245.902 183.641,245.865C183.482,245.834 183.317,245.82 183.144,245.823C182.596,245.832 181.98,246.016 181.328,246.392C179.039,247.714 177.183,250.915 177.183,253.542C177.183,254.515 177.438,255.271 177.873,255.773C176.767,255.558 176.04,254.529 176.04,252.882C176.04,250.254 177.895,247.054 180.184,245.732C181.393,245.033 183.37,245.248 184.128,245.756L184.169,246.045Z" style="fill:rgb(200,215,255);fill-rule:nonzero;"/>
                    </g>
                    <g transform="matrix(0.729773,0,0,1.22318,1497.12,111.891)">
                        <path d="M184.128,245.756C183.964,245.672 183.788,245.613 183.6,245.576C183.441,245.545 183.276,245.531 183.103,245.533C182.555,245.543 181.939,245.727 181.287,246.103C178.998,247.425 177.142,250.626 177.142,253.254C177.142,254.226 177.396,254.982 177.832,255.484C176.726,255.27 175.998,254.24 175.998,252.594C175.998,249.966 177.854,246.765 180.143,245.443C181.351,244.744 182.439,244.71 183.197,245.218L184.128,245.756Z" style="fill:white;fill-rule:nonzero;"/>
                    </g>
                    <g transform="matrix(0.729773,0,0,1.22318,1497.12,111.891)">
                        <path d="M181.865,254.457L181.865,255.403C181.865,255.995 181.657,256.405 181.332,256.56C181.35,256.581 179.329,257.839 178.715,257.599C170.062,253.254 172.621,249.911 172.621,249.911L172.688,249.871L173.829,249.206L174.351,248.903C174.582,248.695 174.896,248.637 175.252,248.782C175.488,249.534 176.112,250.254 177.121,250.835C178.126,251.416 179.369,251.773 180.666,251.911C181.345,252.437 181.865,253.515 181.865,254.457Z" style="fill:rgb(241,241,243);"/>
                    </g>
                    <g transform="matrix(0.729773,0,0,1.22318,1497.12,111.891)">
                        <path d="M180.792,254.12L180.833,255.813C180.833,256.357 179.988,257.141 179.104,257.478C178.974,257.53 178.844,257.572 178.715,257.599C178.259,257.701 177.825,257.655 177.526,257.367L173.108,254.816C172.776,254.624 172.419,254.271 172.141,253.853C171.842,253.41 171.682,253.207 171.682,252.738C171.682,252.738 171.658,251.253 171.837,250.974C172.423,250.051 172.562,249.88 172.662,249.868C172.332,250.481 172.52,251.1 173.24,251.514L177.046,253.713C177.543,254 178.208,254.14 178.907,254.14C179.534,254.14 179.884,254.054 180.461,253.831C180.561,253.878 180.792,253.944 180.792,254.12Z" style="fill:white;fill-rule:nonzero;"/>
                    </g>
                </g>
            </g>
        </g>
    </g>
</svg>
