<?xml version="1.0" encoding="UTF-8" standalone="no"?>
<!DOCTYPE svg PUBLIC "-//W3C//DTD SVG 1.1//EN" "http://www.w3.org/Graphics/SVG/1.1/DTD/svg11.dtd">
<svg width="100%" height="100%" viewBox="0 0 28 44" version="1.1" xmlns="http://www.w3.org/2000/svg" xmlns:xlink="http://www.w3.org/1999/xlink" xml:space="preserve" xmlns:serif="http://www.serif.com/" style="fill-rule:evenodd;clip-rule:evenodd;stroke-linejoin:round;stroke-miterlimit:2;">
    <g transform="matrix(1,0,0,1,-9620.15,-497.623)">
        <g transform="matrix(1.50002,0,0,0.89494,8788.59,-146.548)">
            <g transform="matrix(0.666658,0,0,1.11739,-5858.98,163.752)">
                <path d="M9629.5,515.463C9629.56,515.651 9629.63,515.847 9629.69,516.053C9630.69,519.298 9630.49,523.03 9629.59,527.466C9628.93,530.68 9627.67,533.818 9627.76,534.881C9627.88,536.228 9629,535.566 9630.53,531.619C9632.31,527.06 9635.92,509.674 9637.44,503.9C9638.08,501.497 9638.88,499.348 9639.99,498.371C9641.23,497.279 9642.95,497.57 9644.46,498.069C9645.73,498.486 9646.96,499.201 9647.96,499.871C9647.95,499.963 9647.92,500.059 9647.89,500.159L9647.86,500.208C9647.82,500.311 9647.78,500.408 9647.73,500.503C9646.17,499.902 9644.2,499.235 9642.94,499.235C9642.78,499.235 9642.64,499.245 9642.51,499.266C9641.05,499.501 9639.87,502.532 9638.95,508.073C9638.23,512.428 9636.78,520.978 9635.16,528.561C9634.89,529.838 9634.61,531.088 9634.33,532.285C9634.16,533.022 9633.98,533.739 9633.81,534.43C9632.76,538.634 9629.93,541.031 9627.42,541.459C9627.17,541.501 9626.94,541.521 9626.72,541.521C9624.04,541.521 9622.82,538.7 9622.67,536.539C9622.64,536.186 9622.63,535.833 9622.63,535.481C9622.63,531.411 9624.21,527.462 9624.21,524.197C9624.21,524.038 9624.21,523.88 9624.2,523.724C9623.99,519.572 9621.56,517.29 9621.56,517.29L9627.47,511.864C9627.47,511.864 9628.54,512.687 9629.5,515.463Z" style="fill:rgb(252,180,20);fill-rule:nonzero;"/>
            </g>
        </g>
        <g transform="matrix(1.50002,0,0,0.89494,8788.59,-146.548)">
            <g transform="matrix(-0.472116,0,0,0.810176,662.524,599.694)">
                <path d="M220.261,174.098C222.974,177.729 226.537,179.653 228.222,178.396C229.906,177.138 229.073,173.174 226.361,169.542C223.649,165.911 220.085,163.986 218.4,165.244C216.716,166.502 217.549,170.466 220.261,174.098Z" style="fill:rgb(255,211,81);fill-rule:nonzero;"/>
            </g>
        </g>
        <g transform="matrix(1.50002,0,0,0.89494,8788.59,-146.548)">
            <g transform="matrix(-0.472116,0,0,0.810176,662.524,599.694)">
                <path d="M221.296,173.325C223.088,175.724 225.442,176.994 226.556,176.164C227.668,175.333 227.117,172.714 225.326,170.315C223.535,167.917 221.18,166.646 220.067,167.477C218.955,168.307 219.505,170.926 221.296,173.325Z" style="fill:rgb(250,162,26);fill-rule:nonzero;"/>
            </g>
        </g>
    </g>
</svg>
