<?xml version="1.0" encoding="UTF-8" standalone="no"?>
<!DOCTYPE svg PUBLIC "-//W3C//DTD SVG 1.1//EN" "http://www.w3.org/Graphics/SVG/1.1/DTD/svg11.dtd">
<svg width="100%" height="100%" viewBox="0 0 3593 2208" version="1.1" xmlns="http://www.w3.org/2000/svg" xmlnsXlink="http://www.w3.org/1999/xlink" xmlSpace="preserve" xmlnsSerif="http://www.serif.com/" style="fill-rule:evenodd;clip-rule:evenodd;stroke-linejoin:round;stroke-miterlimit:2;">
    <g id="Reverb">
        <g transform="matrix(0.65438,-0.3778,1.61395,0.93181,-1870.41,1240.65)">
            <rect x="3596.24" y="935.97" width="1105.72" height="542.525" style="fill:rgb(235,235,235);"/>
        </g>
        <g transform="matrix(0.26554,-0.15331,0.542559,0.313247,961.015,764.25)">
            <rect x="3596.24" y="935.97" width="1105.72" height="542.525" style="fill:rgb(213,204,208);"/>
        </g>
        <g transform="matrix(0.265746,-0.153429,6.48741e-16,0.619857,1468.6,141.708)">
            <rect x="3596.24" y="935.97" width="1105.72" height="542.525" style="fill:rgb(251,249,249);"/>
        </g>
        <g transform="matrix(0.79208,0.4573,0,0.61986,-131.662,-2224.8)">
            <rect x="3596.24" y="935.97" width="1105.72" height="542.525" style="fill:rgb(103,67,82);"/>
        </g>
        <g transform="matrix(0.65438,-0.3778,0,0.65407,515.806,2006.14)">
            <rect x="3596.24" y="935.97" width="1105.72" height="542.525" style="fill:rgb(212,217,237);"/>
        </g>
        <g transform="matrix(0.19094,-0.11024,0,0.32062,2445.19,1240.39)">
            <rect x="3596.24" y="935.97" width="1105.72" height="542.525" style="fill:rgb(103,67,82);"/>
        </g>
        <g transform="matrix(0.3365,0.19428,0,0.69278,1286.88,-302.27)">
            <rect x="3596.24" y="935.97" width="1105.72" height="542.525" style="fill:rgb(103,67,82);"/>
        </g>
        <g transform="matrix(0.23632,-0.13644,0.63824,0.3685,580.76,1221.32)">
            <rect x="3596.24" y="935.97" width="1105.72" height="542.525" style="fill:rgb(235,235,235);"/>
        </g>
        <g transform="matrix(0.39955,0.23068,0,0.02528,1253.17,-15.12)">
            <rect x="3596.24" y="935.97" width="1105.72" height="542.525" style="fill:rgb(103,67,82);fill-opacity:0.05;"/>
        </g>
        <g transform="matrix(0.14554,-0.08403,0,0.61986,1921.19,89.03)">
            <rect x="3596.24" y="935.97" width="1105.72" height="542.525" style="fill:rgb(217,205,203);"/>
        </g>
        <g transform="matrix(0.53769,-0.31043,0,0.61986,68.601,1285.29)">
            <rect x="3596.24" y="935.97" width="1105.72" height="542.525" style="fill:rgb(217,205,203);"/>
        </g>
        <g transform="matrix(0.0857,-0.04948,0,0.30525,2085.6,585.92)">
            <rect x="3596.24" y="935.97" width="1105.72" height="542.525" style="fill:rgb(109,24,0);"/>
        </g>
        <g transform="matrix(0.56306,-0.32508,0.53656,0.30978,-844.644,1476.54)">
            <rect x="3596.24" y="935.97" width="1105.72" height="542.525" style="fill:rgb(157,139,143);"/>
        </g>
        <g transform="matrix(1.5826,-0.91371,1.1828,0.6829,-6798.44,4215.54)">
            <rect x="3596.24" y="935.97" width="1105.72" height="542.525" style="fill:rgb(157,139,143);"/>
        </g>
        <g transform="matrix(0.13503,-0.07796,0.63567,0.367,1391.85,922.242)">
            <rect x="3596.24" y="935.97" width="1105.72" height="542.525" style="fill:rgb(190,190,191);"/>
        </g>
        <g transform="matrix(1.67611,0,0,1,523.42,-2032.33)">
            <g>
                <g>
                    <clipPath id="_clip1">
                        <path d="M1252.43,2931.63L1162.57,3018.59L1368.32,3217.7L1458.19,3130.74L1252.43,2931.63Z"/>
                    </clipPath>
                    <g clip-path="url(#_clip1)">
                        <g transform="matrix(0.02328,-0.02253,0.03654,0.03536,1116.96,3176.69)">
                            <rect x="3596.24" y="935.97" width="1105.72" height="542.525" style="fill:rgb(157,156,155);"/>
                        </g>
                        <g transform="matrix(0.04223,-0.04086,0.03654,0.03536,1044.92,3262.9)">
                            <rect x="3596.24" y="935.97" width="1105.72" height="542.525" style="fill:rgb(177,171,168);"/>
                        </g>
                        <g transform="matrix(0.04868,-0.0471,0.03654,0.03536,1034.07,3292.25)">
                            <rect x="3596.24" y="935.97" width="1105.72" height="542.525" style="fill:rgb(188,184,183);"/>
                        </g>
                        <g transform="matrix(0.06823,-0.06603,0.03654,0.03536,962.297,3381.22)">
                            <rect x="3596.24" y="935.97" width="1105.72" height="542.525" style="fill:rgb(197,193,185);"/>
                        </g>
                        <g transform="matrix(0.08085,-0.07824,0.03654,0.03536,922.76,3438.66)">
                            <rect x="3596.24" y="935.97" width="1105.72" height="542.525" style="fill:rgb(203,199,192);"/>
                        </g>
                        <g transform="matrix(0.08085,-0.07824,0.03654,0.03536,942.583,3438.66)">
                            <rect x="3596.24" y="935.97" width="1105.72" height="542.525" style="fill:rgb(210,207,201);"/>
                        </g>
                        <g transform="matrix(0.08085,-0.07824,0.03654,0.03536,962.406,3438.66)">
                            <rect x="3596.24" y="935.97" width="1105.72" height="542.525" style="fill:rgb(216,213,208);"/>
                        </g>
                        <g transform="matrix(0.08085,-0.07824,0.03654,0.03536,982.229,3438.66)">
                            <rect x="3596.24" y="935.97" width="1105.72" height="542.525" style="fill:rgb(226,224,220);"/>
                        </g>
                        <g transform="matrix(0.08085,-0.07824,0.03654,0.03536,1004.65,3438.66)">
                            <rect x="3596.24" y="935.97" width="1105.72" height="542.525" style="fill:rgb(230,228,224);"/>
                        </g>
                        <g transform="matrix(0.08142,-0.0788,0.03654,0.03536,1022.16,3449.6)">
                            <rect x="3596.24" y="935.97" width="1105.72" height="542.525" style="fill:rgb(241,240,238);"/>
                        </g>
                    </g>
                </g>
            </g>
        </g>
        <g transform="matrix(0.08792,-0.05076,0,0.3258,2650.33,393.1)">
            <rect x="3596.24" y="935.97" width="1105.72" height="542.525" style="fill:rgb(136,69,50);fill-opacity:0.5;"/>
        </g>
        <g transform="matrix(0.36433,-0.21035,0,0.49343,2241.93,-328.59)">
            <circle cx="2218.88" cy="2789.85" r="10.586" style="fill:rgb(31,8,0);fill-opacity:0.5;"/>
        </g>
        <g transform="matrix(0.1079,-0.0623,0.33462,0.1932,1603.46,281.37)">
            <rect x="3596.24" y="935.97" width="1105.72" height="542.525" style="fill:rgb(157,139,143);"/>
        </g>
        <g transform="matrix(0.41575,-0.24004,0,0.61986,1194.91,798.62)">
            <rect x="3596.24" y="935.97" width="1105.72" height="542.525" style="fill:rgb(217,205,203);fill-opacity:0.25;"/>
        </g>
        <g transform="matrix(0.90007,-0.51966,0,1.01743,-1840.97,2420.35)">
            <rect x="3596.24" y="935.97" width="1105.72" height="542.525" style="fill:rgb(217,205,203);"/>
        </g>
        <g transform="matrix(1.1429,-0.65985,0,0.692752,-2738.46,3578.92)">
            <rect x="3596.24" y="935.97" width="1105.72" height="542.525" style="fill:rgb(217,205,203);"/>
        </g>
        <g transform="matrix(1.15983,-0.66963,0,0.14804,-3062.36,4010.83)">
            <rect x="3596.24" y="935.97" width="1105.72" height="542.525" style="fill:rgb(103,67,82);"/>
        </g>
        <g transform="matrix(1.13574,-0.65572,0,0.14804,-2949.07,4111.95)">
            <rect x="3596.24" y="935.97" width="1105.72" height="542.525" style="fill:rgb(103,67,82);"/>
        </g>
        <g transform="matrix(1.21814,-0.7033,0,0.14804,-3126.35,4367.63)">
            <rect x="3596.24" y="935.97" width="1105.72" height="542.525" style="fill:rgb(103,67,82);"/>
        </g>
        <g transform="matrix(1.21812,-0.70328,0,0.14804,-3126.27,4518.09)">
            <rect x="3596.24" y="935.97" width="1105.72" height="542.525" style="fill:rgb(103,67,82);"/>
        </g>
        <g transform="matrix(0.36433,-0.21035,0,0.49343,1667.7,-154.89)">
            <circle cx="2218.88" cy="2789.85" r="10.586" style="fill:rgb(31,8,0);"/>
        </g>
        <g transform="matrix(1.67611,0,0,1,495.986,-2013.6)">
            <g transform="matrix(1.97035,0,0,3.50423,372.495,2245.79)">
                <path d="M459.743,133.714C457.678,134.905 457.668,136.839 459.724,138.033C461.773,139.223 465.111,139.223 467.174,138.033C469.242,136.839 469.253,134.905 467.202,133.714C465.146,132.52 461.811,132.52 459.743,133.714Z" style="fill:rgb(190,190,192);fill-rule:nonzero;"/>
            </g>
            <g transform="matrix(1.97035,0,0,3.50423,372.495,2245.79)">
                <path d="M469.843,127.234L468.731,135.873L458.202,136.229L457.077,127.234L469.843,127.234Z" style="fill:rgb(190,190,192);fill-rule:nonzero;"/>
            </g>
            <g transform="matrix(1.97035,0,0,3.50423,372.495,2245.79)">
                <path d="M458.961,124.622C456.464,126.064 456.447,128.405 458.933,129.848C461.419,131.293 465.457,131.293 467.954,129.852C470.461,128.406 470.472,126.064 467.986,124.622C465.503,123.178 461.464,123.179 458.961,124.622Z" style="fill:rgb(245,248,250);fill-rule:nonzero;"/>
            </g>
            <g transform="matrix(1.97035,0,0,3.50423,372.495,2245.79)">
                <path d="M459.606,124.997C457.467,126.233 457.452,128.235 459.581,129.471C461.711,130.71 465.171,130.71 467.312,129.473C469.456,128.237 469.468,126.233 467.338,124.995C465.209,123.756 461.749,123.759 459.606,124.997Z" style="fill:rgb(84,64,62);fill-rule:nonzero;"/>
            </g>
            <g transform="matrix(1.97035,0,0,3.50423,372.495,2245.79)">
                <path d="M462.45,127.642C462.45,128.192 462.966,128.64 463.607,128.64C464.242,128.64 464.762,128.192 464.762,127.642L464.762,109.518C464.762,108.967 464.242,108.521 463.607,108.521C462.966,108.521 462.45,108.967 462.45,109.518L462.45,127.642Z" style="fill:rgb(92,55,22);fill-rule:nonzero;"/>
            </g>
            <g transform="matrix(1.97035,0,0,3.50423,372.495,2245.79)">
                <path d="M461.894,109.643C461.894,109.643 459.721,111.409 467.47,114.265C475.223,117.122 477.805,118.811 477.941,120.618C478.079,122.425 479.575,108.107 467.877,107.445C467.877,107.445 463.797,107.195 461.894,109.643Z" style="fill:rgb(111,143,59);fill-rule:nonzero;"/>
            </g>
            <g transform="matrix(1.97035,0,0,3.50423,372.495,2245.79)">
                <path d="M461.96,111.167C464.001,109.858 466.769,110.026 466.769,110.026C473.158,110.386 475.606,114.822 476.494,118.479C474.993,117.313 472.195,116.006 467.47,114.265C464.031,112.999 462.549,111.949 461.96,111.167Z" style="fill:rgb(104,133,57);fill-rule:nonzero;"/>
            </g>
            <g transform="matrix(1.97035,0,0,3.50423,372.495,2245.79)">
                <path d="M465.026,108.894C465.026,108.894 467.202,110.661 459.451,113.516C451.7,116.373 449.116,118.062 448.98,119.87C448.843,121.678 447.346,107.358 459.044,106.698C459.044,106.698 463.124,106.447 465.026,108.894Z" style="fill:rgb(111,143,59);fill-rule:nonzero;"/>
            </g>
            <g transform="matrix(1.97035,0,0,3.50423,372.495,2245.79)">
                <path d="M459.451,113.516C454.789,115.235 452.007,116.529 450.492,117.682C451.43,114.078 453.916,109.842 460.154,109.489C460.154,109.489 462.821,109.326 464.851,110.557C464.193,111.321 462.691,112.324 459.451,113.516Z" style="fill:rgb(104,133,57);fill-rule:nonzero;"/>
            </g>
            <g transform="matrix(1.97035,0,0,3.50423,372.495,2245.79)">
                <path d="M464.715,110.498C464.715,110.498 463.691,112.505 460.139,106.901C456.585,101.295 454.819,99.55 453.375,99.751C451.933,99.948 462.928,96.35 465.425,105.427C465.425,105.427 466.315,108.588 464.715,110.498Z" style="fill:rgb(104,133,57);fill-rule:nonzero;"/>
            </g>
            <g transform="matrix(1.97035,0,0,3.50423,372.495,2245.79)">
                <path d="M462.887,108.47C462.887,108.47 460.631,108.324 463.648,114.262C466.664,120.203 467.265,122.618 466.354,123.76C465.444,124.905 474.183,117.259 467.63,110.455C467.63,110.455 465.356,108.068 462.887,108.47Z" style="fill:rgb(111,143,59);fill-rule:nonzero;"/>
            </g>
            <g transform="matrix(1.97035,0,0,3.50423,372.495,2245.79)">
                <path d="M462.448,110.06C462.448,110.06 463.068,112.364 467.419,107.026C471.771,101.688 473.75,100.14 475.088,100.595C476.424,101.055 466.601,95.358 462.651,104.558C462.651,104.558 461.257,107.761 462.448,110.06Z" style="fill:rgb(111,143,59);fill-rule:nonzero;"/>
            </g>
            <g transform="matrix(1.97035,0,0,3.50423,372.495,2245.79)">
                <path d="M463.612,110.469C463.188,108.362 464.187,106.056 464.187,106.056C466.409,100.88 470.487,100.418 473.395,100.923C472.095,101.672 470.267,103.535 467.419,107.026C465.536,109.34 464.351,110.217 463.612,110.469Z" style="fill:rgb(104,133,57);fill-rule:nonzero;"/>
            </g>
        </g>
    </g>
</svg>
