<?xml version="1.0" encoding="UTF-8" standalone="no"?>
<!DOCTYPE svg PUBLIC "-//W3C//DTD SVG 1.1//EN" "http://www.w3.org/Graphics/SVG/1.1/DTD/svg11.dtd">
<svg width="100%" height="100%" viewBox="0 0 3593 2208" version="1.1" xmlns="http://www.w3.org/2000/svg" xmlnsXlink="http://www.w3.org/1999/xlink" xmlSpace="preserve" xmlnsSerif="http://www.serif.com/" style="fill-rule:evenodd;clip-rule:evenodd;stroke-linejoin:round;stroke-miterlimit:2;">
    <g transform="matrix(0.65438,-0.3778,1.61395,0.93181,-1870.41,1240.65)">
        <rect x="3596.24" y="935.97" width="1105.72" height="542.525" style="fill:rgb(235,235,235);"/>
    </g>
    <g transform="matrix(0.26339,0.15207,0,0.61946,1476.24,-956.85)">
        <rect x="3596.24" y="935.97" width="1105.72" height="542.525" style="fill:rgb(103,67,82);"/>
    </g>
    <g transform="matrix(0.79208,0.4573,0,0.61986,-131.662,-2224.8)">
        <rect x="3596.24" y="935.97" width="1105.72" height="542.525" style="fill:rgb(103,67,82);"/>
    </g>
    <g transform="matrix(0.65438,-0.3778,0,0.65407,515.806,2006.14)">
        <rect x="3596.24" y="935.97" width="1105.72" height="542.525" style="fill:rgb(212,217,237);"/>
    </g>
    <g transform="matrix(0.19094,-0.11024,0,0.32062,2445.19,1240.39)">
        <rect x="3596.24" y="935.97" width="1105.72" height="542.525" style="fill:rgb(103,67,82);"/>
    </g>
    <g transform="matrix(0.3365,0.19428,0,0.69278,1286.88,-302.27)">
        <rect x="3596.24" y="935.97" width="1105.72" height="542.525" style="fill:rgb(103,67,82);"/>
    </g>
    <g transform="matrix(0.23632,-0.13644,0.63824,0.3685,580.76,1221.32)">
        <rect x="3596.24" y="935.97" width="1105.72" height="542.525" style="fill:rgb(235,235,235);"/>
    </g>
    <g transform="matrix(0.39955,0.23068,0,0.02528,1253.17,-15.12)">
        <rect x="3596.24" y="935.97" width="1105.72" height="542.525" style="fill:rgb(103,67,82);fill-opacity:0.05;"/>
    </g>
    <g transform="matrix(0.26575,-0.15343,0,0.61986,1758.99,309.34)">
        <rect x="3596.24" y="935.97" width="1105.72" height="542.525" style="fill:rgb(217,205,203);"/>
    </g>
    <g transform="matrix(0.14554,-0.08403,0,0.61986,1921.19,89.03)">
        <rect x="3596.24" y="935.97" width="1105.72" height="542.525" style="fill:rgb(217,205,203);"/>
    </g>
    <g transform="matrix(0.53769,-0.31043,0,0.61986,68.601,1285.29)">
        <rect x="3596.24" y="935.97" width="1105.72" height="542.525" style="fill:rgb(217,205,203);"/>
    </g>
    <g transform="matrix(0.0857,-0.04948,0,0.30525,2085.6,585.92)">
        <rect x="3596.24" y="935.97" width="1105.72" height="542.525" style="fill:rgb(109,24,0);"/>
    </g>
    <g transform="matrix(0.56306,-0.32508,0.53656,0.30978,-844.644,1476.54)">
        <rect x="3596.24" y="935.97" width="1105.72" height="542.525" style="fill:rgb(157,139,143);"/>
    </g>
    <g transform="matrix(1.5826,-0.91371,1.1828,0.6829,-6798.44,4215.54)">
        <rect x="3596.24" y="935.97" width="1105.72" height="542.525" style="fill:rgb(157,139,143);"/>
    </g>
    <g transform="matrix(0.13503,-0.07796,0.63567,0.367,1391.85,922.242)">
        <rect x="3596.24" y="935.97" width="1105.72" height="542.525" style="fill:rgb(190,190,191);"/>
    </g>
    <g transform="matrix(1.67611,0,0,1,523.42,-2032.33)">
        <g>
            <clipPath id="_clip1">
                <path d="M1252.43,2931.63L1162.57,3018.59L1368.32,3217.7L1458.19,3130.74L1252.43,2931.63Z"/>
            </clipPath>
            <g clip-path="url(#_clip1)">
                <g transform="matrix(0.02328,-0.02253,0.03654,0.03536,1116.96,3176.69)">
                    <rect x="3596.24" y="935.97" width="1105.72" height="542.525" style="fill:rgb(157,156,155);"/>
                </g>
                <g transform="matrix(0.04223,-0.04086,0.03654,0.03536,1044.92,3262.9)">
                    <rect x="3596.24" y="935.97" width="1105.72" height="542.525" style="fill:rgb(177,171,168);"/>
                </g>
                <g transform="matrix(0.04868,-0.0471,0.03654,0.03536,1034.07,3292.25)">
                    <rect x="3596.24" y="935.97" width="1105.72" height="542.525" style="fill:rgb(188,184,183);"/>
                </g>
                <g transform="matrix(0.06823,-0.06603,0.03654,0.03536,962.297,3381.22)">
                    <rect x="3596.24" y="935.97" width="1105.72" height="542.525" style="fill:rgb(197,193,185);"/>
                </g>
                <g transform="matrix(0.08085,-0.07824,0.03654,0.03536,922.76,3438.66)">
                    <rect x="3596.24" y="935.97" width="1105.72" height="542.525" style="fill:rgb(203,199,192);"/>
                </g>
                <g transform="matrix(0.08085,-0.07824,0.03654,0.03536,942.583,3438.66)">
                    <rect x="3596.24" y="935.97" width="1105.72" height="542.525" style="fill:rgb(210,207,201);"/>
                </g>
                <g transform="matrix(0.08085,-0.07824,0.03654,0.03536,962.406,3438.66)">
                    <rect x="3596.24" y="935.97" width="1105.72" height="542.525" style="fill:rgb(216,213,208);"/>
                </g>
                <g transform="matrix(0.08085,-0.07824,0.03654,0.03536,982.229,3438.66)">
                    <rect x="3596.24" y="935.97" width="1105.72" height="542.525" style="fill:rgb(226,224,220);"/>
                </g>
                <g transform="matrix(0.08085,-0.07824,0.03654,0.03536,1004.65,3438.66)">
                    <rect x="3596.24" y="935.97" width="1105.72" height="542.525" style="fill:rgb(230,228,224);"/>
                </g>
                <g transform="matrix(0.08142,-0.0788,0.03654,0.03536,1022.16,3449.6)">
                    <rect x="3596.24" y="935.97" width="1105.72" height="542.525" style="fill:rgb(241,240,238);"/>
                </g>
            </g>
        </g>
    </g>
    <g transform="matrix(0.26543,-0.15325,0.53628,0.30962,967.246,431.1)">
        <rect x="3596.24" y="935.97" width="1105.72" height="542.525" style="fill:rgb(157,139,143);"/>
    </g>
    <g transform="matrix(0.0857,-0.04948,0,0.30525,2510.78,340.44)">
        <rect x="3596.24" y="935.97" width="1105.72" height="542.525" style="fill:rgb(109,24,0);"/>
    </g>
    <g transform="matrix(0.08792,-0.05076,0,0.3258,2650.33,393.1)">
        <rect x="3596.24" y="935.97" width="1105.72" height="542.525" style="fill:rgb(136,69,50);fill-opacity:0.5;"/>
    </g>
    <g transform="matrix(0.36433,-0.21035,0,0.49343,2091.86,-399.78)">
        <circle cx="2218.88" cy="2789.85" r="10.586" style="fill:rgb(31,8,0);"/>
    </g>
    <g transform="matrix(0.36433,-0.21035,0,0.49343,2241.93,-328.59)">
        <circle cx="2218.88" cy="2789.85" r="10.586" style="fill:rgb(31,8,0);fill-opacity:0.5;"/>
    </g>
    <g transform="matrix(0.1079,-0.0623,0.33462,0.1932,1603.46,281.37)">
        <rect x="3596.24" y="935.97" width="1105.72" height="542.525" style="fill:rgb(157,139,143);"/>
    </g>
    <g transform="matrix(0.41575,-0.24004,0,0.61986,1194.91,798.62)">
        <rect x="3596.24" y="935.97" width="1105.72" height="542.525" style="fill:rgb(217,205,203);fill-opacity:0.25;"/>
    </g>
    <g transform="matrix(0.90007,-0.51966,0,1.01743,-1840.97,2420.35)">
        <rect x="3596.24" y="935.97" width="1105.72" height="542.525" style="fill:rgb(217,205,203);"/>
    </g>
    <g transform="matrix(1.1429,-0.65985,0,0.692752,-2738.46,3578.92)">
        <rect x="3596.24" y="935.97" width="1105.72" height="542.525" style="fill:rgb(217,205,203);"/>
    </g>
    <g transform="matrix(1.15983,-0.66963,0,0.14804,-3062.36,4010.83)">
        <rect x="3596.24" y="935.97" width="1105.72" height="542.525" style="fill:rgb(103,67,82);"/>
    </g>
    <g transform="matrix(1.13574,-0.65572,0,0.14804,-2949.07,4111.95)">
        <rect x="3596.24" y="935.97" width="1105.72" height="542.525" style="fill:rgb(103,67,82);"/>
    </g>
    <g transform="matrix(1.21814,-0.7033,0,0.14804,-3126.35,4367.63)">
        <rect x="3596.24" y="935.97" width="1105.72" height="542.525" style="fill:rgb(103,67,82);"/>
    </g>
    <g transform="matrix(1.21812,-0.70328,0,0.14804,-3126.27,4518.09)">
        <rect x="3596.24" y="935.97" width="1105.72" height="542.525" style="fill:rgb(103,67,82);"/>
    </g>
    <g transform="matrix(0.36433,-0.21035,0,0.49343,1667.7,-154.89)">
        <circle cx="2218.88" cy="2789.85" r="10.586" style="fill:rgb(31,8,0);"/>
    </g>
</svg>
