<?xml version="1.0" encoding="UTF-8" standalone="no"?>
<!DOCTYPE svg PUBLIC "-//W3C//DTD SVG 1.1//EN" "http://www.w3.org/Graphics/SVG/1.1/DTD/svg11.dtd">
<svg width="100%" height="100%" viewBox="0 0 3593 2208" version="1.1" xmlns="http://www.w3.org/2000/svg" xmlnsXlink="http://www.w3.org/1999/xlink" xmlSpace="preserve" xmlnSserif="http://www.serif.com/" style="fill-rule:evenodd;clip-rule:evenodd;stroke-linejoin:round;stroke-miterlimit:2;">
    <g id="LAUM---co." serifId="LAUM &amp; co." transform="matrix(1.67611,0,0,1,477.725,-2016.45)">
        <g transform="matrix(1.4335,-1.38721,0.705681,0.682891,-6063.14,7899.87)">
            <rect x="3596.24" y="935.97" width="1105.72" height="542.525" style="fill:rgb(157,139,143);"/>
        </g>
        <g transform="matrix(0.389839,-0.377249,0.960335,0.92932,-1394.22,2920.45)">
            <rect x="3596.24" y="935.97" width="1105.72" height="542.525" style="fill:rgb(157,139,143);"/>
        </g>
        <g transform="matrix(0.389037,-0.376473,6.58642e-16,1.27709,29.3971,3095.48)">
            <rect x="3596.24" y="935.97" width="1105.72" height="542.525" style="fill:rgb(212,217,237);"/>
        </g>
        <g transform="matrix(0.824139,-0.797523,8.27186e-16,1.419,-2585.64,5225.84)">
            <rect x="3596.24" y="935.97" width="1105.72" height="542.525" style="fill:rgb(217,205,203);"/>
        </g>
        <g transform="matrix(0.805717,-0.779696,6.17041e-17,0.148037,-2519.39,6422.9)">
            <rect x="3596.24" y="935.97" width="1105.72" height="542.525" style="fill:rgb(103,67,82);"/>
        </g>
        <g transform="matrix(0.791342,-0.765786,6.17395e-17,0.148037,-2451.8,6524.02)">
            <rect x="3596.24" y="935.97" width="1105.72" height="542.525" style="fill:rgb(103,67,82);"/>
        </g>
        <g transform="matrix(0.113918,-0.110239,1.37661e-16,0.320625,1175.55,3012.72)">
            <rect x="3596.24" y="935.97" width="1105.72" height="542.525" style="fill:rgb(103,67,82);"/>
        </g>
        <g transform="matrix(0.113918,-0.110239,1.37661e-16,0.320625,1175.55,3255.65)">
            <rect x="3596.24" y="935.97" width="1105.72" height="542.525" style="fill:rgb(103,67,82);"/>
        </g>
        <g transform="matrix(0.791342,-0.765786,6.17395e-17,0.148037,-2451.8,6674.52)">
            <rect x="3596.24" y="935.97" width="1105.72" height="542.525" style="fill:rgb(103,67,82);"/>
        </g>
        <g transform="matrix(0.791342,-0.765786,6.17395e-17,0.148037,-2454.1,6830.08)">
            <rect x="3596.24" y="935.97" width="1105.72" height="542.525" style="fill:rgb(103,67,82);"/>
        </g>
        <g transform="matrix(0.125749,0.121688,0,1.31264,837.201,1137.87)">
            <rect x="3596.24" y="935.97" width="1105.72" height="542.525" style="fill:rgb(103,67,82);"/>
        </g>
    </g>
</svg>
