<?xml version="1.0" encoding="UTF-8" standalone="no"?>
<!DOCTYPE svg PUBLIC "-//W3C//DTD SVG 1.1//EN" "http://www.w3.org/Graphics/SVG/1.1/DTD/svg11.dtd">
<svg width="100%" height="100%" viewBox="0 0 414 288" version="1.1" xmlns="http://www.w3.org/2000/svg" xmlnsXlink="http://www.w3.org/1999/xlink" xmlSpace="preserve" xmlnsSerif="http://www.serif.com/" style="fill-rule:evenodd;clip-rule:evenodd;stroke-linejoin:round;stroke-miterlimit:2;">
    <g transform="matrix(1,0,0,1,-2985.35,-663.844)">
        <g>
            <g transform="matrix(0.73808,0,0,0.73808,3019.34,643.372)">
                <path d="M72.606,135.236C72.606,135.236 92.156,140.842 101.648,127.767C101.648,127.767 103.561,85.966 99.655,76.107C95.75,66.249 81.883,68.409 77.091,72.922C73.191,76.593 72.606,135.236 72.606,135.236Z" style="fill:rgb(209,238,251);fill-rule:nonzero;"/>
            </g>
            <g transform="matrix(0.73808,0,0,0.73808,3019.34,643.372)">
                <path d="M118.437,91.266C117.568,91.266 116.716,91.022 115.979,90.561L93.687,76.652C92.329,75.805 91.502,74.313 91.502,72.712C91.502,70.165 93.598,68.069 96.145,68.069C97.015,68.069 97.867,68.313 98.604,68.773L103.968,72.12L97.22,61.252C95.867,59.072 103.758,54.175 105.111,56.352L122.383,84.172C122.84,84.908 123.083,85.757 123.083,86.623C123.083,89.17 120.987,91.266 118.44,91.266C118.439,91.266 118.438,91.266 118.437,91.266Z" style="fill:rgb(39,34,46);fill-rule:nonzero;"/>
            </g>
            <g transform="matrix(0.73808,0,0,0.73808,3019.34,643.372)">
                <path d="M104.448,58.798L100.413,61.613C100.231,61.739 100.015,61.807 99.794,61.807C99.422,61.807 99.075,61.616 98.877,61.301L93.81,53.453C93.504,52.967 93.635,52.317 94.106,51.988L98.142,49.173C98.324,49.046 98.54,48.979 98.761,48.979C99.133,48.979 99.48,49.17 99.678,49.484L104.745,57.333C105.052,57.819 104.92,58.469 104.448,58.798Z" style="fill:rgb(85,95,99);fill-rule:nonzero;"/>
            </g>
            <g transform="matrix(0.73808,0,0,0.73808,3019.34,643.372)">
                <path d="M102.662,51.13L104.529,54.755C104.804,55.289 104.72,55.935 104.319,56.382C103.837,56.918 103.067,57.534 101.995,57.681C100.011,57.951 98.838,52.09 99.379,51.459C99.616,51.183 100.146,50.838 100.667,50.537C100.884,50.413 101.131,50.348 101.381,50.348C101.92,50.348 102.416,50.65 102.662,51.13Z" style="fill:rgb(250,185,167);fill-rule:nonzero;"/>
            </g>
            <g transform="matrix(0.73808,0,0,0.73808,3019.34,643.372)">
                <path d="M103.968,72.12L108.222,78.297L100.317,69.842L103.968,72.12Z" style="fill:rgb(22,17,31);fill-rule:nonzero;"/>
            </g>
            <g transform="matrix(0.73808,0,0,0.73808,3019.34,643.372)">
                <path d="M86.532,196.934L86.532,204.704C86.532,204.704 89.717,207.573 92.846,206.736C92.846,206.736 99.084,211.637 103.866,212.235C108.647,212.833 110.321,211.279 107.093,208.29C103.866,205.301 94.541,196.934 94.541,196.934L86.532,196.934Z" style="fill:rgb(39,34,46);fill-rule:nonzero;"/>
            </g>
            <g transform="matrix(0.73808,0,0,0.73808,3019.34,643.372)">
                <path d="M101.594,127.221C101.594,127.221 100.279,155.811 98.247,165.614C98.247,165.614 97.888,192.63 97.41,199.444C97.41,199.444 92.03,202.672 85.157,198.846C85.157,198.846 84.38,172.864 87.368,165.114C87.368,165.114 83.663,142.781 84.141,135.011C84.141,135.011 92.628,126.504 101.594,127.221Z" style="fill:rgb(22,17,31);fill-rule:nonzero;"/>
            </g>
            <g transform="matrix(0.73808,0,0,0.73808,3019.34,643.372)">
                <path d="M70.752,207.812C70.752,207.812 69.796,221.559 70.752,222.277C71.709,222.994 80.555,225.624 81.87,225.265C83.185,224.906 78.522,208.29 78.522,208.29L70.752,207.812Z" style="fill:rgb(49,45,56);fill-rule:nonzero;"/>
            </g>
            <g transform="matrix(0.73808,0,0,0.73808,3019.34,643.372)">
                <path d="M70.394,135.968C70.394,135.968 71.23,156.289 71.828,169.559C71.828,169.559 66.329,187.131 69.557,210.083C69.557,210.083 74.936,212.833 80.674,209.366C80.674,209.366 85.692,164.44 86.051,159.539C86.41,154.637 89.64,133.42 88.085,133.181C86.532,132.942 70.271,132.994 70.394,135.968Z" style="fill:rgb(39,34,46);fill-rule:nonzero;"/>
            </g>
            <g transform="matrix(0.73808,0,0,0.73808,3019.34,643.372)">
                <path d="M66.522,107.066C66.522,107.066 69.411,131.593 67.371,138.626C67.371,138.626 76.779,139.049 82.237,133.156C87.694,127.264 90.267,112.584 84.743,96.931C79.218,81.277 75.585,74.924 81.098,70.256C81.098,70.256 69.528,74.615 66.82,78.527C64.835,81.394 65.566,97.117 66.522,107.066Z" style="fill:rgb(49,45,56);fill-rule:nonzero;"/>
            </g>
            <g transform="matrix(0.73808,0,0,0.73808,3019.34,643.372)">
                <path d="M67.537,117.771C68.111,125.296 68.511,134.694 67.371,138.626C67.371,138.626 73.043,138.867 78.135,136.221L67.537,117.771Z" style="fill:rgb(39,34,46);fill-rule:nonzero;"/>
            </g>
            <g transform="matrix(0.73808,0,0,0.73808,3019.34,643.372)">
                <path d="M102.631,80.104C102.231,74.965 98.764,65.274 91.73,66.717C90.34,67.002 87.305,68.638 87.305,68.638C88.313,68.95 95.509,71.668 96.088,85.606C96.711,100.594 95.871,108.032 96.847,119.015C97.568,127.131 103.247,123.704 103.247,123.704C103.247,123.704 103.021,85.106 102.631,80.104Z" style="fill:rgb(49,45,56);fill-rule:nonzero;"/>
            </g>
            <g transform="matrix(0.73808,0,0,0.73808,3019.34,643.372)">
                <path d="M99.39,81.963C99.329,81.495 99.025,81.093 98.592,80.907L95.849,79.714L96.997,78.566C97.395,78.172 97.503,77.566 97.265,77.059C94.644,71.669 90.598,69.237 87.185,68.603L77.983,71.346C75.584,73.586 75.041,77.355 75.03,82.118C75.032,82.829 75.431,83.482 76.062,83.809L78.758,85.218L76.568,86.999C75.919,87.524 75.685,88.416 75.993,89.192C77.182,92.181 83.437,104 87.065,122.377C91.082,108.041 81.509,88.139 79.296,79.19C78.82,77.266 78.344,75.108 79.36,73.406C80.066,72.225 85.63,69.973 87.002,70.076C88.788,71.599 92.28,71.965 93.804,78.123C95.566,85.244 95.855,111.348 97.24,121.491C98.449,117.749 100.455,90.59 99.39,81.963Z" style="fill:rgb(22,17,31);fill-rule:nonzero;"/>
            </g>
            <g transform="matrix(0.73808,0,0,0.73808,3019.34,643.372)">
                <path d="M85.967,75.165C82.489,74.663 80.569,72.187 80.14,70.703C80.14,70.703 77.738,72.175 78.758,75.01C79.841,78.019 83.605,78.527 83.605,78.527L85.967,75.165ZM88.41,69.635L87.973,72.223C87.607,74.346 85.967,75.165 85.967,75.165L89.055,77.521C92.046,74.829 91.638,71.187 88.41,69.635Z" style="fill:white;fill-rule:nonzero;"/>
            </g>
            <g transform="matrix(0.73808,0,0,0.73808,3019.34,643.372)">
                <path d="M85.967,75.165L88.649,77.281L87.975,80.445L85.967,80.787L83.957,78.026L85.967,75.165Z" style="fill:rgb(49,45,56);fill-rule:nonzero;"/>
            </g>
            <g transform="matrix(0.73808,0,0,0.73808,3019.34,643.372)">
                <path d="M87.975,80.445L85.967,80.787L88.462,104.444C90.817,111.528 92.512,115.089 92.882,114.958C93.224,114.836 94.999,111.348 94.999,102.261L87.975,80.445Z" style="fill:rgb(49,45,56);fill-rule:nonzero;"/>
            </g>
            <g transform="matrix(0.73808,0,0,0.73808,3019.34,643.372)">
                <path d="M65.691,98.457C65.865,100.707 66.326,104.638 66.522,107.066L73.365,81.674L65.691,98.457Z" style="fill:rgb(39,34,46);fill-rule:nonzero;"/>
            </g>
            <g transform="matrix(0.73808,0,0,0.73808,3019.34,643.372)">
                <path d="M88.42,63.979L88.42,72.904C88.416,73.518 88.008,74.131 87.197,74.599C85.574,75.536 82.955,75.536 81.344,74.6C80.537,74.132 80.136,73.518 80.14,72.904L80.14,63.968L88.42,63.979Z" style="fill:rgb(250,185,167);fill-rule:nonzero;"/>
            </g>
            <g transform="matrix(0.73808,0,0,0.73808,3019.34,643.372)">
                <path d="M88.299,70.788C82.495,70.787 80.76,66.171 80.76,66.171L88.42,63.979L88.42,70.787L88.299,70.788Z" style="fill:rgb(248,163,142);"/>
            </g>
            <g transform="matrix(0.73808,0,0,0.73808,3019.34,643.372)">
                <path d="M74.463,55.164C74.463,62.223 81.997,69.137 89.056,69.137C94.106,69.137 97.472,62.223 97.472,55.164C97.472,48.105 94.304,42.383 87.245,42.383C80.186,42.383 74.463,48.105 74.463,55.164Z" style="fill:rgb(250,185,167);fill-rule:nonzero;"/>
            </g>
            <g transform="matrix(0.73808,0,0,0.73808,3019.34,643.372)">
                <path d="M74.76,57.655C82.798,57.243 83.841,54.03 82.699,48.349C84.761,49.148 95.936,52.636 99.282,48.499C100.453,47.053 97.472,29.143 77.919,39.482C68.181,38.52 66.725,49.321 67.58,55.112C69.143,65.694 80.14,65.694 80.14,65.694C80.14,65.694 75.8,62.191 74.76,57.655Z" style="fill:rgb(248,151,47);fill-rule:nonzero;"/>
            </g>
            <g transform="matrix(0.73808,0,0,0.73808,3019.34,643.372)">
                <path d="M73.516,57.56C73.516,59.389 74.999,61.672 76.828,61.672C78.657,61.672 78.912,59.646 78.912,57.817C78.912,55.988 78.657,54.248 76.828,54.248C75.011,54.248 73.516,55.743 73.516,57.56Z" style="fill:rgb(250,185,167);fill-rule:nonzero;"/>
            </g>
            <g transform="matrix(0.73808,0,0,0.73808,3019.34,643.372)">
                <path d="M89.193,57.922L89.193,57.392L85.552,57.392C84.937,57.391 84.432,56.886 84.431,56.271L84.431,54.972C84.432,54.357 84.937,53.852 85.552,53.851L89.193,53.851C89.812,53.852 90.313,54.353 90.315,54.972L90.315,56.271C90.313,56.886 89.808,57.391 89.193,57.392L89.193,57.922C90.099,57.921 90.843,57.177 90.844,56.271L90.844,54.972C90.844,54.067 90.099,53.322 89.194,53.322L85.552,53.322C84.647,53.322 83.902,54.067 83.902,54.972L83.902,56.271C83.902,57.183 84.641,57.921 85.552,57.922L89.193,57.922ZM97.908,57.922L97.908,57.392L94.268,57.392C93.653,57.391 93.148,56.886 93.146,56.271L93.146,54.972C93.148,54.357 93.653,53.852 94.268,53.851L97.908,53.851C98.528,53.852 99.029,54.353 99.03,54.972L99.03,56.271C99.029,56.886 98.523,57.391 97.908,57.392L97.908,57.922C98.814,57.922 99.559,57.177 99.559,56.271L99.559,54.972C99.559,54.067 98.814,53.322 97.909,53.322L94.267,53.322C93.362,53.322 92.617,54.067 92.617,54.972L92.617,56.271C92.618,57.183 93.356,57.921 94.268,57.922L97.908,57.922Z" style="fill:rgb(49,45,56);fill-rule:nonzero;"/>
            </g>
            <g transform="matrix(0.73808,0,0,0.73808,3019.34,643.372)">
                <path d="M78.506,55.512L84.167,55.512L84.167,54.983L78.506,54.983M90.579,55.512L92.882,55.512L92.882,54.983L90.579,54.983" style="fill:rgb(49,45,56);fill-rule:nonzero;"/>
            </g>
            <g transform="matrix(0.73808,0,0,0.73808,3019.34,643.372)">
                <path d="M72.245,140.67C72.245,140.67 72.382,142.113 73.365,143.796C73.365,143.796 76.628,142.413 77.775,139.107C77.775,139.107 76.152,136.943 74.77,136.281L72.245,140.67Z" style="fill:rgb(250,185,167);fill-rule:nonzero;"/>
            </g>
            <g transform="matrix(0.73808,0,0,0.73808,3019.34,643.372)">
                <path d="M73.776,133.094L76.15,136.836C76.15,136.836 74.89,140.442 72.004,142.052L69.66,138.851L73.776,133.094Z" style="fill:white;fill-rule:nonzero;"/>
            </g>
            <g transform="matrix(0.73808,0,0,0.73808,3019.34,643.372)">
                <path d="M70.715,141.158L54.762,117.323C52.948,114.58 51.846,112.067 52.752,109.686L65.562,80.287C66.247,78.49 67.979,77.297 69.902,77.297C72.449,77.297 74.545,79.393 74.545,81.94C74.545,82.506 74.442,83.066 74.241,83.594L62.436,110.359L74.109,132.513C75.734,135.285 71.272,141.376 70.715,141.158Z" style="fill:rgb(49,45,56);fill-rule:nonzero;"/>
            </g>
            <g transform="matrix(-0.73808,0,0,0.73808,3412.01,637.814)">
                <path d="M312.207,125.128C311.68,125.128 311.158,125.038 310.661,124.863L298.681,119.823C297.147,119.281 296.005,117.972 295.677,116.378L287.791,77.993C287.728,77.686 287.696,77.372 287.696,77.059C287.696,74.511 289.792,72.415 292.339,72.415C294.536,72.415 296.446,73.973 296.888,76.124L304.247,111.938L313.752,116.104C315.605,116.757 316.853,118.519 316.853,120.484C316.853,123.032 314.756,125.128 312.209,125.128C312.208,125.128 312.208,125.128 312.207,125.128Z" style="fill:rgb(16,46,83);fill-rule:nonzero;"/>
            </g>
            <g transform="matrix(-0.73808,0,0,0.73808,3412.01,637.814)">
                <path d="M281.606,196.934L281.606,204.704C281.606,204.704 284.792,207.573 287.921,206.736C287.921,206.736 294.159,211.637 298.94,212.235C303.722,212.833 305.396,211.279 302.168,208.29C298.94,205.301 289.616,196.934 289.616,196.934L281.606,196.934Z" style="fill:rgb(47,11,8);fill-rule:nonzero;"/>
            </g>
            <g transform="matrix(-0.73808,0,0,0.73808,3412.01,637.814)">
                <path d="M296.669,129.512C296.669,129.512 295.354,155.811 293.322,165.614C293.322,165.614 292.963,192.63 292.485,199.444C292.485,199.444 287.105,202.672 280.232,198.846C280.232,198.846 279.455,172.864 282.443,165.114C282.443,165.114 278.737,142.781 279.216,135.011C279.216,135.011 287.703,128.795 296.669,129.512Z" style="fill:rgb(16,46,83);fill-rule:nonzero;"/>
            </g>
            <g transform="matrix(-0.73808,0,0,0.73808,3412.01,637.814)">
                <path d="M265.827,207.812C265.827,207.812 264.871,221.559 265.827,222.277C266.783,222.994 275.629,225.624 276.944,225.265C278.259,224.906 273.597,208.29 273.597,208.29L265.827,207.812Z" style="fill:rgb(47,11,8);fill-rule:nonzero;"/>
            </g>
            <g transform="matrix(-0.73808,0,0,0.73808,3412.01,637.814)">
                <path d="M265.468,135.968C265.468,135.968 266.305,156.289 266.903,169.559C266.903,169.559 261.403,187.131 264.632,210.083C264.632,210.083 270.011,212.833 275.749,209.366C275.749,209.366 280.768,164.44 281.126,159.539C281.485,154.637 284.715,133.42 283.161,133.181C281.606,132.942 265.345,132.994 265.468,135.968Z" style="fill:rgb(28,57,100);fill-rule:nonzero;"/>
            </g>
            <g transform="matrix(-0.73808,0,0,0.73808,3412.01,637.814)">
                <path d="M285.039,124.274L306.521,114.4L304.869,130.795L285.039,124.274Z" style="fill:rgb(77,84,87);fill-rule:nonzero;"/>
            </g>
            <g transform="matrix(-0.73808,0,0,0.73808,3412.01,637.814)">
                <path d="M304.094,109.695L326.744,96.725L326.744,117.051L304.869,130.795L304.094,109.695Z" style="fill:rgb(85,95,99);fill-rule:nonzero;"/>
            </g>
            <g transform="matrix(-0.73808,0,0,0.73808,3412.01,637.814)">
                <path d="M318.613,114.921C315.198,116.406 315.253,117.43 315.388,120.395C315.524,123.36 314.085,125.711 316.863,125.13C319.641,124.549 322.473,122.725 322.382,119.791C322.291,116.857 323.065,112.986 318.613,114.921Z" style="fill:rgb(248,159,129);fill-rule:nonzero;"/>
            </g>
            <g transform="matrix(-0.73808,0,0,0.73808,3412.01,637.814)">
                <path d="M266.53,73.183C261.69,75.005 259.669,76.964 259.769,83.456C259.87,89.948 263.994,137.275 263.994,137.275C263.994,137.275 286.075,141.054 298.741,128.096C298.741,128.096 298.096,85.106 297.706,80.104C297.306,74.965 293.914,66.173 286.881,67.616C279.848,69.058 269.259,72.155 266.53,73.183Z" style="fill:rgb(38,77,138);fill-rule:nonzero;"/>
            </g>
            <g transform="matrix(-0.73808,0,0,0.73808,3412.01,637.814)">
                <path d="M287.934,131.096C287.934,131.575 287.54,131.969 287.061,131.969C286.582,131.969 286.188,131.575 286.188,131.096C286.188,130.617 286.582,130.223 287.061,130.223C287.54,130.223 287.934,130.617 287.934,131.096Z" style="fill:rgb(16,46,83);fill-rule:nonzero;"/>
            </g>
            <g transform="matrix(-0.73808,0,0,0.73808,3412.01,637.814)">
                <path d="M261.376,86.356C261.376,86.356 264.299,118.11 264.389,120.445C264.479,122.78 266.102,123.592 271.963,125.575C277.824,127.559 292.764,131.87 292.764,131.87L267.365,118.271L261.376,86.356Z" style="fill:rgb(25,63,113);fill-rule:nonzero;"/>
            </g>
            <g transform="matrix(-0.73808,0,0,0.73808,3412.01,637.814)">
                <path d="M294.465,81.963C294.404,81.495 294.1,81.093 293.667,80.907L290.923,79.714L292.071,78.566C292.47,78.173 292.578,77.566 292.339,77.059C289.718,71.669 285.673,69.237 282.26,68.603L273.058,71.346C270.659,73.586 270.116,77.355 270.105,82.118C270.107,82.829 270.506,83.482 271.137,83.809L273.833,85.218L271.643,86.999C270.993,87.524 270.759,88.416 271.068,89.192C272.256,92.181 282.84,109.256 286.383,115.925C285.55,106.744 276.583,88.139 274.371,79.19C273.895,77.266 273.418,75.108 274.435,73.406C275.141,72.225 280.705,69.973 282.077,70.076C283.863,71.599 287.354,71.965 288.878,78.123C290.641,85.244 286.965,106.541 287.333,115.59C288.542,111.848 295.529,90.59 294.465,81.963ZM287.934,120.456C287.934,120.935 287.54,121.329 287.061,121.329C286.582,121.329 286.188,120.935 286.188,120.456C286.188,119.977 286.582,119.583 287.061,119.583C287.54,119.583 287.934,119.977 287.934,120.456ZM287.934,125.776C287.934,126.255 287.54,126.649 287.061,126.649C286.582,126.649 286.188,126.255 286.188,125.776C286.188,125.297 286.582,124.903 287.061,124.903C287.54,124.903 287.934,125.297 287.934,125.776Z" style="fill:rgb(16,46,83);fill-rule:nonzero;"/>
            </g>
            <g transform="matrix(-0.73808,0,0,0.73808,3412.01,637.814)">
                <path d="M274.435,73.406C275.141,72.225 280.705,69.973 282.077,70.076C283.863,71.599 287.354,71.965 288.878,78.123C291.529,88.832 287.686,116.53 286.953,116.789C286.216,117.05 280.088,98.408 274.371,79.19C273.806,77.291 273.418,75.108 274.435,73.406Z" style="fill:rgb(209,238,251);fill-rule:nonzero;"/>
            </g>
            <g transform="matrix(-0.73808,0,0,0.73808,3412.01,637.814)">
                <path d="M281.042,75.165C277.564,74.663 275.644,72.187 275.215,70.703C275.215,70.703 272.813,72.175 273.833,75.01C274.916,78.019 278.679,78.527 278.679,78.527L281.042,75.165ZM283.484,69.635L283.048,72.223C282.682,74.346 281.042,75.165 281.042,75.165L284.13,77.521C287.122,74.829 286.713,71.187 283.484,69.635Z" style="fill:white;fill-rule:nonzero;"/>
            </g>
            <g transform="matrix(-0.73808,0,0,0.73808,3412.01,637.814)">
                <path d="M281.042,75.165L283.724,77.281L283.05,80.445L281.042,80.787L279.031,78.026L281.042,75.165Z" style="fill:rgb(69,111,182);fill-rule:nonzero;"/>
            </g>
            <g transform="matrix(-0.73808,0,0,0.73808,3412.01,637.814)">
                <path d="M283.05,80.445L281.042,80.787L282.498,105.197C284.853,112.281 286.583,116.92 286.953,116.789C287.295,116.668 288.314,110.571 289.035,103.015L283.05,80.445Z" style="fill:rgb(69,111,182);fill-rule:nonzero;"/>
            </g>
            <g transform="matrix(-0.73808,0,0,0.73808,3412.01,637.814)">
                <path d="M271.226,89.948L277.002,114.372L292.237,121.691L274.538,114.762L271.226,89.948Z" style="fill:rgb(25,63,113);fill-rule:nonzero;"/>
            </g>
            <g transform="matrix(-0.73808,0,0,0.73808,3412.01,637.814)">
                <path d="M283.495,63.979L283.495,72.904C283.491,73.518 283.083,74.131 282.272,74.599C280.649,75.536 278.029,75.536 276.419,74.6C275.612,74.132 275.211,73.518 275.215,72.904L275.215,63.968L283.495,63.979Z" style="fill:rgb(248,159,129);fill-rule:nonzero;"/>
            </g>
            <g transform="matrix(-0.73808,0,0,0.73808,3412.01,637.814)">
                <path d="M283.375,70.788C277.57,70.787 275.835,66.171 275.835,66.171L283.495,63.979L283.495,70.787L283.375,70.788Z" style="fill:rgb(245,135,102);fill-rule:nonzero;"/>
            </g>
            <g transform="matrix(-0.73808,0,0,0.73808,3412.01,637.814)">
                <path d="M269.538,55.164C269.538,62.223 277.072,69.137 284.131,69.137C289.181,69.137 292.547,62.223 292.547,55.164C292.547,48.105 289.379,42.383 282.32,42.383C275.261,42.383 269.538,48.105 269.538,55.164Z" style="fill:rgb(248,159,129);fill-rule:nonzero;"/>
            </g>
            <g transform="matrix(-0.73808,0,0,0.73808,3412.01,637.814)">
                <path d="M269.835,57.655C277.873,57.243 284.426,52.517 288.422,45.531C290.484,46.329 291.958,50.562 291.958,50.562C292.972,49.003 293.751,47.243 293.834,45.384C293.917,43.526 293.3,41.593 291.955,40.308C290.609,39.022 288.502,38.501 286.796,39.244C283.935,35.506 279.437,34.378 273.941,35.966C267.854,37.724 265.428,41.586 264.293,46.155C263.158,50.723 261.722,60.582 272.375,62.793L269.835,57.655Z" style="fill:rgb(22,17,31);fill-rule:nonzero;"/>
            </g>
            <g transform="matrix(-0.73808,0,0,0.73808,3412.01,637.814)">
                <path d="M268.591,57.56C268.591,59.377 270.086,60.872 271.903,60.872C273.72,60.872 275.215,59.377 275.215,57.56C275.215,55.743 273.72,54.248 271.903,54.248C270.086,54.248 268.591,55.743 268.591,57.56ZM296.096,124.169C294.004,124.893 293.425,127.622 293.753,129.883C294.732,130.916 294.834,132.384 296.98,132.674C303.382,133.54 306.755,130.72 306.508,130.127C304.722,125.841 296.814,123.921 296.096,124.169Z" style="fill:rgb(248,159,129);fill-rule:nonzero;"/>
            </g>
            <g transform="matrix(-0.73808,0,0,0.73808,3412.01,637.814)">
                <path d="M293.165,131.373L295.538,132.411C295.538,132.411 299.046,128.967 298.563,124.127L296.172,123.852L293.165,131.373Z" style="fill:white;fill-rule:nonzero;"/>
            </g>
            <g transform="matrix(-0.73808,0,0,0.73808,3412.01,637.814)">
                <path d="M293.671,132.226L268.605,122.413C267.035,121.799 265.918,120.375 265.694,118.704L260.506,79.848C260.479,79.644 260.465,79.439 260.465,79.234C260.465,76.686 262.562,74.589 265.11,74.589C267.426,74.589 269.406,76.323 269.713,78.619L274.538,114.762L297.056,123.577C298.304,123.738 294.227,132.443 293.671,132.226Z" style="fill:rgb(38,77,138);fill-rule:nonzero;"/>
            </g>
            <g transform="matrix(-0.73808,0,0,0.73808,3546.71,667.3)">
                <path d="M444.327,109.343L421.182,94.837L414.555,101.49C414.899,101.864 415.281,102.201 415.73,102.445L442.859,114.161C443.563,114.545 446.58,110.567 444.327,109.343Z" style="fill:rgb(250,185,167);fill-rule:nonzero;"/>
            </g>
            <g transform="matrix(-0.73808,0,0,0.73808,3546.71,667.3)">
                <path d="M421.169,94.83L403.899,69.012C403.036,67.734 401.592,66.967 400.05,66.967C397.503,66.967 395.406,69.063 395.406,71.611C395.406,72.523 395.675,73.416 396.179,74.176L414.087,100.946C414.221,101.146 414.393,101.314 414.555,101.49L421.182,94.837L421.169,94.83Z" style="fill:rgb(245,130,31);fill-rule:nonzero;"/>
            </g>
            <g transform="matrix(-0.73808,0,0,0.73808,3546.71,667.3)">
                <path d="M423.939,95.374L415.72,103.593C415.369,103.943 414.793,103.943 414.442,103.593L413.047,102.197C412.877,102.028 412.782,101.798 412.782,101.558C412.782,101.319 412.877,101.089 413.047,100.92L421.266,92.7C421.617,92.35 422.192,92.35 422.543,92.7L423.939,94.096C424.289,94.447 424.289,95.023 423.939,95.374Z" style="fill:rgb(254,217,124);fill-rule:nonzero;"/>
            </g>
            <g transform="matrix(-0.73808,0,0,0.73808,3546.71,667.3)">
                <path d="M446.101,117.253L439.444,117.253L438.566,102.746L446.978,102.746L446.101,117.253Z" style="fill:white;fill-rule:nonzero;"/>
            </g>
            <g transform="matrix(-0.73808,0,0,0.73808,3546.71,667.3)">
                <path d="M446.684,102.999L438.861,102.999C438.762,102.999 438.68,102.922 438.68,102.829L438.945,101.491C438.945,101.398 439.022,101.321 439.115,101.321L446.43,101.321C446.523,101.321 446.6,101.398 446.6,101.491L446.865,102.829C446.865,102.922 446.784,102.999 446.684,102.999Z" style="fill:rgb(235,237,236);fill-rule:nonzero;"/>
            </g>
            <g transform="matrix(-0.73808,0,0,0.73808,3546.71,667.3)">
                <path d="M446.883,104.319L438.662,104.319L438.649,104.113L438.582,102.999L446.963,102.999L446.883,104.319Z" style="fill:rgb(215,221,220);fill-rule:nonzero;"/>
            </g>
            <g transform="matrix(-0.73808,0,0,0.73808,3546.71,667.3)">
                <path d="M447.17,103.185L438.375,103.185C438.189,103.184 438.036,103.031 438.036,102.845L438.036,102.647C438.036,102.461 438.189,102.308 438.375,102.307L447.17,102.307C447.357,102.307 447.51,102.46 447.51,102.647L447.51,102.845C447.51,103.032 447.357,103.185 447.17,103.185ZM438.752,105.823L439.179,112.863L446.366,112.863L446.792,105.823L438.752,105.823Z" style="fill:rgb(47,11,8);fill-rule:nonzero;"/>
            </g>
            <g transform="matrix(-0.73808,0,0,0.73808,3546.71,667.3)">
                <path d="M442.772,111.364C441.663,111.364 440.751,110.452 440.751,109.343C440.751,108.234 441.663,107.322 442.772,107.322C443.881,107.322 444.793,108.234 444.793,109.343C444.793,110.452 443.881,111.364 442.772,111.364Z" style="fill:white;fill-rule:nonzero;"/>
            </g>
            <g transform="matrix(-0.73808,0,0,0.73808,3546.71,667.3)">
                <path d="M446.333,107.888C444.036,108.327 443.53,108.691 443.11,110.392C442.691,112.093 442.41,115.14 444.379,115.343C446.348,115.546 447.137,114.339 447.332,112.447C447.527,110.554 448.08,107.554 446.333,107.888Z" style="fill:rgb(250,185,167);fill-rule:nonzero;"/>
            </g>
            <g transform="matrix(-0.73808,0,0,0.73808,3546.71,667.3)">
                <path d="M378.792,39.862C378.792,39.862 373.013,45.595 373.734,56.129C374.288,64.204 375.744,68.921 373.452,72.147C371.161,75.373 366.493,89.207 375.564,92.06C384.634,94.914 403.298,80.711 400.954,76.406C398.61,72.1 378.792,39.862 378.792,39.862ZM397.107,193.122C397.107,193.122 393.752,196.104 394.684,199.645C395.616,203.186 395.814,209.523 395.814,209.523L397.107,209.523L397.107,203.372C397.107,203.372 398.785,205.982 398.598,208.218C398.412,210.454 398.785,212.132 399.903,213.064C401.021,213.995 407.917,217.164 409.035,216.232C410.153,215.3 409.221,213.064 407.357,209.709C405.494,206.354 401.953,190.14 397.107,193.122Z" style="fill:rgb(22,17,31);fill-rule:nonzero;"/>
            </g>
            <g transform="matrix(-0.73808,0,0,0.73808,3546.71,667.3)">
                <path d="M397.107,132.851C396.986,133.428 394.684,164.048 395.616,170.571C396.548,177.094 399.646,189.689 398.656,192.803C397.667,195.918 398.785,203.931 400.648,207.286C402.512,210.641 407.171,212.132 407.357,209.709C407.544,207.286 403.63,187.531 405.68,174.112C407.73,160.693 409.069,156.707 409.518,142.729C409.967,128.751 399.344,122.228 397.107,132.851Z" style="fill:rgb(250,185,167);fill-rule:nonzero;"/>
            </g>
            <g transform="matrix(-0.73808,0,0,0.73808,3546.71,667.3)">
                <path d="M408.018,120.017C408.018,120.017 411.935,136.969 410.758,152.478C409.581,167.988 405.179,182.418 406.455,192.407C406.455,192.407 400.859,193.411 397.053,190.741C397.053,190.741 392.148,162.938 392.629,147.91C393.11,132.881 391.022,122.055 396.247,118.381C401.472,114.706 407.56,117.824 408.018,120.017Z" style="fill:rgb(22,17,31);fill-rule:nonzero;"/>
            </g>
            <g transform="matrix(-0.73808,0,0,0.73808,3546.71,667.3)">
                <path d="M383.258,202.019C383.258,202.019 379.904,205.001 380.835,208.542C381.768,212.083 381.965,218.42 381.965,218.42L383.258,218.42L383.258,212.269C383.258,212.269 384.936,214.879 384.75,217.115C384.563,219.351 384.936,221.029 386.054,221.961C387.172,222.892 394.068,226.061 395.187,225.129C396.305,224.197 395.373,221.961 393.509,218.606C391.646,215.251 388.104,199.037 383.258,202.019Z" style="fill:rgb(39,34,46);fill-rule:nonzero;"/>
            </g>
            <g transform="matrix(-0.73808,0,0,0.73808,3546.71,667.3)">
                <path d="M383.258,141.748C383.137,142.325 380.835,172.945 381.768,179.468C382.699,185.991 385.798,198.586 384.808,201.7C383.818,204.814 384.936,212.828 386.8,216.183C388.663,219.538 393.323,221.029 393.509,218.606C393.695,216.183 389.782,196.427 391.832,183.009C393.882,169.59 395.221,165.604 395.669,151.626C396.118,137.648 385.495,131.125 383.258,141.748Z" style="fill:rgb(250,185,167);fill-rule:nonzero;"/>
            </g>
            <g transform="matrix(-0.73808,0,0,0.73808,3546.71,667.3)">
                <path d="M384.093,198.195C384.093,198.195 385.881,200.422 391.889,199.016C391.889,199.016 392.567,184.416 395.395,167.694C397.721,153.938 399.513,138.773 398.948,126.062C397.831,100.882 379.548,118.137 377.765,129.364C375.981,140.591 381.315,142.195 381.181,152.599C381.08,160.521 377.399,175.232 384.093,198.195Z" style="fill:rgb(39,34,46);fill-rule:nonzero;"/>
            </g>
            <g transform="matrix(-0.73808,0,0,0.73808,3546.71,667.3)">
                <path d="M387.151,123.698C387.151,123.698 401.428,127.581 407.12,120.259L402.645,70.984L393.521,68.641L387.458,70.782L387.151,123.698Z" style="fill:rgb(85,95,99);fill-rule:nonzero;"/>
            </g>
            <g transform="matrix(-0.73808,0,0,0.73808,3546.71,667.3)">
                <path d="M387.458,70.782C387.458,70.782 381.707,73.642 376.628,77.492C372.92,80.303 375.522,87.59 379.107,99.444C380.569,104.265 382.017,109.09 383.453,113.919C384.889,118.748 377.068,121.852 377.324,131.407C377.331,131.68 388.949,131.302 392.272,118.904C395.596,106.506 394.252,81.455 394.252,81.455C394.252,81.455 386.236,76.351 387.458,70.782Z" style="fill:rgb(248,151,47);fill-rule:nonzero;"/>
            </g>
            <g transform="matrix(-0.73808,0,0,0.73808,3546.71,667.3)">
                <path d="M387.674,71.473L387.674,69.665C386.258,70.284 382.879,71.905 382.529,73.428C381.992,75.773 392.328,81.183 392.328,81.183C392.328,81.183 389.106,83.807 389.984,85.511C391.006,87.495 394.521,94.709 393.406,113.08C393.406,113.08 397.229,89.316 394.252,81.455C393.061,78.306 386.708,74.841 387.674,71.473Z" style="fill:rgb(254,217,124);fill-rule:nonzero;"/>
            </g>
            <g transform="matrix(-0.73808,0,0,0.73808,3546.71,667.3)">
                <path d="M410.701,83.49C406.818,73.262 405,68.98 402.645,67.503C399.428,65.485 393.05,68.641 393.05,68.641C393.05,68.641 398.949,67.706 400.199,72.046C401.45,76.386 404.159,107.017 404.926,114.814C405.693,122.611 409.239,126.062 409.239,126.062C409.718,119.927 407.808,117.802 407.808,114.606C407.808,113.179 410,94.837 410,94.837C413.57,92.641 412.146,87.916 410.701,83.49Z" style="fill:rgb(248,151,47);fill-rule:nonzero;"/>
            </g>
            <g transform="matrix(-0.73808,0,0,0.73808,3546.71,667.3)">
                <path d="M392.328,68.641C392.328,68.641 398.52,68.204 400.199,79.74C402.367,85.932 404.482,110.519 404.482,110.519C404.482,110.519 405.153,85.663 405.493,81.724C405.746,78.809 401.766,78.839 401.766,78.839C401.766,78.839 403.81,67.503 399.245,66.349C395.147,65.313 392.328,68.641 392.328,68.641Z" style="fill:rgb(254,217,124);fill-rule:nonzero;"/>
            </g>
            <g transform="matrix(-0.73808,0,0,0.73808,3546.71,667.3)">
                <path d="M395.955,62.548L395.955,71.473C395.951,72.087 395.542,72.7 394.732,73.168C393.108,74.106 390.489,74.106 388.878,73.17C388.072,72.701 387.671,72.087 387.674,71.473L387.674,62.537L395.955,62.548Z" style="fill:rgb(250,185,167);fill-rule:nonzero;"/>
            </g>
            <g transform="matrix(-0.73808,0,0,0.73808,3546.71,667.3)">
                <path d="M395.834,69.357C390.03,69.357 388.294,64.74 388.294,64.74L395.955,62.548L395.955,69.357L395.834,69.357Z" style="fill:rgb(248,163,142);fill-rule:nonzero;"/>
            </g>
            <g transform="matrix(-0.73808,0,0,0.73808,3546.71,667.3)">
                <path d="M381.992,53.734C381.992,60.793 389.525,67.706 396.584,67.706C401.634,67.706 405,60.793 405,53.734C405,46.675 401.833,40.952 394.773,40.952C387.714,40.952 381.992,46.675 381.992,53.734Z" style="fill:rgb(250,185,167);fill-rule:nonzero;"/>
            </g>
            <g transform="matrix(-0.73808,0,0,0.73808,3546.71,667.3)">
                <path d="M404.408,38.877C403.063,37.592 397.136,31.288 386.395,34.534C380.331,36.367 377.881,40.155 376.747,44.724C375.612,49.293 374.177,59.152 384.829,61.362L382.289,56.224C387.536,55.955 392.143,53.84 395.826,50.466C394.954,52.045 393.989,53.505 393.05,54.329C393.05,54.329 400.924,52.817 402.563,45.561C402.622,45.639 402.226,49.286 401.646,50.344C401.646,50.344 404.309,50.313 405,49.142C408.288,44.994 405.753,40.162 404.408,38.877Z" style="fill:rgb(22,17,31);fill-rule:nonzero;"/>
            </g>
            <g transform="matrix(-0.73808,0,0,0.73808,3546.71,667.3)">
                <path d="M381.044,56.129C381.044,57.946 382.539,59.441 384.356,59.441C386.173,59.441 387.668,57.946 387.668,56.129C387.668,54.312 386.173,52.817 384.356,52.817C382.539,52.817 381.044,54.312 381.044,56.129Z" style="fill:rgb(250,185,167);fill-rule:nonzero;"/>
            </g>
            <g transform="matrix(-0.73808,0,0,0.73808,3546.71,667.3)">
                <path d="M386.542,59.054C386.542,59.42 386.24,59.722 385.874,59.722C385.508,59.722 385.206,59.42 385.206,59.054C385.206,58.688 385.508,58.386 385.874,58.386C386.24,58.386 386.542,58.688 386.542,59.054Z" style="fill:white;fill-rule:nonzero;"/>
            </g>
            <g transform="matrix(-0.73808,0,0,0.73808,3546.71,667.3)">
                <path d="M378.553,134.427C378.553,134.427 379.674,136.789 380.305,136.879C380.937,136.969 388.268,135.526 388.615,128.944L386.058,128.024L378.553,134.427Z" style="fill:rgb(250,185,167);fill-rule:nonzero;"/>
            </g>
            <g transform="matrix(-0.73808,0,0,0.73808,3546.71,667.3)">
                <path d="M369.22,107.457L369.429,107.098L359.082,107.593C359.059,108.573 359.347,109.535 359.906,110.341L378.553,134.427C379.456,135.72 387.526,130.126 386.058,128.024L369.22,107.457Z" style="fill:rgb(250,185,167);fill-rule:nonzero;"/>
            </g>
            <g transform="matrix(-0.73808,0,0,0.73808,3546.71,667.3)">
                <path d="M359.082,107.593L369.429,107.098L383.236,83.401C383.618,82.712 383.819,81.936 383.819,81.148C383.819,78.6 381.722,76.503 379.174,76.503C377.558,76.503 376.054,77.346 375.211,78.725L359.701,105.344C359.306,106.029 359.093,106.803 359.082,107.593Z" style="fill:rgb(248,151,47);fill-rule:nonzero;"/>
            </g>
            <g transform="matrix(-0.73808,0,0,0.73808,3546.71,667.3)">
                <path d="M370.431,108.872L358.849,109.854C358.824,109.856 358.798,109.857 358.773,109.857C358.306,109.857 357.912,109.495 357.873,109.03L357.706,107.063C357.704,107.037 357.703,107.012 357.703,106.986C357.703,106.519 358.064,106.126 358.529,106.087L370.112,105.105C370.137,105.103 370.163,105.102 370.188,105.102C370.655,105.102 371.049,105.464 371.088,105.929L371.255,107.896C371.257,107.921 371.258,107.947 371.258,107.972C371.258,108.439 370.896,108.833 370.431,108.872Z" style="fill:rgb(254,217,124);fill-rule:nonzero;"/>
            </g>
            <g transform="matrix(-0.00474,-0.00273,0,0.09428,3209.4,801.553)">
                <rect x="3596.24" y="935.97" width="1105.72" height="542.525" style="fill:rgb(123,58,43);"/>
            </g>
            <g transform="matrix(0.00474,-0.00273,0,0.09428,3175.34,801.553)">
                <rect x="3596.24" y="935.97" width="1105.72" height="542.525" style="fill:rgb(114,45,29);"/>
            </g>
            <g transform="matrix(-0.00474,-0.00273,0,0.09428,3052.58,711.124)">
                <rect x="3596.24" y="935.97" width="1105.72" height="542.525" style="fill:rgb(123,58,43);"/>
            </g>
            <g transform="matrix(0.00474,-0.00273,0,0.09428,3018.53,711.124)">
                <rect x="3596.24" y="935.97" width="1105.72" height="542.525" style="fill:rgb(114,45,29);"/>
            </g>
            <g transform="matrix(-0.00474,-0.00273,0,0.09428,3300.43,749.099)">
                <rect x="3596.24" y="935.97" width="1105.72" height="542.525" style="fill:rgb(123,58,43);"/>
            </g>
            <g transform="matrix(0.00474,-0.00273,0,0.09428,3266.38,749.099)">
                <rect x="3596.24" y="935.97" width="1105.72" height="542.525" style="fill:rgb(114,45,29);"/>
            </g>
            <g transform="matrix(0.08707,-0.05027,0,0.01023,2879.22,1045.74)">
                <rect x="3596.24" y="935.97" width="1105.72" height="542.525" style="fill:rgb(94,65,71);"/>
            </g>
            <g transform="matrix(-0.14655,-0.08461,0,0.01023,3719.41,1169.24)">
                <rect x="3596.24" y="935.97" width="1105.72" height="542.525" style="fill:rgb(107,80,86);"/>
            </g>
            <g transform="matrix(0.08707,-0.05027,0.2987,0.17245,2437.6,800.336)">
                <rect x="3596.24" y="935.97" width="1105.72" height="542.525" style="fill:rgb(111,85,91);"/>
            </g>
            <g transform="matrix(0.73808,0,0,0.73808,2871.36,717.941)">
                <path d="M197.937,136.033L187.535,118.017L211.279,104.309L221.68,122.324L197.937,136.033Z" style="fill:white;fill-rule:nonzero;"/>
            </g>
            <g transform="matrix(0.73808,0,0,0.73808,2871.36,717.941)">
                <path d="M180.265,75.487L170.414,104.717L170.741,105.927C171.775,105.62 173.615,104.6 174.852,101.219C176.655,96.29 180.265,75.487 180.265,75.487Z" style="fill:rgb(149,218,248);fill-rule:nonzero;"/>
            </g>
            <g transform="matrix(0.73808,0,0,0.73808,2871.36,717.941)">
                <path d="M172.981,53.734C172.981,60.793 180.515,67.706 187.574,67.706C192.624,67.706 195.99,60.793 195.99,53.734C195.99,46.675 192.822,40.952 185.763,40.952C178.704,40.952 172.981,46.675 172.981,53.734Z" style="fill:rgb(191,99,71);fill-rule:nonzero;"/>
            </g>
            <g transform="matrix(0.73808,0,0,0.73808,2871.36,717.941)">
                <path d="M172.033,56.129C172.033,57.946 173.528,59.442 175.345,59.442C177.163,59.442 178.658,57.946 178.658,56.129C178.658,54.312 177.163,52.817 175.345,52.817C173.528,52.817 172.033,54.312 172.033,56.129Z" style="fill:rgb(191,99,71);fill-rule:nonzero;"/>
            </g>
            <g transform="matrix(0.73808,0,0,0.73808,2871.36,717.941)">
                <path d="M177.532,59.054C177.531,59.421 177.23,59.722 176.863,59.722C176.496,59.722 176.194,59.42 176.194,59.053C176.194,59.053 176.194,59.052 176.194,59.052C176.195,58.685 176.496,58.384 176.863,58.384C177.23,58.384 177.532,58.686 177.532,59.053C177.532,59.053 177.532,59.054 177.532,59.054Z" style="fill:white;fill-rule:nonzero;"/>
            </g>
            <g transform="matrix(0.73808,0,0,0.73808,2871.36,717.941)">
                <path d="M210.958,126.935L202.105,99.045L194.032,104.309L202.106,129.745C202.733,131.722 211.734,129.38 210.958,126.935Z" style="fill:rgb(191,99,71);fill-rule:nonzero;"/>
            </g>
            <g transform="matrix(0.73808,0,0,0.73808,2871.36,717.941)">
                <path d="M202.105,99.045L193.465,71.822C192.854,69.899 191.057,68.583 189.039,68.583C186.492,68.583 184.395,70.68 184.395,73.227C184.395,73.704 184.469,74.178 184.613,74.632L194.032,104.309L202.105,99.045Z" style="fill:rgb(209,238,251);fill-rule:nonzero;"/>
            </g>
            <g transform="matrix(0.73808,0,0,0.73808,2871.36,717.941)">
                <path d="M205.827,126.579C202.965,127.952 201.764,131.995 202.874,133.182C203.984,134.37 212.79,129.734 212.577,127.581C212.363,125.427 208.833,125.136 205.827,126.579Z" style="fill:rgb(191,99,71);fill-rule:nonzero;"/>
            </g>
            <g transform="matrix(0.73808,0,0,0.73808,2871.36,717.941)">
                <path d="M186.483,193.122C186.483,193.122 183.128,196.104 184.06,199.645C184.992,203.186 185.189,209.523 185.189,209.523L186.483,209.523L186.483,203.372C186.483,203.372 188.16,205.982 187.974,208.218C187.788,210.454 188.16,212.132 189.278,213.064C190.396,213.995 197.292,217.164 198.411,216.232C199.529,215.3 198.597,213.064 196.733,209.709C194.87,206.354 191.329,190.14 186.483,193.122Z" style="fill:rgb(22,17,31);fill-rule:nonzero;"/>
            </g>
            <g transform="matrix(0.73808,0,0,0.73808,2871.36,717.941)">
                <path d="M186.483,132.851C186.361,133.428 184.06,164.048 184.992,170.571C185.924,177.094 189.022,189.689 188.032,192.803C187.042,195.918 188.16,203.931 190.024,207.286C191.888,210.641 196.547,212.132 196.733,209.709C196.919,207.286 193.006,187.531 195.056,174.112C197.106,160.693 198.445,156.707 198.894,142.729C199.342,128.751 188.719,122.228 186.483,132.851Z" style="fill:rgb(191,99,71);fill-rule:nonzero;"/>
            </g>
            <g transform="matrix(0.73808,0,0,0.73808,2871.36,717.941)">
                <path d="M172.634,202.019C172.634,202.019 169.279,205.001 170.211,208.542C171.143,212.083 171.341,218.42 171.341,218.42L172.634,218.42L172.634,212.269C172.634,212.269 174.312,214.879 174.125,217.115C173.939,219.351 174.312,221.029 175.43,221.961C176.548,222.892 183.444,226.061 184.562,225.129C185.68,224.197 184.749,221.961 182.885,218.606C181.021,215.251 177.48,199.037 172.634,202.019Z" style="fill:rgb(39,34,46);fill-rule:nonzero;"/>
            </g>
            <g transform="matrix(0.73808,0,0,0.73808,2871.36,717.941)">
                <path d="M172.634,141.748C172.513,142.325 170.211,172.945 171.143,179.468C172.075,185.991 175.173,198.586 174.183,201.7C173.193,204.814 174.312,212.828 176.175,216.183C178.039,219.538 182.698,221.029 182.885,218.606C183.071,216.183 179.157,196.427 181.208,183.009C183.257,169.59 184.596,165.604 185.045,151.626C185.494,137.648 174.871,131.125 172.634,141.748Z" style="fill:rgb(191,99,71);fill-rule:nonzero;"/>
            </g>
            <g transform="matrix(0.73808,0,0,0.73808,2871.36,717.941)">
                <path d="M174.213,113.333C174.213,113.333 168.819,116.334 166.646,125.409C164.474,134.484 163.854,166.821 163.854,166.821C163.854,166.821 172.91,180.881 187.992,177.174C203.074,173.468 204.608,166.054 204.608,166.054C204.608,166.054 200.435,131.288 199.454,126.431C198.473,121.574 197.612,116.59 197.275,112.244L174.213,113.333Z" style="fill:rgb(16,46,83);fill-rule:nonzero;"/>
            </g>
            <g transform="matrix(0.73808,0,0,0.73808,2871.36,717.941)">
                <path d="M171.714,115.449C173.736,119.469 188.491,124.386 198.079,118.837C197.722,116.551 197.436,114.322 197.275,112.244L174.213,113.333C174.213,113.333 173.116,113.95 171.714,115.449Z" style="fill:rgb(38,77,138);fill-rule:nonzero;"/>
            </g>
            <g transform="matrix(0.73808,0,0,0.73808,2871.36,717.941)">
                <path d="M172.981,114.234C172.981,114.234 166.135,88.824 165.368,86.144C164.602,83.464 164.435,77.728 169.291,75.044C174.148,72.36 176.863,70.639 182.282,68.461C187.147,66.505 191.022,66.153 192.556,69.093C194.089,72.032 198.856,81.094 200.773,84.324C202.69,87.554 203.119,92.283 199.454,94.456C199.454,94.456 197.582,110.392 197.501,114.61C197.501,114.61 188.216,119.797 172.981,114.234Z" style="fill:rgb(209,238,251);fill-rule:nonzero;"/>
            </g>
            <g transform="matrix(0.73808,0,0,0.73808,2871.36,717.941)">
                <path d="M197.516,114.149C197.705,109.346 199.454,94.456 199.454,94.456C202.922,92.4 202.723,88.056 201.066,84.858C201.066,84.858 202.118,89.33 201.062,91.463C199.528,94.559 192.706,96.392 192.706,96.392L198.079,95.851L197.516,114.149Z" style="fill:rgb(149,218,248);fill-rule:nonzero;"/>
            </g>
            <g transform="matrix(0.73808,0,0,0.73808,2871.36,717.941)">
                <path d="M176.325,35.639C175.824,34.886 175.196,34.225 174.47,33.686C171.849,31.713 168.056,31.255 164.942,32.479C160.977,34.038 158.18,37.853 157.096,41.974C156.012,46.094 156.46,50.486 157.541,54.608C158.325,57.599 159.445,60.578 159.334,63.668C159.224,66.758 157.454,70.077 154.438,70.761C156.785,74.097 161.558,75.242 165.561,74.403L165.751,74.366C169.792,73.45 173.188,70.531 175.342,66.993C177.496,63.454 178.521,59.334 179.039,55.224C179.845,48.825 179.866,41.03 176.325,35.639Z" style="fill:rgb(89,35,17);fill-rule:nonzero;"/>
            </g>
            <g transform="matrix(0.73808,0,0,0.73808,2871.36,717.941)">
                <path d="M176.325,35.639C175.824,34.886 175.196,34.225 174.47,33.686C170.584,33.622 166.62,35.626 164.287,38.811C161.204,43.017 160.782,48.809 162.452,53.749C164.189,58.889 168.034,63.57 167.687,68.985C167.56,70.965 166.771,72.841 165.561,74.403L165.751,74.366C169.792,73.45 173.188,70.531 175.342,66.993C177.497,63.454 178.521,59.334 179.039,55.224C179.845,48.825 179.866,41.03 176.325,35.639Z" style="fill:rgb(47,11,8);fill-rule:nonzero;"/>
            </g>
            <g transform="matrix(0.73808,0,0,0.73808,2871.36,717.941)">
                <path d="M187.957,82.073C185.188,79.536 179.093,71.155 178.664,69.672C178.664,69.672 175.748,70.75 176.768,73.585C177.851,76.594 186.514,83.967 186.514,83.967L187.957,82.073ZM186.535,67.146L186.514,71.523C186.615,73.919 187.957,82.073 187.957,82.073L190.211,82.614C190.392,76.568 189.763,68.697 186.535,67.146Z" style="fill:white;fill-rule:nonzero;"/>
            </g>
            <g transform="matrix(0.73808,0,0,0.73808,2871.36,717.941)">
                <path d="M186.944,62.548L186.944,71.473C186.939,72.087 188.592,81.963 187.957,82.073C186.544,82.319 180.978,73.815 179.868,73.17C179.061,72.701 178.66,72.087 178.664,71.473L178.664,62.537L186.944,62.548Z" style="fill:rgb(191,99,71);fill-rule:nonzero;"/>
            </g>
            <g transform="matrix(0.73808,0,0,0.73808,2871.36,717.941)">
                <path d="M186.823,69.357C181.156,69.357 179.368,64.955 179.287,64.747C181.589,66.435 184.283,67.535 186.944,67.688L186.944,69.357L186.823,69.357Z" style="fill:rgb(163,68,45);fill-rule:nonzero;"/>
            </g>
            <g transform="matrix(0.73808,0,0,0.73808,2871.36,717.941)">
                <path d="M184.722,67.339C179.537,66.06 174.682,61.535 173.346,56.448C175.992,54.632 180.265,53.714 180.265,53.714L184.897,56.846C184.897,56.846 189.066,58.34 189.143,60.323C189.201,61.839 186.164,65.629 184.722,67.339Z" style="fill:rgb(163,68,45);fill-rule:nonzero;"/>
            </g>
            <g transform="matrix(0.73808,0,0,0.73808,2871.36,717.941)">
                <path d="M195.397,38.877C194.052,37.592 188.125,31.288 177.384,34.534C171.32,36.367 168.871,40.155 167.736,44.724C166.601,49.293 165.166,59.152 175.818,61.362L173.278,56.224C178.524,55.955 183.132,53.84 186.815,50.466C185.943,52.045 184.979,53.505 184.039,54.329C184.039,54.329 191.914,52.817 193.552,45.561C193.611,45.639 193.215,49.286 192.635,50.344C192.635,50.344 195.298,50.313 195.99,49.142C199.277,44.994 196.743,40.162 195.397,38.877Z" style="fill:rgb(89,35,17);fill-rule:nonzero;"/>
            </g>
            <g transform="matrix(0.73808,0,0,0.73808,2871.36,717.941)">
                <path d="M167.246,106.06C167.245,106.06 167.243,106.06 167.242,106.06C164.694,106.06 162.598,103.964 162.598,101.416C162.598,101.324 162.601,101.233 162.606,101.141L164.221,79.856C164.41,77.452 166.441,75.575 168.852,75.575C171.4,75.575 173.497,77.672 173.497,80.22C173.497,80.282 173.495,80.344 173.493,80.406L171.877,101.691C171.732,104.129 169.688,106.057 167.246,106.06Z" style="fill:rgb(209,238,251);fill-rule:nonzero;"/>
            </g>
            <g transform="matrix(0.73808,0,0,0.73808,2871.36,717.941)">
                <path d="M185.283,62.074L182.353,65.005C181.578,65.779 180.303,65.779 179.528,65.005L172.044,57.521C171.269,56.746 171.269,55.471 172.044,54.696L174.975,51.765C175.75,50.991 177.024,50.991 177.799,51.765L185.283,59.249C186.063,60.029 186.063,61.294 185.283,62.074Z" style="fill:rgb(39,34,46);fill-rule:nonzero;"/>
            </g>
            <g transform="matrix(0.73808,0,0,0.73808,2871.36,717.941)">
                <path d="M182.281,57.306C177.94,56.53 175.265,55.757 176.138,63.802L164.01,99.045C163.907,99.433 163.855,99.832 163.855,100.233C163.855,102.78 165.951,104.876 168.498,104.876C168.5,104.876 168.501,104.876 168.502,104.876C170.602,104.874 172.452,103.448 172.989,101.417L182.927,66.939C182.928,66.939 193.318,59.277 182.281,57.306Z" style="fill:rgb(191,99,71);fill-rule:nonzero;"/>
            </g>
            <g transform="matrix(0.73808,0,0,0.73808,3078.23,537.818)">
                <path d="M412.662,337.135L424.544,321.918L411.501,289.522C411.193,288.889 411.032,288.193 411.032,287.489C411.032,284.94 413.129,282.844 415.677,282.844C417.385,282.844 418.961,283.786 419.769,285.29L434.162,320.324C434.984,321.931 434.798,323.877 433.688,325.299L419.982,342.851C419.066,344.025 411.083,339.157 412.662,337.135Z" style="fill:rgb(77,84,87);fill-rule:nonzero;"/>
            </g>
            <g transform="matrix(0.73808,0,0,0.73808,3078.23,537.818)">
                <path d="M416.467,426.44C416.467,426.44 408.138,422.511 405.781,420.154C403.424,417.798 405.938,416.383 408.453,416.697C410.967,417.011 421.025,417.483 421.025,417.483C421.025,417.483 426.089,420.154 425.915,422.041C425.739,423.927 425.569,427.541 422.59,428.17C419.61,428.798 417.253,428.17 416.467,426.44Z" style="fill:rgb(49,45,56);fill-rule:nonzero;"/>
            </g>
            <g transform="matrix(0.73808,0,0,0.73808,3078.23,537.818)">
                <path d="M420.703,348.669C420.703,348.669 423.102,370.844 421.635,384.673C421.635,384.673 426.874,406.465 425.826,423.437C425.826,423.437 419.33,425.113 415.349,417.779C415.349,417.779 410.32,395.314 411.368,388.842C411.368,388.842 407.372,374.313 405.023,356.921C402.684,339.602 419.027,336.516 420.703,348.669Z" style="fill:rgb(48,53,55);fill-rule:nonzero;"/>
            </g>
            <g transform="matrix(0.73808,0,0,0.73808,3078.23,537.818)">
                <path d="M398.586,426.371C398.586,426.371 402.237,435.328 410.076,430.457C410.076,430.457 412.573,402.169 408.801,395.569C408.801,395.569 409.466,365.082 410.076,354.71C410.687,344.338 390.506,344.544 391.829,356.124C393.063,366.941 395.765,383.941 398.429,394.711L398.586,426.371Z" style="fill:rgb(62,70,75);fill-rule:nonzero;"/>
            </g>
            <g transform="matrix(0.73808,0,0,0.73808,3078.23,537.818)">
                <path d="M423.007,349.972C423.007,349.972 422.362,299.484 421.972,294.481C421.572,289.343 419.929,278.436 411.147,281.994C404.493,284.689 395.006,289.799 390.796,292.133C386.274,294.64 383.936,295.913 384.036,302.405C384.136,308.898 388.26,360.058 388.26,360.058C388.26,360.058 402.244,362.717 410.117,357.067L410.408,346.561L411.365,356.527C411.365,356.527 418.151,356.424 423.007,349.972Z" style="fill:rgb(85,95,99);fill-rule:nonzero;"/>
            </g>
            <g transform="matrix(0.73808,0,0,0.73808,3078.23,537.818)">
                <path d="M396.988,259.895C396.988,259.895 395.955,266.728 399.994,269.26C402.309,279.215 404.979,278.973 406.306,280.037C408.285,281.622 411.826,277.078 413.706,273.004C415.585,268.929 414.542,263.385 410.213,258.697C405.885,254.008 396.988,259.895 396.988,259.895Z" style="fill:rgb(22,17,31);fill-rule:nonzero;"/>
            </g>
            <g transform="matrix(0.73808,0,0,0.73808,3078.23,537.818)">
                <path d="M400.629,434.856C400.629,434.856 392.3,430.927 389.943,428.57C387.586,426.214 390.1,424.799 392.615,425.113C395.129,425.427 405.187,425.899 405.187,425.899C405.187,425.899 410.251,428.57 410.076,430.457C409.901,432.343 409.731,435.957 406.751,436.585C403.772,437.214 401.415,436.585 400.629,434.856Z" style="fill:rgb(49,45,56);fill-rule:nonzero;"/>
            </g>
            <g transform="matrix(0.73808,0,0,0.73808,3078.23,537.818)">
                <path d="M398.985,277.812L398.985,286.767C398.985,286.767 399.617,287.707 400.427,288.175C402.051,289.112 404.45,287.964 406.061,287.027C406.868,286.558 407.268,285.945 407.265,285.331L407.265,277.802L398.985,277.812Z" style="fill:rgb(191,99,71);fill-rule:nonzero;"/>
            </g>
            <g transform="matrix(0.73808,0,0,0.73808,3078.23,537.818)">
                <path d="M398.985,283.874L398.985,279.77C400.826,279.336 402.547,279.022 403.673,279.022C404.766,279.022 405.298,279.319 404.832,280.09C403.447,282.377 400.624,283.434 398.985,283.874Z" style="fill:rgb(163,68,45);fill-rule:nonzero;"/>
            </g>
            <g transform="matrix(0.73808,0,0,0.73808,3078.23,537.818)">
                <path d="M413.749,268.998C413.749,276.056 403.604,282.305 396.545,282.305C391.495,282.305 390.74,276.056 390.74,268.998C390.74,261.938 393.908,256.218 400.967,256.218C408.026,256.218 413.749,261.938 413.749,268.998Z" style="fill:rgb(191,99,71);fill-rule:nonzero;"/>
            </g>
            <g transform="matrix(0.73808,0,0,0.73808,3078.23,537.818)">
                <path d="M403.125,269.53C403.125,271.359 401.642,273.641 399.813,273.641C397.984,273.641 397.729,271.616 397.729,269.787C397.729,267.958 397.984,266.218 399.813,266.218C401.63,266.218 403.125,267.713 403.125,269.53Z" style="fill:rgb(191,99,71);fill-rule:nonzero;"/>
            </g>
            <g transform="matrix(0.73808,0,0,0.73808,3078.23,537.818)">
                <path d="M390.74,257.254C390.333,258.927 391.938,263.265 396.868,262.303C401.797,261.343 412.244,261.942 414.6,267.714C414.6,267.714 414.902,254.488 405.164,252.685C395.425,250.882 391.705,253.286 390.74,257.254Z" style="fill:rgb(22,17,31);fill-rule:nonzero;"/>
            </g>
            <g transform="matrix(0.73808,0,0,0.73808,3078.23,537.818)">
                <path d="M393.338,299.566L389.902,334.192L386.895,342.829C387.389,349.149 387.82,354.562 388.06,357.556L396.214,328.15L393.338,299.566Z" style="fill:rgb(62,70,75);fill-rule:nonzero;"/>
            </g>
            <g transform="matrix(0.73808,0,0,0.73808,3078.23,537.818)">
                <path d="M398.188,286.771C398.188,286.771 403.911,286.253 407.265,283.122C407.265,283.122 408.662,283.647 409.023,284.729C409.384,285.811 405.735,290.684 396.214,288.687C396.214,288.687 396.292,287.252 398.188,286.771Z" style="fill:white;fill-rule:nonzero;"/>
            </g>
            <g transform="matrix(0.73808,0,0,0.73808,3078.23,537.818)">
                <path d="M367.152,364.838L367.152,377.103C367.152,378.044 367.659,378.911 368.477,379.373L391.771,390.943C391.771,390.943 393.524,390.043 393.524,388.048L393.524,375.057C393.524,374.057 392.952,373.146 392.051,372.711L370.892,362.491C369.162,361.655 367.152,362.916 367.152,364.838Z" style="fill:rgb(89,35,17);fill-rule:nonzero;"/>
            </g>
            <g transform="matrix(0.73808,0,0,0.73808,3078.23,537.818)">
                <path d="M397.716,388.682L393.758,390.933C392.4,391.706 390.714,390.725 390.714,389.163L390.714,374.762C390.714,374.03 391.107,373.354 391.744,372.992L398.746,370.1L398.746,386.912C398.746,387.644 398.353,388.321 397.716,388.682Z" style="fill:rgb(69,15,8);fill-rule:nonzero;"/>
            </g>
            <g transform="matrix(0.73808,0,0,0.73808,3078.23,537.818)">
                <path d="M367.152,367.502L367.152,360.774C367.152,359.698 370.292,355.034 373.431,355.93C376.571,356.828 398.746,370.1 398.746,370.1L390.714,374.947L390.714,381.316L377.737,381.316L367.152,367.502Z" style="fill:rgb(110,56,31);fill-rule:nonzero;"/>
            </g>
            <g transform="matrix(0.73808,0,0,0.73808,3078.23,537.818)">
                <path d="M376.666,360.061L376.666,358.09C376.666,357.108 387.398,363.466 387.398,364.043L387.384,367.265L388.725,366.394L388.725,362.851C388.725,362.192 378.284,356.885 377.513,356.635C376.742,356.383 375.528,356.534 375.528,357.52L375.528,360.774L376.666,360.061Z" style="fill:rgb(89,35,17);fill-rule:nonzero;"/>
            </g>
            <g transform="matrix(0.73808,0,0,0.73808,3078.23,537.818)">
                <path d="M379.435,383.409L376.279,381.96L376.279,378.266L379.435,379.716L379.435,383.409Z" style="fill:rgb(248,151,47);fill-rule:nonzero;"/>
            </g>
            <g transform="matrix(0.73808,0,0,0.73808,3078.23,537.818)">
                <path d="M390.714,374.947C388.682,373.881 386.686,372.754 384.695,371.618C382.704,370.482 380.743,369.298 378.766,368.139C376.815,366.936 374.851,365.758 372.914,364.532C370.978,363.306 369.046,362.072 367.152,360.774C369.186,361.84 371.182,362.967 373.172,364.103C375.162,365.24 377.124,366.423 379.101,367.582C381.05,368.787 383.017,369.964 384.952,371.19C386.889,372.416 388.82,373.651 390.714,374.947Z" style="fill:rgb(89,35,17);fill-rule:nonzero;"/>
            </g>
            <g transform="matrix(0.73808,0,0,0.73808,3078.23,537.818)">
                <path d="M379.766,354.165C379.766,354.165 377.467,360.353 378.534,361.633C379.6,362.912 385.127,366.181 385.643,364.476C386.159,362.771 387.028,355.686 387.028,355.686L379.766,354.165Z" style="fill:rgb(191,99,71);fill-rule:nonzero;"/>
            </g>
            <g transform="matrix(0.73808,0,0,0.73808,3078.23,537.818)">
                <path d="M379.495,353.176L385.282,326.604L384.462,299.016C384.461,298.97 384.46,298.924 384.46,298.878C384.46,296.383 386.472,294.311 388.966,294.237C389.013,294.236 389.061,294.235 389.108,294.235C391.603,294.235 393.674,296.247 393.746,298.74L394.583,326.897C394.594,327.275 394.56,327.654 394.479,328.024L388.57,355.153C388.097,357.326 378.949,355.681 379.495,353.176Z" style="fill:rgb(85,95,99);fill-rule:nonzero;"/>
            </g>
            <g transform="matrix(0.73808,0,0,0.73808,3102.41,629.374)">
                <path d="M197.301,425.019C197.301,425.019 188.973,421.091 186.615,418.733C184.258,416.377 186.772,414.962 189.287,415.276C191.801,415.591 196.68,416.381 199.499,417.421C202.318,418.461 205.087,419.24 205.811,420.126C207.009,421.592 206.403,426.12 203.424,426.748C200.444,427.377 198.087,426.748 197.301,425.019Z" style="fill:rgb(49,45,56);fill-rule:nonzero;"/>
            </g>
            <g transform="matrix(0.73808,0,0,0.73808,3102.41,629.374)">
                <path d="M201.988,348.669C201.988,348.669 204.387,370.844 202.92,384.673C202.92,384.673 206.04,403.247 204.992,420.219C204.992,420.219 197.168,424.844 193.187,417.51L192.653,388.842C192.653,388.842 188.656,374.313 186.308,356.921C183.969,339.602 200.312,336.516 201.988,348.669Z" style="fill:rgb(22,17,31);fill-rule:nonzero;"/>
            </g>
            <g transform="matrix(0.73808,0,0,0.73808,3102.41,629.374)">
                <path d="M180.238,434.856C180.238,434.856 171.909,430.927 169.552,428.57C167.194,426.214 169.709,424.799 172.223,425.113C174.738,425.427 184.795,425.899 184.795,425.899C184.795,425.899 189.86,428.57 189.685,430.457C189.51,432.343 189.339,435.957 186.36,436.585C183.381,437.214 181.023,436.585 180.238,434.856Z" style="fill:rgb(49,45,56);fill-rule:nonzero;"/>
            </g>
            <g transform="matrix(0.73808,0,0,0.73808,3102.41,629.374)">
                <path d="M179.15,427.51C179.15,427.51 181.528,434.619 189.368,429.748C189.368,429.748 190.662,405.638 187.295,394.521C187.295,394.521 190.75,365.082 191.361,354.71C191.972,344.338 171.792,344.544 173.114,356.124C174.349,366.941 174.412,383.753 177.076,394.521L179.15,427.51Z" style="fill:rgb(39,34,46);fill-rule:nonzero;"/>
            </g>
            <g transform="matrix(0.73808,0,0,0.73808,3102.41,629.374)">
                <path d="M173.051,347.587C173.051,347.587 172.512,351.23 173.045,355.262C173.577,359.295 182.611,363.408 199.106,353.18C203.807,350.265 205.125,344.516 201.879,335.815L173.051,347.587Z" style="fill:rgb(39,34,46);fill-rule:nonzero;"/>
            </g>
            <g transform="matrix(0.73808,0,0,0.73808,3102.41,629.374)">
                <path d="M160.95,331.743C160.8,331.758 160.65,331.765 160.5,331.765C157.952,331.765 155.856,329.668 155.856,327.121C155.856,325.289 156.94,323.621 158.614,322.877L184.493,311.364C185.079,311.108 185.712,310.976 186.351,310.976C188.899,310.976 190.995,313.072 190.995,315.62C190.995,317.44 189.926,319.099 188.268,319.85L162.389,331.363C161.933,331.567 161.447,331.695 160.95,331.743Z" style="fill:rgb(183,228,246);fill-rule:nonzero;"/>
            </g>
            <g transform="matrix(0.73808,0,0,0.73808,3102.41,629.374)">
                <path d="M203.257,294.482C203.277,289.328 199.465,280.552 192.432,281.994C185.398,283.436 175.627,290.196 172.081,292.133C167.543,294.611 168.607,298.948 169.021,305.427C169.241,308.87 170.002,345.01 169.781,347.174C167.488,352.046 176.361,353.849 192.171,346.275C197.417,343.762 206.298,338.25 203.052,335.004C203.052,335.004 203.222,303.316 203.257,294.482Z" style="fill:rgb(209,238,251);fill-rule:nonzero;"/>
            </g>
            <g transform="matrix(0.73808,0,0,0.73808,3102.41,629.374)">
                <path d="M160.515,331.732C157.968,331.731 155.872,329.635 155.872,327.088C155.872,326.515 155.978,325.947 156.185,325.412L167.222,296.884C167.901,295.078 169.639,293.875 171.569,293.875C174.116,293.875 176.213,295.971 176.213,298.519C176.213,299.107 176.101,299.689 175.884,300.235L164.847,328.763C164.156,330.548 162.429,331.732 160.515,331.732Z" style="fill:rgb(209,238,251);fill-rule:nonzero;"/>
            </g>
            <g transform="matrix(0.73808,0,0,0.73808,3102.41,629.374)">
                <path d="M180.27,279.502L180.27,287.292C180.27,287.292 180.682,288.248 181.492,288.716C183.116,289.653 185.735,289.653 187.346,288.717C188.152,288.248 188.554,287.634 188.55,287.021L188.55,279.491L180.27,279.502Z" style="fill:rgb(250,185,167);fill-rule:nonzero;"/>
            </g>
            <g transform="matrix(0.73808,0,0,0.73808,3102.41,629.374)">
                <path d="M178.839,286.66C178.839,286.66 185.195,286.312 188.55,283.18C188.55,283.18 190.38,283.63 190.602,284.748C191.025,286.887 184.771,292.623 176.865,288.576C176.865,288.576 176.943,287.141 178.839,286.66Z" style="fill:white;fill-rule:nonzero;"/>
            </g>
            <g transform="matrix(0.73808,0,0,0.73808,3102.41,629.374)">
                <path d="M180.27,285.356L180.27,281.254C182.111,280.819 183.832,280.505 184.958,280.505C186.051,280.505 186.583,280.801 186.116,281.572C184.731,283.859 181.909,284.917 180.27,285.356Z" style="fill:rgb(248,163,142);fill-rule:nonzero;"/>
            </g>
            <g transform="matrix(0.73808,0,0,0.73808,3102.41,629.374)">
                <path d="M195.034,270.687C195.034,277.747 184.889,283.995 177.83,283.995C172.78,283.995 172.025,277.747 172.025,270.687C172.025,263.629 175.193,257.906 182.252,257.906C189.311,257.906 195.034,263.629 195.034,270.687Z" style="fill:rgb(250,185,167);fill-rule:nonzero;"/>
            </g>
            <g transform="matrix(0.73808,0,0,0.73808,3102.41,629.374)">
                <path d="M172.155,274.891C172.521,280.05 173.819,283.995 177.83,283.995C178.433,283.995 179.059,283.946 179.698,283.859C180.749,283.681 180.75,282.08 180.749,280.6C180.749,275.272 179.48,268.789 179.48,268.789L177.23,267.908C177.23,267.908 178.164,275.11 178.044,275.952C177.938,276.692 174.938,273.619 172.155,274.891Z" style="fill:rgb(48,53,55);fill-rule:nonzero;"/>
            </g>
            <g transform="matrix(0.73808,0,0,0.73808,3102.41,629.374)">
                <path d="M176.865,262.506C176.865,262.506 175.549,270.951 181.279,270.951C183.593,280.904 186.263,280.664 187.591,281.726C189.57,283.311 193.111,278.767 194.99,274.693C196.87,270.62 195.827,265.075 191.499,260.386C187.17,255.697 176.865,262.506 176.865,262.506Z" style="fill:rgb(85,95,99);fill-rule:nonzero;"/>
            </g>
            <g transform="matrix(0.73808,0,0,0.73808,3102.41,629.374)">
                <path d="M184.41,271.219C184.41,273.049 182.927,275.332 181.098,275.332C179.269,275.332 179.014,273.305 179.014,271.476C179.014,269.647 179.269,267.908 181.098,267.908C181.098,267.908 181.099,267.908 181.099,267.908C182.915,267.908 184.41,269.403 184.41,271.219Z" style="fill:rgb(250,185,167);fill-rule:nonzero;"/>
            </g>
            <g transform="matrix(0.73808,0,0,0.73808,3102.41,629.374)">
                <path d="M172.025,258.943C171.618,260.619 173.161,265.021 177.804,263.107C184.909,260.177 193.529,263.633 195.885,269.403C195.885,269.403 196.187,256.179 186.449,254.375C176.71,252.571 172.99,254.976 172.025,258.943Z" style="fill:rgb(48,53,55);fill-rule:nonzero;"/>
            </g>
            <g transform="matrix(0.73808,0,0,0.73808,3102.41,629.374)">
                <path d="M172.299,276.407C172.358,276.914 172.43,277.404 172.515,277.876C173.797,277.936 174.751,277.374 174.558,276.618C174.364,275.861 172.85,276.237 172.299,276.407Z" style="fill:rgb(250,185,167);fill-rule:nonzero;"/>
            </g>
            <g transform="matrix(0.73808,0,0,0.73808,3097.19,594.39)">
                <path d="M293.845,422.842C293.845,422.842 288.302,420.445 287.065,422.842C285.829,425.239 292.932,430.23 295.865,429.885C298.798,429.54 301.731,426.78 302.593,423.502L302.593,431.093L304.664,431.093C304.664,431.093 306.842,420.396 307.306,417.463C307.77,414.53 306.907,413.149 304.664,412.46C304.664,412.46 300.453,411.942 299.453,414.703C298.453,417.463 296.66,422.89 293.845,422.842Z" style="fill:rgb(22,17,31);fill-rule:nonzero;"/>
            </g>
            <g transform="matrix(0.73808,0,0,0.73808,3097.19,594.39)">
                <path d="M295.347,394.344C297.746,408.293 297.072,417.98 295.347,421.086C293.622,424.191 290.171,423.846 292.242,424.882C294.312,425.917 296.9,424.882 299.488,419.361C302.076,413.84 302.938,412.287 304.664,412.46C304.664,412.46 302.766,404.178 306.044,393.481C309.322,382.784 305.699,363.634 301.041,363.805C296.382,363.978 290.689,367.257 295.347,394.344Z" style="fill:rgb(250,185,167);fill-rule:nonzero;"/>
            </g>
            <g transform="matrix(0.73808,0,0,0.73808,3097.19,594.39)">
                <path d="M295.06,337.135L306.942,321.918L293.9,289.522C293.547,288.854 293.363,288.109 293.363,287.354C293.363,284.806 295.459,282.71 298.007,282.71C299.768,282.71 301.384,283.712 302.167,285.29L316.56,320.324C317.382,321.93 317.197,323.876 316.087,325.299L302.38,342.851C301.465,344.025 293.482,339.157 295.06,337.135Z" style="fill:rgb(39,34,46);fill-rule:nonzero;"/>
            </g>
            <g transform="matrix(0.73808,0,0,0.73808,3097.19,594.39)">
                <path d="M302.167,285.29C301.384,283.712 299.768,282.71 298.007,282.71C295.459,282.71 293.363,284.806 293.363,287.354C293.363,288.109 293.547,288.854 293.9,289.522L304.171,315.034C304.791,314.615 305.411,314.169 306.028,313.663C308.349,311.76 309.976,309.463 311.067,306.955L302.167,285.29ZM278.018,422.842C278.018,422.842 272.475,420.445 271.238,422.842C270.002,425.239 277.104,430.23 280.038,429.885C282.97,429.54 285.903,426.78 286.766,423.502L286.766,431.093L288.836,431.093C288.836,431.093 291.014,420.396 291.478,417.463C291.942,414.53 291.08,413.149 288.836,412.46C288.836,412.46 284.625,411.942 283.625,414.703C282.625,417.463 280.833,422.89 278.018,422.842Z" style="fill:rgb(22,17,31);fill-rule:nonzero;"/>
            </g>
            <g transform="matrix(0.73808,0,0,0.73808,3097.19,594.39)">
                <path d="M279.52,394.344C281.919,408.293 281.245,417.98 279.52,421.086C277.794,424.191 274.344,423.846 276.414,424.882C278.485,425.917 281.073,424.882 283.661,419.361C286.249,413.84 287.111,412.287 288.836,412.46C288.836,412.46 286.938,404.178 290.217,393.481C293.495,382.784 289.872,363.634 285.213,363.805C280.555,363.978 274.861,367.257 279.52,394.344Z" style="fill:rgb(250,185,167);fill-rule:nonzero;"/>
            </g>
            <g transform="matrix(0.73808,0,0,0.73808,3097.19,594.39)">
                <path d="M274.878,338.386C274.878,338.386 269.509,350.513 270.65,374.013C270.65,374.013 294.137,386.8 313.373,370.727C313.373,370.727 312.58,346.726 305.547,335.545L274.878,338.386Z" style="fill:rgb(39,34,46);fill-rule:nonzero;"/>
            </g>
            <g transform="matrix(0.73808,0,0,0.73808,3097.19,594.39)">
                <path d="M305.547,335.545L274.878,338.386C274.878,338.386 270.852,347.495 270.517,365.209L284.988,373.327L284.897,344.923C296.079,346.185 307.589,339.526 307.589,339.526C306.974,338.085 306.298,336.739 305.547,335.545Z" style="fill:rgb(22,17,31);fill-rule:nonzero;"/>
            </g>
            <g transform="matrix(0.73808,0,0,0.73808,3097.19,594.39)">
                <path d="M308.41,336.075L302.429,324.559C300.982,321.441 301.76,290.891 301.76,290.891C302.809,285.18 295.905,278.353 290.423,280.272C290.423,280.272 277.087,288.578 273.113,291C271.363,292.066 266.712,293.835 267.846,298.755C268.979,303.675 275.287,328.561 275.287,328.561L271.819,340.955C271.819,340.955 290.85,347.872 308.41,336.075Z" style="fill:rgb(49,45,56);fill-rule:nonzero;"/>
            </g>
            <g transform="matrix(0.73808,0,0,0.73808,3097.19,594.39)">
                <path d="M283.518,342.938L276.969,338.192C276.969,338.192 278.681,329.413 278.889,328.211C279.096,327.009 278.362,316.445 278.362,316.445C278.362,316.445 289.715,322.493 301.664,316.505C301.572,313.429 301.545,309.836 301.552,306.33C301.569,298.385 269.824,306.865 271.337,312.896C273.287,320.671 275.287,328.561 275.287,328.561L271.819,340.955C271.819,340.955 276.571,342.681 283.518,342.938Z" style="fill:rgb(39,34,46);fill-rule:nonzero;"/>
            </g>
            <g transform="matrix(0.73808,0,0,0.73808,3097.19,594.39)">
                <path d="M283.625,344.336L283.625,370.782L257.049,356.163L257.247,329.686L283.625,344.336Z" style="fill:white;fill-rule:nonzero;"/>
            </g>
            <g transform="matrix(0.73808,0,0,0.73808,3097.19,594.39)">
                <path d="M262.165,353.563C262.165,353.563 259.866,359.752 260.932,361.031C261.999,362.311 267.525,365.581 268.042,363.876C268.558,362.171 269.427,355.085 269.427,355.085L262.165,353.563Z" style="fill:rgb(248,159,129);fill-rule:nonzero;"/>
            </g>
            <g transform="matrix(0.73808,0,0,0.73808,3097.19,594.39)">
                <path d="M261.893,353.176L267.681,326.604L266.86,297.643C266.859,297.597 266.858,297.551 266.858,297.505C266.858,295.01 268.87,292.938 271.364,292.864C273.947,292.799 276.068,296.177 276.144,298.74L276.981,326.897C276.993,327.275 276.958,327.654 276.877,328.024L270.968,355.153C270.495,357.326 261.346,355.681 261.893,353.176Z" style="fill:rgb(49,45,56);fill-rule:nonzero;"/>
            </g>
            <g transform="matrix(0.73808,0,0,0.73808,3097.19,594.39)">
                <path d="M278.224,279.062L278.224,288.017C278.224,288.017 278.856,288.957 279.666,289.425C281.29,290.362 283.69,289.213 285.3,288.277C286.107,287.808 286.508,287.194 286.504,286.581L286.504,279.051L278.224,279.062Z" style="fill:rgb(250,185,167);fill-rule:nonzero;"/>
            </g>
            <g transform="matrix(0.73808,0,0,0.73808,3097.19,594.39)">
                <path d="M278.224,285.123L278.224,281.02C280.066,280.586 281.787,280.272 282.913,280.272C284.006,280.272 284.537,280.568 284.071,281.339C282.686,283.626 279.863,284.683 278.224,285.123Z" style="fill:rgb(248,163,142);fill-rule:nonzero;"/>
            </g>
            <g transform="matrix(0.73808,0,0,0.73808,3097.19,594.39)">
                <path d="M273.335,270.08L272.806,270.08C272.806,270.863 272.526,271.568 272.081,272.073C271.635,272.578 271.033,272.881 270.37,272.882C269.707,272.881 269.105,272.578 268.659,272.073C268.184,271.518 267.927,270.81 267.934,270.08C267.934,269.297 268.215,268.592 268.659,268.087C269.105,267.582 269.707,267.279 270.37,267.279C271.033,267.279 271.635,267.582 272.081,268.087C272.526,268.592 272.806,269.297 272.806,270.08L273.335,270.08C273.335,269.17 273.01,268.342 272.478,267.738C271.947,267.133 271.199,266.75 270.37,266.75C269.542,266.75 268.794,267.133 268.262,267.738C267.702,268.389 267.397,269.221 267.405,270.08C267.405,270.99 267.73,271.818 268.262,272.423C268.794,273.028 269.542,273.411 270.37,273.411C271.199,273.411 271.947,273.028 272.478,272.423C273.038,271.772 273.343,270.939 273.335,270.08Z" style="fill:rgb(49,45,56);fill-rule:nonzero;"/>
            </g>
            <g transform="matrix(0.73808,0,0,0.73808,3097.19,594.39)">
                <path d="M292.988,270.248C292.988,277.306 282.843,283.555 275.784,283.555C270.735,283.555 269.979,277.306 269.979,270.248C269.979,263.188 273.147,257.466 280.207,257.466C287.266,257.466 292.988,263.188 292.988,270.248Z" style="fill:rgb(250,185,167);fill-rule:nonzero;"/>
            </g>
            <g transform="matrix(0.73808,0,0,0.73808,3097.19,594.39)">
                <path d="M299.98,262.373C298.48,252.75 281.232,247.705 272.544,253.926C266.679,258.128 267.137,263.71 268.647,265.589C270.157,267.468 276.34,266.575 276.34,266.575C276.34,266.575 274.708,269.977 279.233,270.51C279.233,270.51 275.814,275.719 280.624,279.085C285.433,282.451 276.895,290.097 272.688,299.824C268.482,309.551 284.241,321.104 297.613,315.875C305.982,312.601 314.913,302.999 310.251,295.485C299.198,277.666 301.723,273.554 299.98,262.373Z" style="fill:rgb(248,151,47);fill-rule:nonzero;"/>
            </g>
            <g transform="matrix(0.73808,0,0,0.73808,3097.19,594.39)">
                <path d="M277.05,269.523L267.849,268.795L267.808,269.322L277.008,270.051" style="fill:rgb(49,45,56);fill-rule:nonzero;"/>
            </g>
            <g transform="matrix(0.73808,0,0,0.73808,3097.19,594.39)">
                <path d="M282.364,270.78C282.364,272.609 280.881,274.891 279.052,274.891C277.223,274.891 276.969,272.866 276.969,271.037C276.969,269.208 277.223,267.468 279.052,267.468C280.869,267.468 282.364,268.963 282.364,270.78Z" style="fill:rgb(250,185,167);fill-rule:nonzero;"/>
            </g>
            <g transform="matrix(0.73808,0,0,0.73808,3097.19,594.39)">
                <path d="M278.889,274.576C278.889,274.941 278.589,275.241 278.224,275.241C277.859,275.241 277.559,274.941 277.559,274.576C277.559,274.211 277.859,273.911 278.224,273.911C278.589,273.911 278.889,274.211 278.889,274.576Z" style="fill:white;fill-rule:nonzero;"/>
            </g>
            <g transform="matrix(0.73808,0,0,0.73808,3085.8,632.948)">
                <path d="M95.679,337.135L107.562,321.918L92.46,288.737C92.154,288.106 91.995,287.414 91.995,286.712C91.995,284.164 94.092,282.067 96.64,282.067C98.344,282.067 99.917,283.005 100.727,284.504L117.179,320.324C118.002,321.93 117.817,323.877 116.706,325.299L103,342.851C102.084,344.025 94.101,339.157 95.679,337.135Z" style="fill:rgb(77,84,87);fill-rule:nonzero;"/>
            </g>
            <g transform="matrix(0.73808,0,0,0.73808,3085.8,632.948)">
                <path d="M94.935,422.842C94.935,422.842 89.392,420.445 88.156,422.842C86.919,425.239 94.022,430.23 96.955,429.885C99.888,429.54 102.821,426.78 103.684,423.502L103.684,431.093L105.754,431.093C105.754,431.093 107.932,420.396 108.396,417.463C108.86,414.53 107.998,413.149 105.754,412.46C105.754,412.46 101.543,411.942 100.543,414.703C99.543,417.463 97.751,422.89 94.935,422.842Z" style="fill:rgb(22,17,31);fill-rule:nonzero;"/>
            </g>
            <g transform="matrix(0.73808,0,0,0.73808,3085.8,632.948)">
                <path d="M96.438,394.344C98.836,408.293 98.163,417.98 96.438,421.086C94.712,424.191 91.261,423.846 93.332,424.882C95.402,425.917 97.99,424.882 100.579,419.361C103.167,413.84 104.029,412.287 105.754,412.46C105.754,412.46 104.798,404.261 104.873,393.074C104.955,380.764 106.79,363.634 102.131,363.805C97.473,363.978 91.779,367.257 96.438,394.344Z" style="fill:rgb(248,159,129);fill-rule:nonzero;"/>
            </g>
            <g transform="matrix(0.73808,0,0,0.73808,3085.8,632.948)">
                <path d="M91.55,338.332C91.55,338.332 89.683,354.77 93.244,381.497C96.805,408.222 97.358,410.447 97.358,410.447C97.358,410.447 103.971,412.01 106.375,408.283C106.375,408.283 104.397,394.883 107.578,369.449C110.802,343.668 106.59,335.381 106.59,335.381L91.55,338.332Z" style="fill:rgb(48,53,55);fill-rule:nonzero;"/>
            </g>
            <g transform="matrix(0.73808,0,0,0.73808,3085.8,632.948)">
                <path d="M79.378,422.842C79.378,422.842 73.835,420.445 72.599,422.842C71.362,425.239 78.465,430.23 81.397,429.885C84.331,429.54 87.264,426.78 88.127,423.502L88.127,431.093L90.197,431.093C90.197,431.093 92.375,420.396 92.838,417.463C93.302,414.53 92.439,413.149 90.197,412.46C90.197,412.46 85.985,411.942 84.985,414.703C83.986,417.463 82.193,422.89 79.378,422.842Z" style="fill:rgb(22,17,31);fill-rule:nonzero;"/>
            </g>
            <g transform="matrix(0.73808,0,0,0.73808,3085.8,632.948)">
                <path d="M80.88,394.344C83.279,408.293 82.606,417.98 80.88,421.086C79.155,424.191 75.704,423.846 77.774,424.882C79.845,425.917 82.433,424.882 85.021,419.361C87.609,413.84 88.472,412.287 90.197,412.46C90.197,412.46 92.04,404.66 91.577,393.481C91.061,380.991 91.232,363.634 86.574,363.805C81.916,363.978 76.222,367.257 80.88,394.344Z" style="fill:rgb(248,159,129);fill-rule:nonzero;"/>
            </g>
            <g transform="matrix(0.73808,0,0,0.73808,3085.8,632.948)">
                <path d="M98.265,338.331L75.993,338.331C75.993,338.331 74.126,354.77 77.687,381.497C81.248,408.222 81.428,411.409 81.428,411.409C81.428,411.409 88.013,414.053 91.061,410.447C91.061,410.447 92.609,369.349 94.413,362.416C96.216,355.482 101.782,345.987 98.265,338.331Z" style="fill:rgb(62,70,75);fill-rule:nonzero;"/>
            </g>
            <g transform="matrix(0.73808,0,0,0.73808,3085.8,632.948)">
                <path d="M75.503,336.867C75.503,336.867 72.972,345.688 74.246,346.865C75.52,348.043 90.357,351.967 99.222,343.6C99.222,343.6 106.255,344.923 108.237,340.955C109.255,338.918 102.167,327.369 102.167,327.369L75.503,336.867Z" style="fill:white;fill-rule:nonzero;"/>
            </g>
            <g transform="matrix(0.73808,0,0,0.73808,3085.8,632.948)">
                <path d="M109.771,336.075L103.79,324.559C102.343,321.441 101.807,291.06 101.807,291.06C102.856,285.348 99.927,280.272 92.69,282.465C92.69,282.465 78.448,288.578 74.473,291C72.724,292.066 68.072,293.835 69.206,298.755C70.339,303.675 76.647,328.561 76.647,328.561L73.179,340.955C73.179,340.955 92.21,347.872 109.771,336.075Z" style="fill:rgb(85,95,99);fill-rule:nonzero;"/>
            </g>
            <g transform="matrix(0.73808,0,0,0.73808,3085.8,632.948)">
                <path d="M74.547,320.25C75.737,324.97 76.647,328.561 76.647,328.561L73.179,340.955C73.179,340.955 74.254,341.343 76.113,341.777C77.231,337.472 79.968,326.887 80.249,325.445C80.603,323.629 77.918,297.356 77.918,297.356L74.547,320.25Z" style="fill:rgb(62,70,75);fill-rule:nonzero;"/>
            </g>
            <g transform="matrix(0.73808,0,0,0.73808,3085.8,632.948)">
                <path d="M81.466,279.062L81.466,288.017C81.466,288.017 82.098,288.957 82.909,289.425C84.532,290.362 86.932,289.213 88.543,288.277C89.349,287.808 89.751,287.194 89.747,286.581L89.747,279.051L81.466,279.062Z" style="fill:rgb(248,159,129);fill-rule:nonzero;"/>
            </g>
            <g transform="matrix(0.73808,0,0,0.73808,3085.8,632.948)">
                <path d="M80.853,286.66C80.853,286.66 88.702,287.934 89.747,281.54C89.747,281.54 91.992,281.261 91.948,283.555C91.926,284.696 90.686,292.851 78.878,288.576C78.878,288.576 78.956,287.141 80.853,286.66Z" style="fill:white;fill-rule:nonzero;"/>
            </g>
            <g transform="matrix(0.73808,0,0,0.73808,3085.8,632.948)">
                <path d="M81.466,285.123L81.466,281.02C83.308,280.586 85.03,280.272 86.156,280.272C87.248,280.272 87.78,280.568 87.313,281.339C85.928,283.626 83.106,284.683 81.466,285.123Z" style="fill:rgb(245,135,102);fill-rule:nonzero;"/>
            </g>
            <g transform="matrix(0.73808,0,0,0.73808,3085.8,632.948)">
                <path d="M96.231,270.248C96.231,277.306 86.085,283.555 79.026,283.555C73.977,283.555 73.222,277.306 73.222,270.248C73.222,263.188 76.39,257.466 83.449,257.466C90.508,257.466 96.231,263.188 96.231,270.248Z" style="fill:rgb(248,159,129);fill-rule:nonzero;"/>
            </g>
            <g transform="matrix(0.73808,0,0,0.73808,3085.8,632.948)">
                <path d="M72.209,261.003C72.209,261.003 71.707,271.179 81.466,270.605C81.466,270.605 84.157,281.962 92.978,279.957C101.8,277.952 103.929,260.309 95.688,254.208C88.172,248.643 77.118,250.302 72.209,261.003Z" style="fill:rgb(89,35,17);fill-rule:nonzero;"/>
            </g>
            <g transform="matrix(0.73808,0,0,0.73808,3085.8,632.948)">
                <path d="M85.606,270.78C85.606,272.609 84.124,274.891 82.294,274.891C80.465,274.891 80.211,272.866 80.211,271.037C80.211,269.208 80.465,267.468 82.294,267.468C84.111,267.468 85.606,268.963 85.606,270.78Z" style="fill:rgb(248,159,129);fill-rule:nonzero;"/>
            </g>
            <g transform="matrix(0.73808,0,0,0.73808,3085.8,632.948)">
                <path d="M82.131,274.576C82.131,274.941 81.831,275.241 81.466,275.241C81.101,275.241 80.801,274.941 80.801,274.576C80.801,274.211 81.101,273.911 81.466,273.911C81.831,273.911 82.131,274.211 82.131,274.576Z" style="fill:white;fill-rule:nonzero;"/>
            </g>
            <g transform="matrix(0.73808,0,0,0.73808,3085.8,632.948)">
                <path d="M88.004,256.947C83.389,251.737 90.58,245.825 96.399,250.921C102.22,256.017 97.169,267.291 88.004,256.947Z" style="fill:rgb(248,151,47);fill-rule:nonzero;"/>
            </g>
            <g transform="matrix(0.73808,0,0,0.73808,3085.8,632.948)">
                <path d="M88.955,256.085C84.34,250.875 91.531,244.964 97.351,250.06C103.171,255.155 98.121,266.429 88.955,256.085Z" style="fill:rgb(89,35,17);fill-rule:nonzero;"/>
            </g>
            <g transform="matrix(0.73808,0,0,0.73808,3085.8,632.948)">
                <path d="M55.036,363.229L55.036,371.773C55.036,372.428 55.389,373.032 55.959,373.354L72.185,381.414C72.185,381.414 73.406,380.787 73.406,379.397L73.406,370.348C73.406,369.652 73.007,369.016 72.38,368.714L57.641,361.594C57.395,361.475 57.125,361.414 56.852,361.414C55.856,361.414 55.036,362.233 55.036,363.229Z" style="fill:rgb(39,34,46);fill-rule:nonzero;"/>
            </g>
            <g transform="matrix(0.73808,0,0,0.73808,3085.8,632.948)">
                <path d="M76.326,379.84L73.568,381.407C73.354,381.528 73.113,381.592 72.867,381.592C72.089,381.592 71.449,380.952 71.449,380.174L71.449,370.142C71.449,369.633 71.723,369.162 72.166,368.909L77.043,366.895L77.043,378.606C77.043,379.116 76.769,379.587 76.326,379.84Z" style="fill:rgb(22,17,31);fill-rule:nonzero;"/>
            </g>
            <g transform="matrix(0.73808,0,0,0.73808,3085.8,632.948)">
                <path d="M55.036,365.085L55.036,360.399C55.036,359.649 57.223,356.4 59.41,357.025C61.597,357.649 77.043,366.895 77.043,366.895L71.449,370.271L71.449,374.708L62.409,374.708L55.036,365.085Z" style="fill:rgb(49,45,56);fill-rule:nonzero;"/>
            </g>
            <g transform="matrix(0.73808,0,0,0.73808,3085.8,632.948)">
                <path d="M63.301,374.46C63.301,374.46 63.301,374.461 63.301,374.461C63.301,374.942 62.905,375.338 62.424,375.338C61.943,375.338 61.548,374.943 61.547,374.462C61.547,374.462 61.547,374.461 61.547,374.461C61.547,373.98 61.943,373.584 62.424,373.584C62.905,373.584 63.3,373.979 63.301,374.46Z" style="fill:rgb(248,151,47);fill-rule:nonzero;"/>
            </g>
            <g transform="matrix(0.73808,0,0,0.73808,3085.8,632.948)">
                <path d="M60.838,358.677L60.838,356.705C60.838,355.724 71.57,362.082 71.57,362.659L71.557,365.882L72.897,365.01L72.897,361.468C72.897,360.808 62.456,355.502 61.685,355.251C60.914,354.999 59.701,355.15 59.701,356.136L59.701,359.39L60.838,358.677Z" style="fill:rgb(39,34,46);fill-rule:nonzero;"/>
            </g>
            <g transform="matrix(0.73808,0,0,0.73808,3085.8,632.948)">
                <path d="M71.449,370.271C68.617,368.787 65.875,367.151 63.126,365.529C60.404,363.861 57.674,362.206 55.036,360.399C57.869,361.883 60.61,363.518 63.359,365.141C66.081,366.809 68.81,368.466 71.449,370.271Z" style="fill:rgb(22,17,31);fill-rule:nonzero;"/>
            </g>
            <g transform="matrix(0.73808,0,0,0.73808,3085.8,632.948)">
                <path d="M63.939,352.781C63.939,352.781 61.64,358.969 62.706,360.249C63.772,361.528 69.3,364.798 69.815,363.093C70.332,361.387 71.201,354.302 71.201,354.302L63.939,352.781Z" style="fill:rgb(248,159,129);fill-rule:nonzero;"/>
            </g>
            <g transform="matrix(0.73808,0,0,0.73808,3085.8,632.948)">
                <path d="M63.667,351.792L69.455,325.22L68.634,297.633C68.634,297.618 68.634,297.603 68.634,297.588C68.634,295.039 70.731,292.943 73.279,292.943C75.74,292.943 77.795,294.898 77.918,297.356L78.755,325.513C78.767,325.891 78.732,326.27 78.651,326.64L72.742,353.769C72.269,355.941 63.122,354.298 63.667,351.792Z" style="fill:rgb(85,95,99);fill-rule:nonzero;"/>
            </g>
        </g>
    </g>
</svg>
