<?xml version="1.0" encoding="UTF-8" standalone="no"?>
<!DOCTYPE svg PUBLIC "-//W3C//DTD SVG 1.1//EN" "http://www.w3.org/Graphics/SVG/1.1/DTD/svg11.dtd">
<svg width="100%" height="100%" viewBox="0 0 30 42" version="1.1" xmlns="http://www.w3.org/2000/svg" xmlnsXlink="http://www.w3.org/1999/xlink" xmlSpace="preserve" xmlnsSerif="http://www.serif.com/" style="fill-rule:evenodd;clip-rule:evenodd;stroke-linejoin:round;stroke-miterlimit:2;">
    <g transform="matrix(1,0,0,1,-8561.19,-491.584)">
        <g transform="matrix(1.54943,0,0,0.92442,6342.74,-107.953)">
            <g id="Lock" transform="matrix(0.159202,-1.7675e-17,1.17075e-33,0.159202,1156.95,577.203)">
                <g transform="matrix(0.596618,0,0,1,-134.792,45.6396)">
                    <rect x="3149.56" y="472.304" width="37.259" height="128.247" style="fill:rgb(56,56,56);"/>
                </g>
                <g transform="matrix(0.596618,0,0,1,-73.7805,45.6396)">
                    <rect x="3149.56" y="472.304" width="37.259" height="128.247" style="fill:rgb(56,56,56);"/>
                </g>
                <g transform="matrix(0.596618,0,0,1,-140.44,41.9795)">
                    <path d="M3196.28,537.695C3174.13,526.003 3159.02,502.734 3159.02,475.964C3159.02,437.462 3190.28,406.203 3228.78,406.203C3267.28,406.203 3298.54,437.462 3298.54,475.964C3298.54,502.734 3283.43,526.003 3261.28,537.695L3261.28,475.964C3261.28,458.025 3246.72,443.462 3228.78,443.462C3210.84,443.462 3196.28,458.025 3196.28,475.964L3196.28,537.695Z" style="fill:rgb(56,56,56);"/>
                </g>
                <g transform="matrix(0.652216,0,0,1.09808,-202.611,-68.6414)">
                    <path d="M3140.17,600.931C3140.17,583.761 3126.17,569.821 3108.92,569.821L2988.73,569.821C2971.49,569.821 2957.48,583.761 2957.48,600.931L2957.48,694.261C2957.48,711.431 2971.49,725.371 2988.73,725.371L3108.92,725.371C3126.17,725.371 3140.17,711.431 3140.17,694.261L3140.17,600.931Z" style="fill:rgb(255,215,97);"/>
                </g>
                <g transform="matrix(0.499408,0,-1.16166e-17,0.837065,195.5,122.274)">
                    <path d="M3202.97,605.931C3202.97,601.76 3199.59,598.375 3195.42,598.375L3180.3,598.375C3176.13,598.375 3172.75,601.76 3172.75,605.931L3165.15,672.574C3165.15,676.744 3168.53,680.13 3172.7,680.13L3202.86,680.13C3207.03,680.13 3210.42,676.744 3210.42,672.574L3202.97,605.931Z" style="fill:rgb(56,56,56);"/>
                </g>
                <g transform="matrix(0.596618,0,0,1,-140.44,-10.4205)">
                    <circle cx="3231.45" cy="636.28" r="28.482" style="fill:rgb(56,56,56);"/>
                </g>
            </g>
        </g>
    </g>
</svg>
