<?xml version="1.0" encoding="UTF-8" standalone="no"?>
<!DOCTYPE svg PUBLIC "-//W3C//DTD SVG 1.1//EN" "http://www.w3.org/Graphics/SVG/1.1/DTD/svg11.dtd">
<svg width="100%" height="100%" viewBox="0 0 270 270" version="1.1" xmlns="http://www.w3.org/2000/svg" xmlnsXlink="http://www.w3.org/1999/xlink" xmlSpace="preserve" xmlnsSerif="http://www.serif.com/" style="fill-rule:evenodd;clip-rule:evenodd;stroke-linejoin:round;stroke-miterlimit:2;">
    <g id="g31" transform="matrix(1.3333,0,0,-1.3333,-263.687,695.186)">
        <g id="g29">
            <g id="g11" transform="matrix(1,0,0,1,294.615,521.231)">
                <path id="path9" d="M0.002,0C-1.817,0.113 -3.624,0.17 -5.42,0.172C-30.455,0.201 -53.135,-10.462 -72.896,-31.584C-90.862,-50.787 -96.901,-66.241 -96.847,-84.901C-96.819,-94.884 -95.047,-105.784 -92.424,-118.667C-87.493,-142.892 -73.112,-166.28 -52.97,-182.84C-37.546,-195.514 -20.346,-201.987 -2.221,-202.107C7.173,-202.17 16.813,-200.525 26.585,-197.152C58.137,-186.263 88.32,-155.081 99.985,-121.329C103.676,-110.646 105.469,-100.253 105.43,-90.358C105.336,-66.184 94.292,-44.992 73.191,-29.84C47.591,-11.446 22.969,-1.408 0.002,0.009" style="fill:white;fill-rule:nonzero;"/>
            </g>
            <g id="g15" transform="matrix(1,0,0,1,258.585,419.933)">
                <path id="path13" d="M0.002,0L-6.937,0L-6.944,-0.197C-6.999,-1.543 -7.801,-13.346 -18.361,-13.346C-27.798,-13.346 -32.588,-4.888 -32.598,11.795C-32.588,28.478 -27.798,36.937 -18.361,36.937C-7.618,36.937 -6.967,24.325 -6.944,23.79L-6.937,23.594L0.002,23.594C0.643,23.594 1.266,23.857 1.711,24.314C2.139,24.754 2.36,25.323 2.33,25.914C2.186,29.187 0.506,45.515 -18.458,45.515C-33.785,45.515 -41.885,33.868 -41.885,11.831C-41.885,-10.251 -33.785,-21.924 -18.458,-21.924C-0.205,-21.924 2.065,-7.011 2.327,-2.44C2.371,-1.81 2.155,-1.204 1.714,-0.738C1.27,-0.268 0.643,0 0.002,0" style="fill:rgb(0,41,75);fill-rule:nonzero;"/>
            </g>
            <g id="g19" transform="matrix(1,0,0,1,366.393,435.742)">
                <path id="path17" d="M0.002,0L0.005,-0.002L-5.973,2.604C-11.72,5.129 -13.757,7.584 -13.757,11.994C-13.757,17.741 -9.552,21.604 -3.294,21.604C0.404,21.604 3.44,20.845 7.146,17.072L7.348,16.865L10.537,19.782C12.384,21.496 11.85,23.041 11.078,24.033C7.968,27.703 2.974,29.717 -2.989,29.717C-14.491,29.717 -22.836,22.216 -22.836,11.879C-22.836,1.714 -16.433,-2.535 -9.513,-5.611L-3.415,-8.333C2.713,-11.081 5.631,-13.424 5.631,-19.318C5.631,-27.36 -1.636,-29.503 -5.928,-29.503C-9.622,-29.503 -13.733,-28.714 -18.785,-22.99L-18.982,-22.766L-22.304,-25.683C-24.014,-27.186 -24.027,-28.475 -22.362,-30.616C-17.789,-36.495 -11.085,-37.728 -6.265,-37.728C4.158,-37.728 14.711,-31.327 14.711,-19.093C14.711,-8.502 8.832,-3.801 0.002,0" style="fill:rgb(0,41,75);fill-rule:nonzero;"/>
            </g>
            <g id="g23" transform="matrix(1,0,0,1,307.475,446.152)">
                <path id="path21" d="M0.002,0C0.002,10.412 -8.434,19.232 -18.849,19.232C-23.747,19.232 -28.207,17.365 -31.56,14.302L-31.56,17.88L-37.832,17.88C-39.721,17.88 -40.442,16.647 -40.442,15.23L-40.442,-45.524C-40.442,-47.234 -39.399,-48.147 -37.861,-48.147L-31.588,-48.147L-31.588,-0.369C-31.588,5.908 -26.496,10.997 -20.221,10.997C-13.946,10.997 -8.855,5.908 -8.855,-0.369L-8.855,-48.156L-2.623,-48.156C-0.894,-48.156 0.002,-47.197 0.002,-45.542L0.002,0Z" style="fill:rgb(0,41,75);fill-rule:nonzero;"/>
            </g>
            <g id="g27" transform="matrix(1,0,0,1,343.434,460.852)">
                <path id="path25" d="M0.002,0C0.329,0.407 0.531,0.917 0.531,1.478C0.531,2.523 -0.149,3.401 -1.088,3.72C-2.901,4.328 -4.835,4.661 -6.844,4.661C-11.743,4.661 -16.203,2.793 -19.554,-0.27L-19.554,3.309L-25.826,3.309C-27.717,3.309 -28.439,2.075 -28.439,0.658L-28.439,-60.096C-28.439,-61.806 -27.392,-62.719 -25.853,-62.719L-19.582,-62.719L-19.582,-14.941C-19.582,-8.664 -14.493,-3.574 -8.215,-3.574C-6.57,-3.574 -5.011,-3.932 -3.602,-4.559L0.023,-0.013L0.002,0Z" style="fill:rgb(0,41,75);fill-rule:nonzero;"/>
            </g>
        </g>
    </g>
</svg>
