<?xml version="1.0" encoding="UTF-8" standalone="no"?>
<!DOCTYPE svg PUBLIC "-//W3C//DTD SVG 1.1//EN" "http://www.w3.org/Graphics/SVG/1.1/DTD/svg11.dtd">
<svg width="100%" height="100%" viewBox="0 0 733 100" version="1.1" xmlns="http://www.w3.org/2000/svg" xmlns:xlink="http://www.w3.org/1999/xlink" xml:space="preserve" xmlns:serif="http://www.serif.com/" style="fill-rule:evenodd;clip-rule:evenodd;stroke-linecap:round;stroke-linejoin:round;stroke-miterlimit:1.5;">
    <g transform="matrix(1,0,0,1,-26596.1,-6066.17)">
        <g transform="matrix(0.867924,0,0,1.77898,11110.6,5850.25)">
            <g transform="matrix(1.03357,0,0,0.594684,-854.342,-548.018)">
                <g transform="matrix(0.371751,0,0,0.601434,11489.5,392.601)">
                    <g transform="matrix(1.17328,0,0,0.614935,-3025.9,32.3033)">
                        <path d="M17825.7,2122.51C17825.7,2114.68 17822.8,2108.3 17817.1,2103.35C17811.3,2098.41 17801.6,2094.18 17788,2090.68L17776.3,2087.59C17757.7,2082.85 17743.8,2075.8 17734.4,2066.42C17725,2057.05 17720.3,2044.84 17720.3,2029.81C17720.3,2017.44 17723.3,2006.68 17729.3,1997.51C17735.3,1988.34 17743.7,1981.18 17754.5,1976.03C17765.3,1970.88 17777.9,1968.31 17792.3,1968.31C17806.4,1968.31 17819.4,1970.73 17831.4,1975.57C17843.5,1980.41 17853.3,1987.26 17861,1996.12L17838.7,2022.08C17826.1,2008.89 17810.7,2002.3 17792.3,2002.3C17782.3,2002.3 17774.3,2004.41 17768.6,2008.64C17762.8,2012.86 17759.9,2018.89 17759.9,2026.71C17759.9,2033.31 17762.6,2038.72 17767.9,2042.94C17773.3,2047.16 17782.7,2051.02 17796.1,2054.53L17807.5,2057.62C17826.6,2062.77 17841.2,2070.6 17851.2,2081.1C17861.2,2091.61 17866.2,2104.69 17866.2,2120.35C17866.2,2133.12 17863,2144.3 17856.5,2153.88C17850,2163.46 17840.9,2170.93 17829.3,2176.28C17817.6,2181.64 17804.1,2184.32 17788.6,2184.32C17773.2,2184.32 17758.7,2181.49 17745.2,2175.82C17731.7,2170.15 17719.9,2161.97 17709.8,2151.25L17732.1,2124.37C17749.2,2141.67 17768.1,2150.32 17788.9,2150.32C17800.5,2150.32 17809.5,2147.85 17816,2142.91C17822.5,2137.96 17825.7,2131.16 17825.7,2122.51Z" style="fill:rgb(0,0,62);fill-rule:nonzero;"/>
                    </g>
                    <g transform="matrix(1.17328,0,0,0.614935,-3025.9,32.3033)">
                        <path d="M17901.4,1973.25L17975.6,1973.25C17998.3,1973.25 18016.1,1978.97 18029.1,1990.4C18042,2001.84 18048.5,2017.65 18048.5,2037.84C18048.5,2058.03 18042.1,2073.99 18029.2,2085.74C18016.3,2097.48 17998.9,2103.35 17976.8,2103.35L17940.7,2103.35L17940.7,2179.37L17901.4,2179.37L17901.4,1973.25ZM18008.7,2038.46C18008.7,2028.16 18005.5,2020.12 17999.2,2014.35C17993,2008.59 17984.2,2005.7 17972.8,2005.7L17940.7,2005.7L17940.7,2070.91L17972.8,2070.91C17984.4,2070.91 17993.2,2068.07 17999.4,2062.41C18005.6,2056.74 18008.7,2048.76 18008.7,2038.46Z" style="fill:rgb(0,0,62);fill-rule:nonzero;"/>
                    </g>
                    <g transform="matrix(1.17328,0,0,0.614935,-3025.9,32.3033)">
                        <path d="M18176.8,2127.77L18097.4,2127.77L18079.4,2179.37L18038,2179.37L18116.2,1973.25L18160.1,1973.25L18238,2179.37L18194.7,2179.37L18176.8,2127.77ZM18137.2,2013.12L18107.9,2097.17L18166.3,2097.17L18137.2,2013.12Z" style="fill:rgb(0,0,62);fill-rule:nonzero;"/>
                    </g>
                    <g transform="matrix(1.17328,0,0,0.614935,-3025.9,32.3033)">
                        <path d="M18263,1973.25L18337.8,1973.25C18360.4,1973.25 18378.2,1978.92 18391.1,1990.25C18404,2001.58 18410.4,2017.13 18410.4,2036.91C18410.4,2050.72 18407.2,2062.56 18400.8,2072.45C18394.4,2082.34 18385.6,2089.76 18374.2,2094.7L18420.9,2179.37L18377,2179.37L18337.2,2101.19L18301.9,2101.19L18301.9,2179.37L18263,2179.37L18263,1973.25ZM18371.2,2037.53C18371.2,2027.23 18368,2019.3 18361.7,2013.74C18355.4,2008.17 18346.6,2005.39 18335.3,2005.39L18301.9,2005.39L18301.9,2069.05L18335.3,2069.05C18346.6,2069.05 18355.4,2066.32 18361.7,2060.86C18368,2055.4 18371.2,2047.62 18371.2,2037.53Z" style="fill:rgb(0,0,62);fill-rule:nonzero;"/>
                    </g>
                    <g transform="matrix(1.17328,0,0,0.614935,-3025.9,32.3033)">
                        <path d="M18501.3,2008.48L18432,2008.48L18432,1973.25L18610.7,1973.25L18610.7,2008.48L18541.1,2008.48L18541.1,2179.37L18501.3,2179.37L18501.3,2008.48Z" style="fill:rgb(0,0,62);fill-rule:nonzero;"/>
                    </g>
                </g>
                <g transform="matrix(0.371751,0,0,0.601434,11489.5,392.601)">
                    <g transform="matrix(1.17328,0,0,0.614935,-3025.9,32.3033)">
                        <path d="M17825.7,2122.51C17825.7,2114.68 17822.8,2108.3 17817.1,2103.35C17811.3,2098.41 17801.6,2094.18 17788,2090.68L17776.3,2087.59C17757.7,2082.85 17743.8,2075.8 17734.4,2066.42C17725,2057.05 17720.3,2044.84 17720.3,2029.81C17720.3,2017.44 17723.3,2006.68 17729.3,1997.51C17735.3,1988.34 17743.7,1981.18 17754.5,1976.03C17765.3,1970.88 17777.9,1968.31 17792.3,1968.31C17806.4,1968.31 17819.4,1970.73 17831.4,1975.57C17843.5,1980.41 17853.3,1987.26 17861,1996.12L17838.7,2022.08C17826.1,2008.89 17810.7,2002.3 17792.3,2002.3C17782.3,2002.3 17774.3,2004.41 17768.6,2008.64C17762.8,2012.86 17759.9,2018.89 17759.9,2026.71C17759.9,2033.31 17762.6,2038.72 17767.9,2042.94C17773.3,2047.16 17782.7,2051.02 17796.1,2054.53L17807.5,2057.62C17826.6,2062.77 17841.2,2070.6 17851.2,2081.1C17861.2,2091.61 17866.2,2104.69 17866.2,2120.35C17866.2,2133.12 17863,2144.3 17856.5,2153.88C17850,2163.46 17840.9,2170.93 17829.3,2176.28C17817.6,2181.64 17804.1,2184.32 17788.6,2184.32C17773.2,2184.32 17758.7,2181.49 17745.2,2175.82C17731.7,2170.15 17719.9,2161.97 17709.8,2151.25L17732.1,2124.37C17749.2,2141.67 17768.1,2150.32 17788.9,2150.32C17800.5,2150.32 17809.5,2147.85 17816,2142.91C17822.5,2137.96 17825.7,2131.16 17825.7,2122.51Z" style="fill:rgb(0,0,62);fill-rule:nonzero;"/>
                    </g>
                    <g transform="matrix(1.17328,0,0,0.614935,-3025.9,32.3033)">
                        <path d="M17901.4,1973.25L17975.6,1973.25C17998.3,1973.25 18016.1,1978.97 18029.1,1990.4C18042,2001.84 18048.5,2017.65 18048.5,2037.84C18048.5,2058.03 18042.1,2073.99 18029.2,2085.74C18016.3,2097.48 17998.9,2103.35 17976.8,2103.35L17940.7,2103.35L17940.7,2179.37L17901.4,2179.37L17901.4,1973.25ZM18008.7,2038.46C18008.7,2028.16 18005.5,2020.12 17999.2,2014.35C17993,2008.59 17984.2,2005.7 17972.8,2005.7L17940.7,2005.7L17940.7,2070.91L17972.8,2070.91C17984.4,2070.91 17993.2,2068.07 17999.4,2062.41C18005.6,2056.74 18008.7,2048.76 18008.7,2038.46Z" style="fill:rgb(0,0,62);fill-rule:nonzero;"/>
                    </g>
                    <g transform="matrix(1.17328,0,0,0.614935,-3025.9,32.3033)">
                        <path d="M18176.8,2127.77L18097.4,2127.77L18079.4,2179.37L18038,2179.37L18116.2,1973.25L18160.1,1973.25L18238,2179.37L18194.7,2179.37L18176.8,2127.77ZM18137.2,2013.12L18107.9,2097.17L18166.3,2097.17L18137.2,2013.12Z" style="fill:rgb(0,0,62);fill-rule:nonzero;"/>
                    </g>
                    <g transform="matrix(1.17328,0,0,0.614935,-3025.9,32.3033)">
                        <path d="M18263,1973.25L18337.8,1973.25C18360.4,1973.25 18378.2,1978.92 18391.1,1990.25C18404,2001.58 18410.4,2017.13 18410.4,2036.91C18410.4,2050.72 18407.2,2062.56 18400.8,2072.45C18394.4,2082.34 18385.6,2089.76 18374.2,2094.7L18420.9,2179.37L18377,2179.37L18337.2,2101.19L18301.9,2101.19L18301.9,2179.37L18263,2179.37L18263,1973.25ZM18371.2,2037.53C18371.2,2027.23 18368,2019.3 18361.7,2013.74C18355.4,2008.17 18346.6,2005.39 18335.3,2005.39L18301.9,2005.39L18301.9,2069.05L18335.3,2069.05C18346.6,2069.05 18355.4,2066.32 18361.7,2060.86C18368,2055.4 18371.2,2047.62 18371.2,2037.53Z" style="fill:rgb(0,0,62);fill-rule:nonzero;"/>
                    </g>
                    <g transform="matrix(1.17328,0,0,0.614935,-3025.9,32.3033)">
                        <path d="M18501.3,2008.48L18432,2008.48L18432,1973.25L18610.7,1973.25L18610.7,2008.48L18541.1,2008.48L18541.1,2179.37L18501.3,2179.37L18501.3,2008.48Z" style="fill:rgb(0,0,62);fill-rule:nonzero;"/>
                    </g>
                </g>
            </g>
        </g>
        <g transform="matrix(0.867924,0,0,1.77898,11110.6,5850.25)">
            <g transform="matrix(0.333589,0,0,0.162751,9219.78,-863.09)">
                <path d="M28290.7,6101.41L28331,6101.41C28355.2,6101.41 28374.8,6121.03 28374.8,6145.2L28374.8,6349.54C28374.8,6373.7 28355.2,6393.33 28331,6393.33L27991.4,6393.33C27967.2,6393.33 27947.6,6373.7 27947.6,6349.54L27947.6,6145.2C27947.6,6121.03 27967.2,6101.41 27991.4,6101.41L28031.6,6101.41C28023.4,6114.78 28017.2,6129.55 28013.6,6145.31L27994.7,6145.31L27994.7,6347.38L28332.4,6347.38L28332.4,6145.31L28308.8,6145.31C28305.1,6129.58 28299,6114.79 28290.7,6101.41Z" style="fill:rgb(0,0,62);stroke:rgb(0,0,62);stroke-width:0.29px;"/>
            </g>
        </g>
        <g transform="matrix(0.867924,0,0,1.77898,11110.6,5850.25)">
            <g transform="matrix(0.220428,0,0,0.192074,18424.5,-283.158)">
                <g transform="matrix(1.84109,0,0,0.260786,-27000.5,1083.23)">
                    <path d="M15151.1,4612.4C15151.1,4571.84 15142.7,4538.9 15132.5,4538.9C15122.2,4538.9 15113.9,4571.84 15113.9,4612.4L15113.9,4733.87C15113.9,4774.44 15122.2,4807.37 15132.5,4807.37C15142.7,4807.37 15151.1,4774.44 15151.1,4733.87L15151.1,4612.4Z" style="fill:rgb(0,0,62);"/>
                </g>
                <g transform="matrix(6.91686e-17,0.632465,-0.465775,1.59686e-17,3036.33,-7242.43)">
                    <path d="M15151.1,4584C15151.1,4559.11 15142.7,4538.9 15132.5,4538.9C15122.2,4538.9 15113.9,4559.11 15113.9,4584L15113.9,4762.28C15113.9,4787.16 15122.2,4807.37 15132.5,4807.37C15142.7,4807.37 15151.1,4787.16 15151.1,4762.28L15151.1,4584Z" style="fill:rgb(0,0,62);"/>
                </g>
                <g transform="matrix(0.514694,0,0,0.288176,-6940.17,887.437)">
                    <path d="M15279.7,4354.26C15279.7,4285.09 15223.5,4228.94 15154.4,4228.94C15085.2,4228.94 15029,4285.09 15029,4354.26L15029,4595.56C15029,4664.73 15085.2,4720.89 15154.4,4720.89C15223.5,4720.89 15279.7,4664.73 15279.7,4595.56L15279.7,4354.26Z" style="fill:rgb(236,59,51);"/>
                </g>
                <g transform="matrix(1,0,0,0.559897,-14675.6,-281.413)">
                    <path d="M15636.8,4454.39C15637,4451.54 15637.2,4448.64 15637.2,4445.71C15637.2,4442.78 15636.8,4311.63 15636.8,4311.63C15677.3,4342.32 15703.5,4390.98 15703.5,4445.71C15703.5,4538.52 15628.1,4613.87 15535.3,4613.87C15442.5,4613.87 15367.2,4538.52 15367.2,4445.71C15367.2,4390.98 15393.4,4342.32 15433.9,4311.63C15433.9,4311.63 15433.5,4442.78 15433.5,4445.71C15433.5,4448.64 15434,4455 15434,4455C15438.6,4506.85 15482.3,4547.52 15535.3,4547.52C15588.6,4547.52 15632.4,4506.53 15636.8,4454.39Z" style="fill:rgb(0,0,62);"/>
                </g>
            </g>
        </g>
        <g transform="matrix(0.867924,0,0,1.77898,11110.6,5850.25)">
            <g transform="matrix(0.402933,0,0,0.236837,10616.7,-157.265)">
                <g transform="matrix(0.816252,0,0,1.21007,17240.8,-76.3033)">
                    <g transform="matrix(1.07853,0,0,0.603865,-14118.3,774.293)">
                        <circle cx="15555.4" cy="620.457" r="40.989" style="fill:rgb(230,68,45);"/>
                    </g>
                    <g transform="matrix(0.835841,0,0,0.467985,-10344.7,865.503)">
                        <path d="M15688.6,709.636C15657.9,748.544 15610.3,773.527 15556.9,773.527C15464.3,773.527 15389.1,698.329 15389.1,605.707C15389.1,513.084 15464.3,437.886 15556.9,437.886C15609.8,437.886 15657.1,462.429 15687.8,500.741L15635.5,538.475C15616.5,516.321 15588.3,502.275 15556.9,502.275C15499.8,502.275 15453.5,548.621 15453.5,605.707C15453.5,662.792 15499.8,709.138 15556.9,709.138C15589,709.138 15617.7,694.515 15636.6,671.581L15636.7,671.614L15688.6,709.636Z" style="fill:rgb(0,0,62);"/>
                    </g>
                </g>
                <g transform="matrix(1.11097,0,0,0.922137,-1736.48,-600.621)">
                    <rect x="18610.7" y="2075.23" width="95.489" height="35.229" style="fill:rgb(230,68,45);fill-rule:nonzero;"/>
                    <path d="M18858.2,2127.77L18778.8,2127.77L18760.8,2179.37L18719.4,2179.37L18797.6,1973.25L18841.5,1973.25L18919.4,2179.37L18876.1,2179.37L18858.2,2127.77ZM18818.6,2013.12L18789.3,2097.17L18847.7,2097.17L18818.6,2013.12Z" style="fill:rgb(0,0,62);fill-rule:nonzero;"/>
                </g>
            </g>
        </g>
    </g>
</svg>
