<?xml version="1.0" encoding="UTF-8" standalone="no"?>
<!DOCTYPE svg PUBLIC "-//W3C//DTD SVG 1.1//EN" "http://www.w3.org/Graphics/SVG/1.1/DTD/svg11.dtd">
<svg width="100%" height="100%" viewBox="0 0 63 161" version="1.1" xmlns="http://www.w3.org/2000/svg" xmlnsXlink="http://www.w3.org/1999/xlink" xmlSpace="preserve" xmlnsSerif="http://www.serif.com/" style="fill-rule:evenodd;clip-rule:evenodd;stroke-linejoin:round;stroke-miterlimit:2;">
    <g transform="matrix(1,0,0,1,-541.66,-1640.2)">
        <g transform="matrix(2.09566,0,0,1.25031,-620.101,760.627)">
            <g transform="matrix(-0.472116,0,0,0.810176,662.524,599.694)">
                <path d="M180.15,273.479C181.627,269.754 189.826,271.16 189.775,271.529C192.744,273.95 194.979,276.578 197.366,279.536C199.359,282.007 201.811,284.514 199.371,286.202C197.148,287.74 193.242,286.201 191.17,285.058C189.187,283.963 185.488,280.862 184.478,278.772C183.931,279.181 182.95,279.628 181.277,278.399C180.066,277.51 179.35,275.497 180.15,273.479Z" style="fill:rgb(34,21,21);fill-rule:nonzero;"/>
            </g>
            <g transform="matrix(-0.472116,0,0,0.810176,662.524,599.694)">
                <path d="M204.731,259.281C206.208,255.557 214.406,256.964 214.355,257.332C217.324,259.753 219.56,262.381 221.946,265.339C223.939,267.81 226.392,270.317 223.951,272.005C221.729,273.543 217.823,272.004 215.751,270.86C213.768,269.766 210.068,266.665 209.058,264.575C208.511,264.983 207.53,265.431 205.858,264.202C204.646,263.313 203.93,261.301 204.731,259.281Z" style="fill:rgb(34,21,21);fill-rule:nonzero;"/>
            </g>
            <g transform="matrix(-0.472116,0,0,0.810176,662.524,599.694)">
                <path d="M204.925,189.236C204.925,189.236 215.164,202.954 216.997,205.826C218.83,208.697 223.614,217.611 223.312,221.647C223.009,225.682 222.385,231.689 221.189,237.861C220.744,240.164 216.997,260.339 216.997,260.339C216.997,260.339 213.692,262.474 210.044,261.559C204.925,260.275 204.925,258.038 204.925,258.038C204.925,258.038 206.135,243.525 206.297,240.887C206.805,232.634 207.813,224.862 207.813,224.862C207.813,224.862 201.029,217.246 196.534,210.149C192.038,203.053 189.269,192.791 189.269,192.791L204.925,189.236Z" style="fill:rgb(32,45,57);fill-rule:nonzero;"/>
            </g>
            <g transform="matrix(-0.472116,0,0,0.810176,662.524,599.694)">
                <path d="M204.267,237.722C203.97,235.269 199.77,214.291 199.77,214.291C199.77,214.291 202.232,201.978 200.674,195.763C199.115,189.549 177.408,196.604 177.408,196.604C177.408,196.604 175.52,206.448 176.223,211.512C176.925,216.576 181.042,222.974 183.636,227.34C186.279,231.788 188.456,239.693 188.456,239.693C188.456,239.693 185.588,247.668 183.201,254.129C181.75,258.056 179.613,266.414 178.405,271.118C180.905,273.522 185.588,278.369 193.251,273.064C196.698,264.364 201.717,249.393 202.429,246.142C203.368,241.849 204.564,240.175 204.267,237.722Z" style="fill:rgb(44,57,71);fill-rule:nonzero;"/>
            </g>
            <g transform="matrix(-0.472116,0,0,0.810176,662.524,599.694)">
                <path d="M188.456,149.715C188.456,149.715 193.763,144.204 200.713,150.877C205.323,155.304 208.163,161.094 209.249,162.287C210.333,163.48 215.747,170.565 217.939,172.279C220.132,173.994 222.265,185.977 221.031,186.892C220.833,187.039 217.569,189.661 216.747,189.444C215.453,189.102 211.601,182.252 209.249,177.472C206.589,176.681 200.324,171.523 196.819,167.785C190.853,161.422 188.456,149.715 188.456,149.715Z" style="fill:white;fill-rule:nonzero;"/>
            </g>
            <g transform="matrix(-0.472116,0,0,0.810176,662.524,599.694)">
                <path d="M186.883,151.981C189.939,150.929 191.925,150.215 197.639,156.474C201.656,160.874 204.042,173.49 203.711,175.513C203.449,177.112 203.676,185.392 209.355,193.068C209.355,195.993 208.083,202.82 204.925,204.196C203.819,202.228 201.871,199.562 199.371,198.726C199.371,202.705 197.567,205.186 196.485,207.647C189.237,207.208 179.597,204.329 174.993,200.643C175.305,198.736 176.943,195.043 175.404,191.155C172.748,184.449 170.444,180.144 169.043,172.839C166.812,161.199 180.098,154.317 186.883,151.981Z" style="fill:rgb(54,67,87);fill-rule:nonzero;"/>
            </g>
            <g transform="matrix(-0.472116,0,0,0.810176,662.524,599.694)">
                <path d="M188.499,150.647C188.499,150.647 189.499,152.522 191.89,158.151C192.087,160.192 194.204,162.862 192.845,167.109C191.187,165.582 187.196,164.424 185.018,162.862C180.662,159.739 179.677,157.422 179.677,157.422L177.879,149.032L188.499,150.647Z" style="fill:rgb(156,83,70);fill-rule:nonzero;"/>
            </g>
            <g transform="matrix(-0.472116,0,0,0.810176,662.524,599.694)">
                <path d="M186.089,132.227C186.089,132.227 177.769,128.772 175.493,129.24C173.216,129.708 174.628,130.734 172.298,132.265C169.967,133.795 166.139,136.042 168.006,140.138C169.873,144.234 174.582,149.969 174.582,149.969L186.279,132.891L186.089,132.227Z" style="fill:rgb(44,57,71);fill-rule:nonzero;"/>
            </g>
            <g transform="matrix(-0.472116,0,0,0.810176,662.524,599.694)">
                <path d="M187.32,129.914C181.557,125.103 171.111,134.771 168.854,141.928C166.135,150.551 173.028,155.978 180.106,150.324C187.184,144.67 194.225,135.679 187.32,129.914Z" style="fill:rgb(54,67,87);fill-rule:nonzero;"/>
            </g>
            <g transform="matrix(-0.472116,0,0,0.810176,662.524,599.694)">
                <path d="M188.063,130.44C182.301,125.63 171.736,135.037 169.479,142.194C166.759,150.817 173.991,156.265 181.069,150.611C188.147,144.957 194.969,136.206 188.063,130.44Z" style="fill:rgb(44,57,71);fill-rule:nonzero;"/>
            </g>
            <g transform="matrix(-0.472116,0,0,0.810176,662.524,599.694)">
                <path d="M181.966,160.331C181.966,160.331 188.253,168.105 190.326,170.49C192.398,172.874 197.832,182.869 197.832,182.869C197.832,182.869 198.164,174.383 197.567,170.379C196.97,166.375 193.914,161.292 193.914,161.292L192.616,165.573L181.966,160.331Z" style="fill:white;fill-rule:nonzero;"/>
            </g>
            <g transform="matrix(-0.472116,0,0,0.810176,662.524,599.694)">
                <path d="M190.312,150.48C190.312,150.48 192.571,151.824 195.35,156.605C197.888,160.971 199.371,161.765 199.371,161.765C199.371,161.765 196.744,162.113 195.643,163.704C194.684,165.088 193.563,168.075 193.563,168.075C193.563,168.075 191.231,165.858 191.284,163.963C192.817,159.72 188.456,152.892 188.456,152.892L190.312,150.48Z" style="fill:white;fill-rule:nonzero;"/>
            </g>
            <g transform="matrix(-0.472116,0,0,0.810176,662.524,599.694)">
                <path d="M184.009,159.277C184.009,159.277 189.752,162.943 191.054,163.48C192.356,164.017 193.563,168.075 193.563,168.075C193.563,168.075 190.974,166.551 189.599,166.836C187.625,167.245 185.588,170.49 185.588,170.49C185.588,170.49 183.645,165.66 180.429,163.639C177.819,161.998 175.209,159.826 175.587,158.07C176.626,156.474 177.489,155.533 179.151,154.971C179.308,156.474 181.297,157.816 184.009,159.277Z" style="fill:white;fill-rule:nonzero;"/>
            </g>
            <g transform="matrix(-0.472116,0,0,0.810176,662.524,599.694)">
                <path d="M191.457,166.525C191.457,166.525 192.116,165.485 193.914,165.121C195.711,164.756 195.121,168.517 195.121,168.517C195.121,168.517 197.044,169.938 197.746,172.028C198.448,174.118 197.832,182.869 197.832,182.869C197.832,182.869 194.758,177.325 193.563,175.373C192.368,173.421 191.518,172.11 191.518,172.11L193.297,168.999C193.297,168.999 190.424,167.559 191.457,166.525Z" style="fill:rgb(235,72,73);fill-rule:nonzero;"/>
            </g>
            <g transform="matrix(-0.472116,0,0,0.810176,662.524,599.694)">
                <path d="M173.786,143.02C173.804,139.858 181.834,135.765 185.019,136.236C189.818,136.946 191.668,142.826 192.441,147.221C193.253,151.842 191.341,158.205 184.284,156.036C178.56,154.276 173.753,149.18 173.786,143.02Z" style="fill:rgb(173,100,83);fill-rule:nonzero;"/>
            </g>
            <g transform="matrix(-0.472116,0,0,0.810176,662.524,599.694)">
                <path d="M172.783,141.731C172.055,140.036 172.641,138.031 174.047,136.637C175.339,135.356 177.113,134.827 178.841,134.472C180.378,134.157 181.031,134.317 182.27,133.263C183.597,132.134 183.22,131.673 183.739,130.183C185.343,125.584 190.425,129.516 190.37,133.542C190.852,133.336 191.383,133.319 191.941,133.669C193.247,134.491 192.947,136.23 192.234,137.314C191.048,139.119 188.968,140.421 186.804,140.8C186.031,144.529 181.829,144.799 180.3,144.207C180.909,146.894 179.391,151.579 177.354,153.434C176.091,152.012 171.913,150.371 171.16,146.389C170.875,144.882 171.433,142.679 172.783,141.731Z" style="fill:rgb(44,28,27);fill-rule:nonzero;"/>
            </g>
            <g transform="matrix(-0.472116,0,0,0.810176,662.524,599.694)">
                <path d="M180.585,147.794C180.585,147.794 178.441,146.07 177.704,148.066C177.056,149.821 177.876,151.722 180.112,151.564C182.077,151.427 180.585,147.794 180.585,147.794Z" style="fill:rgb(173,100,83);fill-rule:nonzero;"/>
            </g>
            <g transform="matrix(-0.472116,0,0,0.810176,662.524,599.694)">
                <path d="M221.142,187.511C220.247,182.954 221.142,179.241 221.142,179.241C221.142,179.241 217.893,178.547 216.294,174.095C216.135,173.652 216.008,173.24 215.895,172.843C215.804,173.102 215.713,173.373 215.623,173.657C214.208,178.133 214.49,183.28 215.772,189.398C216.701,193.831 218.475,198.159 218.348,199.624C218.185,201.482 216.597,200.569 214.43,195.125C211.927,188.838 206.822,164.859 204.673,156.895C203.779,153.582 202.645,150.618 201.082,149.27C199.333,147.764 196.904,148.165 194.768,148.853C192.981,149.428 191.235,150.414 189.82,151.339C189.845,151.466 189.879,151.598 189.931,151.736L189.962,151.804C196.786,148.277 198.941,150.128 199.515,150.829C202.771,154.799 204.396,167.103 206.3,178.511C207.678,186.764 210.319,197.092 210.851,198.928C213.102,206.719 219.58,208.749 222.511,204.596C224.721,201.464 222.036,192.068 221.142,187.511Z" style="fill:rgb(252,180,20);fill-rule:nonzero;"/>
            </g>
            <g transform="matrix(-0.472116,0,0,0.810176,662.524,599.694)">
                <clipPath id="_clip1">
                    <path d="M219.825,208.782C219.508,208.782 219.176,208.755 218.83,208.697C215.287,208.106 211.291,204.8 209.806,199.003C209.562,198.049 209.318,197.06 209.075,196.044C208.68,194.393 208.288,192.669 207.902,190.908C205.614,180.449 203.564,168.658 202.547,162.651C201.253,155.009 199.59,150.829 197.522,150.504C197.337,150.475 197.135,150.462 196.917,150.462C195.128,150.462 192.347,151.382 190.148,152.21C190.081,152.08 190.017,151.945 189.962,151.804C193.045,150.211 195.175,149.715 196.637,149.715C198.411,149.715 199.2,150.444 199.515,150.829C202.771,154.799 204.396,167.103 206.3,178.511C207.678,186.764 210.319,197.092 210.851,198.928C212.337,204.072 215.665,206.705 218.599,206.704C220.109,206.704 221.515,206.007 222.511,204.596C223.128,203.721 223.363,202.358 223.363,200.748C223.361,196.593 221.786,190.795 221.142,187.511C220.843,185.989 220.743,184.561 220.744,183.334C220.745,180.888 221.142,179.241 221.142,179.241C221.142,179.241 217.893,178.547 216.294,174.095C216.135,173.652 216.008,173.24 215.895,172.843C217.25,169.015 218.755,167.88 218.755,167.88L227.107,175.363C227.107,175.363 223.677,178.511 223.378,184.237C223.367,184.452 223.362,184.67 223.362,184.889C223.361,189.392 225.596,194.838 225.594,200.452C225.594,200.937 225.577,201.424 225.541,201.911C225.319,204.892 223.603,208.783 219.825,208.782Z"/>
                </clipPath>
                <g clip-path="url(#_clip1)">
                    <rect x="189.962" y="149.715" width="37.145" height="59.068" style="fill:rgb(252,180,20);fill-rule:nonzero;"/>
                </g>
            </g>
            <g transform="matrix(-0.472116,0,0,0.810176,662.524,599.694)">
                <path d="M220.261,174.098C222.974,177.729 226.537,179.653 228.222,178.396C229.906,177.138 229.073,173.174 226.361,169.542C223.649,165.911 220.085,163.986 218.4,165.244C216.716,166.502 217.549,170.466 220.261,174.098Z" style="fill:rgb(255,211,81);fill-rule:nonzero;"/>
            </g>
            <g transform="matrix(-0.472116,0,0,0.810176,662.524,599.694)">
                <path d="M221.296,173.325C223.088,175.724 225.442,176.994 226.556,176.164C227.668,175.333 227.117,172.714 225.326,170.315C223.535,167.917 221.18,166.646 220.067,167.477C218.955,168.307 219.505,170.926 221.296,173.325Z" style="fill:rgb(250,162,26);fill-rule:nonzero;"/>
            </g>
            <g transform="matrix(-0.472116,0,0,0.810176,662.524,599.694)">
                <path d="M195.121,178.563C192.616,177.472 184.374,180.279 181.098,182.012C180.545,179.241 180.192,178.228 178.868,175.739C179.472,172.956 178.98,169.763 177.993,167.26C177.337,165.599 174.04,161.965 172.283,161.292C169.22,162.849 167.034,164.617 166.04,168.677C165.011,172.876 165.782,173.801 168.248,177.913C170.461,181.607 170.461,181.607 171.912,187.482C172.531,189.995 173.824,191.445 176.458,194.227C177.38,195.199 184.51,194.133 187.291,193.011C193.224,190.615 196.4,188.045 197.348,185.302C198.203,182.825 196.364,179.104 195.121,178.563Z" style="fill:white;fill-rule:nonzero;"/>
            </g>
            <g transform="matrix(-0.472116,0,0,0.810176,662.524,599.694)">
                <path d="M196.073,185.942C196.073,185.942 198.809,184.675 199.38,183.915C199.97,183.132 199.871,182.091 199.217,180.305C198.563,178.519 197.58,178.563 197.58,178.563C197.58,178.563 194.326,178.617 193.654,179.359C193.044,180.853 192.864,184.516 196.073,185.942Z" style="fill:rgb(221,205,205);fill-rule:nonzero;"/>
            </g>
            <g transform="matrix(-0.472116,0,0,0.810176,662.524,599.694)">
                <path d="M210.553,179.76C210.876,179.563 211.296,179.433 210.666,178.415C210.034,177.397 209.578,176.731 208.194,176.16C206.81,175.589 204.897,175.216 202.78,176.32C202.081,176.685 201.214,177.094 200.367,177.478C198.652,178.256 197.018,178.932 197.018,178.932C195.729,180.896 197.077,183.517 197.909,184.311C198.872,184.09 199.457,183.4 200.843,182.946C201.754,182.647 202.365,183.099 203.723,182.756C204.129,182.653 205.852,181.96 207.396,181.63C208.293,181.438 209.439,181.508 210.01,181.371C210.492,181.255 210.477,180.947 210.443,180.675C210.753,180.58 210.951,179.915 210.553,179.76Z" style="fill:rgb(173,100,83);fill-rule:nonzero;"/>
            </g>
            <g transform="matrix(-0.472116,0,0,0.810176,662.524,599.694)">
                <path d="M215.303,186.935C215.303,186.935 212.793,189.391 210.992,192.958C209.191,196.526 210.134,198.082 212.322,198.678C214.509,199.274 216.997,194.085 216.997,194.085C216.997,194.085 215.771,190.477 215.303,186.935Z" style="fill:rgb(173,100,83);fill-rule:nonzero;"/>
            </g>
            <g transform="matrix(-0.472116,0,0,0.810176,662.524,599.694)">
                <path d="M199.75,188.068C199.898,188.782 199.614,189.445 199.115,189.549C198.616,189.652 198.091,189.157 197.943,188.442C197.795,187.729 198.08,187.065 198.579,186.962C199.078,186.858 199.603,187.354 199.75,188.068Z" style="fill:white;fill-rule:nonzero;"/>
            </g>
            <g transform="matrix(-0.472116,0,0,0.810176,662.524,599.694)">
                <path d="M200.674,195.764C200.822,196.478 200.537,197.141 200.038,197.244C199.539,197.348 199.014,196.852 198.866,196.138C198.718,195.423 199.003,194.76 199.502,194.656C200.001,194.554 200.525,195.049 200.674,195.764Z" style="fill:white;fill-rule:nonzero;"/>
            </g>
        </g>
    </g>
</svg>
