<?xml version="1.0" encoding="UTF-8" standalone="no"?>
<!DOCTYPE svg PUBLIC "-//W3C//DTD SVG 1.1//EN" "http://www.w3.org/Graphics/SVG/1.1/DTD/svg11.dtd">
<svg width="100%" height="100%" viewBox="0 0 83 163" version="1.1" xmlns="http://www.w3.org/2000/svg" xmlnsXlink="http://www.w3.org/1999/xlink" xmlSpace="preserve" xmlnsSerif="http://www.serif.com/" style="fill-rule:evenodd;clip-rule:evenodd;stroke-linejoin:round;stroke-miterlimit:2;">
    <g transform="matrix(1.50002,0,0,0.89494,-793.758,-582.178)">
        <g>
            <g>
                <g transform="matrix(-0.472116,0,0,0.810176,662.524,599.694)">
                    <path d="M247.116,68.372C247.116,68.372 240.262,62.914 238.009,62.741C235.755,62.569 236.8,63.907 234.211,64.713C231.622,65.52 227.44,66.596 228.089,70.926C228.737,75.256 231.604,81.88 231.604,81.88L247.116,69.044L247.116,68.372Z" style="fill:rgb(218,54,54);fill-rule:nonzero;"/>
                </g>
                <g transform="matrix(-0.472116,0,0,0.810176,662.524,599.694)">
                    <path d="M248.851,203.053C250.171,199.724 257.501,200.98 257.454,201.311C260.109,203.475 262.107,205.824 264.241,208.468C266.023,210.677 268.216,212.919 266.034,214.428C264.047,215.803 260.555,214.427 258.703,213.404C256.93,212.426 253.623,209.654 252.72,207.785C252.23,208.15 251.354,208.551 249.858,207.452C248.775,206.656 248.136,204.857 248.851,203.053Z" style="fill:rgb(34,21,21);fill-rule:nonzero;"/>
                </g>
                <g transform="matrix(-0.472116,0,0,0.810176,662.524,599.694)">
                    <path d="M236.198,211.453C237.519,208.124 244.848,209.381 244.803,209.711C247.457,211.875 249.455,214.225 251.589,216.869C253.371,219.077 255.563,221.319 253.381,222.828C251.394,224.203 247.902,222.827 246.05,221.805C244.277,220.826 240.97,218.055 240.066,216.186C239.578,216.551 238.701,216.951 237.206,215.853C236.123,215.057 235.482,213.258 236.198,211.453Z" style="fill:rgb(34,21,21);fill-rule:nonzero;"/>
                </g>
                <g transform="matrix(-0.472116,0,0,0.810176,662.524,599.694)">
                    <path d="M258.523,201.811C256.048,205.566 250.33,203.914 249.111,202.665C249.018,201.76 246.478,175.892 251.792,170.047C250.399,164.983 248.967,160.442 247.547,155.383C246.481,151.588 245.311,144.815 245.973,140.699C246.505,137.386 249.347,126.587 252.158,125.08C256.229,122.896 265.451,128.816 265.371,128.853C271.229,142.494 265.375,155.51 262.792,169.108C262.757,179.491 259.803,196.178 258.523,201.811Z" style="fill:rgb(218,54,54);fill-rule:nonzero;"/>
                </g>
                <g transform="matrix(-0.472116,0,0,0.810176,662.524,599.694)">
                    <path d="M245.233,209.797C243.523,210.9 241.824,212.035 239.759,212.351C237.392,212.713 235.919,211.847 234.595,210.543C234.564,210.218 233.04,196.671 233.204,191.193C233.489,181.691 235.942,157.577 237.266,152.46C235.896,141.942 238.028,129.025 240.84,127.517C244.912,125.333 256.858,128.805 256.778,128.842C258.243,132.252 259.049,142.919 253.423,148.144C253.831,159.085 249.271,169.452 247.334,179.65C245.65,188.513 245.222,209.275 245.233,209.797Z" style="fill:rgb(235,72,73);fill-rule:nonzero;"/>
                </g>
                <g transform="matrix(-0.472116,0,0,0.810176,662.524,599.694)">
                    <path d="M257.363,92.244C257.363,92.244 254.644,92.498 255.196,93.9C255.748,95.301 257.673,96.707 258.023,96.962C258.372,97.219 257.486,99.256 259.867,99.655C262.249,100.054 262.772,99.393 263.152,97.479C263.532,95.566 257.363,92.244 257.363,92.244Z" style="fill:rgb(251,200,182);fill-rule:nonzero;"/>
                </g>
                <g transform="matrix(-0.472116,0,0,0.810176,662.524,599.694)">
                    <path d="M247.707,83.551C253.509,80.691 259.146,87.697 259.146,93.301C261.961,95.896 262.018,99.757 265.188,102.472C266.78,104.955 268.59,105.789 265.437,107.893C263.005,109.514 264.125,110.887 261.726,110.105C257.483,108.695 251.409,104.449 249.638,102.16C250.211,93.665 245.727,84.526 247.707,83.551Z" style="fill:rgb(51,34,32);fill-rule:nonzero;"/>
                </g>
                <g transform="matrix(-0.472116,0,0,0.810176,662.524,599.694)">
                    <path d="M262.925,95.302C262.925,95.302 259.506,94.77 259.698,98.359C259.892,101.948 256.665,107.571 258.687,108.695C260.711,109.82 262.753,111.595 264.477,110.331C266.361,108.949 269.346,108.306 267.79,103.104C266.233,97.903 265.453,95.756 262.925,95.302Z" style="fill:rgb(51,34,32);fill-rule:nonzero;"/>
                </g>
                <g transform="matrix(-0.472116,0,0,0.810176,662.524,599.694)">
                    <path d="M232.615,92.014L230.101,93.055C230.101,93.055 223.776,96.608 224.27,101.427C224.958,108.149 230.685,117.806 232.615,119.568C235.931,122.593 236.73,124.088 237.254,127.158C237.777,130.228 235.427,140.881 235.427,140.881C235.427,140.881 235.854,145.807 246.577,145.803C251.525,145.801 258.368,142.125 258.368,142.125L259.403,135.007L262.637,140.436C262.637,140.436 267.655,138.296 268.551,135.926C267.655,130.977 264.9,124.503 263.169,116.929C261.95,111.597 260.678,109.142 260.536,108.442C259.962,105.632 257.664,99.44 253.919,93.251C250.893,88.249 247.18,85.693 247.18,85.693L232.615,92.014Z" style="fill:rgb(63,42,40);fill-rule:nonzero;"/>
                </g>
                <g transform="matrix(-0.472116,0,0,0.810176,662.524,599.694)">
                    <path d="M238.298,98.165L247.18,92.721C247.18,92.721 251.028,98.836 251.675,104.782C252.321,110.729 252.854,112.113 252.854,112.113C252.854,112.113 242.637,103.911 238.298,98.165Z" style="fill:rgb(221,205,205);fill-rule:nonzero;"/>
                </g>
                <g transform="matrix(-0.472116,0,0,0.810176,662.524,599.694)">
                    <path d="M243.054,91.497C243.22,93.785 244.565,95.302 242.637,96.608C239.873,94.153 234.672,92.518 232.615,92.014C234.121,87.728 234.021,85.984 233.499,81.757C233.18,79.171 241.996,82.966 242.56,82.957C243.044,86.329 242.778,87.707 243.054,91.497Z" style="fill:rgb(250,183,164);fill-rule:nonzero;"/>
                </g>
                <g transform="matrix(-0.472116,0,0,0.810176,662.524,599.694)">
                    <path d="M243.438,95.78L246.188,95.302C246.188,95.302 247.429,97.894 247.059,99.467C248.884,100.906 251.183,105.275 251.183,105.275L248.291,107.144C248.291,107.144 246.291,101.911 245.521,100.5C243.854,99.767 242.179,98.165 242.179,98.165L243.438,95.78Z" style="fill:rgb(218,54,54);fill-rule:nonzero;"/>
                </g>
                <g transform="matrix(-0.472116,0,0,0.810176,662.524,599.694)">
                    <path d="M244.672,88.17C244.672,88.17 248.291,93.251 247.236,96.005C246.339,96.146 243.854,96.005 243.854,96.005C243.854,96.005 242.232,99.777 241.254,100.044C237.393,97.851 231.761,91.415 231.761,91.415C231.761,91.415 232.761,88.631 233.762,88.631C237.988,92.34 243.037,95.553 243.037,95.553L242.362,90.512L244.672,88.17Z" style="fill:white;fill-rule:nonzero;"/>
                </g>
                <g transform="matrix(-0.472116,0,0,0.810176,662.524,599.694)">
                    <path d="M248.887,66.539C244.787,60.497 232.431,66.739 228.402,72.827C223.55,80.162 228.542,87.082 236.675,83.691C244.808,80.3 253.8,73.779 248.887,66.539Z" style="fill:rgb(235,72,73);fill-rule:nonzero;"/>
                </g>
                <g transform="matrix(-0.472116,0,0,0.810176,662.524,599.694)">
                    <path d="M249.441,67.231C245.342,61.189 232.942,67.155 228.915,73.243C224.063,80.578 229.366,87.608 237.498,84.218C245.631,80.827 254.354,74.471 249.441,67.231Z" style="fill:rgb(218,54,54);fill-rule:nonzero;"/>
                </g>
                <g transform="matrix(-0.472116,0,0,0.810176,662.524,599.694)">
                    <path d="M245.599,87.491C245.984,87.197 248.231,90.759 249.677,92.721C251.121,94.683 252.021,96.353 252.021,96.353C252.021,96.353 250.567,98.765 250.094,100.076C251.664,100.499 253.572,101.124 253.572,101.124C253.572,101.124 253.932,115.285 253.919,115.381C252.798,113.793 252.249,111.14 250.943,109.69C250.566,104.74 246.682,94.49 246.682,94.49L243.854,88.06L245.599,87.491Z" style="fill:rgb(51,34,32);fill-rule:nonzero;"/>
                </g>
                <g transform="matrix(-0.472116,0,0,0.810176,662.524,599.694)">
                    <path d="M232.217,90.353C232.217,90.353 236.059,93.737 238.932,96.644C243.854,101.624 246.783,103.004 250.54,107.538C254.332,112.113 255.824,116.929 255.824,116.929C255.824,116.929 249.671,112.094 247.18,110.499C242.613,107.577 239.343,105.969 239.343,105.969L241.394,103.374L237.806,102.667C237.806,102.667 230.831,96.238 229.448,93.057C229.448,91.247 232.217,90.353 232.217,90.353Z" style="fill:rgb(51,34,32);fill-rule:nonzero;"/>
                </g>
                <g transform="matrix(-0.472116,0,0,0.810176,662.524,599.694)">
                    <path d="M247.587,73.751C246.333,71.373 247.1,69.921 237.699,71.754C236.201,72.047 234.144,74.853 233.331,76.021C231.659,78.423 231.793,81.28 233.133,83.79C234.418,86.195 238.708,89.931 242.362,90.407C249.859,91.381 249.798,77.945 247.587,73.751Z" style="fill:rgb(251,200,182);fill-rule:nonzero;"/>
                </g>
                <g transform="matrix(-0.472116,0,0,0.810176,662.524,599.694)">
                    <path d="M250.54,70.926C248.409,76.179 239.577,78.765 238.411,78.519C238.791,80.924 233.918,86.613 233.829,86.561C231.836,85.373 230.258,80.691 231.761,77.732C231.164,67.33 246.576,65.955 250.54,70.926Z" style="fill:rgb(63,42,40);fill-rule:nonzero;"/>
                </g>
                <g transform="matrix(-0.472116,0,0,0.810176,662.524,599.694)">
                    <path d="M245.403,70.926C246.174,71.054 248.566,71.696 249.74,74.907C250.603,77.264 248.81,78.882 248.81,78.882C248.81,78.882 246.944,75.292 244.761,73.237C242.578,71.182 245.403,70.926 245.403,70.926Z" style="fill:rgb(63,42,40);fill-rule:nonzero;"/>
                </g>
                <g transform="matrix(-0.472116,0,0,0.810176,662.524,599.694)">
                    <path d="M238.028,83.61C238.382,83.094 238.394,82.41 238.031,81.9C237.45,81.082 236.437,80.206 235.252,81.551C233.387,83.67 235.666,86.129 236.053,86.086C236.314,86.058 237.374,84.567 238.028,83.61Z" style="fill:rgb(251,200,182);fill-rule:nonzero;"/>
                </g>
                <g transform="matrix(-0.472116,0,0,0.810176,662.524,599.694)">
                    <path d="M242.646,82.547C242.646,82.547 254.773,89.96 260.995,93.644C270.075,99.02 279.999,99.89 279.999,99.89L273.578,112.411C273.578,112.411 265.713,101.142 260.42,97.201C255.129,93.259 242.011,83.983 242.011,83.983L242.646,82.547Z" style="fill:rgb(255,200,22);fill-rule:nonzero;"/>
                </g>
                <g transform="matrix(-0.472116,0,0,0.810176,662.524,599.694)">
                    <path d="M272.804,103.576C270.242,108.013 269.834,112.572 271.892,113.76C273.949,114.948 277.693,112.315 280.255,107.878C282.816,103.442 283.225,98.883 281.167,97.695C279.109,96.507 275.365,99.141 272.804,103.576Z" style="fill:rgb(255,211,81);fill-rule:nonzero;"/>
                </g>
                <g transform="matrix(-0.472116,0,0,0.810176,662.524,599.694)">
                    <path d="M274.068,104.307C272.376,107.237 272.106,110.249 273.466,111.034C274.825,111.818 277.299,110.079 278.99,107.148C280.683,104.218 280.952,101.206 279.593,100.421C278.233,99.637 275.76,101.376 274.068,104.307Z" style="fill:rgb(250,162,26);fill-rule:nonzero;"/>
                </g>
                <g transform="matrix(-0.472116,0,0,0.810176,662.524,599.694)">
                    <path d="M261.073,100.409C254.185,95.184 246.075,89.212 245.942,89.112L246.406,88.497C246.539,88.597 252.834,92.933 259.824,98.043C259.651,98.261 261.118,100.351 261.073,100.409Z" style="fill:rgb(255,200,22);fill-rule:nonzero;"/>
                </g>
                <g transform="matrix(-0.472116,0,0,0.810176,662.524,599.694)">
                    <path d="M239.792,89.254C242.121,91.103 244.578,93.058 247.177,95.143C255.036,101.447 259.181,104.399 263.569,107.524C265.344,108.788 267.16,110.082 269.28,111.638C273.016,114.38 274.648,114.615 275.269,114.523C275.521,114.484 275.694,114.383 275.829,114.197C276.678,113.021 276.518,112.292 271.366,108.139C269.391,106.546 265.336,103.562 261.073,100.409C256.435,96.978 251.463,93.287 246.383,89.437C246.406,89.361 249.405,90.93 249.505,90.751C259.209,97.804 268.259,103.655 272.333,106.939C276.875,110.599 278.973,112.475 277.078,115.099C276.705,115.615 276.163,115.943 275.508,116.046C275.357,116.069 275.201,116.081 275.035,116.081C273.485,116.081 271.294,115.028 268.368,112.881C266.256,111.329 264.443,110.039 262.675,108.779C258.269,105.641 254.107,102.677 246.214,96.345C243.665,94.301 241.254,92.382 238.964,90.565C239.235,90.126 239.516,89.691 239.792,89.254Z" style="fill:rgb(255,200,22);fill-rule:nonzero;"/>
                </g>
                <g transform="matrix(-0.472116,0,0,0.810176,662.524,599.694)">
                    <path d="M231.526,80.624C231.915,79.933 232.869,79.133 233.602,78.968C236.001,78.432 239.741,80.474 244.117,83.561L243.229,84.821C239.496,82.186 235.679,80.079 233.941,80.471C233.64,80.54 233.043,81.072 232.869,81.38C232.186,82.595 233.94,84.25 235.959,85.982C239.514,89.036 244.34,92.86 250.45,97.703C251.441,98.488 252.473,99.306 253.523,100.138C253.22,100.555 252.925,100.982 252.668,101.427C251.582,100.566 250.517,99.721 249.493,98.911C243.369,94.058 238.532,90.224 234.955,87.151C232.934,85.416 230.166,83.041 231.526,80.624Z" style="fill:rgb(255,200,22);fill-rule:nonzero;"/>
                </g>
                <g transform="matrix(-0.472116,0,0,0.810176,662.524,599.694)">
                    <path d="M245.765,88.331C245.432,88.835 245.352,89.37 245.585,89.524C245.819,89.679 246.278,89.395 246.611,88.89C246.944,88.386 247.025,87.852 246.791,87.697C246.557,87.543 246.098,87.827 245.765,88.331Z" style="fill:rgb(250,162,26);fill-rule:nonzero;"/>
                </g>
                <g transform="matrix(-0.472116,0,0,0.810176,662.524,599.694)">
                    <path d="M247.18,87.982L246.791,87.697L245.585,89.524L245.974,89.809L247.18,87.982Z" style="fill:rgb(250,162,26);fill-rule:nonzero;"/>
                </g>
                <g transform="matrix(-0.472116,0,0,0.810176,662.524,599.694)">
                    <path d="M246.153,88.616C245.82,89.121 245.74,89.655 245.974,89.809C246.208,89.963 246.668,89.68 247.001,89.175C247.333,88.671 247.414,88.137 247.18,87.982C246.945,87.828 246.486,88.111 246.153,88.616Z" style="fill:rgb(255,200,22);fill-rule:nonzero;"/>
                </g>
                <g transform="matrix(-0.472116,0,0,0.810176,662.524,599.694)">
                    <path d="M248.291,102.019C248.361,101.034 249.705,97.063 251.606,96.644C253.509,96.225 257.388,99.548 257.148,101.812C257.019,103.035 251.183,105.275 251.183,105.275L248.291,102.019Z" style="fill:rgb(251,200,182);fill-rule:nonzero;"/>
                </g>
                <g transform="matrix(-0.472116,0,0,0.810176,662.524,599.694)">
                    <path d="M264.386,95.439C264.386,95.439 262.913,91.96 260.143,90.961C257.372,89.962 254.63,91.955 256.694,93.593C258.76,95.23 260.789,95.974 262.092,95.78L264.386,95.439Z" style="fill:rgb(251,200,182);fill-rule:nonzero;"/>
                </g>
                <g transform="matrix(-0.472116,0,0,0.810176,662.524,599.694)">
                    <path d="M227.141,95.302C231.424,96.005 233.322,101.386 234.527,105.728C235.077,107.707 235.514,110.175 236.153,112.373C237.387,111.023 239.015,109.838 240.794,108.214C243.396,105.839 245.646,103.004 248.389,100.684C250.037,99.29 253.569,103.458 252.725,105.742C252.609,106.054 246.394,115.397 243.49,118.233C241.988,119.7 240.079,121.223 238.298,122.495C236.414,123.84 233.916,123.982 232.615,123.344C230.931,122.518 228.579,120.277 227.255,117.314C225.444,113.266 222.709,107.875 222.426,105.728C221.772,100.758 223.388,97.005 227.141,95.302Z" style="fill:rgb(51,34,32);fill-rule:nonzero;"/>
                </g>
                <g transform="matrix(-0.472116,0,0,0.810176,662.524,599.694)">
                    <path d="M254.578,120.151C254.787,120.682 255.258,120.995 255.628,120.849C255.999,120.703 256.131,120.154 255.922,119.623C255.713,119.092 255.243,118.78 254.872,118.925C254.501,119.071 254.37,119.62 254.578,120.151Z" style="fill:white;fill-rule:nonzero;"/>
                </g>
                <g transform="matrix(-0.472116,0,0,0.810176,662.524,599.694)">
                    <path d="M256.022,125.665C256.23,126.196 256.7,126.508 257.071,126.362C257.443,126.216 257.575,125.667 257.366,125.137C257.157,124.605 256.687,124.293 256.316,124.439C255.945,124.585 255.813,125.134 256.022,125.665Z" style="fill:white;fill-rule:nonzero;"/>
                </g>
                <g transform="matrix(-0.472116,0,0,0.810176,662.524,599.694)">
                    <path d="M256.954,131.632C256.997,132.202 257.354,132.639 257.752,132.609C258.148,132.58 258.437,132.094 258.396,131.525C258.353,130.956 257.996,130.519 257.597,130.548C257.2,130.578 256.913,131.063 256.954,131.632Z" style="fill:white;fill-rule:nonzero;"/>
                </g>
                <g transform="matrix(-0.472116,0,0,0.810176,662.524,599.694)">
                    <path d="M180.15,273.479C181.627,269.754 189.826,271.16 189.775,271.529C192.744,273.95 194.979,276.578 197.366,279.536C199.359,282.007 201.811,284.514 199.371,286.202C197.148,287.74 193.242,286.201 191.17,285.058C189.187,283.963 185.488,280.862 184.478,278.772C183.931,279.181 182.95,279.628 181.277,278.399C180.066,277.51 179.35,275.497 180.15,273.479Z" style="fill:rgb(34,21,21);fill-rule:nonzero;"/>
                </g>
                <g transform="matrix(-0.472116,0,0,0.810176,662.524,599.694)">
                    <path d="M204.731,259.281C206.208,255.557 214.406,256.964 214.355,257.332C217.324,259.753 219.56,262.381 221.946,265.339C223.939,267.81 226.392,270.317 223.951,272.005C221.729,273.543 217.823,272.004 215.751,270.86C213.768,269.766 210.068,266.665 209.058,264.575C208.511,264.983 207.53,265.431 205.858,264.202C204.646,263.313 203.93,261.301 204.731,259.281Z" style="fill:rgb(34,21,21);fill-rule:nonzero;"/>
                </g>
                <g transform="matrix(-0.472116,0,0,0.810176,662.524,599.694)">
                    <path d="M204.925,189.236C204.925,189.236 215.164,202.954 216.997,205.826C218.83,208.697 223.614,217.611 223.312,221.647C223.009,225.682 222.385,231.689 221.189,237.861C220.744,240.164 216.997,260.339 216.997,260.339C216.997,260.339 213.692,262.474 210.044,261.559C204.925,260.275 204.925,258.038 204.925,258.038C204.925,258.038 206.135,243.525 206.297,240.887C206.805,232.634 207.813,224.862 207.813,224.862C207.813,224.862 201.029,217.246 196.534,210.149C192.038,203.053 189.269,192.791 189.269,192.791L204.925,189.236Z" style="fill:rgb(32,45,57);fill-rule:nonzero;"/>
                </g>
                <g transform="matrix(-0.472116,0,0,0.810176,662.524,599.694)">
                    <path d="M204.267,237.722C203.97,235.269 199.77,214.291 199.77,214.291C199.77,214.291 202.232,201.978 200.674,195.763C199.115,189.549 177.408,196.604 177.408,196.604C177.408,196.604 175.52,206.448 176.223,211.512C176.925,216.576 181.042,222.974 183.636,227.34C186.279,231.788 188.456,239.693 188.456,239.693C188.456,239.693 185.588,247.668 183.201,254.129C181.75,258.056 179.613,266.414 178.405,271.118C180.905,273.522 185.588,278.369 193.251,273.064C196.698,264.364 201.717,249.393 202.429,246.142C203.368,241.849 204.564,240.175 204.267,237.722Z" style="fill:rgb(44,57,71);fill-rule:nonzero;"/>
                </g>
                <g transform="matrix(-0.472116,0,0,0.810176,662.524,599.694)">
                    <path d="M188.456,149.715C188.456,149.715 193.763,144.204 200.713,150.877C205.323,155.304 208.163,161.094 209.249,162.287C210.333,163.48 215.747,170.565 217.939,172.279C220.132,173.994 222.265,185.977 221.031,186.892C220.833,187.039 217.569,189.661 216.747,189.444C215.453,189.102 211.601,182.252 209.249,177.472C206.589,176.681 200.324,171.523 196.819,167.785C190.853,161.422 188.456,149.715 188.456,149.715Z" style="fill:white;fill-rule:nonzero;"/>
                </g>
                <g transform="matrix(-0.472116,0,0,0.810176,662.524,599.694)">
                    <path d="M186.883,151.981C189.939,150.929 191.925,150.215 197.639,156.474C201.656,160.874 204.042,173.49 203.711,175.513C203.449,177.112 203.676,185.392 209.355,193.068C209.355,195.993 208.083,202.82 204.925,204.196C203.819,202.228 201.871,199.562 199.371,198.726C199.371,202.705 197.567,205.186 196.485,207.647C189.237,207.208 179.597,204.329 174.993,200.643C175.305,198.736 176.943,195.043 175.404,191.155C172.748,184.449 170.444,180.144 169.043,172.839C166.812,161.199 180.098,154.317 186.883,151.981Z" style="fill:rgb(54,67,87);fill-rule:nonzero;"/>
                </g>
                <g transform="matrix(-0.472116,0,0,0.810176,662.524,599.694)">
                    <path d="M188.499,150.647C188.499,150.647 189.499,152.522 191.89,158.151C192.087,160.192 194.204,162.862 192.845,167.109C191.187,165.582 187.196,164.424 185.018,162.862C180.662,159.739 179.677,157.422 179.677,157.422L177.879,149.032L188.499,150.647Z" style="fill:rgb(156,83,70);fill-rule:nonzero;"/>
                </g>
                <g transform="matrix(-0.472116,0,0,0.810176,662.524,599.694)">
                    <path d="M186.089,132.227C186.089,132.227 177.769,128.772 175.493,129.24C173.216,129.708 174.628,130.734 172.298,132.265C169.967,133.795 166.139,136.042 168.006,140.138C169.873,144.234 174.582,149.969 174.582,149.969L186.279,132.891L186.089,132.227Z" style="fill:rgb(44,57,71);fill-rule:nonzero;"/>
                </g>
                <g transform="matrix(-0.472116,0,0,0.810176,662.524,599.694)">
                    <path d="M187.32,129.914C181.557,125.103 171.111,134.771 168.854,141.928C166.135,150.551 173.028,155.978 180.106,150.324C187.184,144.67 194.225,135.679 187.32,129.914Z" style="fill:rgb(54,67,87);fill-rule:nonzero;"/>
                </g>
                <g transform="matrix(-0.472116,0,0,0.810176,662.524,599.694)">
                    <path d="M188.063,130.44C182.301,125.63 171.736,135.037 169.479,142.194C166.759,150.817 173.991,156.265 181.069,150.611C188.147,144.957 194.969,136.206 188.063,130.44Z" style="fill:rgb(44,57,71);fill-rule:nonzero;"/>
                </g>
                <g transform="matrix(-0.472116,0,0,0.810176,662.524,599.694)">
                    <path d="M181.966,160.331C181.966,160.331 188.253,168.105 190.326,170.49C192.398,172.874 197.832,182.869 197.832,182.869C197.832,182.869 198.164,174.383 197.567,170.379C196.97,166.375 193.914,161.292 193.914,161.292L192.616,165.573L181.966,160.331Z" style="fill:white;fill-rule:nonzero;"/>
                </g>
                <g transform="matrix(-0.472116,0,0,0.810176,662.524,599.694)">
                    <path d="M190.312,150.48C190.312,150.48 192.571,151.824 195.35,156.605C197.888,160.971 199.371,161.765 199.371,161.765C199.371,161.765 196.744,162.113 195.643,163.704C194.684,165.088 193.563,168.075 193.563,168.075C193.563,168.075 191.231,165.858 191.284,163.963C192.817,159.72 188.456,152.892 188.456,152.892L190.312,150.48Z" style="fill:white;fill-rule:nonzero;"/>
                </g>
                <g transform="matrix(-0.472116,0,0,0.810176,662.524,599.694)">
                    <path d="M184.009,159.277C184.009,159.277 189.752,162.943 191.054,163.48C192.356,164.017 193.563,168.075 193.563,168.075C193.563,168.075 190.974,166.551 189.599,166.836C187.625,167.245 185.588,170.49 185.588,170.49C185.588,170.49 183.645,165.66 180.429,163.639C177.819,161.998 175.209,159.826 175.587,158.07C176.626,156.474 177.489,155.533 179.151,154.971C179.308,156.474 181.297,157.816 184.009,159.277Z" style="fill:white;fill-rule:nonzero;"/>
                </g>
                <g transform="matrix(-0.472116,0,0,0.810176,662.524,599.694)">
                    <path d="M191.457,166.525C191.457,166.525 192.116,165.485 193.914,165.121C195.711,164.756 195.121,168.517 195.121,168.517C195.121,168.517 197.044,169.938 197.746,172.028C198.448,174.118 197.832,182.869 197.832,182.869C197.832,182.869 194.758,177.325 193.563,175.373C192.368,173.421 191.518,172.11 191.518,172.11L193.297,168.999C193.297,168.999 190.424,167.559 191.457,166.525Z" style="fill:rgb(235,72,73);fill-rule:nonzero;"/>
                </g>
                <g transform="matrix(-0.472116,0,0,0.810176,662.524,599.694)">
                    <path d="M173.786,143.02C173.804,139.858 181.834,135.765 185.019,136.236C189.818,136.946 191.668,142.826 192.441,147.221C193.253,151.842 191.341,158.205 184.284,156.036C178.56,154.276 173.753,149.18 173.786,143.02Z" style="fill:rgb(173,100,83);fill-rule:nonzero;"/>
                </g>
                <g transform="matrix(-0.472116,0,0,0.810176,662.524,599.694)">
                    <path d="M172.783,141.731C172.055,140.036 172.641,138.031 174.047,136.637C175.339,135.356 177.113,134.827 178.841,134.472C180.378,134.157 181.031,134.317 182.27,133.263C183.597,132.134 183.22,131.673 183.739,130.183C185.343,125.584 190.425,129.516 190.37,133.542C190.852,133.336 191.383,133.319 191.941,133.669C193.247,134.491 192.947,136.23 192.234,137.314C191.048,139.119 188.968,140.421 186.804,140.8C186.031,144.529 181.829,144.799 180.3,144.207C180.909,146.894 179.391,151.579 177.354,153.434C176.091,152.012 171.913,150.371 171.16,146.389C170.875,144.882 171.433,142.679 172.783,141.731Z" style="fill:rgb(44,28,27);fill-rule:nonzero;"/>
                </g>
                <g transform="matrix(-0.472116,0,0,0.810176,662.524,599.694)">
                    <path d="M180.585,147.794C180.585,147.794 178.441,146.07 177.704,148.066C177.056,149.821 177.876,151.722 180.112,151.564C182.077,151.427 180.585,147.794 180.585,147.794Z" style="fill:rgb(173,100,83);fill-rule:nonzero;"/>
                </g>
                <g transform="matrix(0.666659,0,0,1.11739,529.165,650.522)">
                    <path d="M47.147,79.834C47.212,80.021 47.276,80.218 47.34,80.424C48.342,83.669 48.142,87.401 47.234,91.837C46.576,95.051 45.32,98.189 45.41,99.251C45.525,100.598 46.65,99.936 48.185,95.989C49.957,91.431 53.572,74.045 55.094,68.27C55.727,65.868 56.531,63.719 57.637,62.742C58.876,61.65 60.596,61.941 62.109,62.439C63.374,62.856 64.611,63.571 65.613,64.242C65.595,64.334 65.571,64.43 65.534,64.53L65.512,64.579C65.473,64.681 65.428,64.779 65.381,64.873C63.823,64.273 61.854,63.606 60.587,63.606C60.433,63.606 60.29,63.615 60.159,63.636C58.694,63.872 57.516,66.903 56.6,72.444C55.88,76.799 54.428,85.348 52.808,92.932C52.534,94.209 52.257,95.459 51.977,96.656C51.805,97.392 51.632,98.109 51.459,98.801C50.408,103.004 47.578,105.401 45.069,105.83C44.824,105.872 44.588,105.891 44.364,105.891C41.688,105.892 40.473,103.071 40.316,100.91C40.29,100.556 40.278,100.203 40.278,99.852C40.277,95.781 41.86,91.833 41.859,88.568C41.859,88.409 41.856,88.251 41.848,88.095C41.636,83.943 39.207,81.661 39.207,81.661L45.122,76.235C45.122,76.235 46.188,77.058 47.147,79.834Z" style="fill:rgb(252,180,20);fill-rule:nonzero;"/>
                </g>
                <g transform="matrix(-0.472116,0,0,0.810176,662.524,599.694)">
                    <path d="M220.261,174.098C222.974,177.729 226.537,179.653 228.222,178.396C229.906,177.138 229.073,173.174 226.361,169.542C223.649,165.911 220.085,163.986 218.4,165.244C216.716,166.502 217.549,170.466 220.261,174.098Z" style="fill:rgb(255,211,81);fill-rule:nonzero;"/>
                </g>
                <g transform="matrix(-0.472116,0,0,0.810176,662.524,599.694)">
                    <path d="M221.296,173.325C223.088,175.724 225.442,176.994 226.556,176.164C227.668,175.333 227.117,172.714 225.326,170.315C223.535,167.917 221.18,166.646 220.067,167.477C218.955,168.307 219.505,170.926 221.296,173.325Z" style="fill:rgb(250,162,26);fill-rule:nonzero;"/>
                </g>
                <g transform="matrix(-0.472116,0,0,0.810176,662.524,599.694)">
                    <path d="M195.121,178.563C192.616,177.472 184.374,180.279 181.098,182.012C180.545,179.241 180.192,178.228 178.868,175.739C179.472,172.956 178.98,169.763 177.993,167.26C177.337,165.599 174.04,161.965 172.283,161.292C169.22,162.849 167.034,164.617 166.04,168.677C165.011,172.876 165.782,173.801 168.248,177.913C170.461,181.607 170.461,181.607 171.912,187.482C172.531,189.995 173.824,191.445 176.458,194.227C177.38,195.199 184.51,194.133 187.291,193.011C193.224,190.615 196.4,188.045 197.348,185.302C198.203,182.825 196.364,179.104 195.121,178.563Z" style="fill:white;fill-rule:nonzero;"/>
                </g>
                <g transform="matrix(-0.472116,0,0,0.810176,662.524,599.694)">
                    <path d="M196.073,185.942C196.073,185.942 198.809,184.675 199.38,183.915C199.97,183.132 199.871,182.091 199.217,180.305C198.563,178.519 197.58,178.563 197.58,178.563C197.58,178.563 194.326,178.617 193.654,179.359C193.044,180.853 192.864,184.516 196.073,185.942Z" style="fill:rgb(221,205,205);fill-rule:nonzero;"/>
                </g>
                <g transform="matrix(-0.472116,0,0,0.810176,662.524,599.694)">
                    <path d="M210.553,179.76C210.876,179.563 211.296,179.433 210.666,178.415C210.034,177.397 209.578,176.731 208.194,176.16C206.81,175.589 204.897,175.216 202.78,176.32C202.081,176.685 201.214,177.094 200.367,177.478C198.652,178.256 197.018,178.932 197.018,178.932C195.729,180.896 197.077,183.517 197.909,184.311C198.872,184.09 199.457,183.4 200.843,182.946C201.754,182.647 202.365,183.099 203.723,182.756C204.129,182.653 205.852,181.96 207.396,181.63C208.293,181.438 209.439,181.508 210.01,181.371C210.492,181.255 210.477,180.947 210.443,180.675C210.753,180.58 210.951,179.915 210.553,179.76Z" style="fill:rgb(173,100,83);fill-rule:nonzero;"/>
                </g>
                <g transform="matrix(-0.472116,0,0,0.810176,662.524,599.694)">
                    <path d="M215.303,186.935C215.303,186.935 212.793,189.391 210.992,192.958C209.191,196.526 210.134,198.082 212.322,198.678C214.509,199.274 216.997,194.085 216.997,194.085C216.997,194.085 215.771,190.477 215.303,186.935Z" style="fill:rgb(173,100,83);fill-rule:nonzero;"/>
                </g>
                <g transform="matrix(-0.472116,0,0,0.810176,662.524,599.694)">
                    <path d="M199.75,188.068C199.898,188.782 199.614,189.445 199.115,189.549C198.616,189.652 198.091,189.157 197.943,188.442C197.795,187.729 198.08,187.065 198.579,186.962C199.078,186.858 199.603,187.354 199.75,188.068Z" style="fill:white;fill-rule:nonzero;"/>
                </g>
                <g transform="matrix(-0.472116,0,0,0.810176,662.524,599.694)">
                    <path d="M200.674,195.764C200.822,196.478 200.537,197.141 200.038,197.244C199.539,197.348 199.014,196.852 198.866,196.138C198.718,195.423 199.003,194.76 199.502,194.656C200.001,194.554 200.525,195.049 200.674,195.764Z" style="fill:white;fill-rule:nonzero;"/>
                </g>
            </g>
        </g>
    </g>
</svg>
