<?xml version="1.0" encoding="UTF-8" standalone="no"?>
<!DOCTYPE svg PUBLIC "-//W3C//DTD SVG 1.1//EN" "http://www.w3.org/Graphics/SVG/1.1/DTD/svg11.dtd">
<svg width="100%" height="100%" viewBox="0 0 70 161" version="1.1" xmlns="http://www.w3.org/2000/svg" xmlnsXlink="http://www.w3.org/1999/xlink" xmlSpace="preserve" xmlnsSerif="http://www.serif.com/" style="fill-rule:evenodd;clip-rule:evenodd;stroke-linejoin:round;stroke-miterlimit:2;">
    <g transform="matrix(-1.67611,0,0,1,352.734,-1472.73)">
        <g>
            <g id="Personnel-BU">
                <g transform="matrix(0.264817,0,0,0.443863,-138.718,1186.25)">
                    <path d="M1247.01,882.035C1247.01,882.035 1242.27,933.105 1244.13,953.442C1236.83,954.106 1231.65,952.545 1228.55,951.095C1229.56,941.301 1230.49,926.064 1228.1,915.557C1224.31,898.919 1223.56,887.331 1226.83,880.019L1228.35,827.081C1228.35,827.081 1219.27,875.472 1216.25,886.827C1213.83,895.933 1200.71,937.504 1195.09,957.608C1193.71,962.548 1192.79,966.185 1192.58,967.733C1191.55,975.549 1198.6,1007.56 1184.99,1007.56C1171.39,1007.56 1170.88,977.061 1175.16,967.23C1179,958.406 1179.61,961.958 1181.33,953.872C1181.52,952.951 1181.73,951.869 1181.97,950.591C1184.24,938.241 1183.23,905.468 1188.53,892.615C1193.81,879.761 1196.09,879.257 1196.83,873.457C1197.6,867.669 1185.63,800.87 1198.67,786.751C1198.67,786.751 1228.65,796.79 1252.29,780.951C1252.29,780.951 1255.82,851.78 1247.01,882.035Z" style="fill:rgb(60,60,59);fill-rule:nonzero;"/>
                </g>
                <g transform="matrix(0.264817,0,0,0.443863,-138.718,1186.25)">
                    <path d="M1260.05,972.895C1258.64,974.025 1256.79,974.676 1254.36,974.664C1239.57,974.565 1227.35,960.68 1227.35,960.68C1227.35,960.68 1227.96,956.809 1228.55,951.095C1231.65,952.545 1236.83,954.106 1244.13,953.442C1244.39,956.109 1244.75,958.247 1245.24,959.672C1247.45,966.025 1254.12,970.044 1260.05,972.895Z" style="fill:rgb(251,195,177);fill-rule:nonzero;"/>
                </g>
                <g transform="matrix(0.264817,0,0,0.443863,-138.718,1186.25)">
                    <path d="M1270.44,978.83C1270.2,982.099 1263.89,986.142 1252.55,983.106C1241.21,980.084 1225.32,972.526 1225.07,968.495C1224.82,964.452 1227.35,960.68 1227.35,960.68C1227.35,960.68 1239.57,974.565 1254.36,974.664C1256.79,974.676 1258.64,974.025 1260.05,972.895C1265.65,975.586 1270.56,977.232 1270.44,978.83Z" style="fill:rgb(35,53,109);fill-rule:nonzero;"/>
                </g>
                <g transform="matrix(0.264817,0,0,0.443863,-138.718,1186.25)">
                    <path d="M1193.07,979.911C1193.92,991.979 1194.49,1007.56 1184.99,1007.56C1171.39,1007.56 1170.88,977.061 1175.16,967.23C1176.18,964.87 1176.98,963.396 1177.63,962.351C1179.41,959.476 1180.06,959.795 1181.33,953.872C1183.72,955.838 1188.04,958.063 1195.09,957.608C1193.71,962.548 1192.79,966.185 1192.58,967.733C1192.28,970.093 1192.69,974.676 1193.07,979.911Z" style="fill:rgb(251,195,177);fill-rule:nonzero;"/>
                </g>
                <g transform="matrix(0.264817,0,0,0.443863,-138.718,1186.25)">
                    <path d="M1184.99,1007.56C1171.39,1007.56 1170.88,977.061 1175.16,967.23C1176.18,964.87 1176.98,963.396 1177.63,962.351C1176.03,972.489 1173.63,995.591 1184.85,995.395C1184.85,995.395 1190.72,996.415 1193.07,979.911C1193.92,991.979 1194.49,1007.56 1184.99,1007.56Z" style="fill:rgb(35,53,109);fill-rule:nonzero;"/>
                </g>
                <g transform="matrix(0.264817,0,0,0.443863,-138.718,1186.25)">
                    <path d="M1291.43,774.364C1291.43,774.364 1288.49,776.49 1287.25,785.718C1287.01,785.583 1286.88,785.497 1286.88,785.497C1286.88,785.497 1258.42,774.511 1255.01,767.777C1251.59,761.031 1235.48,722.138 1233.28,717.198C1231.08,712.247 1235.47,703.866 1235.47,703.866C1238.1,702.354 1240.7,701.383 1244.56,705.377C1248.41,709.358 1262.15,753.892 1265.59,757.738C1269.02,761.584 1291.43,774.364 1291.43,774.364Z" style="fill:rgb(249,178,51);fill-rule:nonzero;"/>
                </g>
                <g transform="matrix(0.264817,0,0,0.443863,-138.718,1186.25)">
                    <path d="M1306.68,791.003C1297.67,791.617 1289.08,786.824 1287.25,785.718C1288.49,776.49 1291.43,774.364 1291.43,774.364C1291.43,774.364 1308.19,770.112 1310.53,771.488C1312.86,772.853 1305.72,778.075 1305.72,778.075C1305.72,778.075 1318.37,776.982 1318.5,778.075C1318.64,779.181 1316.86,790.314 1306.68,791.003Z" style="fill:rgb(251,195,177);fill-rule:nonzero;"/>
                </g>
                <g transform="matrix(0.264817,0,0,0.443863,-138.718,1186.25)">
                    <path d="M1252.99,824.992C1252.99,824.992 1242.34,801.005 1245.76,784.06C1245.76,784.06 1243.67,789.773 1228.44,789.589C1228.44,789.589 1230.85,769.019 1229.94,763.28C1229.02,757.541 1224.42,736.418 1215.02,726.316C1209.06,719.927 1203.93,709.469 1200.96,702.674C1202.91,701.359 1205.07,700.179 1207.5,699.171C1210.83,697.783 1214.52,697.119 1218.16,696.947C1228.05,696.505 1237.67,699.749 1239.48,702.391C1241.96,706.016 1250.52,724.473 1250.71,743.705C1250.9,762.936 1254.9,795.107 1258.13,798.916C1261.37,802.726 1252.99,824.992 1252.99,824.992Z" style="fill:rgb(249,178,51);fill-rule:nonzero;"/>
                </g>
                <g transform="matrix(0.264817,0,0,0.443863,-138.718,1186.25)">
                    <path d="M1228.44,789.589C1228.44,789.589 1220.63,822.706 1212.06,830.325C1203.5,837.944 1192.58,837.563 1192.58,837.563C1192.58,837.563 1185.98,809.951 1193.6,785.202C1201.21,760.454 1195.21,751.127 1189.93,747.133C1189.93,747.133 1179.89,729.241 1185.04,721.241C1189.13,714.864 1193.35,707.786 1200.96,702.674C1203.93,709.469 1209.06,719.927 1215.02,726.316C1224.42,736.418 1229.02,757.541 1229.94,763.28C1230.85,769.019 1228.44,789.589 1228.44,789.589Z" style="fill:rgb(57,108,133);fill-rule:nonzero;"/>
                </g>
                <g transform="matrix(0.264817,0,0,0.443863,-138.718,1186.25)">
                    <path d="M1252.99,824.992C1252.99,824.992 1241.35,802.367 1244.76,785.421C1244.76,785.421 1245.64,781.555 1243.56,774.659C1240,762.873 1237.52,744.897 1235.47,729.364C1233.96,717.961 1223.57,703.718 1218.16,696.947C1228.05,696.505 1237.67,699.749 1239.48,702.391C1241.96,706.016 1250.52,724.473 1250.71,743.705C1250.9,762.936 1254.9,795.107 1258.13,798.916C1261.37,802.726 1252.99,824.992 1252.99,824.992Z" style="fill:rgb(57,108,133);fill-rule:nonzero;"/>
                </g>
                <g transform="matrix(0.264817,0,0,0.443863,-138.718,1186.25)">
                    <path d="M1196.75,737.191C1192.88,746.433 1180.18,764.57 1181.28,769.645C1182.06,773.344 1188.72,797.699 1192.14,812.777C1187.86,811.622 1183.67,813.232 1181.63,814.227C1181.54,813.797 1181.41,813.453 1181.28,813.17C1180,810.639 1160.97,775.79 1162.96,765.553C1164.95,755.329 1176.77,735.373 1180.74,727.398C1183.06,722.74 1187.42,720.983 1190.65,720.332C1193.42,719.767 1196.32,721.118 1197.54,723.662C1199.01,726.71 1199.34,731.023 1196.75,737.191Z" style="fill:rgb(249,178,51);fill-rule:nonzero;"/>
                </g>
                <g transform="matrix(0.264817,0,0,0.443863,-138.718,1186.25)">
                    <path d="M1194.14,824.242C1193.79,829.674 1193.25,836.752 1186.71,837.477C1180.18,838.202 1177.64,834.393 1180,829.674C1182.1,825.483 1182.48,817.68 1181.63,814.227C1183.67,813.232 1187.86,811.622 1192.14,812.777C1193.42,818.418 1194.24,822.755 1194.14,824.242Z" style="fill:rgb(251,195,177);fill-rule:nonzero;"/>
                </g>
                <g transform="matrix(0.264817,0,0,0.443863,-138.718,1186.25)">
                    <path d="M1234.02,660.761C1235.65,664.847 1236.64,674.489 1232.88,684.786C1229.12,695.083 1227.48,699.169 1227.48,699.169C1227.48,699.169 1199.86,696.554 1202.8,674.489C1205.75,652.425 1234.02,660.761 1234.02,660.761Z" style="fill:rgb(251,195,177);fill-rule:nonzero;"/>
                </g>
                <g transform="matrix(0.264817,0,0,0.443863,-138.718,1186.25)">
                    <path d="M1222.59,693.735C1222.59,693.735 1219,702.083 1219.03,707.723C1219.03,707.723 1206.18,713.237 1202.57,701.638L1203.32,683.054L1222.59,693.735Z" style="fill:rgb(251,195,177);fill-rule:nonzero;"/>
                </g>
                <g transform="matrix(0.264817,0,0,0.443863,-138.718,1186.25)">
                    <path d="M1229.57,663.13C1229.57,663.13 1231.82,668.498 1235.47,668.972C1235.47,668.972 1240.54,650.279 1217.3,645.811L1229.57,663.13Z" style="fill:rgb(105,50,21);fill-rule:nonzero;"/>
                </g>
                <g transform="matrix(0.264817,0,0,0.443863,-138.718,1186.25)">
                    <path d="M1230.43,659.186C1231.54,661.98 1231.42,665.136 1229.99,667.779C1228.78,670.01 1226.83,672.725 1223.72,675.211C1216.84,680.721 1207.45,693.289 1208.92,703.447C1208.92,703.447 1185.85,684.078 1194.54,662.471C1203.24,640.864 1217.15,644.91 1222.59,647.665C1226.06,649.425 1228.86,655.226 1230.43,659.186Z" style="fill:rgb(82,38,14);fill-rule:nonzero;"/>
                </g>
            </g>
        </g>
    </g>
</svg>
