<?xml version="1.0" encoding="UTF-8" standalone="no"?>
<!DOCTYPE svg PUBLIC "-//W3C//DTD SVG 1.1//EN" "http://www.w3.org/Graphics/SVG/1.1/DTD/svg11.dtd">
<svg width="100%" height="100%" viewBox="0 0 5145 3006" version="1.1" xmlns="http://www.w3.org/2000/svg" xmlnsXlink="http://www.w3.org/1999/xlink" xmlSpace="preserve" xmlnsSerif="http://www.serif.com/" style="fill-rule:evenodd;clip-rule:evenodd;stroke-linecap:round;stroke-linejoin:round;stroke-miterlimit:1.5;">
    <g transform="matrix(1,0,0,1,-8460.33,-130.326)">
        <g transform="matrix(1.67611,0,0,1,8674.56,0)">
            <g transform="matrix(-0.0309955,-0.0299944,12.0361,-11.6474,-27699.9,30018.6)">
                <rect x="3897.79" y="2301.14" width="27.489" height="254.435" style="fill:rgb(204,204,204);stroke:white;stroke-opacity:0;stroke-width:0.59px;stroke-dasharray:1.77,2.36,0,0;"/>
            </g>
            <g transform="matrix(0.265274,-0.256707,-2.83053e-18,0.884163,471.35,479.859)">
                <rect x="3897.79" y="2301.14" width="27.489" height="254.435" style="fill:rgb(139,139,139);stroke:white;stroke-opacity:0;stroke-width:17.83px;stroke-dasharray:53.48,71.31,0,0;"/>
            </g>
            <g transform="matrix(0.265274,-0.256707,-2.83053e-18,0.884163,950.946,15.7521)">
                <rect x="3897.79" y="2301.14" width="27.489" height="254.435" style="fill:rgb(139,139,139);stroke:white;stroke-opacity:0;stroke-width:17.83px;stroke-dasharray:53.48,71.31,0,0;"/>
            </g>
            <g transform="matrix(0.265274,-0.256707,-2.83053e-18,0.884163,1430.54,-448.355)">
                <rect x="3897.79" y="2301.14" width="27.489" height="254.435" style="fill:rgb(139,139,139);stroke:white;stroke-opacity:0;stroke-width:17.83px;stroke-dasharray:53.48,71.31,0,0;"/>
            </g>
            <g transform="matrix(0.265274,-0.256707,-2.83053e-18,0.884163,-8.24552,943.966)">
                <rect x="3897.79" y="2301.14" width="27.489" height="254.435" style="fill:rgb(139,139,139);stroke:white;stroke-opacity:0;stroke-width:17.83px;stroke-dasharray:53.48,71.31,0,0;"/>
            </g>
            <g transform="matrix(0.151748,-0.440542,0.169298,4.95053e-17,4.12738,3723.26)">
                <rect x="3897.79" y="2301.14" width="27.489" height="254.435" style="fill:rgb(139,139,139);stroke:white;stroke-opacity:0;stroke-width:19.71px;stroke-dasharray:59.14,78.86,0,0;"/>
            </g>
            <g transform="matrix(0.151748,-0.440542,0.169298,4.95053e-17,-475.265,4187.17)">
                <rect x="3897.79" y="2301.14" width="27.489" height="254.435" style="fill:rgb(139,139,139);stroke:white;stroke-opacity:0;stroke-width:19.71px;stroke-dasharray:59.14,78.86,0,0;"/>
            </g>
            <g transform="matrix(0.151748,-0.440542,0.169298,4.95053e-17,-955.98,4652.36)">
                <rect x="3897.79" y="2301.14" width="27.489" height="254.435" style="fill:rgb(139,139,139);stroke:white;stroke-opacity:0;stroke-width:19.71px;stroke-dasharray:59.14,78.86,0,0;"/>
            </g>
            <g transform="matrix(0.151748,-0.440542,0.169298,4.95053e-17,483.049,3272.03)">
                <rect x="3897.79" y="2301.14" width="27.489" height="254.435" style="fill:rgb(139,139,139);stroke:white;stroke-opacity:0;stroke-width:19.71px;stroke-dasharray:59.14,78.86,0,0;"/>
            </g>
            <g transform="matrix(0.151748,-0.440542,0.169298,4.95053e-17,964.269,2806.35)">
                <rect x="3897.79" y="2301.14" width="27.489" height="254.435" style="fill:rgb(139,139,139);stroke:white;stroke-opacity:0;stroke-width:19.71px;stroke-dasharray:59.14,78.86,0,0;"/>
            </g>
            <g transform="matrix(0.151748,-0.440542,0.169298,4.95053e-17,1441.03,2344.99)">
                <rect x="3897.79" y="2301.14" width="27.489" height="254.435" style="fill:rgb(139,139,139);stroke:white;stroke-opacity:0;stroke-width:19.71px;stroke-dasharray:59.14,78.86,0,0;"/>
            </g>
            <g transform="matrix(0.265274,-0.256707,-2.83053e-18,0.884163,-487.841,1408.07)">
                <rect x="3897.79" y="2301.14" width="27.489" height="254.435" style="fill:rgb(139,139,139);stroke:white;stroke-opacity:0;stroke-width:17.83px;stroke-dasharray:53.48,71.31,0,0;"/>
            </g>
            <g transform="matrix(0.265274,-0.256707,-2.83053e-18,0.884163,-967.437,1872.18)">
                <rect x="3897.79" y="2301.14" width="27.489" height="254.435" style="fill:rgb(139,139,139);stroke:white;stroke-opacity:0;stroke-width:17.83px;stroke-dasharray:53.48,71.31,0,0;"/>
            </g>
        </g>
    </g>
</svg>
