<?xml version="1.0" encoding="UTF-8" standalone="no"?>
<!DOCTYPE svg PUBLIC "-//W3C//DTD SVG 1.1//EN" "http://www.w3.org/Graphics/SVG/1.1/DTD/svg11.dtd">
<svg width="100%" height="100%" viewBox="0 0 698 496" version="1.1" xmlns="http://www.w3.org/2000/svg" xmlns:xlink="http://www.w3.org/1999/xlink" xml:space="preserve" xmlns:serif="http://www.serif.com/" style="fill-rule:evenodd;clip-rule:evenodd;stroke-linejoin:round;stroke-miterlimit:2;">
    <g transform="matrix(1,0,0,1,-2704.59,-1187.43)">
        <g transform="matrix(1.67611,0,0,1,235.393,0)">
            <g transform="matrix(-1,0,0,1,1853.58,675.149)">
                <g transform="matrix(2.48591,0,0,4.16667,-140.44,0)">
                    <path d="M68.067,125.164L64.227,122.947L63.444,123.58L62.863,125.099L65.321,132.314L66.382,145.335L71.333,149.063L111.958,172.517L108.692,148.618L68.067,125.164Z" style="fill:rgb(250,199,39);fill-rule:nonzero;"/>
                </g>
                <g transform="matrix(2.48591,0,0,4.16667,-140.44,0)">
                    <path d="M111.958,167.431L111.958,172.517L71.333,149.063L71.333,143.977L111.958,167.431Z" style="fill:rgb(249,156,41);fill-rule:nonzero;"/>
                </g>
                <g transform="matrix(2.48591,0,0,4.16667,-140.44,0)">
                    <path d="M71.333,143.977L65.985,140.466L66.308,144.424L71.333,147.905L71.333,143.977Z" style="fill:rgb(249,156,41);fill-rule:nonzero;"/>
                </g>
                <g transform="matrix(2.48591,0,0,4.16667,-140.44,0)">
                    <path d="M108.692,149.704L63.444,123.58L64.227,122.947L108.692,148.618L108.692,149.704Z" style="fill:rgb(36,181,119);fill-rule:nonzero;"/>
                </g>
                <g transform="matrix(2.48591,0,0,4.16667,-140.44,0)">
                    <path d="M71.333,147.905L111.958,171.359L111.958,172.517L71.333,149.063L71.333,147.905Z" style="fill:rgb(42,35,29);fill-rule:nonzero;"/>
                </g>
                <g transform="matrix(2.48591,0,0,4.16667,-140.44,0)">
                    <path d="M71.333,147.905L66.308,144.424L66.382,145.335L71.333,149.063L71.333,147.905Z" style="fill:rgb(42,35,29);fill-rule:nonzero;"/>
                </g>
                <g transform="matrix(2.48591,0,0,4.16667,-140.44,0)">
                    <path d="M50.929,135.058L47.089,132.841L46.306,133.474L45.725,134.994L42.207,145.659L42.448,154.056L43.269,158.679L48.22,162.408L88.421,184.948L88.421,181.02L91.554,158.513L50.929,135.058Z" style="fill:rgb(169,172,171);fill-rule:nonzero;"/>
                </g>
                <g transform="matrix(2.48591,0,0,4.16667,-140.44,0)">
                    <path d="M88.421,181.02L88.421,185.402L47.797,161.947L47.797,157.566L88.421,181.02Z" style="fill:rgb(173,36,0);fill-rule:nonzero;"/>
                </g>
                <g transform="matrix(2.48591,0,0,4.16667,-140.44,0)">
                    <path d="M47.797,161.494L88.421,184.948L88.421,185.696L47.797,162.242L47.797,161.494Z" style="fill:rgb(42,35,29);fill-rule:nonzero;"/>
                </g>
                <g transform="matrix(2.48591,0,0,4.16667,-140.44,0)">
                    <path d="M47.797,157.566L42.448,154.056L42.771,158.013L47.797,161.494L47.797,157.566Z" style="fill:rgb(173,38,2);fill-rule:nonzero;"/>
                </g>
                <g transform="matrix(2.48591,0,0,4.16667,-140.44,0)">
                    <path d="M88.845,179.194L45.896,154.398L44.982,147.774L48.605,136.657L91.554,161.454L88.845,179.194Z" style="fill:rgb(42,35,29);fill-rule:nonzero;"/>
                </g>
                <g transform="matrix(2.48591,0,0,4.16667,-140.44,0)">
                    <path d="M85.365,176.353L65.415,164.835C64.619,164.376 63.975,164.863 63.975,165.923L63.975,169.265L86.805,182.446L86.805,179.104C86.805,178.045 86.161,176.812 85.365,176.353Z" style="fill:rgb(169,172,171);fill-rule:nonzero;"/>
                </g>
                <g transform="matrix(2.48591,0,0,4.16667,-140.44,0)">
                    <path d="M85.365,177.937L64.345,165.801C63.903,165.546 63.507,165.584 63.243,165.849C63.146,165.946 62.507,166.46 62.45,166.614C62.382,166.797 62.905,166.634 62.905,166.889L62.905,170.478L86.088,184.566L86.805,183.134L86.805,180.688C86.805,179.628 86.161,178.396 85.365,177.937Z" style="fill:rgb(189,80,51);fill-rule:nonzero;"/>
                </g>
                <g transform="matrix(2.48591,0,0,4.16667,-140.44,0)">
                    <path d="M84.648,178.914L63.628,166.778C62.833,166.319 62.188,166.806 62.188,167.866L62.197,172.225L85.31,184.881L86.088,184.566L86.088,181.665C86.088,180.604 85.443,179.373 84.648,178.914Z" style="fill:rgb(189,80,51);fill-rule:nonzero;"/>
                </g>
                <g transform="matrix(2.48591,0,0,4.16667,-140.44,0)">
                    <path d="M83.788,179.396L63.581,167.729C62.817,167.288 62.197,167.756 62.197,168.776L62.197,172.225L85.172,184.802L85.172,182.041C85.172,181.021 84.553,179.837 83.788,179.396Z" style="fill:rgb(159,0,0);fill-rule:nonzero;"/>
                </g>
                <g transform="matrix(2.48591,0,0,4.16667,-140.44,0)">
                    <path d="M47.413,153.376L49.184,154.398L51.159,140.986L49.37,139.954L46.641,148.296L47.413,153.376Z" style="fill:rgb(51,60,67);fill-rule:nonzero;"/>
                </g>
                <g transform="matrix(2.48591,0,0,4.16667,-140.44,0)">
                    <path d="M91.554,159.598L46.306,133.474L47.089,132.841L91.554,158.513L91.554,159.598Z" style="fill:rgb(189,80,51);fill-rule:nonzero;"/>
                </g>
                <g transform="matrix(2.48591,0,0,4.16667,-140.44,0)">
                    <path d="M47.797,161.494L42.771,158.013L42.845,158.513L47.797,162.242L47.797,161.494Z" style="fill:rgb(42,35,29);fill-rule:nonzero;"/>
                </g>
                <g transform="matrix(2.48591,0,0,4.16667,-140.44,0)">
                    <path d="M108.692,148.618L91.554,158.513L47.089,132.841L64.227,122.947L108.692,148.618Z" style="fill:rgb(189,80,51);fill-rule:nonzero;"/>
                </g>
                <g transform="matrix(2.48591,0,0,4.16667,-140.44,0)">
                    <path d="M108.692,148.618L111.958,172.517L88.421,185.696L88.421,181.02L91.408,159.514L91.554,158.513L108.692,148.618Z" style="fill:rgb(169,172,171);fill-rule:nonzero;"/>
                </g>
                <g transform="matrix(2.48591,0,0,4.16667,-140.44,0)">
                    <path d="M116.142,154.962L110.281,151.577L110.281,150.078L116.142,153.462L116.142,154.962Z" style="fill:rgb(34,27,20);fill-rule:nonzero;"/>
                </g>
                <g transform="matrix(2.48591,0,0,4.16667,-140.44,0)">
                    <path d="M119.408,173.862L113.547,170.477L110.281,151.577L116.142,154.962L119.408,173.862Z" style="fill:rgb(22,12,8);fill-rule:nonzero;"/>
                </g>
                <g transform="matrix(2.48591,0,0,4.16667,-140.44,0)">
                    <path d="M162.627,181.799L156.767,178.416L156.767,176.917L162.627,180.3L162.627,181.799Z" style="fill:rgb(34,27,20);fill-rule:nonzero;"/>
                </g>
                <g transform="matrix(2.48591,0,0,4.16667,-140.44,0)">
                    <path d="M165.894,200.7L160.033,197.316L156.767,178.416L162.627,181.799L165.894,200.7Z" style="fill:rgb(22,12,8);fill-rule:nonzero;"/>
                </g>
                <g transform="matrix(2.48591,0,0,4.16667,-140.44,0)">
                    <path d="M95.5,189.126L89.639,185.742L89.639,183.364L95.5,186.748L95.5,189.126Z" style="fill-rule:nonzero;"/>
                </g>
                <g transform="matrix(2.48591,0,0,4.16667,-140.44,0)">
                    <path d="M98.209,164.397L92.348,161.013L92.348,159.514L98.209,162.898L98.209,164.397Z" style="fill:rgb(34,27,20);fill-rule:nonzero;"/>
                </g>
                <g transform="matrix(2.48591,0,0,4.16667,-140.44,0)">
                    <path d="M92.348,159.514L109.486,149.62L115.348,153.004L98.209,164.397L98.209,162.898L92.348,159.514Z" style="fill:rgb(34,27,20);fill-rule:nonzero;"/>
                </g>
                <g transform="matrix(2.48591,0,0,4.16667,-140.44,0)">
                    <path d="M95.5,186.748L89.639,183.364L92.348,161.013L98.209,164.397L95.5,186.748Z" style="fill:rgb(22,12,8);fill-rule:nonzero;"/>
                </g>
                <g transform="matrix(2.48591,0,0,4.16667,-140.44,0)">
                    <path d="M118.614,176.36L159.239,199.815L155.972,175.916L115.348,153.546L118.614,176.36Z" style="fill:rgb(250,199,39);fill-rule:nonzero;"/>
                </g>
                <g transform="matrix(2.48591,0,0,4.16667,-140.44,0)">
                    <path d="M159.239,194.729L159.239,199.815L118.614,176.36L118.614,171.274L159.239,194.729Z" style="fill:rgb(249,156,41);fill-rule:nonzero;"/>
                </g>
                <g transform="matrix(2.48591,0,0,4.16667,-140.44,0)">
                    <path d="M155.972,177.001L115.348,153.546L115.822,152.729L155.972,175.916L155.972,177.001Z" style="fill:rgb(36,181,119);fill-rule:nonzero;"/>
                </g>
                <g transform="matrix(2.48591,0,0,4.16667,-140.44,0)">
                    <path d="M118.614,175.781L112.753,172.397L112.753,170.019L118.614,173.403L118.614,175.781Z" style="fill-rule:nonzero;"/>
                </g>
                <g transform="matrix(2.48591,0,0,4.16667,-140.44,0)">
                    <path d="M118.614,175.202L159.239,198.656L159.239,199.815L118.614,176.36L118.614,175.202Z" style="fill:rgb(42,35,29);fill-rule:nonzero;"/>
                </g>
                <g transform="matrix(2.48591,0,0,4.16667,-140.44,0)">
                    <path d="M95.5,189.705L136.125,213.159L136.125,208.386L138.835,185.81L98.209,163.441L95.077,184.863L95.5,189.705Z" style="fill:rgb(169,172,171);fill-rule:nonzero;"/>
                </g>
                <g transform="matrix(2.48591,0,0,4.16667,-140.44,0)">
                    <path d="M136.336,206.613L111.115,192.052L104.629,188.307L95.5,183.037L98.209,165.296L138.835,188.751L136.336,206.613Z" style="fill:rgb(42,35,29);fill-rule:nonzero;"/>
                </g>
                <g transform="matrix(2.48591,0,0,4.16667,-140.44,0)">
                    <path d="M103.298,188.821L99.003,186.324L99.064,185.025L101.031,170.299L105.326,172.796L103.359,187.523L103.298,188.821Z" style="fill:rgb(51,60,67);fill-rule:nonzero;"/>
                </g>
                <g transform="matrix(2.48591,0,0,4.16667,-140.44,0)">
                    <path d="M108.821,192.098L104.527,189.601L104.587,188.302L106.554,173.576L110.849,176.074L108.882,190.8L108.821,192.098Z" style="fill:rgb(51,60,67);fill-rule:nonzero;"/>
                </g>
                <g transform="matrix(2.48591,0,0,4.16667,-140.44,0)">
                    <path d="M110.707,189.917L121.734,196.285L123.507,183.459L112.479,177.092L110.707,189.917Z" style="fill:rgb(51,60,67);fill-rule:nonzero;"/>
                </g>
                <g transform="matrix(2.48591,0,0,4.16667,-140.44,0)">
                    <path d="M111.562,180.568L123.431,187.44L123.431,187.962L111.562,181.089L111.562,180.568Z" style="fill:rgb(42,35,29);fill-rule:nonzero;"/>
                </g>
                <g transform="matrix(2.48591,0,0,4.16667,-140.44,0)">
                    <path d="M123.431,197.238L134.458,203.605L136.231,190.78L125.204,184.413L123.431,197.238Z" style="fill:rgb(51,60,67);fill-rule:nonzero;"/>
                </g>
                <g transform="matrix(2.48591,0,0,4.16667,-140.44,0)">
                    <path d="M124.286,187.888L136.155,194.761L136.155,195.283L124.286,188.411L124.286,187.888Z" style="fill:rgb(42,35,29);fill-rule:nonzero;"/>
                </g>
                <g transform="matrix(2.48591,0,0,4.16667,-140.44,0)">
                    <path d="M136.125,208.386L136.125,212.455L95.077,189.245L95.077,184.863L136.125,208.386Z" style="fill:rgb(159,0,0);fill-rule:nonzero;"/>
                </g>
                <g transform="matrix(2.48591,0,0,4.16667,-140.44,0)">
                    <path d="M138.834,186.895L98.209,163.441L98.684,162.624L138.834,185.81L138.834,186.895Z" style="fill:rgb(189,80,51);fill-rule:nonzero;"/>
                </g>
                <g transform="matrix(2.48591,0,0,4.16667,-140.44,0)">
                    <path d="M103.913,189.927L103.896,189.917L103.828,187.992L103.847,187.856L103.851,187.858L103.913,189.927Z" style="fill:rgb(110,114,114);fill-rule:nonzero;"/>
                </g>
                <g transform="matrix(2.48591,0,0,4.16667,-140.44,0)">
                    <path d="M103.851,187.858L103.847,187.856L103.85,187.83L103.851,187.858Z" style="fill:rgb(24,17,13);fill-rule:nonzero;"/>
                </g>
                <g transform="matrix(2.48591,0,0,4.16667,-140.44,0)">
                    <path d="M98.707,186.943L98.373,186.752L98.305,184.656L98.638,184.849L98.707,186.943Z" style="fill:rgb(110,114,114);fill-rule:nonzero;"/>
                </g>
                <g transform="matrix(2.48591,0,0,4.16667,-140.44,0)">
                    <path d="M98.638,184.849L98.305,184.656L98.296,184.363L100.465,168.801L106.227,172.387L105.998,172.251L105.852,173.308L105.95,172.601L100.721,169.346L98.623,184.38L98.638,184.849Z" style="fill:rgb(24,17,13);fill-rule:nonzero;"/>
                </g>
                <g transform="matrix(2.48591,0,0,4.16667,-140.44,0)">
                    <path d="M104.011,193.211L98.479,190.017L98.373,186.752L98.707,186.943L98.801,189.825L103.998,192.825L103.896,189.917L103.913,189.927L104.011,193.211Z" style="fill:rgb(150,88,33);fill-rule:nonzero;"/>
                </g>
                <g transform="matrix(2.48591,0,0,4.16667,-140.44,0)">
                    <path d="M104.177,187.845L104.177,187.84L106.256,172.784L104.177,187.845Z" style="fill:rgb(24,17,13);fill-rule:nonzero;"/>
                </g>
                <g transform="matrix(2.48591,0,0,4.16667,-140.44,0)">
                    <path d="M109.768,193.282L109.435,193.091L109.381,191.451L109.43,191.079L109.736,191.256L109.709,191.467L109.768,193.282Z" style="fill:rgb(110,114,114);fill-rule:nonzero;"/>
                </g>
                <g transform="matrix(2.48591,0,0,4.16667,-140.44,0)">
                    <path d="M109.736,191.256L109.43,191.079L111.43,175.83L106.256,172.784L106.304,172.434L106.227,172.387L111.784,175.657L109.736,191.256Z" style="fill:rgb(24,17,13);fill-rule:nonzero;"/>
                </g>
                <g transform="matrix(2.48591,0,0,4.16667,-140.44,0)">
                    <path d="M104.246,190.117L104.23,190.108L104.156,188.034L104.184,188.05L104.246,190.117Z" style="fill:rgb(110,114,114);fill-rule:nonzero;"/>
                </g>
                <g transform="matrix(2.48591,0,0,4.16667,-140.44,0)">
                    <path d="M104.184,188.05L104.156,188.034L104.155,188.009L104.177,187.845L104.184,188.05Z" style="fill:rgb(24,17,13);fill-rule:nonzero;"/>
                </g>
                <g transform="matrix(2.48591,0,0,4.16667,-140.44,0)">
                    <path d="M109.877,196.598L104.011,193.212L104.011,193.211L104.347,193.405L104.23,190.108L104.246,190.117L104.334,193.018L109.53,196.018L109.435,193.091L109.768,193.282L109.877,196.598Z" style="fill:rgb(150,88,33);fill-rule:nonzero;"/>
                </g>
                <g transform="matrix(2.48591,0,0,4.16667,-140.44,0)">
                    <path d="M103.85,187.83L103.85,187.823L105.852,173.308L103.85,187.83Z" style="fill:rgb(24,17,13);fill-rule:nonzero;"/>
                </g>
                <g transform="matrix(2.48591,0,0,4.16667,-140.44,0)">
                    <path d="M104.23,190.108L103.913,189.927L103.851,187.858L104.156,188.034L104.23,190.108Z" style="fill:rgb(73,76,76);fill-rule:nonzero;"/>
                </g>
                <g transform="matrix(2.48591,0,0,4.16667,-140.44,0)">
                    <path d="M104.156,188.034L103.851,187.858L103.85,187.83L105.852,173.308L105.998,172.251L106.227,172.387L106.304,172.434L106.256,172.784L104.177,187.84L104.177,187.845L104.155,188.009L104.156,188.034Z" style="fill:rgb(7,4,7);fill-rule:nonzero;"/>
                </g>
                <g transform="matrix(2.48591,0,0,4.16667,-140.44,0)">
                    <path d="M104.347,193.405L104.011,193.211L103.913,189.927L104.23,190.108L104.347,193.405Z" style="fill:rgb(96,56,15);fill-rule:nonzero;"/>
                </g>
                <g transform="matrix(2.48591,0,0,4.16667,-140.44,0)">
                    <path d="M95.077,188.791L136.125,212.411L136.125,213.159L95.077,189.539L95.077,188.791Z" style="fill:rgb(42,35,29);fill-rule:nonzero;"/>
                </g>
                <g transform="matrix(2.48591,0,0,4.16667,-140.44,0)">
                    <path d="M115.822,152.729L98.684,162.624L138.834,185.81L155.972,175.916L115.822,152.729Z" style="fill:rgb(189,80,51);fill-rule:nonzero;"/>
                </g>
                <g transform="matrix(2.48591,0,0,4.16667,-140.44,0)">
                    <path d="M155.972,175.916L159.239,199.815L136.125,213.159L136.125,208.386L138.688,186.811L138.834,185.81L155.972,175.916Z" style="fill:rgb(169,172,171);fill-rule:nonzero;"/>
                </g>
                <g transform="matrix(2.48591,0,0,4.16667,-140.44,0)">
                    <path d="M142.78,216.422L136.919,213.039L136.919,210.661L142.78,214.045L142.78,216.422Z" style="fill-rule:nonzero;"/>
                </g>
                <g transform="matrix(2.48591,0,0,4.16667,-140.44,0)">
                    <path d="M142.78,214.045L136.919,210.661L139.628,188.31L145.49,191.695L142.78,214.045Z" style="fill:rgb(22,12,8);fill-rule:nonzero;"/>
                </g>
                <g transform="matrix(2.48591,0,0,4.16667,-140.44,0)">
                    <path d="M145.49,191.695L139.628,188.31L139.628,186.811L145.49,190.195L145.49,191.695Z" style="fill:rgb(34,27,20);fill-rule:nonzero;"/>
                </g>
                <g transform="matrix(2.48591,0,0,4.16667,-140.44,0)">
                    <path d="M139.628,186.811L156.767,176.917L162.627,180.3L145.49,191.695L145.49,190.195L139.628,186.811Z" style="fill:rgb(34,27,20);fill-rule:nonzero;"/>
                </g>
                <g transform="matrix(2.48591,0,0,4.16667,-140.44,0)">
                    <path d="M193.626,241.828C193.626,241.828 198.698,242.15 201.67,240.471C204.642,238.794 207.377,236.033 207.377,236.033L209.318,232.559L201.547,237.536L195.622,240.471L193.626,241.828Z" style="fill:rgb(185,89,38);fill-rule:nonzero;"/>
                </g>
                <g transform="matrix(2.48591,0,0,4.16667,-140.44,0)">
                    <path d="M195.622,240.471L197.745,240.222C202.204,239.39 207.233,236.088 209.318,232.559L209.521,230.826L194.632,237.879L195.622,240.471Z" style="fill:rgb(169,172,171);fill-rule:nonzero;"/>
                </g>
                <g transform="matrix(2.48591,0,0,4.16667,-140.44,0)">
                    <path d="M201.087,217.308L165.894,196.99L162.627,182.699L193.626,200.595L201.087,216.033L201.087,217.308Z" style="fill:rgb(42,35,29);fill-rule:nonzero;"/>
                </g>
                <g transform="matrix(2.48591,0,0,4.16667,-140.44,0)">
                    <path d="M190.219,210.439L170.269,198.921C169.473,198.462 168.829,198.949 168.829,200.009L168.829,203.351L191.659,216.533L191.659,213.19C191.659,212.13 191.015,210.898 190.219,210.439Z" style="fill:rgb(250,199,39);fill-rule:nonzero;"/>
                </g>
                <g transform="matrix(2.48591,0,0,4.16667,-140.44,0)">
                    <path d="M205.168,226.268C205.168,226.268 203.025,208.747 197.82,203.771L193.626,200.595L201.087,216.033L205.168,226.268Z" style="fill:rgb(42,35,29);fill-rule:nonzero;"/>
                </g>
                <g transform="matrix(2.48591,0,0,4.16667,-140.44,0)">
                    <path d="M181.166,204.039L192.194,210.405L188.928,201.072L177.9,194.705L181.166,204.039Z" style="fill:rgb(70,79,85);fill-rule:nonzero;"/>
                </g>
                <g transform="matrix(2.48591,0,0,4.16667,-140.44,0)">
                    <path d="M181.166,196.341L192.194,202.709L192.194,203.23L181.166,196.863L181.166,196.341Z" style="fill:rgb(42,35,29);fill-rule:nonzero;"/>
                </g>
                <g transform="matrix(2.48591,0,0,4.16667,-140.44,0)">
                    <path d="M167.827,196.337L178.854,202.704L175.588,193.37L164.561,187.004L167.827,196.337Z" style="fill:rgb(70,79,85);fill-rule:nonzero;"/>
                </g>
                <g transform="matrix(2.48591,0,0,4.16667,-140.44,0)">
                    <path d="M167.827,188.64L178.854,195.006L178.854,195.529L167.827,189.162L167.827,188.64Z" style="fill:rgb(42,35,29);fill-rule:nonzero;"/>
                </g>
                <g transform="matrix(2.48591,0,0,4.16667,-140.44,0)">
                    <path d="M190.754,212.502L169.734,200.366C168.938,199.907 168.294,200.394 168.294,201.455L168.294,205.043L192.194,218.841L192.194,215.254C192.194,214.193 191.549,212.961 190.754,212.502Z" style="fill:rgb(244,235,56);fill-rule:nonzero;"/>
                </g>
                <g transform="matrix(2.48591,0,0,4.16667,-140.44,0)">
                    <path d="M200.183,203.265L203.033,207.868L205.168,213.16L207.877,221.225L209.094,226.268L208.642,228.419L207.012,223.216L202.742,210.741L200.183,203.265Z" style="fill:rgb(189,80,51);fill-rule:nonzero;"/>
                </g>
                <g transform="matrix(2.48591,0,0,4.16667,-140.44,0)">
                    <path d="M162.627,180.843L194.031,198.974L197.82,201.901L199.336,203.892L200.183,203.265L198.427,201.106L194.41,198.178L163.102,180.025L162.627,180.843Z" style="fill:rgb(36,181,119);fill-rule:nonzero;"/>
                </g>
                <g transform="matrix(2.48591,0,0,4.16667,-140.44,0)">
                    <path d="M165.894,203.078L160.033,199.694L160.033,197.316L165.894,200.7L165.894,203.078Z" style="fill-rule:nonzero;"/>
                </g>
                <g transform="matrix(2.48591,0,0,4.16667,-140.44,0)">
                    <path d="M200.607,218.611L194.948,215.343L191.681,202.662L197.34,205.929L200.607,218.611Z" style="fill:rgb(70,79,85);fill-rule:nonzero;"/>
                </g>
                <g transform="matrix(2.48591,0,0,4.16667,-140.44,0)">
                    <path d="M201.332,223.161L194.31,219.107L193.077,212.684L193.48,212.916L194.625,218.882L200.841,222.471L200.037,218.282L200.441,218.515L201.332,223.161Z" style="fill:rgb(16,85,118);fill-rule:nonzero;"/>
                </g>
                <g transform="matrix(2.48591,0,0,4.16667,-140.44,0)">
                    <path d="M200.026,216.356L198.637,210.963L199.224,212.178L200.026,216.356ZM193.48,212.916L193.077,212.684L191.146,202.625L191.549,202.858L193.48,212.916ZM195.628,204.738L192.194,202.754L192.194,202.709L191.034,202.039L190.956,201.633L195.356,204.174L195.628,204.738Z" style="fill:rgb(24,17,13);fill-rule:nonzero;"/>
                </g>
                <g transform="matrix(2.48591,0,0,4.16667,-140.44,0)">
                    <path d="M199.224,212.178L198.637,210.963L198.619,210.894L197.663,205.913L195.628,204.738L195.356,204.174L197.978,205.688L199.224,212.178Z" style="fill:rgb(24,17,13);fill-rule:nonzero;"/>
                </g>
                <g transform="matrix(2.48591,0,0,4.16667,-140.44,0)">
                    <path d="M191.549,202.858L191.146,202.625L191.034,202.039L192.194,202.709L192.194,202.754L191.447,202.323L191.549,202.858Z" style="fill:rgb(24,17,13);fill-rule:nonzero;"/>
                </g>
                <g transform="matrix(2.48591,0,0,4.16667,-140.44,0)">
                    <path d="M200.441,218.515L200.037,218.282L198.619,210.894L198.637,210.963L200.026,216.356L200.441,218.515Z" style="fill:rgb(43,50,56);fill-rule:nonzero;"/>
                </g>
                <g transform="matrix(2.48591,0,0,4.16667,-140.44,0)">
                    <path d="M205.591,230.069L204.411,231.665L204.509,225.952L165.894,203.657L167.074,201.575L205.591,230.069Z" style="fill:rgb(42,35,29);fill-rule:nonzero;"/>
                </g>
                <g transform="matrix(2.48591,0,0,4.16667,-140.44,0)">
                    <path d="M195.826,238.739L195.622,239.692L195.622,240.471L181.395,239.296L142.781,217.002L142.357,213.862L142.357,212.16L145.35,190.657L145.964,189.921L177.271,208.071L181.707,210.636L183.412,213.229L189.702,218.25L193.206,230.945L194.834,236.146L195.826,238.739Z" style="fill:rgb(169,172,171);fill-rule:nonzero;"/>
                </g>
                <g transform="matrix(2.48591,0,0,4.16667,-140.44,0)">
                    <path d="M195.622,240.471L193.626,241.828L187.571,241.387L180.972,238.836L142.357,216.542L142.357,212.16L179.219,233.442L188.922,239.335L195.622,240.471Z" style="fill:rgb(159,0,0);fill-rule:nonzero;"/>
                </g>
                <g transform="matrix(2.48591,0,0,4.16667,-140.44,0)">
                    <path d="M177.973,230.653L142.78,210.334L145.49,192.593L176.489,210.491L177.973,229.376L177.973,230.653Z" style="fill:rgb(42,35,29);fill-rule:nonzero;"/>
                </g>
                <g transform="matrix(2.48591,0,0,4.16667,-140.44,0)">
                    <path d="M167.868,223.986L147.917,212.467C147.122,212.008 146.478,212.496 146.478,213.556L146.478,216.898L169.308,230.079L169.308,226.737C169.308,225.677 168.664,224.445 167.868,223.986Z" style="fill:rgb(169,172,171);fill-rule:nonzero;"/>
                </g>
                <g transform="matrix(2.48591,0,0,4.16667,-140.44,0)">
                    <path d="M192.861,234.523C192.861,234.523 188.887,220.634 183.683,215.659C179.489,212.483 176.489,210.491 176.489,210.491L177.973,230.653L185.743,234.835L192.861,234.523Z" style="fill:rgb(42,35,29);fill-rule:nonzero;"/>
                </g>
                <g transform="matrix(2.48591,0,0,4.16667,-140.44,0)">
                    <path d="M145.35,190.657L176.893,208.869L181.102,211.433L183.412,213.229L184.074,212.576L181.708,210.638L177.272,208.073L145.964,189.92L145.35,190.657Z" style="fill:rgb(189,80,51);fill-rule:nonzero;"/>
                </g>
                <g transform="matrix(2.48591,0,0,4.16667,-140.44,0)">
                    <path d="M181.755,216.689L181.143,229.502L186.806,232.865L191.006,232.559L186.898,222.044L184.306,218.611L181.755,216.689Z" style="fill:rgb(70,79,85);fill-rule:nonzero;"/>
                </g>
                <g transform="matrix(2.48591,0,0,4.16667,-140.44,0)">
                    <path d="M187.571,240.715L193.626,241.828L187.571,241.387L181.395,239.296L142.357,216.836L142.357,216.088L181.663,238.851L187.571,240.715Z" style="fill:rgb(42,35,29);fill-rule:nonzero;"/>
                </g>
                <g transform="matrix(2.48591,0,0,4.16667,-140.44,0)">
                    <path d="M195.826,238.739L197.948,238.49C202.02,238.012 207.437,234.355 209.521,230.826L209.521,228.968L209.094,226.268L208.642,228.419L194.452,234.925L195.826,238.739Z" style="fill:rgb(42,35,29);fill-rule:nonzero;"/>
                </g>
                <g transform="matrix(2.48591,0,0,4.16667,-140.44,0)">
                    <path d="M207.999,232.293C207.999,232.293 205.885,235.295 200.637,237.425L200.189,235.891C200.189,235.891 204.864,234.691 208.003,230.308C208.343,231.299 207.999,232.293 207.999,232.293Z" style="fill:rgb(3,2,2);fill-rule:nonzero;"/>
                </g>
                <g transform="matrix(2.48591,0,0,4.16667,-140.44,0)">
                    <path d="M205.192,232.708L203.345,233.889L198.698,235.181L208.642,228.419L208.648,228.593L205.192,232.708Z" style="fill:rgb(189,80,51);fill-rule:nonzero;"/>
                </g>
                <g transform="matrix(2.48591,0,0,4.16667,-140.44,0)">
                    <path d="M208.641,228.419L208.639,228.422C206.364,231.745 202.951,234.118 199.045,235.095L198.698,235.181L196.358,235.766L193.374,228.916L189.543,218.523L184.074,212.576L200.182,203.265L203.199,209.144L208.641,228.419Z" style="fill:rgb(61,56,51);fill-rule:nonzero;"/>
                </g>
                <g transform="matrix(2.48591,0,0,4.16667,-140.44,0)">
                    <path d="M203.199,209.144C203.199,209.144 201.509,212.465 198.349,214.273C195.189,216.081 190.04,218.032 190.04,218.032L184.074,212.576L200.183,203.265L203.199,209.144Z" style="fill:rgb(70,66,61);fill-rule:nonzero;"/>
                </g>
                <g transform="matrix(2.48591,0,0,4.16667,-140.44,0)">
                    <path d="M167.868,225.27L146.848,213.134C146.406,212.879 146.01,212.917 145.746,213.182C145.649,213.28 145.01,213.793 144.953,213.948C144.885,214.131 145.408,213.967 145.408,214.223L145.408,217.811L168.591,231.899L169.308,230.468L169.308,228.021C169.308,226.962 168.664,225.729 167.868,225.27Z" style="fill:rgb(189,80,51);fill-rule:nonzero;"/>
                </g>
                <g transform="matrix(2.48591,0,0,4.16667,-140.44,0)">
                    <path d="M167.151,226.247L146.131,214.111C145.335,213.652 144.691,214.139 144.691,215.2L144.7,218.872L167.812,232.215L168.591,231.899L168.591,228.998C168.591,227.938 167.946,226.706 167.151,226.247Z" style="fill:rgb(189,80,51);fill-rule:nonzero;"/>
                </g>
                <g transform="matrix(2.48591,0,0,4.16667,-140.44,0)">
                    <path d="M166.291,226.729L146.084,215.063C145.32,214.622 144.7,215.089 144.7,216.109L144.7,218.872L167.675,232.136L167.675,229.374C167.675,228.354 167.056,227.171 166.291,226.729Z" style="fill:rgb(159,0,0);fill-rule:nonzero;"/>
                </g>
                <g transform="matrix(2.48591,0,0,4.16667,-140.44,0)">
                    <path d="M200.639,237.423C198.596,238.308 197.472,237.565 196.895,236.808C196.493,236.287 196.356,235.765 196.356,235.765L198.699,235.18C198.754,235.249 199.327,236.09 200.19,235.889C201.049,235.689 200.639,237.423 200.639,237.423Z" style="fill:rgb(169,172,171);fill-rule:nonzero;"/>
                </g>
                <g transform="matrix(2.48591,0,0,4.16667,-140.44,0)">
                    <path d="M200.639,237.423L199.763,236.941L199.502,237.257L198.656,236.889L198.318,236.889L197.617,236.501L197.087,236.718L196.895,236.808C196.493,236.287 196.356,235.765 196.356,235.765L198.699,235.18C198.754,235.249 199.327,236.09 200.19,235.889C201.049,235.689 200.639,237.423 200.639,237.423Z" style="fill:rgb(69,99,101);fill-rule:nonzero;"/>
                </g>
                <g transform="matrix(2.48591,0,0,4.16667,-140.44,0)">
                    <path d="M145.964,189.92L163.102,180.025L194.41,198.178L198.427,201.106L200.183,203.265C198.698,207.64 190.64,211.276 187.845,211.97L184.074,212.576L181.708,210.638L177.272,208.073L145.964,189.92Z" style="fill:rgb(189,80,51);fill-rule:nonzero;"/>
                </g>
                <g transform="matrix(2.48591,0,0,4.16667,-140.44,0)">
                    <path d="M184.074,212.576L183.412,213.229L188.619,219.706L193.206,230.945L194.452,234.925L196.358,235.766L198.698,235.181L190.04,218.032L184.074,212.576Z" style="fill:rgb(189,80,51);fill-rule:nonzero;"/>
                </g>
                <g transform="matrix(2.48591,0,0,4.16667,-140.44,0)">
                    <path d="M207.594,227.278L206.94,228.258C205.23,230.26 202.652,231.883 199.861,232.616L198.804,232.744L197.829,230.875L191.66,219.044L196.001,217.267L200.612,214.377L203.199,211.583L207.594,227.278Z" style="fill:rgb(88,107,110);fill-rule:nonzero;"/>
                </g>
                <g transform="matrix(2.48591,0,0,4.16667,-140.44,0)">
                    <path d="M207.594,227.278L206.94,228.258C205.23,230.26 202.652,231.883 199.861,232.616L198.804,232.744L197.829,230.875L200.182,229.281L200.223,226.994L204.639,224.171L207.594,227.278Z" style="fill:rgb(106,121,125);fill-rule:nonzero;"/>
                </g>
                <g transform="matrix(2.48591,0,0,4.16667,-140.44,0)">
                    <path d="M208.641,228.419L208.639,228.422C206.364,231.745 202.951,234.118 199.045,235.095L198.698,235.181L198.233,234.262C198.233,234.262 201.428,233.322 202.436,232.865C203.355,232.448 204.315,231.761 205.808,230.642C207.3,229.523 208.319,227.278 208.319,227.278L208.641,228.419Z" style="fill:rgb(189,80,51);fill-rule:nonzero;"/>
                </g>
                <g transform="matrix(2.48591,0,0,4.16667,-140.44,0)">
                    <path d="M199.099,236.122C199.108,236.42 198.909,236.764 198.654,236.891C198.4,237.019 198.186,236.88 198.178,236.584C198.169,236.286 198.368,235.941 198.623,235.814C198.877,235.687 199.09,235.825 199.099,236.122Z" style="fill:rgb(216,219,218);fill-rule:nonzero;"/>
                </g>
                <g transform="matrix(2.48591,0,0,4.16667,-140.44,0)">
                    <path d="M200.223,236.439C200.231,236.737 200.032,237.081 199.778,237.209C199.523,237.336 199.31,237.198 199.301,236.9C199.292,236.603 199.491,236.258 199.746,236.13C200,236.004 200.214,236.141 200.223,236.439Z" style="fill:rgb(216,219,218);fill-rule:nonzero;"/>
                </g>
                <g transform="matrix(2.48591,0,0,4.16667,-140.44,0)">
                    <path d="M197.83,235.927C197.838,236.225 197.639,236.57 197.385,236.697C197.13,236.824 196.917,236.686 196.908,236.388C196.899,236.091 197.098,235.747 197.353,235.62C197.607,235.492 197.821,235.629 197.83,235.927Z" style="fill:rgb(244,122,41);fill-rule:nonzero;"/>
                </g>
                <g transform="matrix(2.48591,0,0,4.16667,-140.44,0)">
                    <path d="M209.52,228.97C209.52,228.97 209.52,229.888 209.319,230.508C209.114,231.132 207.999,232.291 207.999,232.291C207.999,232.291 207.503,230.778 208.123,230.154C208.238,230.043 208.324,229.915 208.396,229.778C208.619,229.35 208.648,228.854 208.648,228.593L208.644,228.478L208.64,228.419L208.9,227.196L209.093,226.269L209.52,228.97Z" style="fill:rgb(169,172,171);fill-rule:nonzero;"/>
                </g>
                <g transform="matrix(2.48591,0,0,4.16667,-140.44,0)">
                    <path d="M209.093,226.269L208.892,228.41L208.726,229.773L207.96,231.231L207.999,232.291C207.999,232.291 207.503,230.778 208.123,230.154C208.238,230.043 208.324,229.915 208.396,229.778C208.619,229.35 208.648,228.854 208.648,228.593L208.644,228.478L208.64,228.419L208.9,227.196L209.093,226.269Z" style="fill:rgb(69,99,101);fill-rule:nonzero;"/>
                </g>
                <g transform="matrix(2.48591,0,0,4.16667,-140.44,0)">
                    <path d="M208.663,230.421C208.694,230.738 208.551,231.131 208.343,231.299C208.135,231.467 207.94,231.345 207.909,231.028C207.877,230.711 208.02,230.317 208.228,230.149C208.436,229.981 208.631,230.103 208.663,230.421Z" style="fill:rgb(216,219,218);fill-rule:nonzero;"/>
                </g>
                <g transform="matrix(2.48591,0,0,4.16667,-140.44,0)">
                    <path d="M208.725,229.773C208.599,229.875 208.477,229.87 208.395,229.779C208.617,229.349 208.648,228.853 208.648,228.595C208.841,228.47 209.014,228.596 209.044,228.894C209.076,229.212 208.933,229.605 208.725,229.773Z" style="fill:rgb(216,219,218);fill-rule:nonzero;"/>
                </g>
                <g transform="matrix(2.48591,0,0,4.16667,-140.44,0)">
                    <path d="M208.89,228.412L208.645,228.477L208.641,228.419L208.899,227.195C209.055,227.152 209.184,227.281 209.208,227.534C209.24,227.851 209.098,228.245 208.89,228.412Z" style="fill:rgb(244,122,41);fill-rule:nonzero;"/>
                </g>
                <g transform="matrix(2.48591,0,0,4.16667,-140.44,0)">
                    <path d="M196.358,235.766L189.419,219.516L183.412,213.229L188.619,219.706L194.452,234.925L196.358,235.766Z" style="fill:rgb(180,55,22);fill-rule:nonzero;"/>
                </g>
                <g transform="matrix(2.48591,0,0,4.16667,-140.44,0)">
                    <path d="M191.659,219.044L190.851,217.715L186.898,213.82C186.898,213.82 190.149,212.923 191.409,212.576C192.669,212.228 197.047,209.608 198.142,208.712C199.236,207.818 200.33,205.795 200.33,205.795L202.557,210.202L203.199,211.583L200.612,214.376L196.001,217.267L191.508,219.044L191.659,219.044Z" style="fill:rgb(42,35,29);fill-rule:nonzero;"/>
                </g>
                <g transform="matrix(2.48591,0,0,4.16667,-140.44,0)">
                    <path d="M200.026,212.51L192.435,217.101C192.111,217.296 191.698,217.064 191.698,216.685L191.698,214.551C191.698,214.148 191.906,213.773 192.248,213.559L199.847,208.818C200.171,208.616 200.59,208.849 200.59,209.23L200.59,211.51C200.59,211.92 200.376,212.298 200.026,212.51Z" style="fill:rgb(50,44,37);fill-rule:nonzero;"/>
                </g>
                <g transform="matrix(2.48591,0,0,4.16667,-140.44,0)">
                    <path d="M159.211,192.835L158.903,192.593L159.028,192.421L166.118,188.147L168.899,198.129L167.959,198.129C167.365,198.319 158.394,193.061 159.211,192.835Z" style="fill:rgb(185,89,38);fill-rule:nonzero;"/>
                </g>
                <g transform="matrix(2.48591,0,0,4.16667,-140.44,0)">
                    <path d="M160.509,191.417L160.657,191.335L160.651,191.332L167.741,187.057L175.933,191.954L168.702,196.296L160.509,191.417Z" style="fill:rgb(167,165,162);fill-rule:nonzero;"/>
                </g>
                <g transform="matrix(2.48591,0,0,4.16667,-140.44,0)">
                    <path d="M160.509,191.417L159.964,192.816L168.899,198.129L168.702,196.296L160.509,191.417Z" style="fill:rgb(42,35,29);fill-rule:nonzero;"/>
                </g>
                <g transform="matrix(2.48591,0,0,4.16667,-140.44,0)">
                    <path d="M168.702,196.296L168.899,198.129L177.515,193.105L175.933,191.954L168.702,196.296Z" style="fill:rgb(70,66,61);fill-rule:nonzero;"/>
                </g>
                <g transform="matrix(2.48591,0,0,4.16667,-140.44,0)">
                    <path d="M122.892,162.553L116.227,166.401C115.597,166.765 115.597,167.674 116.227,168.039L128.6,175.181C129.542,175.726 130.703,175.726 131.645,175.181L138.311,171.334C138.941,170.969 138.941,170.06 138.311,169.696L125.938,162.553C124.996,162.008 123.834,162.008 122.892,162.553Z" style="fill:rgb(138,122,106);fill-rule:nonzero;"/>
                </g>
                <g transform="matrix(2.48591,0,0,4.16667,-140.44,0)">
                    <path d="M123.581,163.411L117.896,166.692C117.442,166.955 117.442,167.611 117.896,167.874L129.067,174.324C129.748,174.716 130.586,174.716 131.267,174.324L136.951,171.043C137.406,170.78 137.406,170.124 136.951,169.861L125.779,163.411C125.099,163.018 124.261,163.018 123.581,163.411Z" style="fill:rgb(148,178,180);fill-rule:nonzero;"/>
                </g>
                <g transform="matrix(2.48591,0,0,4.16667,-140.44,0)">
                    <path d="M70.313,131.92L63.648,135.768C63.018,136.131 63.018,137.042 63.648,137.405L76.021,144.548C76.963,145.092 78.125,145.092 79.067,144.548L85.732,140.701C86.362,140.337 86.362,139.427 85.732,139.063L73.359,131.92C72.417,131.376 71.255,131.376 70.313,131.92Z" style="fill:rgb(138,122,106);fill-rule:nonzero;"/>
                </g>
                <g transform="matrix(2.48591,0,0,4.16667,-140.44,0)">
                    <path d="M71.002,132.778L65.318,136.059C64.863,136.322 64.863,136.978 65.318,137.241L76.49,143.691C77.169,144.084 78.008,144.084 78.688,143.691L84.372,140.41C84.827,140.147 84.827,139.49 84.372,139.228L73.2,132.778C72.52,132.385 71.682,132.385 71.002,132.778Z" style="fill:rgb(148,178,180);fill-rule:nonzero;"/>
                </g>
                <g transform="matrix(2.48591,0,0,4.16667,-140.44,0)">
                    <path d="M54.758,160.333L50.463,157.835L50.524,156.537L52.491,141.81L56.786,144.307L54.819,159.034L54.758,160.333Z" style="fill:rgb(51,60,67);fill-rule:nonzero;"/>
                </g>
                <g transform="matrix(2.48591,0,0,4.16667,-140.44,0)">
                    <path d="M60.281,163.61L55.986,161.112L56.047,159.814L58.014,145.088L62.309,147.585L60.342,162.311L60.281,163.61Z" style="fill:rgb(51,60,67);fill-rule:nonzero;"/>
                </g>
                <g transform="matrix(2.48591,0,0,4.16667,-140.44,0)">
                    <path d="M62.166,161.428L73.194,167.796L74.967,154.97L63.94,148.603L62.166,161.428Z" style="fill:rgb(51,60,67);fill-rule:nonzero;"/>
                </g>
                <g transform="matrix(2.48591,0,0,4.16667,-140.44,0)">
                    <path d="M63.022,152.079L74.891,158.952L74.891,159.473L63.022,152.601L63.022,152.079Z" style="fill:rgb(42,35,29);fill-rule:nonzero;"/>
                </g>
                <g transform="matrix(2.48591,0,0,4.16667,-140.44,0)">
                    <path d="M74.891,168.857L85.918,175.224L87.691,162.399L76.664,156.033L74.891,168.857Z" style="fill:rgb(51,60,67);fill-rule:nonzero;"/>
                </g>
                <g transform="matrix(2.48591,0,0,4.16667,-140.44,0)">
                    <path d="M75.746,159.508L87.615,166.38L87.615,166.902L75.746,160.03L75.746,159.508Z" style="fill:rgb(42,35,29);fill-rule:nonzero;"/>
                </g>
                <g transform="matrix(2.48591,0,0,4.16667,-140.44,0)">
                    <path d="M55.388,161.949L55.374,161.94L55.299,159.827L55.325,159.842L55.388,161.949ZM50.183,158.944L49.85,158.751L49.781,156.641L50.114,156.833L50.183,158.944Z" style="fill:rgb(110,114,114);fill-rule:nonzero;"/>
                </g>
                <g transform="matrix(2.48591,0,0,4.16667,-140.44,0)">
                    <path d="M55.807,164.917L49.939,161.529L49.85,158.751L50.183,158.944L50.262,161.335L55.457,164.335L55.374,161.94L55.388,161.949L55.471,164.722L55.807,164.916L55.807,164.917Z" style="fill:rgb(150,88,33);fill-rule:nonzero;"/>
                </g>
                <g transform="matrix(2.48591,0,0,4.16667,-140.44,0)">
                    <path d="M55.325,159.842L55.299,159.827L55.288,159.504L55.31,159.342L55.325,159.842ZM55.637,159.36L55.637,159.351L57.716,144.296L55.637,159.36ZM50.114,156.833L49.781,156.641L49.756,155.875L51.925,140.312L57.667,143.885L57.458,143.762L57.321,144.752L57.41,144.112L52.181,140.857L50.083,155.891L50.114,156.833Z" style="fill:rgb(24,17,13);fill-rule:nonzero;"/>
                </g>
                <g transform="matrix(2.48591,0,0,4.16667,-140.44,0)">
                    <path d="M61.246,165.331L60.912,165.138L60.844,163.028L61.176,163.22L61.246,165.331ZM55.721,162.141L55.708,162.133L55.633,160.019L55.657,160.034L55.721,162.141Z" style="fill:rgb(110,114,114);fill-rule:nonzero;"/>
                </g>
                <g transform="matrix(2.48591,0,0,4.16667,-140.44,0)">
                    <path d="M61.337,168.11L55.807,164.916L55.708,162.133L55.721,162.141L55.793,164.53L60.99,167.53L60.912,165.138L61.246,165.331L61.337,168.11Z" style="fill:rgb(150,88,33);fill-rule:nonzero;"/>
                </g>
                <g transform="matrix(2.48591,0,0,4.16667,-140.44,0)">
                    <path d="M61.176,163.22L60.844,163.028L60.842,162.962L62.89,147.34L57.716,144.296L57.764,143.946L57.667,143.885L63.244,147.169L61.168,162.978L61.176,163.22ZM55.657,160.034L55.633,160.019L55.615,159.52L55.637,159.36L55.657,160.034ZM55.31,159.342L55.31,159.334L57.321,144.752L55.31,159.342Z" style="fill:rgb(24,17,13);fill-rule:nonzero;"/>
                </g>
                <g transform="matrix(2.48591,0,0,4.16667,-140.44,0)">
                    <path d="M55.708,162.133L55.388,161.949L55.325,159.842L55.633,160.019L55.708,162.133Z" style="fill:rgb(73,76,76);fill-rule:nonzero;"/>
                </g>
                <g transform="matrix(2.48591,0,0,4.16667,-140.44,0)">
                    <path d="M55.807,164.916L55.471,164.722L55.388,161.949L55.708,162.133L55.807,164.916Z" style="fill:rgb(96,56,15);fill-rule:nonzero;"/>
                </g>
                <g transform="matrix(2.48591,0,0,4.16667,-140.44,0)">
                    <path d="M55.633,160.019L55.325,159.842L55.31,159.342L57.321,144.752L57.458,143.762L57.667,143.885L57.764,143.946L57.716,144.296L55.637,159.351L55.637,159.36L55.615,159.52L55.633,160.019Z" style="fill:rgb(7,4,7);fill-rule:nonzero;"/>
                </g>
                <g transform="matrix(2.48591,0,0,4.16667,-140.44,0)">
                    <path d="M145.752,209.92L156.779,216.287L158.552,203.462L147.524,197.094L145.752,209.92Z" style="fill:rgb(51,60,67);fill-rule:nonzero;"/>
                </g>
                <g transform="matrix(2.48591,0,0,4.16667,-140.44,0)">
                    <path d="M146.607,200.57L158.476,207.443L158.476,207.964L146.607,201.092L146.607,200.57Z" style="fill:rgb(42,35,29);fill-rule:nonzero;"/>
                </g>
                <g transform="matrix(2.48591,0,0,4.16667,-140.44,0)">
                    <path d="M158.476,217.349L169.504,223.715L171.276,210.89L160.249,204.524L158.476,217.349Z" style="fill:rgb(51,60,67);fill-rule:nonzero;"/>
                </g>
                <g transform="matrix(2.48591,0,0,4.16667,-140.44,0)">
                    <path d="M159.331,208L171.2,214.872L171.2,215.393L159.331,208.521L159.331,208Z" style="fill:rgb(42,35,29);fill-rule:nonzero;"/>
                </g>
                <g transform="matrix(2.48591,0,0,4.16667,-140.44,0)">
                    <path d="M176.101,231.2L171.946,228.783L171.838,227.11L173.755,212.887L178.05,215.384L176.112,229.578L176.101,231.2Z" style="fill:rgb(51,60,67);fill-rule:nonzero;"/>
                </g>
                <g transform="matrix(2.48591,0,0,4.16667,-140.44,0)">
                    <path d="M176.958,232.137L176.624,231.944L176.567,230.334L176.63,229.878L176.935,230.054L176.895,230.35L176.958,232.137ZM171.436,228.948L171.102,228.756L171.036,226.705L171.043,226.652L171.367,226.839L171.436,228.948Z" style="fill:rgb(110,114,114);fill-rule:nonzero;"/>
                </g>
                <g transform="matrix(2.48591,0,0,4.16667,-140.44,0)">
                    <path d="M177.086,235.747L171.219,232.359L171.102,228.756L171.436,228.948L171.541,232.166L176.737,235.166L176.624,231.944L176.958,232.137L177.086,235.747Z" style="fill:rgb(150,88,33);fill-rule:nonzero;"/>
                </g>
                <g transform="matrix(2.48591,0,0,4.16667,-140.44,0)">
                    <path d="M176.935,230.054L176.63,229.878L177.468,223.798L177.583,225.358L176.935,230.054ZM171.367,226.839L171.043,226.652L173.204,211.142L176.697,213.316L176.727,213.721L173.46,211.688L171.363,226.722L171.367,226.839Z" style="fill:rgb(24,17,13);fill-rule:nonzero;"/>
                </g>
                <g transform="matrix(2.48591,0,0,4.16667,-140.44,0)">
                    <path d="M177.583,225.358L177.468,223.798L178.689,214.942L176.727,213.721L176.697,213.316L179.043,214.776L177.583,225.358Z" style="fill:rgb(24,17,13);fill-rule:nonzero;"/>
                </g>
                <g transform="matrix(2.48591,0,0,4.16667,-140.44,0)">
                    <path d="M186.806,232.865L185.414,222.362L183.742,219.044L181.755,216.689L184.306,218.611L186.898,222.044L191.006,232.559L186.806,232.865Z" style="fill:rgb(87,95,101);fill-rule:nonzero;"/>
                </g>
                <g transform="matrix(2.48591,0,0,4.16667,-140.44,0)">
                    <path d="M175.111,183.257L174.708,183.489L168.929,175.91L169.331,175.677L175.111,183.257Z" style="fill:rgb(255,196,53);fill-rule:nonzero;"/>
                </g>
                <g transform="matrix(2.48591,0,0,4.16667,-140.44,0)">
                    <path d="M174.708,183.489L174.306,183.721L168.526,176.142L168.929,175.91L174.708,183.489Z" style="fill:rgb(236,119,35);fill-rule:nonzero;"/>
                </g>
                <g transform="matrix(2.48591,0,0,4.16667,-140.44,0)">
                    <path d="M169.331,191.154L168.929,191.386L174.708,183.489L175.111,183.257L169.331,191.154Z" style="fill:rgb(169,172,171);fill-rule:nonzero;"/>
                </g>
                <g transform="matrix(2.48591,0,0,4.16667,-140.44,0)">
                    <path d="M168.929,191.386L168.148,190.88L174.006,183.408L174.708,183.489L168.929,191.386Z" style="fill:rgb(94,101,104);fill-rule:nonzero;"/>
                </g>
                <g transform="matrix(2.48591,0,0,4.16667,-140.44,0)">
                    <path d="M173.357,184.269L172.955,184.502L167.175,176.922L167.578,176.69L173.357,184.269Z" style="fill:rgb(255,196,53);fill-rule:nonzero;"/>
                </g>
                <g transform="matrix(2.48591,0,0,4.16667,-140.44,0)">
                    <path d="M172.955,184.502L172.553,184.734L166.773,177.155L167.175,176.922L172.955,184.502Z" style="fill:rgb(236,119,35);fill-rule:nonzero;"/>
                </g>
                <g transform="matrix(2.48591,0,0,4.16667,-140.44,0)">
                    <path d="M167.578,192.167L167.175,192.398L172.955,184.502L173.357,184.269L167.578,192.167Z" style="fill:rgb(169,172,171);fill-rule:nonzero;"/>
                </g>
                <g transform="matrix(2.48591,0,0,4.16667,-140.44,0)">
                    <path d="M167.175,192.398L166.395,191.892L172.253,184.42L172.955,184.502L167.175,192.398Z" style="fill:rgb(94,101,104);fill-rule:nonzero;"/>
                </g>
                <g transform="matrix(2.48591,0,0,4.16667,-140.44,0)">
                    <path d="M159.564,183.257L161.736,180.409L168.351,175.45L174.966,172.771L176.942,173.223L177.618,173.74L175.477,173.805L168.358,176.688L160.915,183.303L159.578,186.344L158.903,185.829L159.564,183.257Z" style="fill:rgb(91,88,84);fill-rule:nonzero;"/>
                </g>
                <g transform="matrix(2.48591,0,0,4.16667,-140.44,0)">
                    <path d="M160.239,183.773L159.564,183.257L158.903,185.829L159.578,186.344L160.239,183.773Z" style="fill:rgb(40,33,26);fill-rule:nonzero;"/>
                </g>
                <g transform="matrix(2.48591,0,0,4.16667,-140.44,0)">
                    <path d="M160.239,183.773L162.412,180.925L169.026,175.966L175.641,173.288L177.618,173.74L178.279,175.547L175.891,174.427L169.034,177.205L162.551,182.065L159.578,186.344L160.239,183.773Z" style="fill:rgb(50,44,37);fill-rule:nonzero;"/>
                </g>
                <g transform="matrix(2.48591,0,0,4.16667,-140.44,0)">
                    <path d="M201.798,206.489C201.798,206.489 207.319,207.399 207.374,207.671C207.428,207.944 208.696,210.129 208.696,211.289C208.696,212.448 208.29,214.408 207.968,214.521C207.646,214.633 206.732,214.521 206.732,214.521L206.663,211.508L206.012,208.849L202.275,207.671L201.798,206.489Z" style="fill:rgb(42,35,29);fill-rule:nonzero;"/>
                </g>
                <g transform="matrix(2.48591,0,0,4.16667,-140.44,0)">
                    <path d="M201.945,206.854L206.685,208.097C206.685,208.097 207.559,210.542 207.734,211.066C207.909,211.59 207.54,214.57 207.54,214.57C207.54,214.57 207.867,214.487 208.052,214.451C208.237,214.415 208.793,213.759 208.898,213.431C209.002,213.103 209.056,210.939 208.898,210.327C208.74,209.714 207.712,207.946 207.374,207.671C207.034,207.398 201.798,206.489 201.798,206.489L201.945,206.854Z" style="fill:rgb(50,44,37);fill-rule:nonzero;"/>
                </g>
                <g transform="matrix(2.48591,0,0,4.16667,-140.44,0)">
                    <path d="M186.748,213.991C186.748,213.991 192.881,217.469 192.936,217.742C192.99,218.014 193.637,220.294 193.637,221.453C193.637,222.612 192.979,224.335 192.658,224.448C192.336,224.561 191.864,224.344 191.864,224.344L191.352,221.435L191.006,218.747L187.225,215.174L186.748,213.991Z" style="fill:rgb(42,35,29);fill-rule:nonzero;"/>
                </g>
                <g transform="matrix(2.48591,0,0,4.16667,-140.44,0)">
                    <path d="M186.895,214.356L191.874,218.179C191.874,218.179 192.249,220.468 192.423,220.994C192.598,221.518 192.472,224.48 192.472,224.48C192.472,224.48 192.611,224.492 192.796,224.456C192.981,224.421 193.735,223.923 193.839,223.595C193.943,223.267 193.998,221.103 193.839,220.491C193.681,219.879 193.275,218.016 192.936,217.742C192.597,217.468 186.748,213.991 186.748,213.991L186.895,214.356Z" style="fill:rgb(50,44,37);fill-rule:nonzero;"/>
                </g>
            </g>
        </g>
    </g>
</svg>
