<?xml version="1.0" encoding="UTF-8" standalone="no"?>
<!DOCTYPE svg PUBLIC "-//W3C//DTD SVG 1.1//EN" "http://www.w3.org/Graphics/SVG/1.1/DTD/svg11.dtd">
<svg width="100%" height="100%" viewBox="0 0 44 137" version="1.1" xmlns="http://www.w3.org/2000/svg" xmlnsXlink="http://www.w3.org/1999/xlink" xmlSpace="preserve" xmlnsSerif="http://www.serif.com/" style="fill-rule:evenodd;clip-rule:evenodd;stroke-linejoin:round;stroke-miterlimit:2;">
    <g transform="matrix(1,0,0,1,-907.009,-1636.99)">
        <g>
            <g transform="matrix(0.589556,-0.681359,0.681359,0.589556,569.864,1770.33)">
                <path d="M280.532,308.157C279.604,307.778 278.847,307.595 278.195,308.517C277.997,308.797 277.867,309.132 277.607,309.355C276.281,310.492 268.612,308.038 268.196,309.96C268.127,310.279 268.27,310.606 268.441,310.885C271.493,315.866 275.975,313.9 279.474,314.945C281.662,315.599 282.372,315.491 282.561,313.372C282.788,310.831 283.937,309.549 280.532,308.157Z" style="fill:rgb(251,188,157);fill-rule:nonzero;"/>
            </g>
            <g transform="matrix(0.805857,-0.403016,0.403016,0.805857,570.446,1630.08)">
                <path d="M280.532,308.157C279.604,307.778 278.847,307.595 278.195,308.517C277.997,308.797 277.867,309.132 277.607,309.355C276.281,310.492 268.612,308.038 268.196,309.96C268.127,310.279 268.27,310.606 268.441,310.885C271.493,315.866 275.975,313.9 279.474,314.945C281.662,315.599 282.372,315.491 282.561,313.372C282.788,310.831 283.937,309.549 280.532,308.157Z" style="fill:rgb(251,188,157);fill-rule:nonzero;"/>
            </g>
            <g transform="matrix(1.61836,0,0,1.61836,303.274,1576.78)">
                <path d="M390.213,40.869C390.213,40.869 389.319,36.552 394.323,37.292C399.326,38.033 400.065,43.705 398.86,46.912C397.46,50.636 392.078,51.967 393.471,50.118C394.287,49.035 394.005,44.739 392.078,45.135L390.213,40.869Z" style="fill:rgb(53,44,44);fill-rule:nonzero;"/>
            </g>
            <g transform="matrix(1.61836,0,0,1.61836,302.654,1574.38)">
                <path d="M380.027,68.263C378.574,70.129 376.612,77.264 375.079,78.792C373.933,79.935 377.818,81.276 377.818,80.318C377.818,78.823 379.846,75.598 381.899,71.91C384.124,67.916 382.306,65.342 380.027,68.263Z" style="fill:rgb(251,188,157);fill-rule:nonzero;"/>
            </g>
            <g transform="matrix(1.61836,0,0,1.61836,302.654,1574.38)">
                <path d="M383.533,83.662C383.533,83.662 387.128,103.141 388.615,106.347C389.258,107.732 391.604,108.363 393.022,106.392C394.441,104.422 396.146,81.466 391.904,79.099C390.221,78.159 384.722,79.61 383.533,83.662Z" style="fill:rgb(43,34,40);fill-rule:nonzero;"/>
            </g>
            <g transform="matrix(1.61836,0,0,1.61836,302.654,1574.38)">
                <path d="M378.643,79.352C378.643,79.352 377.205,89.518 379.018,101.476C379.247,102.986 381.547,104.042 383.331,102.391C385.112,100.74 387.65,84.665 386.035,83.612C384.42,82.556 380.609,75.614 378.643,79.352Z" style="fill:rgb(43,34,40);fill-rule:nonzero;"/>
            </g>
            <g transform="matrix(1.61836,0,0,1.61836,302.654,1574.38)">
                <path d="M384.508,99.716C384.508,99.716 384.004,101.363 384.684,102.663C385.369,103.964 385.479,107.307 385.314,108.017C384.791,110.323 383.579,116.484 383.913,117.924C384.245,119.371 383.709,119.721 382.58,119.808C381.646,119.884 380.619,119.605 380.712,118.976C380.774,118.548 380.289,113.28 379.776,110.804C379.1,107.533 379.725,102.11 379.097,101.789L384.508,99.716Z" style="fill:rgb(43,34,40);fill-rule:nonzero;"/>
            </g>
            <g transform="matrix(1.61836,0,0,1.61836,302.654,1574.38)">
                <path d="M393.987,102.093C393.987,102.093 393.645,104.405 394.594,104.977C395.542,105.545 396.179,106.26 396.769,107.473C397.818,109.634 398.221,113.77 398.883,114.577C399.549,115.387 399.44,116.386 398.596,116.787C397.749,117.183 397.023,117.443 396.475,116.699C396.205,116.333 394.335,112.909 393.337,111.612C391.898,109.747 389.983,107.138 389.331,107.184L393.987,102.093Z" style="fill:rgb(43,34,40);fill-rule:nonzero;"/>
            </g>
            <g transform="matrix(-0.25876,0.258797,-0.258797,-0.25876,1200.08,1745.78)">
                <path d="M441.946,559.85C440.065,559.924 437.706,559.778 437.706,559.778L434.257,551.674C434.257,551.674 448.469,539.543 451.342,539.769C454.079,539.981 459.376,544.734 462.637,548.004C462.637,548.004 465.393,551.657 461.686,553.487C460.894,553.876 459.619,550.91 452.216,555.554C448.838,557.673 444.03,559.768 441.946,559.85Z" style="fill:rgb(251,188,157);fill-rule:nonzero;"/>
            </g>
            <g transform="matrix(1.61836,0,0,1.61836,302.654,1574.38)">
                <path d="M384.347,59.852C383.665,62.325 381.805,71.578 380.063,74.391C379.251,75.701 378.458,73.462 378.698,73.024C379.435,71.687 378.557,62.68 379.557,59.052C380.554,55.425 383.501,53.747 385.004,54.183C386.507,54.619 385.344,56.227 384.347,59.852Z" style="fill:rgb(251,188,157);fill-rule:nonzero;"/>
            </g>
            <g transform="matrix(1.61836,0,0,1.61836,302.654,1574.38)">
                <path d="M392.778,63.37C393.341,62.081 395.687,61.058 395.224,59.608C394.735,58.089 391.412,55.552 390.064,54.934C388.487,54.21 386.488,54.212 384.74,54.183C384.204,54.172 383.522,54.194 383.023,54.377C381.982,54.762 379.486,61.979 379.326,63.061C379.121,64.468 378.962,65.388 380.634,67.465C381.514,68.562 381.194,70.081 380.756,72.514C380.246,75.361 379.282,77.045 379.02,78.083C378.809,78.923 378.528,79.576 378.83,80.438C379.458,82.263 381.139,83.001 382.832,83.568C385.019,84.3 388.223,85.015 390.545,84.483C393.198,83.875 393.775,82.234 393.239,78.539C392.856,75.9 392.24,64.608 392.778,63.37Z" style="fill:rgb(255,252,245);fill-rule:nonzero;"/>
            </g>
            <g transform="matrix(1.61836,0,0,1.61836,302.654,1574.38)">
                <path d="M396.171,63.539C396.687,66.05 397.354,73.035 397.08,76.328C396.951,77.863 394.666,78.399 394.592,77.904C394.271,75.749 392.296,68.685 391.537,64.997C390.782,61.315 390.734,59.273 392.271,58.982C393.81,58.69 395.414,59.852 396.171,63.539Z" style="fill:rgb(251,188,157);fill-rule:nonzero;"/>
            </g>
            <g transform="matrix(1.61836,0,0,1.61836,302.654,1574.38)">
                <path d="M387.539,58.726C388.231,58.697 388.525,58.11 389.124,57.811C389.611,57.565 389.963,56.944 390.047,56.469C390.229,55.458 389.451,55.185 388.82,54.896C387.833,54.446 386.367,54.338 385.708,55.461C385.708,55.461 382.463,58.937 387.539,58.726Z" style="fill:rgb(251,188,157);fill-rule:nonzero;"/>
            </g>
            <g transform="matrix(1.61836,0,0,1.61836,302.654,1574.38)">
                <path d="M386.303,52.132C386.158,52.438 386.364,52.936 386.383,53.33C386.41,53.928 386.259,54.471 386.148,55.045C386.042,55.606 386.314,56.223 386.681,56.645C387.301,57.358 388.818,58.143 389.44,57.583C390.775,56.38 389.733,54.253 389.441,53.199C389.323,52.755 389.521,51.884 389.218,51.576C388.33,50.676 386.297,52.405 385.922,52.972L386.303,52.132Z" style="fill:rgb(251,188,157);fill-rule:nonzero;"/>
            </g>
            <g transform="matrix(1.61836,0,0,1.61836,303.274,1576.78)">
                <path d="M391.354,42.551C390.363,40.698 387.842,41.519 385.757,41.694C383.643,41.878 382.946,42.702 382.639,46.581C382.623,46.777 382.688,46.901 382.812,47.224L382.813,47.226C383.26,48.064 382.689,48.896 382.748,49.844C382.813,50.903 383.464,52.14 383.802,53.128C384.002,53.716 383.989,53.884 384.654,53.982C385.241,54.069 385.883,53.957 386.428,53.786C387.478,53.457 388.717,53.199 389.5,52.409C390.352,51.551 390.503,50.283 390.749,49.185C391.161,47.361 392.286,44.284 391.354,42.551Z" style="fill:rgb(251,188,157);fill-rule:nonzero;"/>
            </g>
            <g transform="matrix(1.61836,0,0,1.61836,303.274,1576.78)">
                <path d="M382.604,43.374C383.996,39.692 387.334,39.596 388.934,39.695C390.769,39.803 392.409,41.357 393.181,42.928C394.025,44.654 393.558,46.526 392.527,48.045C392.26,48.443 391.944,48.83 391.64,49.201C391.431,49.455 390.534,50.283 390.434,50.597C390.316,49.075 391.249,47.25 388.955,45.497C388.445,45.704 387.599,47.809 387.758,48.299C387.921,48.798 384.013,43.976 383.56,44.239C382.941,44.596 382.877,45.385 382.815,45.428C382.559,45.139 382.483,43.691 382.604,43.374Z" style="fill:rgb(53,44,44);fill-rule:nonzero;"/>
            </g>
            <g transform="matrix(1.61836,0,0,1.61836,303.274,1576.78)">
                <path d="M390.213,48.723C390.213,48.723 390.624,47.246 391.117,47.963C391.607,48.682 391.125,49.447 391.117,49.604C391.109,49.761 390.775,51.038 390.213,51.038L390.213,48.723Z" style="fill:rgb(251,188,157);fill-rule:nonzero;"/>
            </g>
            <g transform="matrix(1.61836,0,0,1.61836,302.654,1574.38)">
                <path d="M394.592,74.647C393.275,75.239 396.039,83.222 394.449,87.069C394.314,87.394 395.296,90.464 395.89,89.713C396.475,88.972 396.576,90.277 397.144,85.34C398.008,77.786 399.366,72.502 394.592,74.647Z" style="fill:rgb(251,188,157);fill-rule:nonzero;"/>
            </g>
            <g transform="matrix(1.61836,0,0,1.61836,302.654,1574.38)">
                <path d="M396.475,65.054C396.475,65.054 397.899,75.871 397.958,76.743C398.059,78.257 397.401,82.976 397.384,83.312C397.367,83.649 395.283,73.269 395.283,73.269L396.475,65.054Z" style="fill:rgb(251,188,157);fill-rule:nonzero;"/>
            </g>
            <g transform="matrix(1.61836,0,0,1.61836,302.654,1574.38)">
                <path d="M374.088,79.748C374.578,79.178 375.353,78.425 375.759,77.762C375.958,77.447 376.325,77.077 376.612,76.902C377.88,76.127 377.818,79.406 377.818,79.518C377.807,80.182 377.726,80.606 377.476,81.212C377.154,81.996 376.766,82.68 376.477,83.44C376.397,83.994 376.277,84.537 376.009,85.045C375.887,85.284 375.69,85.603 375.42,85.494C375.267,85.431 375.234,85.277 375.25,85.093C375.243,85.108 375.233,85.126 375.23,85.144C375.116,85.772 373.277,83.457 373.469,82.416C373.487,82.142 373.457,81.931 373.44,81.627C373.405,80.846 373.614,80.298 374.088,79.748Z" style="fill:rgb(251,188,157);fill-rule:nonzero;"/>
            </g>
        </g>
    </g>
</svg>
