<?xml version="1.0" encoding="UTF-8" standalone="no"?>
<!DOCTYPE svg PUBLIC "-//W3C//DTD SVG 1.1//EN" "http://www.w3.org/Graphics/SVG/1.1/DTD/svg11.dtd">
<svg width="100%" height="100%" viewBox="0 0 136 102" version="1.1" xmlns="http://www.w3.org/2000/svg" xmlns:xlink="http://www.w3.org/1999/xlink" xml:space="preserve" xmlns:serif="http://www.serif.com/" style="fill-rule:evenodd;clip-rule:evenodd;stroke-linejoin:round;stroke-miterlimit:2;">
    <g transform="matrix(1,0,0,1,-4432.84,-6525.83)">
        <g transform="matrix(1.67611,0,0,1,235.771,4035.65)">
            <g transform="matrix(0.766437,0,0,0.766437,749.203,916.321)">
                <g transform="matrix(0.964627,0,0,1.61682,2064.16,1634.69)">
                    <path d="M342.722,309.248L288.267,340.688L253.037,320.348L253.037,319.418L342.722,308.318L342.722,309.248Z" style="fill:rgb(71,72,159);fill-rule:nonzero;"/>
                </g>
                <g transform="matrix(0.964627,0,0,1.61682,2064.16,1634.69)">
                    <path d="M342.722,308.318L288.267,339.758L253.037,319.418L307.493,287.978L342.722,308.318Z" style="fill:rgb(102,103,175);fill-rule:nonzero;"/>
                </g>
                <g transform="matrix(0.964627,0,0,1.61682,2064.16,1634.69)">
                    <path d="M277.613,320.524C273.496,320.524 268.982,320.087 264.706,318.776C262.304,318.039 260.122,317.258 258.2,316.437L261.463,314.553L292.25,296.778C305.988,299.972 294.889,308.191 294.889,308.191L292.497,318.776C292.497,318.776 285.848,320.524 277.613,320.524Z" style="fill:rgb(90,84,157);fill-rule:nonzero;"/>
                </g>
                <g transform="matrix(0.964627,0,0,1.61682,2064.16,1634.69)">
                    <path d="M309.168,287.643C309.844,287.642 316.238,274.259 316.788,273.392C317.151,272.82 317.597,272.307 318.022,271.78C319.214,270.299 320.246,268.689 321.094,266.988C321.216,266.742 321.338,266.463 321.255,266.201C321.173,265.939 320.775,265.789 320.62,266.015C320.896,265.096 321.173,264.178 321.45,263.259C321.545,262.942 321.569,262.484 321.25,262.397C320.955,262.318 320.738,262.664 320.63,262.95C320.261,263.929 319.893,264.908 319.524,265.886C319.676,264.636 319.829,263.386 319.982,262.136C320.03,261.74 320.001,261.215 319.619,261.102C319.43,261.046 319.222,261.128 319.079,261.262C318.814,261.514 318.747,261.905 318.695,262.266C318.558,263.218 318.42,264.17 318.283,265.121C318.306,264.245 318.33,263.37 318.354,262.494C318.362,262.22 318.364,261.927 318.217,261.697C317.908,261.21 317.511,261.559 317.425,261.972C317.379,262.194 317.331,262.415 317.284,262.636C317.19,263.079 317.096,263.522 317.002,263.965C316.908,264.408 316.814,264.85 316.719,265.293C316.672,265.514 316.625,265.736 316.578,265.957C316.544,266.117 316.432,266.379 316.455,266.538C316.341,265.825 316.228,265.111 316.114,264.398C316.079,264.177 316.039,263.946 315.901,263.771C315.502,263.268 315.195,263.916 315.117,264.279C315.022,264.722 315.069,265.178 315.065,265.627C315.059,266.331 315.075,267.045 314.902,267.733C314.682,268.606 314.081,271.951 313.902,272.761C313.75,273.446 308.449,279.579 308.449,279.579C308.449,279.579 306.912,276.254 305.516,274.912C304.733,274.16 303.474,273.633 302.592,274.265C302.011,274.683 301.818,275.46 301.784,276.175C301.739,277.12 301.904,278.074 302.254,278.952C302.618,279.863 307.604,287.645 309.168,287.643Z" style="fill:rgb(251,189,158);fill-rule:nonzero;"/>
                </g>
                <g transform="matrix(0.964627,0,0,1.61682,2064.16,1634.69)">
                    <path d="M279.376,307.48C278.446,307.106 277.691,306.918 277.039,307.84C276.841,308.12 276.711,308.455 276.451,308.678C275.125,309.815 268.612,308.038 268.196,309.96C268.127,310.279 268.27,310.606 268.441,310.885C271.493,315.866 275.975,313.9 279.474,314.945C281.662,315.599 282.372,315.491 282.561,313.372C282.788,310.831 285.174,309.808 279.376,307.48Z" style="fill:rgb(251,189,158);fill-rule:nonzero;"/>
                </g>
                <g transform="matrix(0.964627,0,0,1.61682,2064.16,1634.69)">
                    <path d="M281.751,305.114C281.837,305.427 284.785,307.82 286.129,307.315C287.667,306.737 289.691,300.839 295.646,297.373C298.725,295.582 297.117,288.786 294.597,286.133C293.496,284.973 291.99,284.827 291.068,286.12C290.318,287.171 289.741,289.245 289.217,290.424C288.161,292.796 281.663,304.793 281.751,305.114Z" style="fill:rgb(32,25,31);fill-rule:nonzero;"/>
                </g>
                <g transform="matrix(0.964627,0,0,1.61682,2064.16,1634.69)">
                    <path d="M304.97,299.096C303.209,301.101 294.196,303.123 291.595,303.721L291.114,305.725C291.114,305.725 288.135,304.256 280.894,302.316C281.73,301.873 282.741,301.208 284.015,300.529L286.772,295.255C282.832,295.802 274.35,296.985 271.418,297.441C269.245,297.779 265.962,297.509 265.977,300.842C265.99,303.818 267.717,305.271 270.417,306.563C275.102,308.804 279.319,311.682 283.694,314.576C286.245,316.262 288.894,317.989 291.911,318.494C294.498,318.926 297.235,318.39 299.468,317.013C300.113,316.615 300.717,316.15 301.385,315.791C302.112,315.401 302.905,315.141 303.619,314.728C305.821,313.456 306.997,310.846 307.121,308.306C307.245,305.766 305.904,301.462 304.97,299.096Z" style="fill:rgb(43,34,40);fill-rule:nonzero;"/>
                </g>
                <g transform="matrix(0.964627,0,0,1.61682,2064.16,1634.69)">
                    <path d="M305.697,286.197C305.673,283.71 306.92,277.233 305.061,274.975C304.716,274.555 303.474,273.751 301.946,274.503C299.268,275.822 291.483,280.639 290.539,281.243C290.159,281.486 289.771,281.737 289.5,282.098C288.848,282.968 289.055,284.189 289.339,285.238C290.044,287.836 291.045,290.37 291.389,293.04C291.49,293.823 291.533,294.611 291.576,295.399C291.73,298.203 291.674,300.915 291.595,303.721C291.481,307.761 305.341,305.156 305.344,300.09C305.346,297.26 305.722,288.844 305.697,286.197Z" style="fill:rgb(255,252,245);fill-rule:nonzero;"/>
                </g>
                <g transform="matrix(0.964627,0,0,1.61682,2064.16,1634.69)">
                    <path d="M289.5,282.098C288,282.699 283.505,293.765 283.238,293.905C282.978,294.042 268.248,292.811 267.709,292.357C266.956,291.604 264.341,291.153 262.914,290.921C262.57,290.865 262.261,290.693 262.039,290.424C261.786,290.119 261.359,289.643 260.682,289.007C259.889,288.261 259.418,289.028 260.547,290.313C259.056,288.615 257.367,288.584 257.756,289.187C255.974,288.963 258.019,290.333 259.276,291.822C258.782,291.699 258.288,291.577 257.795,291.455C257.609,291.409 257.415,291.363 257.232,291.414C257.049,291.466 256.889,291.651 256.936,291.835C256.97,291.971 257.097,292.058 257.217,292.129C257.756,292.448 258.336,292.694 258.88,292.997C260.31,293.794 261.846,294.382 263.467,294.608C265.17,294.847 266.84,295.094 268.549,295.255C270.354,295.426 280.377,299.623 284.996,299.827C286.486,299.893 291.022,290.971 292.25,289.47C294.864,286.278 292.908,280.733 289.5,282.098Z" style="fill:rgb(251,189,158);fill-rule:nonzero;"/>
                </g>
                <g transform="matrix(0.964627,0,0,1.61682,2064.16,1634.69)">
                    <path d="M294.173,264.017C293.034,265.145 292.418,266.781 292.53,268.38C292.543,268.562 292.563,268.753 292.49,268.919C292.383,269.162 292.115,269.28 291.886,269.415C291.658,269.55 291.427,269.779 291.481,270.039C291.522,270.236 291.712,270.362 291.816,270.534C291.913,270.693 291.933,270.886 291.951,271.071C292.024,271.842 292.098,272.617 292.052,273.389C292.037,273.633 292.012,273.884 292.084,274.118C292.282,274.763 293.071,274.962 293.712,275.175C294.058,275.29 294.197,275.395 294.354,275.826C295.134,277.964 294.653,278.531 294.493,279.11C293.994,280.919 302.366,279.3 301.35,276.857C301.22,276.544 300.692,275.443 301.319,274.632C302.087,273.638 304.109,273.678 304.143,269.262C304.2,261.655 297.121,261.095 294.173,264.017Z" style="fill:rgb(251,188,157);fill-rule:nonzero;"/>
                </g>
                <g transform="matrix(0.964627,0,0,1.61682,2064.16,1634.69)">
                    <path d="M295.184,271.55C295.116,271.94 295.422,272.758 296.135,272.66C296.644,272.59 296.794,271.94 296.977,271.276C297.453,270.233 298.514,270.471 298.935,271.132C299.566,272.124 299.081,273.271 297.819,274.562C297.84,276.463 304.754,276.734 305.337,268.257C305.557,265.062 304.395,262.689 302.306,261.343C301.183,260.62 299.83,260.31 298.495,260.335C293.533,260.426 291.832,264.408 292.335,266.432C292.444,266.873 292.763,267.225 293.179,267.407C294.303,267.899 295.777,268.138 295.184,271.55Z" style="fill:rgb(53,44,44);fill-rule:nonzero;"/>
                </g>
                <g transform="matrix(0.964627,0,0,1.61682,2064.16,1634.69)">
                    <path d="M302.876,261.774C301.988,261.572 301.059,262.328 300.8,263.463C300.542,264.599 301.051,265.684 301.939,265.886C302.826,266.088 303.755,265.331 304.014,264.196C304.273,263.06 303.763,261.975 302.876,261.774Z" style="fill:rgb(255,252,245);fill-rule:nonzero;"/>
                </g>
                <g transform="matrix(0.964627,0,0,1.61682,2064.16,1634.69)">
                    <path d="M310.665,264.303C310.822,259.865 302.378,257.525 301.46,265.439C300.835,270.832 304.935,275.912 311.137,276.011C311.416,276.015 311.534,275.668 311.309,275.504C309.491,274.181 308.874,271.415 309.311,269.226C309.688,267.332 310.597,266.233 310.665,264.303Z" style="fill:rgb(53,44,44);fill-rule:nonzero;"/>
                </g>
            </g>
            <g transform="matrix(1,0,0,1,321.754,353.378)">
                <g transform="matrix(0.121624,-0.117696,0.0682227,0.198058,1543.92,2287.21)">
                    <path d="M4241.2,1805.58C4250.6,1799.6 4263.96,1795.92 4278.77,1795.92C4293.42,1795.92 4306.66,1799.52 4316.05,1805.37L4316.05,1847.62C4306.66,1853.47 4293.42,1857.08 4278.77,1857.08C4263.96,1857.08 4250.6,1853.39 4241.2,1847.41L4241.2,1805.58Z" style="fill:white;"/>
                </g>
                <g transform="matrix(0.423691,-0.410008,0.244618,0.710154,-21.0788,2360.96)">
                    <path d="M4032.72,2025.11L4032.72,2036.78C4030.2,2035.27 4028.65,2033.21 4028.65,2030.94C4028.65,2028.68 4030.2,2026.62 4032.72,2025.11Z" style="fill:rgb(221,165,151);"/>
                </g>
                <g transform="matrix(0.423691,-0.410008,0.244618,0.710154,-8.45604,2348.74)">
                    <path d="M4024.41,2025.05C4026.99,2026.57 4028.57,2028.65 4028.57,2030.94C4028.57,2033.24 4026.99,2035.32 4024.41,2036.83L4024.41,2025.05Z" style="fill:rgb(221,165,151);"/>
                </g>
            </g>
        </g>
    </g>
</svg>
